<svg version="1.1" id="Layer_1" xmlns="http://www.w3.org/2000/svg" xmlns:xlink="http://www.w3.org/1999/xlink" x="0px" y="0px"
	 width="100%" viewBox="0 0 480 464" enable-background="new 0 0 480 464" xml:space="preserve">
<path fill="#000000" opacity="1.000000" stroke="none" 
	d="
M146.467941,465.000000 
	C139.632217,462.324982 133.950684,457.215179 126.142990,459.701660 
	C124.407867,460.254211 122.514160,459.831085 120.651093,457.951630 
	C124.073914,451.642151 119.164536,444.061188 122.886551,437.738312 
	C127.429298,430.021149 121.870621,421.675507 125.278564,414.051666 
	C125.925484,412.604401 124.420761,411.656189 123.393066,410.845001 
	C115.214195,404.388947 106.474350,399.070496 95.991066,397.210266 
	C93.000679,396.679626 90.172691,395.602325 88.195633,393.117249 
	C85.148132,389.286713 81.560303,389.986542 77.397423,391.069733 
	C68.747627,393.320526 59.950474,395.006165 51.209957,396.905975 
	C49.628159,397.249756 48.086220,396.938538 47.153500,395.601898 
	C43.870438,390.897186 41.050026,385.984314 41.982136,379.890167 
	C42.878605,374.028992 46.981907,370.545532 53.721405,370.698730 
	C60.024635,370.841980 66.336014,370.427979 72.652206,371.599457 
	C80.349945,373.027130 81.165871,372.265991 84.157166,364.661591 
	C88.023605,354.832489 94.187035,350.751923 104.924072,350.897095 
	C106.742859,350.921692 108.562256,350.900543 110.891579,350.900543 
	C110.891579,347.930969 110.710068,344.790558 110.932594,341.678986 
	C111.299477,336.548859 113.824425,333.009918 118.963417,331.472351 
	C122.908211,330.292114 129.760498,331.967346 132.410431,334.892883 
	C133.675766,336.289764 133.909927,337.818512 133.405411,339.523712 
	C132.744690,341.756714 132.083893,343.992523 131.324356,346.193024 
	C128.131363,355.443726 128.886658,364.038788 134.698898,372.246033 
	C137.352646,375.993225 137.749756,380.461884 136.618301,385.177032 
	C135.095840,391.521545 142.861435,399.732056 149.207886,400.716888 
	C155.614059,401.711029 161.701294,402.322723 168.273422,401.959747 
	C172.183167,401.743835 176.050690,402.286194 179.905731,400.720673 
	C181.389786,400.118011 183.315613,399.632355 184.743484,400.067322 
	C187.587509,400.933685 189.602203,399.831726 191.613205,398.274353 
	C199.902771,391.854675 208.297577,385.597473 215.785843,378.162811 
	C218.243591,375.722626 218.766617,372.709320 220.408020,370.092529 
	C223.748230,364.767517 229.183350,361.513580 233.191467,356.841461 
	C235.780487,353.823547 238.843430,351.206909 241.741776,348.460876 
	C246.928497,343.546753 250.454514,338.061951 248.855453,330.414886 
	C248.205750,327.307922 249.288620,324.645081 251.634567,322.297821 
	C254.510345,319.420410 255.310287,315.844696 254.624222,311.715881 
	C253.041229,302.189178 251.102753,292.749237 248.891571,283.349365 
	C247.868042,278.998322 246.091629,276.896088 241.111618,277.058655 
	C227.650497,277.497986 227.644760,277.264832 230.515701,290.308258 
	C230.837738,291.771332 231.044250,293.264130 231.438980,294.706268 
	C236.674789,313.835052 219.226700,322.174896 204.828049,318.858063 
	C195.457718,316.699524 189.792191,310.378143 185.779373,301.938599 
	C181.194168,292.295258 179.832443,282.173187 180.816544,271.769440 
	C181.283005,266.837830 179.344574,264.405060 175.188095,262.660461 
	C167.751251,259.539032 161.104004,255.141586 155.238998,249.590759 
	C150.900543,245.484680 148.367813,240.686722 149.531189,234.489532 
	C150.366211,230.041473 153.170883,228.004822 157.554550,227.746170 
	C163.898987,227.371826 169.696442,229.442932 175.466248,231.647064 
	C179.937469,233.355103 184.417358,234.855759 189.302475,233.596802 
	C189.701035,230.423599 187.365509,229.092773 185.975861,227.435837 
	C177.749756,217.627457 174.808533,205.650925 171.865906,193.676132 
	C171.451797,191.990997 171.137222,190.764908 169.384308,189.785492 
	C162.467819,185.920944 162.050018,182.752609 167.329346,177.095383 
	C168.108521,176.260437 168.752563,175.299423 169.662079,174.137436 
	C166.937012,171.117355 164.223923,168.246262 161.661682,165.246323 
	C152.822556,154.897308 150.167801,142.969543 153.096756,129.814301 
	C153.739731,126.926376 153.880661,124.331787 152.851440,121.538673 
	C151.367386,117.511314 150.923508,113.175926 152.855118,109.332672 
	C156.168015,102.741096 154.141495,95.982391 154.786301,89.027710 
	C150.699799,88.919212 149.134293,90.925529 149.143967,94.152855 
	C149.158829,99.120659 147.341171,103.387733 145.553375,107.944199 
	C143.696350,112.677124 143.459335,118.218361 143.368958,123.420975 
	C143.286240,128.181091 142.393097,132.869049 143.024017,137.757355 
	C143.629578,142.449066 140.375870,146.570023 138.034912,150.480347 
	C136.370407,153.260742 131.996750,152.562485 130.597504,149.547684 
	C127.565842,143.015656 123.512032,136.534256 128.846085,129.158157 
	C130.011078,127.547157 129.829987,125.329643 129.382172,123.316757 
	C129.165924,122.344666 128.527328,121.174072 128.848907,120.422287 
	C130.924973,115.568832 129.202316,110.267639 130.189301,105.714012 
	C131.820160,98.189743 132.741669,90.310005 136.135300,83.159782 
	C138.053085,79.119125 141.366241,76.856224 145.092880,74.850784 
	C149.727737,72.356606 150.078583,70.145218 146.632523,66.327621 
	C145.516525,65.091316 144.331879,63.912781 143.272415,62.630356 
	C138.099594,56.368893 138.110825,56.359615 131.502106,60.965321 
	C127.710083,63.608036 119.711693,62.881989 116.489182,59.427910 
	C115.042229,57.876980 113.082108,57.394367 111.400574,56.353748 
	C109.024620,54.883385 107.924576,52.671677 107.995865,50.073349 
	C108.072044,47.297050 110.380959,46.453411 112.625771,45.515919 
	C119.181328,42.778149 125.648819,42.299061 132.268906,45.334145 
	C135.518158,46.823807 138.935974,47.059341 142.522812,46.208778 
	C146.113052,45.357410 149.361176,46.611820 152.423584,48.606365 
	C157.160736,51.691673 161.250916,55.755245 166.524429,58.015388 
	C168.127197,58.702312 169.846603,60.114124 171.553741,58.384296 
	C173.002899,56.915871 172.098999,55.228035 171.486237,53.707642 
	C168.634476,46.631760 168.383102,40.370781 175.249069,34.973717 
	C178.494034,32.422970 178.591888,27.714554 178.496353,23.838711 
	C178.434830,21.342995 178.587051,18.928509 178.779572,16.470932 
	C179.117081,12.162644 180.564835,8.467063 185.096481,7.307205 
	C191.524460,5.661992 194.282089,6.952614 197.500778,12.352562 
	C201.487457,19.040913 200.433838,24.782255 193.852692,29.329002 
	C191.715103,30.805815 191.046967,32.276276 191.119781,34.629379 
	C191.165253,36.099239 190.823563,37.592007 190.562347,39.057877 
	C190.165573,41.284542 187.230270,43.039036 188.644165,45.458622 
	C190.986237,49.466534 193.741241,53.245201 196.497223,56.991741 
	C197.311935,58.099277 198.826935,57.738148 199.570251,56.736031 
	C202.814011,52.362892 209.049271,50.322155 209.259323,43.490940 
	C209.348175,40.601273 212.363602,38.922535 214.281265,36.861404 
	C218.053146,32.807384 218.040970,31.208363 214.178329,27.432110 
	C212.360474,25.654947 212.978775,23.454081 212.750137,21.342979 
	C212.298325,17.171497 213.965881,13.447714 215.336288,9.799319 
	C217.241867,4.726120 222.422272,4.324318 225.832794,8.566976 
	C227.072021,10.108572 228.527603,11.478791 229.736908,13.041404 
	C232.583099,16.719137 234.099564,19.953072 233.077484,25.538559 
	C231.979904,31.536570 230.735657,37.709484 229.653610,44.738426 
	C238.498764,43.661697 243.942337,48.080936 246.868912,55.362339 
	C249.821518,55.118732 250.918869,53.393566 251.203857,51.680527 
	C252.833817,41.882957 259.947144,33.743340 259.368835,23.177652 
	C259.170868,19.560591 260.958679,15.774555 262.127655,12.158959 
	C263.447083,8.077937 272.318329,4.251891 276.453979,5.772830 
	C280.263275,7.173745 281.869019,12.510631 280.202576,17.812231 
	C279.127106,21.233824 278.302307,24.521624 276.202850,27.760540 
	C271.389343,35.186466 270.783722,44.259964 268.416504,52.647022 
	C268.316589,53.001019 268.794434,53.518105 269.028351,54.012527 
	C271.522522,54.658581 273.007935,52.910469 273.847321,51.319828 
	C276.231293,46.802158 280.205017,44.095406 284.249146,41.491688 
	C290.223297,37.645355 291.733521,31.752424 291.103271,25.450705 
	C290.628265,20.701147 292.162659,17.753477 296.025574,15.569754 
	C297.034088,14.999638 298.170349,14.611930 299.080017,13.919756 
	C300.828827,12.589044 300.922089,8.191212 304.351105,10.198916 
	C307.743500,12.185155 310.767273,15.012937 311.224670,19.468218 
	C311.701050,24.108177 310.072388,27.945595 306.869019,31.211468 
	C303.991913,34.144714 302.104431,37.416538 302.058411,41.761948 
	C302.013123,46.037598 299.495514,49.121433 296.255432,51.771488 
	C294.286621,53.381744 291.809631,54.807060 291.620819,57.958111 
	C292.196503,58.218109 292.825378,58.698849 293.020264,58.561920 
	C302.560577,51.858795 313.946899,47.373348 317.486023,34.133202 
	C318.972473,28.572254 317.439636,24.099327 316.174805,19.370806 
	C315.221771,15.807802 315.420532,13.180874 318.420349,11.049180 
	C320.072784,9.874937 321.366028,8.551326 322.396759,6.728004 
	C323.786987,4.268683 326.232727,3.669883 328.918549,4.576426 
	C332.858795,5.906361 338.157532,14.070773 337.189362,18.036024 
	C334.847351,27.628174 335.793365,37.834400 331.167725,47.055885 
	C329.350555,50.678520 328.066345,54.481880 324.548157,56.728226 
	C321.508057,58.669331 320.300568,61.618145 318.718567,65.285820 
	C331.081635,63.897705 334.899261,70.909416 334.571960,82.722130 
	C340.093750,78.838219 344.658112,75.974739 348.788361,72.582726 
	C351.001404,70.765274 352.985596,68.721504 355.825134,68.084274 
	C360.530548,67.028320 362.320831,63.700699 362.625641,59.413139 
	C362.863708,56.064514 364.150665,54.019855 367.640747,53.807095 
	C369.269501,53.707802 370.405273,52.754063 371.565796,51.805954 
	C373.570709,50.168060 375.743958,49.692402 378.025543,51.096634 
	C380.423828,52.572659 380.509766,54.997707 379.913361,57.314297 
	C379.335144,59.560165 378.476471,61.552952 379.605713,63.993263 
	C380.369171,65.643097 379.201080,67.382683 377.618256,68.142242 
	C373.313416,70.208031 370.788818,73.892975 368.577759,77.806496 
	C366.816620,80.923683 363.197266,82.167259 361.057373,85.598015 
	C364.859467,86.543480 368.222778,85.307083 370.604980,83.682678 
	C376.902222,79.388680 384.480621,78.199303 390.952789,74.434807 
	C392.953186,73.271255 394.997742,72.484650 396.588196,70.578384 
	C399.404205,67.203148 403.258728,66.399200 407.455139,67.468605 
	C408.895233,67.835579 410.225098,68.440750 411.802155,68.374062 
	C414.247101,68.270676 416.441956,68.819252 417.305054,71.616753 
	C418.165894,74.406960 417.818298,76.936958 415.701477,78.989807 
	C411.330048,83.229149 407.324585,87.640083 400.157867,87.483818 
	C396.618103,87.406647 392.717072,89.241196 389.963776,92.218742 
	C386.827423,95.610558 381.961182,96.418961 378.334564,99.966087 
	C387.851349,98.821228 391.636078,107.586258 398.582764,110.743484 
	C402.711914,112.620148 404.549347,117.322212 404.297913,122.217415 
	C404.132294,125.442680 404.251801,128.434052 406.885651,130.926437 
	C408.410736,132.369614 408.623383,134.559555 407.839447,136.554459 
	C406.228180,140.654846 405.957794,145.099579 404.196747,149.206833 
	C402.834930,152.382980 400.742126,154.169235 397.626770,154.556229 
	C394.662262,154.924484 393.023376,152.796494 391.303619,150.526978 
	C385.622772,143.030014 386.594513,134.448029 386.935211,125.992546 
	C387.089661,122.159897 385.888428,118.878258 382.304504,118.163910 
	C378.471344,117.399895 375.476593,120.244911 374.545044,123.807243 
	C373.146881,129.153961 370.932343,134.626236 372.563446,140.259399 
	C374.035889,145.344727 370.634735,148.696472 368.630859,152.813538 
	C372.344910,155.213470 375.664581,157.507156 380.276001,156.151398 
	C384.097748,155.027817 387.467346,156.911270 390.755493,158.489258 
	C399.441437,162.657669 403.386505,161.733536 409.204224,154.150803 
	C410.344788,152.664200 411.187897,150.085312 413.618042,150.837448 
	C415.826294,151.520920 416.021210,154.172409 415.915894,155.976044 
	C415.301971,166.490677 413.754608,176.473999 403.090240,182.392822 
	C397.095306,185.720093 390.955933,186.028625 384.743378,184.809418 
	C380.165588,183.911041 379.086609,185.447098 379.051239,189.509003 
	C378.976654,198.069138 379.687439,206.231827 383.912292,214.142517 
	C386.653931,219.276047 388.712097,225.199387 388.526337,231.048447 
	C386.921295,231.960312 386.087433,231.661057 385.532837,231.041458 
	C380.379181,225.283401 373.561218,222.280273 366.734985,219.079926 
	C358.519562,215.228256 350.724640,210.611282 349.273926,199.840469 
	C346.117615,204.989365 343.061188,209.604691 338.678711,213.252304 
	C334.314209,216.884949 328.774506,217.802429 323.346558,220.374115 
	C324.494781,220.871429 325.170471,221.209183 325.876282,221.463196 
	C342.506226,227.447601 338.437744,241.075317 329.127777,248.931534 
	C314.010498,261.688232 295.590820,267.694489 276.717102,272.293396 
	C269.349518,274.088623 269.036133,273.887146 269.389801,281.407684 
	C269.796143,290.049500 270.670868,298.668518 271.259583,307.303101 
	C271.401489,309.384247 272.244324,310.805695 274.201508,311.470367 
	C280.348236,313.557770 282.042328,318.754242 282.960236,324.316559 
	C283.321503,326.505524 283.536377,328.548615 285.276215,330.151276 
	C292.971008,337.239410 295.554169,346.664551 297.154694,356.495605 
	C300.289581,375.751343 300.563660,395.259094 302.094635,414.653778 
	C302.796448,423.544220 300.601135,426.003937 291.746613,426.871948 
	C279.332123,428.088898 266.883484,429.370392 254.402679,427.487762 
	C252.368317,427.180908 250.493515,427.617126 248.568573,428.361847 
	C238.796249,432.142334 229.002441,435.870117 219.169815,439.490479 
	C215.283676,440.921356 211.363907,442.908447 207.108261,442.186310 
	C202.392197,441.386078 200.579315,443.859558 200.151627,447.762085 
	C199.894806,450.105499 199.294296,451.013306 196.844894,451.718353 
	C193.552460,452.666046 190.492416,454.576447 187.488098,456.338654 
	C180.345047,460.528503 171.896469,460.990479 164.274475,464.776672 
	C158.311966,465.000000 152.623917,465.000000 146.467941,465.000000 
M182.293091,444.173401 
	C177.660660,446.091370 173.028244,448.009338 168.338211,449.951141 
	C176.565567,453.898529 177.429504,453.630951 181.586746,446.016663 
	C181.977341,445.301270 182.529053,444.673828 183.885071,443.902710 
	C186.493088,443.719177 189.135406,443.733032 191.697998,443.288025 
	C193.653839,442.948395 195.132767,441.553589 194.131760,439.393494 
	C193.294708,437.587158 191.495316,437.492401 189.946060,438.600769 
	C187.563004,440.305695 185.306320,442.187286 182.293091,444.173401 
M155.127289,134.932892 
	C153.885620,149.004929 158.584305,160.455276 170.155304,169.655548 
	C170.629745,167.855240 170.934616,166.762695 171.205185,165.661713 
	C174.047348,154.096619 180.670853,145.783554 191.745941,140.960220 
	C200.782043,137.024857 207.797943,138.061371 215.108871,144.687607 
	C216.873672,146.287125 218.176682,148.595322 220.916855,149.468292 
	C222.217926,147.787796 223.411591,146.215836 224.636551,144.668640 
	C234.196503,132.593933 250.191895,129.857773 262.856537,138.424118 
	C272.108185,144.681900 276.739807,153.888580 278.209167,164.762695 
	C278.713348,168.493881 279.833008,171.766266 282.336487,174.710632 
	C285.285370,178.178864 284.880951,181.376495 280.899200,183.304001 
	C277.460785,184.968475 277.031097,187.357803 277.160156,190.549500 
	C277.653381,202.748703 276.764191,214.711273 273.088318,226.541809 
	C269.286865,238.776489 257.130951,248.694153 241.861694,242.593887 
	C238.431656,241.223541 235.072830,239.758774 232.267532,237.362717 
	C229.516327,235.012863 227.745529,236.126572 226.392670,238.747925 
	C223.883011,243.610733 223.435608,248.846558 223.451920,254.257507 
	C223.462677,257.823639 224.842773,258.745972 228.185669,258.839935 
	C238.052917,259.117310 247.805786,258.101135 257.556610,256.866608 
	C275.656342,254.575012 293.296082,250.597656 309.538239,241.939468 
	C312.906372,240.144012 317.285889,238.531036 315.623535,232.947617 
	C319.211761,232.754349 322.532349,231.807266 324.437714,235.586365 
	C322.991577,237.252991 321.038574,236.175583 319.707733,237.642944 
	C312.843628,245.211136 303.487671,248.759903 294.217041,251.769272 
	C273.207367,258.589294 251.517776,261.846436 229.394943,262.027527 
	C226.906693,262.047882 223.563599,261.925049 224.519714,265.682678 
	C225.318848,268.823334 223.015930,274.058167 229.219177,274.465668 
	C234.391098,274.805481 239.509491,274.275818 244.661911,273.928253 
	C267.828949,272.365417 290.117584,267.384583 311.040802,257.126801 
	C318.521545,253.459320 325.768250,249.316315 330.853058,242.324951 
	C333.434723,238.775269 335.243561,234.910370 333.343353,230.700943 
	C331.303009,226.181213 327.040894,224.544647 322.291138,224.205551 
	C317.865143,223.889557 313.689667,224.889969 309.711090,226.784988 
	C304.562714,229.237198 299.178680,230.906723 293.539307,231.773773 
	C291.261353,232.124008 289.164368,232.125153 288.060791,229.603622 
	C285.545776,223.857346 289.439148,217.874435 295.727936,217.828476 
	C302.890442,217.776138 310.063995,217.981094 317.213531,217.654510 
	C333.679504,216.902374 343.483856,208.741714 347.432556,192.873993 
	C348.186096,189.845932 347.839508,187.111282 346.225983,184.265564 
	C339.301392,172.053024 330.105164,161.780304 319.176361,153.172043 
	C303.265167,140.639328 285.779785,130.662109 266.960236,123.139557 
	C259.678040,120.228722 252.315308,117.706093 244.277267,121.124657 
	C240.584152,122.695328 236.540863,122.429359 232.500381,121.466713 
	C228.315231,120.469597 223.786911,119.191139 219.680176,120.810387 
	C205.670547,126.334251 190.279160,124.244736 176.174683,129.041885 
	C175.834427,129.157623 175.311737,128.736954 174.026932,128.236435 
	C179.478882,124.653877 184.880005,122.944054 190.682693,122.907318 
	C196.042282,122.873383 201.329681,122.697739 206.523544,121.270782 
	C216.889099,118.422966 227.300888,116.870338 238.014877,119.485085 
	C240.763184,120.155807 243.513184,119.421738 245.813080,117.098190 
	C243.098557,115.393051 240.172806,114.745049 237.519562,115.205620 
	C230.665100,116.395470 224.363556,114.968597 217.571091,113.958649 
	C201.248856,111.531776 184.626144,113.588928 168.904785,119.416138 
	C162.151520,121.919273 155.594193,125.268196 155.127289,134.932892 
M229.415909,304.637573 
	C229.405075,302.317749 229.825363,299.896210 229.306305,297.696289 
	C227.397629,289.606842 225.090759,281.612396 223.094803,273.542328 
	C220.175842,261.740295 218.503479,249.575439 223.426285,238.230453 
	C225.791245,232.780212 226.112854,228.778854 223.359085,223.998093 
	C222.534210,222.566025 221.868744,220.995316 221.412308,219.407059 
	C220.252029,215.369659 217.818619,215.260223 214.542786,216.815384 
	C208.524796,219.672333 203.422119,223.939484 199.725647,229.193344 
	C188.948639,244.510880 182.385117,261.529663 183.226807,280.534698 
	C183.736557,292.044312 187.230804,302.875732 195.788727,311.230438 
	C205.776382,320.980927 223.753967,317.731110 229.415909,304.637573 
M273.752197,182.273743 
	C273.465057,181.506271 273.409027,180.418320 272.856018,180.019547 
	C265.010254,174.362244 255.977081,172.450241 246.542252,172.170853 
	C244.357834,172.106155 243.812332,173.907394 244.815765,175.770065 
	C247.408478,180.582870 244.391327,185.808197 246.008896,190.797791 
	C246.487076,192.272858 244.986893,194.587692 244.002319,196.291809 
	C242.543579,198.816650 239.967499,198.117340 237.687378,197.867371 
	C235.417938,197.618561 233.499557,196.247208 234.069992,193.993912 
	C235.213333,189.477432 232.675369,185.367325 233.332016,180.814636 
	C233.755127,177.881134 232.721878,173.818207 230.247421,171.883804 
	C226.647461,169.069550 219.171173,173.682236 219.123123,178.350845 
	C218.988983,191.379486 219.743088,204.377289 223.548813,216.886154 
	C226.230469,225.700378 230.156921,233.911682 239.076050,238.607941 
	C247.074097,242.819275 256.130096,242.540894 262.613647,237.689255 
	C270.110168,232.079620 270.636932,223.354141 272.540863,215.470383 
	C275.098267,204.880646 274.050140,193.941467 273.752197,182.273743 
M177.613083,433.079803 
	C183.461639,431.001923 188.695847,431.458893 194.157822,435.086975 
	C199.885300,438.891388 206.365921,441.116272 213.582321,438.483124 
	C228.127609,433.175812 242.684525,427.917450 256.954651,421.883331 
	C264.868500,418.536957 270.319641,413.423370 271.659332,404.524109 
	C272.325989,400.095428 273.478577,395.736725 274.486664,391.363708 
	C275.132233,388.563080 274.731415,386.199860 271.596863,385.499695 
	C268.782288,384.871033 265.799713,384.671875 264.339050,388.067627 
	C263.550873,389.900024 263.127472,391.893158 262.299011,393.703796 
	C259.530518,399.754456 257.193665,406.385132 250.298325,408.960815 
	C244.074997,411.285461 237.669220,413.312836 231.177185,414.679230 
	C222.820953,416.438019 215.068497,415.574402 209.114441,408.006714 
	C205.519592,403.437622 200.115341,401.403961 194.300964,402.663452 
	C181.651154,405.403564 171.381393,411.541473 166.173325,424.150635 
	C163.195816,431.359406 165.204514,434.290924 172.821487,433.838287 
	C174.147324,433.759491 175.464325,433.531403 177.613083,433.079803 
M177.461807,404.866089 
	C176.325104,405.535614 175.134537,406.793518 173.854736,406.251648 
	C169.036636,404.211731 163.867249,406.540955 159.654419,405.719910 
	C153.456924,404.512146 147.729797,404.884094 141.653809,404.899750 
	C134.149475,404.919098 131.553070,405.526489 128.850723,412.741333 
	C125.767731,420.972473 127.273750,429.179810 129.309738,437.272675 
	C131.353043,445.394684 139.117264,451.003204 147.438644,450.841278 
	C157.949417,450.636780 167.709869,447.254242 177.157761,443.152435 
	C181.049561,441.462799 185.263672,439.552704 187.940628,435.565277 
	C185.326233,433.913696 182.951141,434.261841 180.481262,434.980652 
	C177.771011,435.769440 175.039551,436.580322 172.260071,437.017853 
	C165.191574,438.130585 160.766495,433.622040 162.537460,426.691223 
	C165.115555,416.601776 171.213013,409.142883 180.687057,404.561859 
	C181.665680,404.088715 183.025467,404.154755 183.654831,402.532104 
	C181.447540,402.633850 179.724991,403.492035 177.461807,404.866089 
M135.002563,401.077148 
	C137.936813,400.223480 140.386749,402.331268 143.377823,402.208221 
	C139.002167,399.824982 138.246262,393.148376 131.920135,393.062469 
	C131.340622,390.956818 132.506027,389.197601 133.183258,387.359619 
	C134.939041,382.594543 135.353989,377.880981 132.266510,373.515381 
	C125.846458,364.437622 125.367920,354.723816 128.832153,344.501892 
	C129.312180,343.085510 129.556107,341.585632 130.079742,340.188263 
	C131.081223,337.515717 129.835526,336.088623 127.517288,335.160187 
	C123.600128,333.591431 119.771126,333.094269 116.264023,336.144897 
	C113.632690,338.433746 112.587517,345.476562 114.036316,349.802887 
	C114.628723,351.571930 116.540916,353.030853 115.554634,355.334076 
	C113.093529,355.991913 110.965965,354.743683 108.740334,354.304108 
	C96.852180,351.956055 88.881798,356.618011 86.312569,367.486786 
	C85.447899,371.144684 85.337936,374.145081 90.600716,373.929016 
	C92.329720,373.857971 94.416985,374.398315 95.793465,375.406128 
	C99.630562,378.215485 103.599266,377.442841 107.765076,376.778534 
	C111.975739,376.107086 112.586441,373.687012 111.305244,370.313324 
	C109.711174,366.115784 107.000000,362.896667 102.726479,361.047760 
	C101.136528,360.359833 98.788307,360.186462 98.571465,357.551086 
	C106.212929,357.575195 113.457756,364.196259 114.759102,372.562347 
	C115.206886,375.441071 116.105438,377.887726 117.596809,380.372681 
	C121.628868,387.091034 118.952660,393.182220 111.284134,395.338837 
	C109.613426,395.808685 107.949249,396.301788 104.954346,397.168365 
	C114.378609,399.464294 120.057518,405.686554 126.990700,409.571594 
	C129.655548,406.471710 130.866013,402.923248 135.002563,401.077148 
M189.935211,199.512650 
	C186.106628,199.429031 184.244705,197.110992 185.306290,192.590836 
	C186.372879,188.049332 183.941620,184.046402 185.001511,179.554245 
	C175.247375,181.373734 173.295181,183.980637 174.720078,192.420242 
	C175.912643,199.483749 177.789444,206.390091 180.519165,212.993256 
	C183.455704,220.096756 188.531403,225.771149 193.869431,232.117203 
	C199.882660,223.118622 207.714218,217.137695 216.551727,212.354568 
	C218.042648,211.547638 218.162872,210.309662 218.020493,208.572968 
	C217.396851,200.966476 216.928543,193.339478 216.691299,185.710983 
	C216.386185,175.900146 216.007675,175.443115 206.004990,175.900253 
	C204.510406,175.968552 203.008865,175.913116 201.517303,176.014450 
	C195.982605,176.390518 193.459625,180.683167 195.695251,185.868423 
	C197.544113,190.156616 194.926865,197.176086 189.935211,199.512650 
M220.401062,161.068298 
	C220.231705,163.035309 223.238342,162.904739 222.937485,165.424576 
	C220.961380,167.029999 216.655273,166.054016 215.800156,170.434113 
	C220.083664,170.266144 223.844620,168.886307 227.810165,168.779572 
	C240.171707,168.446777 252.404617,168.853455 264.507416,171.847885 
	C270.045349,173.218063 275.069885,167.823029 274.440826,162.007309 
	C273.821869,156.285095 270.838104,151.820358 267.556152,147.313126 
	C259.859039,136.742340 248.518936,133.796158 236.798813,139.189148 
	C227.524963,143.456497 222.359024,150.579895 220.401062,161.068298 
M209.344055,172.345856 
	C211.526886,168.895569 214.761902,166.019089 216.529602,162.519180 
	C221.145325,153.380417 211.474060,140.737198 201.086807,141.739334 
	C185.453110,143.247620 174.013016,155.780853 173.888504,171.534760 
	C174.652954,172.869965 177.146088,171.225723 177.358627,173.527176 
	C168.699295,181.360962 168.699295,181.360962 168.480743,183.968369 
	C171.878159,182.226120 174.781586,179.728424 178.374023,178.253601 
	C188.079529,174.269165 198.158264,172.602798 209.344055,172.345856 
M224.940170,394.362823 
	C222.435776,396.538269 219.928375,398.710266 217.427948,400.890259 
	C215.502457,402.569092 212.102753,403.606781 212.703247,406.657471 
	C213.382751,410.109619 216.819885,411.064758 219.922089,411.945068 
	C222.360794,412.637085 224.788101,412.955750 227.284225,412.348602 
	C232.118759,411.172668 236.926895,409.865784 241.799591,408.877472 
	C244.742249,408.280640 246.019516,406.762482 246.179657,403.822784 
	C246.594513,396.207642 247.197174,388.602753 247.609772,380.987518 
	C247.682297,379.648773 248.247284,377.933624 246.425415,377.096771 
	C246.060089,377.194733 245.695419,377.205841 245.443222,377.379913 
	C245.040085,377.658203 244.680130,378.017273 244.356369,378.389557 
	C239.383865,384.107178 235.852325,391.550232 227.072250,392.708771 
	C226.504181,392.783722 226.018082,393.479858 224.940170,394.362823 
M168.365570,243.175049 
	C182.951248,251.956940 184.500717,251.669327 190.063583,239.113342 
	C190.170547,238.871902 189.995255,238.505432 189.919083,237.967133 
	C183.871078,237.184067 177.949997,235.631989 172.195023,233.451004 
	C168.605972,232.090851 164.968216,231.019150 161.076050,230.820480 
	C158.018051,230.664398 154.862000,230.224487 153.077209,233.372177 
	C151.172348,236.731628 151.800827,240.199951 153.854706,243.287079 
	C160.446106,253.194550 170.972244,257.338287 181.301178,262.500641 
	C182.289444,259.159760 183.081131,256.483398 184.027725,253.283371 
	C174.612198,250.082581 166.390656,244.615402 157.187454,241.118759 
	C158.019318,236.370941 158.641617,235.760452 163.516357,235.462189 
	C160.888443,240.326523 165.162003,241.024063 168.365570,243.175049 
M267.611084,295.840729 
	C267.369995,292.188721 267.018890,288.540039 266.908661,284.884064 
	C266.593201,274.421478 265.943268,273.841064 255.592865,275.400238 
	C254.935318,275.499268 254.286072,275.652649 253.629181,275.757019 
	C250.899307,276.190582 250.165573,277.485870 250.936676,280.296661 
	C253.398254,289.269684 255.602753,298.290710 256.707733,307.586914 
	C257.294769,312.525940 257.608154,317.701233 260.024689,322.336731 
	C268.787048,318.072235 270.156097,315.732025 268.514801,307.198486 
	C267.846771,303.725159 267.791504,300.256561 267.611084,295.840729 
M246.329880,109.637718 
	C246.000946,106.166534 241.716583,106.995735 239.859756,103.698326 
	C247.481201,104.096268 254.339325,104.181892 261.088654,105.706017 
	C266.265503,106.875038 271.975616,108.816353 276.592499,106.407234 
	C280.835876,104.193031 283.183502,104.780678 286.098755,107.615967 
	C287.456543,108.936485 289.211212,110.092155 290.918579,108.424133 
	C292.583221,106.797859 292.258240,104.548294 290.916656,102.956604 
	C288.574188,100.177521 286.034576,98.006706 281.774628,97.888229 
	C276.448944,97.740112 270.684174,100.836555 265.741791,96.300140 
	C265.140259,95.747978 264.033997,95.901550 263.487488,96.655365 
	C260.570282,100.679062 256.680908,99.026726 252.982605,98.539246 
	C249.871307,98.129128 246.764587,97.459808 243.646439,97.400734 
	C241.349197,97.357216 238.528961,97.917130 238.452103,100.903816 
	C238.369919,104.096939 237.084137,106.998955 236.718353,110.033760 
	C239.022812,112.056793 241.744003,112.213303 244.341797,112.602295 
	C245.984192,112.848228 247.553894,112.626732 246.329880,109.637718 
M286.737244,363.181000 
	C288.531525,358.201691 286.737976,352.938751 287.887360,347.950623 
	C288.636810,344.698273 287.624481,343.005066 284.340485,342.760223 
	C285.951599,338.090057 285.810028,336.683167 283.674011,334.744324 
	C282.058899,333.278351 280.145203,332.554535 278.182648,333.689117 
	C275.062347,335.492889 271.318817,336.899261 271.013977,341.506195 
	C273.442474,342.247192 278.551636,339.262634 276.688110,344.661102 
	C274.958252,349.672180 274.170685,353.461548 277.644806,358.191772 
	C279.743622,361.049438 280.026154,365.340851 276.251587,368.543030 
	C274.560791,369.977417 274.197266,372.744354 276.000580,374.414948 
	C278.272827,376.519928 279.415222,373.793243 280.739777,372.531494 
	C283.296051,370.096375 285.531128,367.422699 286.737244,363.181000 
M229.017075,387.540497 
	C230.304611,383.621887 227.614975,380.971222 225.869064,378.098053 
	C224.164627,375.293152 222.141693,375.450714 219.839127,377.743958 
	C215.960510,381.606934 211.865570,385.251617 207.916290,389.045044 
	C204.250000,392.566650 199.426682,394.751984 196.069138,399.174591 
	C200.295135,400.303375 204.524857,400.434326 208.063644,402.742706 
	C209.801895,403.876526 210.847900,402.481232 211.956253,401.583527 
	C217.500656,397.092926 223.013611,392.563477 229.017075,387.540497 
M98.797913,394.717041 
	C103.217842,395.085510 107.343391,393.552460 111.509079,392.536285 
	C114.695801,391.758942 116.528343,389.181519 116.548401,385.909485 
	C116.565292,383.154602 115.449654,380.110138 112.643021,379.567322 
	C108.594223,378.784271 104.130875,379.210144 100.764145,381.747925 
	C97.133842,384.484314 94.499115,388.526093 89.365051,389.556732 
	C91.435013,393.603394 94.750656,394.052338 98.797913,394.717041 
M276.874481,414.321503 
	C274.355072,418.005676 274.253784,412.809937 272.349121,413.229065 
	C271.370117,415.041565 269.551086,416.767395 272.158630,419.074768 
	C275.215057,421.779419 278.173004,423.921600 281.465759,419.739929 
	C286.468323,423.285217 292.555054,423.803436 294.269226,421.023468 
	C296.435181,417.510834 294.811737,413.965912 289.473083,410.564423 
	C288.555389,411.795715 289.632141,414.104675 287.419617,414.580017 
	C285.441315,414.458252 285.797150,412.140137 284.359802,411.562347 
	C282.804779,412.314728 283.492645,414.923676 281.368439,415.166870 
	C279.110687,414.985687 279.963684,411.899170 277.695923,411.372986 
	C277.474731,412.199402 277.270264,412.963196 276.874481,414.321503 
M127.774590,440.823792 
	C127.293396,439.645020 126.812202,438.466248 125.967651,436.397369 
	C125.652435,438.636322 125.834229,440.084900 125.240936,441.063721 
	C123.164345,444.489655 125.328583,445.696289 127.861290,447.082397 
	C130.458862,448.504059 128.231186,452.499634 131.203384,453.847076 
	C131.486252,453.975281 131.915756,454.068604 132.161926,453.946259 
	C136.188324,451.945099 139.466446,453.152710 142.488724,456.108032 
	C142.898605,456.508820 144.204636,456.476318 144.794113,456.130432 
	C148.139221,454.167480 151.255432,454.444946 154.708817,456.110931 
	C157.916138,457.658264 159.902435,455.923645 161.083588,452.203766 
	C154.429291,452.320862 148.162842,455.376678 142.163742,453.409271 
	C136.115250,451.425659 131.149475,447.337616 127.774590,440.823792 
M48.463596,376.323059 
	C43.257984,379.297058 43.992851,387.736359 49.937805,393.253082 
	C60.015900,387.594208 55.763634,383.184601 48.463596,376.323059 
M263.665771,328.146576 
	C264.195160,329.170746 264.641998,330.248932 265.270233,331.208405 
	C266.832764,333.594788 268.750549,335.247009 271.827118,333.729584 
	C274.880981,332.223358 277.328125,330.086823 275.809235,326.399994 
	C274.600769,323.466766 272.389099,320.864197 268.662689,321.714630 
	C265.772797,322.374146 262.013489,322.793121 263.665771,328.146576 
M143.279526,459.025299 
	C141.599396,459.021057 140.273376,457.269562 138.543747,458.389374 
	C157.149292,463.475006 174.771301,460.795319 191.433640,450.696777 
	C189.018845,451.640381 186.596359,450.545349 184.179535,450.997742 
	C181.406342,451.516815 180.138062,454.383484 177.463882,455.121887 
	C166.539322,458.138336 155.587372,460.814392 143.279526,459.025299 
M290.987183,224.266830 
	C289.652252,229.352036 293.099152,229.368790 296.102051,228.461853 
	C302.456512,226.542679 308.642456,224.065460 314.897522,221.817108 
	C308.529175,221.120377 302.370850,221.089096 296.213165,221.138367 
	C294.219269,221.154327 292.110321,221.139282 290.987183,224.266830 
M330.527863,18.257837 
	C334.474976,18.756413 334.589417,16.390963 333.024628,14.118154 
	C331.047699,11.246688 327.584137,12.072901 324.694580,12.287419 
	C322.189453,12.473401 319.981140,13.611468 319.760223,16.772306 
	C323.098846,18.586891 326.575195,17.149303 330.527863,18.257837 
M355.200958,196.164276 
	C352.185211,198.855423 354.163818,206.677429 359.292267,209.404617 
	C358.153107,204.665588 358.259125,200.298767 355.200958,196.164276 
M186.400925,446.794556 
	C186.104568,446.936310 185.792465,447.053925 185.519577,447.231720 
	C185.410233,447.302979 185.387207,447.506683 185.324890,447.650085 
	C188.931641,447.994324 192.532501,448.734344 197.594009,447.997620 
	C193.430542,444.925018 190.080490,446.846680 186.400925,446.794556 
M158.253448,115.643898 
	C161.185394,115.917755 161.725937,113.021736 164.216675,111.831970 
	C157.457718,110.763885 156.375183,111.444801 158.253448,115.643898 
M126.951065,456.793823 
	C127.860527,456.616699 129.413345,456.474457 128.004364,455.228912 
	C126.458382,453.862244 126.814560,451.846436 125.686012,450.353943 
	C126.720818,452.483368 120.999443,455.242310 126.951065,456.793823 
M295.988281,411.534729 
	C296.246643,412.569214 296.011322,414.012207 298.430450,413.713043 
	C298.487396,411.604858 299.867645,409.318909 296.998413,407.727081 
	C295.265533,408.557465 295.965454,409.825958 295.988281,411.534729 
M359.285553,125.538712 
	C358.059418,125.452248 357.142059,126.021904 357.654236,127.221619 
	C358.395203,128.957199 359.664673,130.255600 361.906372,129.387344 
	C362.367706,127.457809 361.009674,126.675262 359.285553,125.538712 
z"/>
<path fill="#000000" opacity="1.000000" stroke="none" 
	d="
M268.490662,134.449280 
	C263.584869,131.188416 258.632660,130.499832 253.066330,130.456207 
	C245.213074,130.394669 237.590530,132.075058 229.963394,132.399872 
	C221.070923,132.778564 212.396469,133.097153 203.574615,134.779236 
	C197.455276,135.946014 191.067154,135.679550 185.182846,138.365234 
	C183.930176,138.936981 182.324493,139.531998 180.877808,137.360245 
	C187.424362,135.518066 193.193237,132.880096 200.187775,132.071579 
	C211.164093,130.802750 222.226837,130.654922 233.046387,129.172775 
	C241.556274,128.007019 249.903488,128.406570 258.307526,127.981087 
	C260.518280,127.869156 262.884521,128.798080 265.022430,129.645081 
	C272.452423,132.588684 277.243347,138.736664 282.481445,144.367950 
	C276.779541,142.693726 273.700531,137.392090 268.490662,134.449280 
z"/>
</svg>