<svg version="1.1" id="Layer_1" xmlns="http://www.w3.org/2000/svg" xmlns:xlink="http://www.w3.org/1999/xlink" x="0px" y="0px"
	 width="100%" viewBox="0 0 936 1500" enable-background="new 0 0 936 1500" xml:space="preserve">
<path fill="#000000" opacity="1.000000" stroke="none" 
	d="
M410.000000,1501.000000 
	C273.333344,1501.000000 137.166672,1501.000000 1.000000,1501.000000 
	C1.000000,1001.000000 1.000000,501.000000 1.000000,1.000000 
	C313.000000,1.000000 625.000000,1.000000 937.000000,1.000000 
	C937.000000,501.000000 937.000000,1001.000000 937.000000,1501.000000 
	C761.500000,1501.000000 586.000000,1501.000000 410.000000,1501.000000 
M929.449280,355.278412 
	C927.789062,355.185638 926.128906,355.011658 924.468689,355.011597 
	C620.393066,354.999390 316.317444,354.997833 12.241829,355.043427 
	C10.564586,355.043671 8.887442,355.712524 7.049147,356.961761 
	C7.387052,363.566589 7.536108,370.187653 8.102112,376.772858 
	C9.285810,390.544800 10.744585,404.292908 11.982828,418.060455 
	C12.781783,426.943787 13.326642,435.849762 14.097704,444.735809 
	C15.351329,459.183197 16.734663,473.619385 17.989847,488.066650 
	C18.760584,496.937927 19.333662,505.826355 20.103907,514.697693 
	C21.357340,529.134155 22.739466,543.559448 23.989555,557.996216 
	C24.758873,566.880737 25.306868,575.784485 26.091070,584.667603 
	C27.337130,598.782349 28.737028,612.883484 29.994888,626.997253 
	C30.757206,635.550781 31.322567,644.121765 32.068619,652.676819 
	C33.342407,667.283569 34.729969,681.880371 35.989334,696.488220 
	C36.768631,705.527710 37.318176,714.587036 38.115520,723.624756 
	C39.346313,737.575378 40.740654,751.511475 41.988708,765.460632 
	C42.769047,774.182251 43.346386,782.922058 44.124763,791.643860 
	C45.369610,805.592590 46.768082,819.527771 47.981628,833.479126 
	C48.796700,842.849609 49.315559,852.245850 50.126045,861.616760 
	C51.346680,875.730042 52.757912,889.826782 53.988632,903.939209 
	C54.791885,913.149780 55.333511,922.383301 56.144939,931.593079 
	C57.360268,945.387146 58.761013,959.164856 59.983643,972.958374 
	C60.770042,981.830383 61.319511,990.723206 62.079845,999.597717 
	C63.346008,1014.375916 64.722366,1029.144531 66.000923,1043.921753 
	C66.740097,1052.465088 67.299294,1061.024292 68.080597,1069.563477 
	C69.326408,1083.179321 70.763260,1096.777954 71.977997,1110.396484 
	C72.799889,1119.610596 73.251633,1128.858032 74.094826,1138.069824 
	C75.641258,1154.964722 77.421326,1171.838379 78.978676,1188.732300 
	C80.401009,1204.161621 81.718880,1219.601318 82.970901,1235.045532 
	C84.384727,1252.485596 85.607307,1269.941406 87.079628,1287.376343 
	C87.337227,1290.426636 87.247719,1293.835571 91.554253,1295.003784 
	C104.357620,1298.476685 117.058327,1302.326294 129.845291,1305.861572 
	C165.378632,1315.686035 200.954315,1325.357422 236.477509,1335.218018 
	C272.168976,1345.125244 307.832794,1355.132935 343.480499,1365.196777 
	C380.529144,1375.656006 417.567291,1386.153931 454.557251,1396.817871 
	C463.949646,1399.525635 473.055664,1400.686279 482.298401,1396.375244 
	C484.932556,1395.146851 487.961090,1394.770508 490.801056,1393.975952 
	C523.469727,1384.835449 556.140991,1375.704224 588.803162,1366.540771 
	C610.739685,1360.386230 632.655579,1354.157837 654.593811,1348.009399 
	C684.254700,1339.696655 713.925232,1331.418335 743.597107,1323.144775 
	C766.632263,1316.721680 789.674500,1310.324341 812.716064,1303.924316 
	C823.607056,1300.899292 834.519958,1297.950928 845.377014,1294.809204 
	C846.720825,1294.420410 848.506836,1293.253662 848.828552,1292.096924 
	C849.612061,1289.279907 849.747803,1286.264404 849.979736,1283.315918 
	C850.717834,1273.935547 851.293823,1264.541626 852.092896,1255.166748 
	C853.324219,1240.719482 854.728516,1226.286865 855.981873,1211.841431 
	C856.752319,1202.962280 857.308167,1194.064697 858.085144,1185.186157 
	C859.335083,1170.904175 860.713928,1156.633545 861.987915,1142.353516 
	C862.750916,1133.800781 863.372253,1125.235596 864.138855,1116.683350 
	C865.389404,1102.732788 866.765198,1088.793335 867.975037,1074.839355 
	C868.773071,1065.635010 869.299744,1056.407227 870.078247,1047.201050 
	C871.328003,1032.420776 872.710449,1017.651978 873.988586,1002.874146 
	C874.728210,994.322937 875.310913,985.758057 876.074951,977.209229 
	C877.335083,963.110657 878.710571,949.022339 879.983276,934.924866 
	C880.428589,929.992126 880.645874,925.038879 881.085205,920.105530 
	C882.356384,905.832275 883.734497,891.568481 884.977905,877.292908 
	C885.765320,868.252747 886.294128,859.189758 887.104858,850.151978 
	C888.325623,836.541565 889.778748,822.951721 890.966125,809.338623 
	C891.798401,799.797607 892.189209,790.217163 893.066772,780.681030 
	C894.590820,764.119080 896.422852,747.585632 897.968811,731.025635 
	C899.409180,715.596924 900.640015,700.148621 901.972473,684.709778 
	C903.304932,669.270935 904.641113,653.832458 905.989990,638.395020 
	C907.310852,623.276978 908.665405,608.161865 909.976807,593.042969 
	C911.330444,577.438049 912.650757,561.830261 913.984131,546.223633 
	C915.317322,530.619019 916.630859,515.012695 917.986023,499.410004 
	C919.296814,484.318787 920.727905,469.237701 921.963806,454.140472 
	C923.390808,436.708313 924.653687,419.262726 926.006470,401.824402 
	C926.376282,397.056824 926.820557,392.295074 927.217224,387.529541 
	C928.091553,377.025909 928.957336,366.521637 929.449280,355.278412 
z"/>
<path fill="#006EBA" opacity="1.000000" stroke="none" 
	d="
M929.826599,356.017609 
	C928.957336,366.521637 928.091553,377.025909 927.217224,387.529541 
	C926.820557,392.295074 926.376282,397.056824 926.006470,401.824402 
	C924.653687,419.262726 923.390808,436.708313 921.963806,454.140472 
	C920.727905,469.237701 919.296814,484.318787 917.986023,499.410004 
	C916.630859,515.012695 915.317322,530.619019 913.984131,546.223633 
	C912.650757,561.830261 911.330444,577.438049 909.976807,593.042969 
	C908.665405,608.161865 907.310852,623.276978 905.989990,638.395020 
	C904.641113,653.832458 903.304932,669.270935 901.972473,684.709778 
	C900.640015,700.148621 899.409180,715.596924 897.968811,731.025635 
	C896.422852,747.585632 894.590820,764.119080 893.066772,780.681030 
	C892.189209,790.217163 891.798401,799.797607 890.966125,809.338623 
	C889.778748,822.951721 888.325623,836.541565 887.104858,850.151978 
	C886.294128,859.189758 885.765320,868.252747 884.977905,877.292908 
	C883.734497,891.568481 882.356384,905.832275 881.085205,920.105530 
	C880.645874,925.038879 880.428589,929.992126 879.983276,934.924866 
	C878.710571,949.022339 877.335083,963.110657 876.074951,977.209229 
	C875.310913,985.758057 874.728210,994.322937 873.988586,1002.874146 
	C872.710449,1017.651978 871.328003,1032.420776 870.078247,1047.201050 
	C869.299744,1056.407227 868.773071,1065.635010 867.975037,1074.839355 
	C866.765198,1088.793335 865.389404,1102.732788 864.138855,1116.683350 
	C863.372253,1125.235596 862.750916,1133.800781 861.987915,1142.353516 
	C860.713928,1156.633545 859.335083,1170.904175 858.085144,1185.186157 
	C857.308167,1194.064697 856.752319,1202.962280 855.981873,1211.841431 
	C854.728516,1226.286865 853.324219,1240.719482 852.092896,1255.166748 
	C851.293823,1264.541626 850.717834,1273.935547 849.979736,1283.315918 
	C849.747803,1286.264404 849.612061,1289.279907 848.828552,1292.096924 
	C848.506836,1293.253662 846.720825,1294.420410 845.377014,1294.809204 
	C834.519958,1297.950928 823.607056,1300.899292 812.716064,1303.924316 
	C789.674500,1310.324341 766.632263,1316.721680 743.597107,1323.144775 
	C713.925232,1331.418335 684.254700,1339.696655 654.593811,1348.009399 
	C632.655579,1354.157837 610.739685,1360.386230 588.803162,1366.540771 
	C556.140991,1375.704224 523.469727,1384.835449 490.801056,1393.975952 
	C487.961090,1394.770508 484.932556,1395.146851 482.298401,1396.375244 
	C473.055664,1400.686279 463.949646,1399.525635 454.557251,1396.817871 
	C417.567291,1386.153931 380.529144,1375.656006 343.480499,1365.196777 
	C307.832794,1355.132935 272.168976,1345.125244 236.477509,1335.218018 
	C200.954315,1325.357422 165.378632,1315.686035 129.845291,1305.861572 
	C117.058327,1302.326294 104.357620,1298.476685 91.554253,1295.003784 
	C87.247719,1293.835571 87.337227,1290.426636 87.079628,1287.376343 
	C85.607307,1269.941406 84.384727,1252.485596 82.970901,1235.045532 
	C81.718880,1219.601318 80.401009,1204.161621 78.978676,1188.732300 
	C77.421326,1171.838379 75.641258,1154.964722 74.094826,1138.069824 
	C73.251633,1128.858032 72.799889,1119.610596 71.977997,1110.396484 
	C70.763260,1096.777954 69.326408,1083.179321 68.080597,1069.563477 
	C67.299294,1061.024292 66.740097,1052.465088 66.000923,1043.921753 
	C64.722366,1029.144531 63.346008,1014.375916 62.079845,999.597717 
	C61.319511,990.723206 60.770042,981.830383 59.983643,972.958374 
	C58.761013,959.164856 57.360268,945.387146 56.144939,931.593079 
	C55.333511,922.383301 54.791885,913.149780 53.988632,903.939209 
	C52.757912,889.826782 51.346680,875.730042 50.126045,861.616760 
	C49.315559,852.245850 48.796700,842.849609 47.981628,833.479126 
	C46.768082,819.527771 45.369610,805.592590 44.124763,791.643860 
	C43.346386,782.922058 42.769047,774.182251 41.988708,765.460632 
	C40.740654,751.511475 39.346313,737.575378 38.115520,723.624756 
	C37.318176,714.587036 36.768631,705.527710 35.989334,696.488220 
	C34.729969,681.880371 33.342407,667.283569 32.068619,652.676819 
	C31.322567,644.121765 30.757206,635.550781 29.994888,626.997253 
	C28.737028,612.883484 27.337130,598.782349 26.091070,584.667603 
	C25.306868,575.784485 24.758873,566.880737 23.989555,557.996216 
	C22.739466,543.559448 21.357340,529.134155 20.103907,514.697693 
	C19.333662,505.826355 18.760584,496.937927 17.989847,488.066650 
	C16.734663,473.619385 15.351329,459.183197 14.097704,444.735809 
	C13.326642,435.849762 12.781783,426.943787 11.982828,418.060455 
	C10.744585,404.292908 9.285810,390.544800 8.102112,376.772858 
	C7.536108,370.187653 7.387052,363.566589 7.581127,356.498810 
	C8.779424,356.024628 9.445741,356.003571 10.112057,356.003571 
	C316.683563,356.007294 623.255066,356.012451 929.826599,356.017609 
M412.896362,666.668701 
	C411.220581,668.130127 409.758453,670.012878 407.835968,670.987854 
	C388.676453,680.703857 369.441376,690.270996 350.226807,699.878479 
	C301.673645,724.155823 253.110977,748.414185 204.602814,772.781006 
	C202.813980,773.679626 201.556473,775.635925 200.008484,777.966309 
	C200.671707,785.023438 201.422562,792.073730 201.976852,799.139404 
	C202.738922,808.853943 203.225113,818.591064 204.056686,828.299072 
	C205.617996,846.526123 207.331116,864.740234 209.005920,882.957458 
	C209.454910,887.841125 209.993576,892.716553 210.531937,897.996460 
	C212.601608,897.996460 214.568253,897.996460 216.534882,897.996460 
	C283.528778,897.996460 350.522705,897.987793 417.516602,898.002502 
	C434.679565,898.006287 451.842560,898.084167 468.948639,899.047607 
	C468.927582,920.193115 468.878326,941.338623 468.891571,962.484131 
	C468.916351,1001.944153 468.977448,1041.404175 468.224030,1080.959106 
	C425.481659,1069.164795 382.739288,1057.370483 340.222809,1045.638428 
	C338.071625,1014.746704 335.966217,984.512695 333.870178,954.412598 
	C293.921844,954.412598 254.590088,954.412598 215.301208,954.412598 
	C216.555756,967.927673 217.773468,981.039062 218.989777,994.150574 
	C220.313339,1008.418640 221.686615,1022.682312 222.944839,1036.956177 
	C224.347977,1052.873413 225.702423,1068.795532 226.972717,1084.723877 
	C228.061340,1098.374268 228.999100,1112.036621 230.008499,1125.693359 
	C230.277313,1129.330322 231.537689,1131.664673 235.794373,1132.230957 
	C239.977463,1132.787476 244.007019,1134.471313 248.115524,1135.619141 
	C280.619720,1144.700562 313.117249,1153.805908 345.635559,1162.836426 
	C376.888855,1171.515625 408.149567,1180.168945 439.439301,1188.715576 
	C449.239563,1191.392456 459.144531,1193.686035 468.952789,1197.071411 
	C468.952789,1237.172119 468.952789,1277.272949 468.952789,1317.976685 
	C471.335266,1317.570801 473.443817,1317.388184 475.454010,1316.842896 
	C505.197937,1308.776611 534.919983,1300.629395 564.664612,1292.565796 
	C628.662109,1275.216431 692.664307,1257.885010 756.678284,1240.596558 
	C766.912354,1237.832642 767.171997,1237.975464 768.167175,1227.642822 
	C770.559387,1202.804321 772.778809,1177.948853 774.951294,1153.089844 
	C776.790771,1132.041382 778.348755,1110.967773 780.242981,1089.924438 
	C783.032349,1058.936279 786.112366,1027.974365 788.875122,996.984009 
	C791.120544,971.796631 792.951233,946.572327 795.199158,921.385193 
	C798.660095,882.608154 802.391724,843.855347 805.872803,805.080017 
	C808.401978,776.907593 810.650024,748.710083 813.135864,720.533630 
	C816.001221,688.053894 819.034912,655.588928 821.911865,623.110168 
	C824.378357,595.265625 826.658691,567.404419 829.145325,539.561707 
	C831.986633,507.748352 834.972656,475.947876 837.877319,444.140137 
	C838.473877,437.606628 837.914124,437.009399 831.244812,437.009033 
	C712.746155,437.002380 594.247559,437.002319 475.748932,437.009369 
	C468.961548,437.009766 468.891907,437.091553 468.889832,444.111237 
	C468.880463,476.110870 468.898926,508.110504 468.857300,540.110046 
	C468.854279,542.417542 468.451080,544.724487 467.254944,547.008789 
	C372.250641,547.008789 277.246307,547.008789 182.241989,547.008789 
	C182.237564,547.339294 182.233154,547.669861 182.228729,548.000366 
	C184.033432,548.000366 185.838120,548.000366 187.642822,548.000366 
	C232.806595,548.000305 277.970367,547.987549 323.134125,548.003845 
	C371.463837,548.021301 419.793518,548.066040 468.120514,548.445251 
	C468.120514,548.445251 468.073883,548.788452 467.139069,548.947388 
	C371.502411,548.947388 275.865723,548.947388 180.292084,548.947388 
	C181.568787,564.983643 182.786148,580.239502 183.996857,595.495911 
	C184.687943,604.204651 185.289017,612.921326 186.071365,621.621704 
	C187.339172,635.720825 188.722717,649.809509 190.429489,664.568604 
	C192.789764,665.031067 195.149612,665.895325 197.510361,665.897705 
	C269.337097,665.970581 341.163910,665.958740 412.896362,666.668701 
z"/>
<path fill="#007FA3" opacity="1.000000" stroke="none" 
	d="
M929.637939,355.648010 
	C623.255066,356.012451 316.683563,356.007294 10.112057,356.003571 
	C9.445741,356.003571 8.779424,356.024628 7.661679,356.052490 
	C8.887442,355.712524 10.564586,355.043671 12.241829,355.043427 
	C316.317444,354.997833 620.393066,354.999390 924.468689,355.011597 
	C926.128906,355.011658 927.789062,355.185638 929.637939,355.648010 
z"/>
<path fill="#000000" opacity="1.000000" stroke="none" 
	d="
M190.057388,663.902588 
	C188.722717,649.809509 187.339172,635.720825 186.071365,621.621704 
	C185.289017,612.921326 184.687943,604.204651 183.996857,595.495911 
	C182.786148,580.239502 181.568787,564.983643 180.292084,548.947388 
	C275.865723,548.947388 371.502411,548.947388 468.063141,548.948364 
	C564.845032,548.949280 660.702881,548.949280 756.613220,548.949280 
	C753.267029,587.977661 749.977539,626.343689 746.691650,664.668579 
	C669.131409,703.444946 591.646973,742.183411 514.162598,780.921936 
	C514.212158,781.243408 514.261780,781.564941 514.311340,781.886475 
	C588.394226,781.886475 662.477112,781.886475 735.935547,781.886475 
	C735.935547,785.677307 736.170471,788.834778 735.895020,791.947083 
	C734.678223,805.696045 733.243896,819.425842 732.028625,833.174927 
	C731.216064,842.368530 730.737000,851.591553 729.933838,860.786133 
	C728.703125,874.876526 727.281616,888.950256 726.019531,903.038025 
	C725.254944,911.572144 724.690063,920.123901 723.943359,928.659729 
	C722.668335,943.235840 721.281250,957.802185 720.018738,972.379272 
	C719.251343,981.240662 718.743103,990.125244 717.915405,998.980469 
	C716.707703,1011.901611 715.207886,1024.795898 714.041321,1037.720459 
	C713.182495,1047.235107 712.754883,1056.788086 711.961548,1066.309570 
	C710.718872,1081.222778 709.370789,1096.127563 707.983521,1111.028320 
	C707.365234,1117.669067 706.543335,1124.291016 705.821350,1130.853271 
	C687.914185,1135.811890 670.509766,1140.667725 653.084412,1145.447266 
	C630.311707,1151.693604 607.500977,1157.802368 584.746277,1164.112915 
	C561.846680,1170.463867 539.013489,1177.053955 516.116943,1183.416138 
	C500.442169,1187.771606 484.708771,1191.916138 469.001587,1196.155029 
	C459.144531,1193.686035 449.239563,1191.392456 439.439301,1188.715576 
	C408.149567,1180.168945 376.888855,1171.515625 345.635559,1162.836426 
	C313.117249,1153.805908 280.619720,1144.700562 248.115524,1135.619141 
	C244.007019,1134.471313 239.977463,1132.787476 235.794373,1132.230957 
	C231.537689,1131.664673 230.277313,1129.330322 230.008499,1125.693359 
	C228.999100,1112.036621 228.061340,1098.374268 226.972717,1084.723877 
	C225.702423,1068.795532 224.347977,1052.873413 222.944839,1036.956177 
	C221.686615,1022.682312 220.313339,1008.418640 218.989777,994.150574 
	C217.773468,981.039062 216.555756,967.927673 215.301208,954.412598 
	C254.590088,954.412598 293.921844,954.412598 333.870178,954.412598 
	C335.966217,984.512695 338.071625,1014.746704 340.222809,1045.638428 
	C382.739288,1057.370483 425.481659,1069.164795 469.011078,1080.952637 
	C476.498505,1078.982788 483.174042,1076.929565 489.903717,1075.072510 
	C513.115906,1068.667725 536.353455,1062.354858 559.568298,1055.959717 
	C572.053772,1052.520264 584.512756,1048.984497 596.459290,1045.639160 
	C597.345154,1035.421021 598.332581,1025.914795 598.955444,1016.384705 
	C599.784424,1003.701843 600.314514,990.999634 601.003662,978.307312 
	C601.307617,972.710327 601.622314,967.112427 602.044128,961.523438 
	C603.331970,944.461609 604.691040,927.405212 605.982605,910.343628 
	C606.285583,906.341003 606.431519,902.326355 606.646301,898.379089 
	C606.043457,898.218689 605.729431,898.061951 605.415405,898.062073 
	C559.945435,898.076660 514.475464,898.102600 469.005524,898.128052 
	C451.842560,898.084167 434.679565,898.006287 417.516602,898.002502 
	C350.522705,897.987793 283.528778,897.996460 216.534882,897.996460 
	C214.568253,897.996460 212.601608,897.996460 210.531937,897.996460 
	C209.993576,892.716553 209.454910,887.841125 209.005920,882.957458 
	C207.331116,864.740234 205.617996,846.526123 204.056686,828.299072 
	C203.225113,818.591064 202.738922,808.853943 201.976852,799.139404 
	C201.422562,792.073730 200.671707,785.023438 200.347229,777.376587 
	C274.826752,739.649231 348.967499,702.511536 423.108246,665.373840 
	C423.008972,665.049072 422.909698,664.724304 422.810425,664.399597 
	C421.889038,664.303406 420.967621,664.207214 419.577637,664.054871 
	C391.329681,663.999268 363.550323,664.011047 335.770966,663.997559 
	C287.199768,663.973999 238.628586,663.935059 190.057388,663.902588 
z"/>
<path fill="#0098D8" opacity="1.000000" stroke="none" 
	d="
M468.977203,1196.613281 
	C484.708771,1191.916138 500.442169,1187.771606 516.116943,1183.416138 
	C539.013489,1177.053955 561.846680,1170.463867 584.746277,1164.112915 
	C607.500977,1157.802368 630.311707,1151.693604 653.084412,1145.447266 
	C670.509766,1140.667725 687.914185,1135.811890 705.821350,1130.853271 
	C706.543335,1124.291016 707.365234,1117.669067 707.983521,1111.028320 
	C709.370789,1096.127563 710.718872,1081.222778 711.961548,1066.309570 
	C712.754883,1056.788086 713.182495,1047.235107 714.041321,1037.720459 
	C715.207886,1024.795898 716.707703,1011.901611 717.915405,998.980469 
	C718.743103,990.125244 719.251343,981.240662 720.018738,972.379272 
	C721.281250,957.802185 722.668335,943.235840 723.943359,928.659729 
	C724.690063,920.123901 725.254944,911.572144 726.019531,903.038025 
	C727.281616,888.950256 728.703125,874.876526 729.933838,860.786133 
	C730.737000,851.591553 731.216064,842.368530 732.028625,833.174927 
	C733.243896,819.425842 734.678223,805.696045 735.895020,791.947083 
	C736.170471,788.834778 735.935547,785.677307 735.935547,781.886475 
	C662.477112,781.886475 588.394226,781.886475 514.311340,781.886475 
	C514.261780,781.564941 514.212158,781.243408 514.162598,780.921936 
	C591.646973,742.183411 669.131409,703.444946 746.691650,664.668579 
	C749.977539,626.343689 753.267029,587.977661 756.613220,548.949280 
	C660.702881,548.949280 564.845032,548.949280 468.530548,548.868896 
	C468.073883,548.788452 468.120514,548.445251 468.160614,548.006104 
	C468.211823,547.388428 468.222900,547.210022 468.233948,547.031677 
	C468.451080,544.724487 468.854279,542.417542 468.857300,540.110046 
	C468.898926,508.110504 468.880463,476.110870 468.889832,444.111237 
	C468.891907,437.091553 468.961548,437.009766 475.748932,437.009369 
	C594.247559,437.002319 712.746155,437.002380 831.244812,437.009033 
	C837.914124,437.009399 838.473877,437.606628 837.877319,444.140137 
	C834.972656,475.947876 831.986633,507.748352 829.145325,539.561707 
	C826.658691,567.404419 824.378357,595.265625 821.911865,623.110168 
	C819.034912,655.588928 816.001221,688.053894 813.135864,720.533630 
	C810.650024,748.710083 808.401978,776.907593 805.872803,805.080017 
	C802.391724,843.855347 798.660095,882.608154 795.199158,921.385193 
	C792.951233,946.572327 791.120544,971.796631 788.875122,996.984009 
	C786.112366,1027.974365 783.032349,1058.936279 780.242981,1089.924438 
	C778.348755,1110.967773 776.790771,1132.041382 774.951294,1153.089844 
	C772.778809,1177.948853 770.559387,1202.804321 768.167175,1227.642822 
	C767.171997,1237.975464 766.912354,1237.832642 756.678284,1240.596558 
	C692.664307,1257.885010 628.662109,1275.216431 564.664612,1292.565796 
	C534.919983,1300.629395 505.197937,1308.776611 475.454010,1316.842896 
	C473.443817,1317.388184 471.335266,1317.570801 468.952789,1317.976685 
	C468.952789,1277.272949 468.952789,1237.172119 468.977203,1196.613281 
z"/>
<path fill="#0098D8" opacity="1.000000" stroke="none" 
	d="
M468.977081,898.587830 
	C514.475464,898.102600 559.945435,898.076660 605.415405,898.062073 
	C605.729431,898.061951 606.043457,898.218689 606.646301,898.379089 
	C606.431519,902.326355 606.285583,906.341003 605.982605,910.343628 
	C604.691040,927.405212 603.331970,944.461609 602.044128,961.523438 
	C601.622314,967.112427 601.307617,972.710327 601.003662,978.307312 
	C600.314514,990.999634 599.784424,1003.701843 598.955444,1016.384705 
	C598.332581,1025.914795 597.345154,1035.421021 596.459290,1045.639160 
	C584.512756,1048.984497 572.053772,1052.520264 559.568298,1055.959717 
	C536.353455,1062.354858 513.115906,1068.667725 489.903717,1075.072510 
	C483.174042,1076.929565 476.498505,1078.982788 469.410767,1080.905151 
	C468.977448,1041.404175 468.916351,1001.944153 468.891571,962.484131 
	C468.878326,941.338623 468.927582,920.193115 468.977081,898.587830 
z"/>
<path fill="#007FAA" opacity="1.000000" stroke="none" 
	d="
M190.243439,664.235596 
	C238.628586,663.935059 287.199768,663.973999 335.770966,663.997559 
	C363.550323,664.011047 391.329681,663.999268 419.275757,664.255371 
	C417.291901,664.994690 415.141327,665.477356 412.990723,665.960083 
	C341.163910,665.958740 269.337097,665.970581 197.510361,665.897705 
	C195.149612,665.895325 192.789764,665.031067 190.243439,664.235596 
z"/>
<path fill="#0061B3" opacity="1.000000" stroke="none" 
	d="
M412.943542,666.314392 
	C415.141327,665.477356 417.291901,664.994690 419.744354,664.311462 
	C420.967621,664.207214 421.889038,664.303406 422.810425,664.399597 
	C422.909698,664.724304 423.008972,665.049072 423.108246,665.373840 
	C348.967499,702.511536 274.826752,739.649231 200.368683,776.943115 
	C201.556473,775.635925 202.813980,773.679626 204.602814,772.781006 
	C253.110977,748.414185 301.673645,724.155823 350.226807,699.878479 
	C369.441376,690.270996 388.676453,680.703857 407.835968,670.987854 
	C409.758453,670.012878 411.220581,668.130127 412.943542,666.314392 
z"/>
<path fill="#0054AE" opacity="1.000000" stroke="none" 
	d="
M467.744446,547.020264 
	C468.222900,547.210022 468.211823,547.388428 468.161987,547.832886 
	C419.793518,548.066040 371.463837,548.021301 323.134125,548.003845 
	C277.970367,547.987549 232.806595,548.000305 187.642822,548.000366 
	C185.838120,548.000366 184.033432,548.000366 182.228729,548.000366 
	C182.233154,547.669861 182.237564,547.339294 182.241989,547.008789 
	C277.246307,547.008789 372.250641,547.008789 467.744446,547.020264 
z"/>
</svg>