<svg version="1.1" id="Layer_1" xmlns="http://www.w3.org/2000/svg" xmlns:xlink="http://www.w3.org/1999/xlink" x="0px" y="0px"
	 width="100%" viewBox="0 0 1000 1000" enable-background="new 0 0 1000 1000" xml:space="preserve">
<path fill="#000000" opacity="1.000000" stroke="none" 
	d="
M493.000000,1001.000000 
	C329.017120,1001.000000 165.034256,1001.000000 1.025689,1001.000000 
	C1.025689,667.718628 1.025689,334.437195 1.025689,1.077903 
	C334.246552,1.077903 667.493164,1.077903 1000.869873,1.077903 
	C1000.869873,334.211731 1000.869873,667.423523 1000.869873,1001.000000 
	C836.972168,1001.000000 672.944031,1001.000000 508.191711,1000.657715 
	C507.811340,999.963806 508.097107,999.406067 508.507355,999.290527 
	C520.724548,995.850037 532.941162,992.406128 545.184387,989.059631 
	C571.412231,981.890686 597.682312,974.874512 623.883057,967.608032 
	C645.683655,961.561890 667.375610,955.123535 689.177246,949.081116 
	C721.334229,940.168701 753.527527,931.385376 785.755371,922.733398 
	C790.162048,921.550354 791.642639,918.889771 792.000244,914.866760 
	C792.975708,903.893616 794.071655,892.930603 794.975464,881.951721 
	C796.380859,864.879517 797.666504,847.797485 799.003418,830.719604 
	C799.363220,826.123779 799.654602,821.521301 800.098938,816.933594 
	C801.365784,803.851013 802.778198,790.782043 803.971802,777.692993 
	C804.809387,768.507996 805.267578,759.288452 806.100830,750.103027 
	C807.302795,736.853577 808.766663,723.627930 809.973877,710.378906 
	C810.796021,701.354919 811.282104,692.300537 812.075745,683.273560 
	C813.313721,669.192871 814.715637,655.126526 815.988586,641.048767 
	C816.744995,632.683777 817.308289,624.300964 818.099304,615.939514 
	C819.336609,602.861023 820.775452,589.801331 821.971313,576.719238 
	C822.796631,567.692078 823.266052,558.632812 824.054932,549.601929 
	C825.299133,535.357300 826.715088,521.127808 827.986328,506.885437 
	C828.747498,498.358002 829.277100,489.809418 830.079102,481.286194 
	C831.309937,468.204956 832.775269,455.145538 833.969604,442.061188 
	C834.808533,432.870361 835.218079,423.640106 836.074585,414.451233 
	C837.614441,397.931030 839.456299,381.438751 840.962463,364.915710 
	C842.143372,351.961456 842.863953,338.965149 844.049377,326.011353 
	C845.561279,309.488373 847.380005,292.993652 848.980286,276.478394 
	C850.059021,265.345123 851.044128,254.202011 851.971619,243.055008 
	C853.235962,227.859238 854.405457,212.655563 855.615601,197.457718 
	C619.128601,197.460175 382.641571,197.460175 146.260391,197.460175 
	C146.866852,204.276718 147.472610,210.642883 147.990753,217.016174 
	C148.711411,225.880692 149.249146,234.761520 150.077362,243.615524 
	C151.285553,256.531616 152.784790,269.420776 153.964508,282.339264 
	C154.818832,291.694855 155.212891,301.092529 156.069366,310.447906 
	C157.252243,323.368195 158.797012,336.255585 159.958984,349.177521 
	C160.830109,358.865173 161.163986,368.601471 162.053497,378.287048 
	C163.570480,394.804901 165.394974,411.294312 166.979370,427.806305 
	C168.393372,442.542633 169.655716,457.293488 170.988129,472.037659 
	C172.320145,486.777344 173.667587,501.515686 174.987061,516.256531 
	C176.336121,531.327881 177.654770,546.401978 178.995300,561.474121 
	C180.321198,576.381958 181.662476,591.288452 182.988281,606.196289 
	C184.328842,621.269958 185.653961,636.344971 186.994675,651.418640 
	C188.320389,666.323364 189.662170,681.226624 190.987717,696.131348 
	C192.328064,711.203003 193.656967,726.275574 194.991196,741.347778 
	C196.325333,756.418945 197.643829,771.491577 198.998840,786.560852 
	C200.309860,801.140930 201.675323,815.716187 202.986282,830.296326 
	C204.341476,845.368591 205.726959,860.438599 206.974167,875.519958 
	C208.073807,888.816895 208.871628,902.140381 210.129669,915.421143 
	C210.343445,917.677979 211.742920,921.183716 213.381317,921.723206 
	C223.882828,925.181030 234.585495,928.039062 245.256424,930.969055 
	C271.478821,938.168884 297.744385,945.212708 323.946411,952.485535 
	C349.347748,959.536255 374.664093,966.893494 400.067749,973.935730 
	C430.654388,982.414856 461.295746,990.696594 491.892975,999.137939 
	C492.395020,999.276428 492.636780,1000.358337 493.000000,1001.000000 
z"/>
<path fill="#E44D26" opacity="1.000000" stroke="none" 
	d="
M493.466125,1001.000000 
	C492.636780,1000.358337 492.395020,999.276428 491.892975,999.137939 
	C461.295746,990.696594 430.654388,982.414856 400.067749,973.935730 
	C374.664093,966.893494 349.347748,959.536255 323.946411,952.485535 
	C297.744385,945.212708 271.478821,938.168884 245.256424,930.969055 
	C234.585495,928.039062 223.882828,925.181030 213.381317,921.723206 
	C211.742920,921.183716 210.343445,917.677979 210.129669,915.421143 
	C208.871628,902.140381 208.073807,888.816895 206.974167,875.519958 
	C205.726959,860.438599 204.341476,845.368591 202.986282,830.296326 
	C201.675323,815.716187 200.309860,801.140930 198.998840,786.560852 
	C197.643829,771.491577 196.325333,756.418945 194.991196,741.347778 
	C193.656967,726.275574 192.328064,711.203003 190.987717,696.131348 
	C189.662170,681.226624 188.320389,666.323364 186.994675,651.418640 
	C185.653961,636.344971 184.328842,621.269958 182.988281,606.196289 
	C181.662476,591.288452 180.321198,576.381958 178.995300,561.474121 
	C177.654770,546.401978 176.336121,531.327881 174.987061,516.256531 
	C173.667587,501.515686 172.320145,486.777344 170.988129,472.037659 
	C169.655716,457.293488 168.393372,442.542633 166.979370,427.806305 
	C165.394974,411.294312 163.570480,394.804901 162.053497,378.287048 
	C161.163986,368.601471 160.830109,358.865173 159.958984,349.177521 
	C158.797012,336.255585 157.252243,323.368195 156.069366,310.447906 
	C155.212891,301.092529 154.818832,291.694855 153.964508,282.339264 
	C152.784790,269.420776 151.285553,256.531616 150.077362,243.615524 
	C149.249146,234.761520 148.711411,225.880692 147.990753,217.016174 
	C147.472610,210.642883 146.866852,204.276718 146.260391,197.460175 
	C382.641571,197.460175 619.128601,197.460175 855.615601,197.457718 
	C854.405457,212.655563 853.235962,227.859238 851.971619,243.055008 
	C851.044128,254.202011 850.059021,265.345123 848.980286,276.478394 
	C847.380005,292.993652 845.561279,309.488373 844.049377,326.011353 
	C842.863953,338.965149 842.143372,351.961456 840.962463,364.915710 
	C839.456299,381.438751 837.614441,397.931030 836.074585,414.451233 
	C835.218079,423.640106 834.808533,432.870361 833.969604,442.061188 
	C832.775269,455.145538 831.309937,468.204956 830.079102,481.286194 
	C829.277100,489.809418 828.747498,498.358002 827.986328,506.885437 
	C826.715088,521.127808 825.299133,535.357300 824.054932,549.601929 
	C823.266052,558.632812 822.796631,567.692078 821.971313,576.719238 
	C820.775452,589.801331 819.336609,602.861023 818.099304,615.939514 
	C817.308289,624.300964 816.744995,632.683777 815.988586,641.048767 
	C814.715637,655.126526 813.313721,669.192871 812.075745,683.273560 
	C811.282104,692.300537 810.796021,701.354919 809.973877,710.378906 
	C808.766663,723.627930 807.302795,736.853577 806.100830,750.103027 
	C805.267578,759.288452 804.809387,768.507996 803.971802,777.692993 
	C802.778198,790.782043 801.365784,803.851013 800.098938,816.933594 
	C799.654602,821.521301 799.363220,826.123779 799.003418,830.719604 
	C797.666504,847.797485 796.380859,864.879517 794.975464,881.951721 
	C794.071655,892.930603 792.975708,903.893616 792.000244,914.866760 
	C791.642639,918.889771 790.162048,921.550354 785.755371,922.733398 
	C753.527527,931.385376 721.334229,940.168701 689.177246,949.081116 
	C667.375610,955.123535 645.683655,961.561890 623.883057,967.608032 
	C597.682312,974.874512 571.412231,981.890686 545.184387,989.059631 
	C532.941162,992.406128 520.724548,995.850037 508.507355,999.290527 
	C508.097107,999.406067 507.811340,999.963806 507.733765,1000.657715 
	C503.310760,1001.000000 498.621490,1001.000000 493.466125,1001.000000 
M500.237122,755.011902 
	C468.436218,746.484131 436.623077,738.001099 404.874603,729.282410 
	C403.450256,728.891174 401.801819,726.448486 401.629822,724.816711 
	C400.216339,711.405396 399.144745,697.958374 397.935181,684.525269 
	C397.147614,675.778564 396.302856,667.037048 395.487762,658.336792 
	C365.654358,658.336792 336.288818,658.336792 306.694305,658.336792 
	C306.932251,661.913940 307.082733,665.069885 307.361206,668.214539 
	C308.903473,685.630066 310.474457,703.043152 312.040253,720.456604 
	C314.217438,744.669861 316.447571,768.878540 318.518646,793.100769 
	C318.789154,796.264404 319.998199,797.534424 323.100861,798.366699 
	C342.536255,803.580444 361.893433,809.085144 381.287018,814.455505 
	C421.194427,825.506409 461.108398,836.533508 501.002991,848.435974 
	C501.003387,876.759338 500.985321,905.082764 501.020172,933.406128 
	C501.026917,938.862610 501.714325,939.314575 506.821045,937.900146 
	C579.211426,917.850037 651.575806,897.704895 724.031311,877.893127 
	C731.847656,875.755859 736.435303,873.522766 736.652344,863.852234 
	C737.039307,846.612793 739.462097,829.420410 740.995544,812.204895 
	C742.130981,799.456726 743.177551,786.700623 744.315247,773.952637 
	C745.851624,756.737366 747.440735,739.526794 749.000916,722.313599 
	C750.201111,709.072327 751.394653,695.830444 752.585388,682.588257 
	C754.059082,666.199646 755.541077,649.811707 756.992981,633.421143 
	C758.459595,616.864929 759.870422,600.303650 761.348816,583.748413 
	C762.871338,566.698669 764.470825,549.655762 765.989563,532.605652 
	C767.139832,519.692322 768.186035,506.769684 769.332947,493.856049 
	C770.861938,476.640228 772.464600,459.430969 773.996765,442.215424 
	C775.455505,425.825317 776.843445,409.428894 778.300598,393.038635 
	C779.845886,375.657532 781.426697,358.279572 783.009521,340.901825 
	C784.215515,327.661469 785.463623,314.424896 786.665833,301.184174 
	C787.793152,288.768829 789.041077,276.361328 789.927856,263.928436 
	C790.390381,257.444550 789.734009,256.996216 783.442444,256.995483 
	C691.472900,256.984833 599.503418,256.984802 507.533875,256.995789 
	C501.282471,256.996521 501.014526,257.264557 501.010040,263.466888 
	C500.990540,290.624542 501.001434,317.782227 500.084747,345.143188 
	C497.920319,345.175781 495.755859,345.236725 493.591431,345.236908 
	C424.292023,345.241882 354.992584,345.240997 285.693176,345.240997 
	C283.572296,345.240997 281.451416,345.240997 278.846741,345.240997 
	C279.050751,348.793304 279.142883,351.746002 279.401794,354.684052 
	C280.921631,371.932861 282.487335,389.177582 284.024628,406.424835 
	C286.818481,437.769257 289.592682,469.115417 292.394562,500.459106 
	C295.581848,536.114319 298.918762,571.757141 301.843689,607.433716 
	C302.255585,612.457947 303.678009,613.695496 308.598816,613.681824 
	C370.401428,613.509705 432.204681,613.564697 494.007751,613.585266 
	C496.327026,613.586060 498.646240,613.826904 500.982452,614.898926 
	C500.996246,661.549866 501.010071,708.200867 500.237122,755.011902 
z"/>
<path fill="#F16529" opacity="1.000000" stroke="none" 
	d="
M501.001312,344.939880 
	C501.001434,317.782227 500.990540,290.624542 501.010040,263.466888 
	C501.014526,257.264557 501.282471,256.996521 507.533875,256.995789 
	C599.503418,256.984802 691.472900,256.984833 783.442444,256.995483 
	C789.734009,256.996216 790.390381,257.444550 789.927856,263.928436 
	C789.041077,276.361328 787.793152,288.768829 786.665833,301.184174 
	C785.463623,314.424896 784.215515,327.661469 783.009521,340.901825 
	C781.426697,358.279572 779.845886,375.657532 778.300598,393.038635 
	C776.843445,409.428894 775.455505,425.825317 773.996765,442.215424 
	C772.464600,459.430969 770.861938,476.640228 769.332947,493.856049 
	C768.186035,506.769684 767.139832,519.692322 765.989563,532.605652 
	C764.470825,549.655762 762.871338,566.698669 761.348816,583.748413 
	C759.870422,600.303650 758.459595,616.864929 756.992981,633.421143 
	C755.541077,649.811707 754.059082,666.199646 752.585388,682.588257 
	C751.394653,695.830444 750.201111,709.072327 749.000916,722.313599 
	C747.440735,739.526794 745.851624,756.737366 744.315247,773.952637 
	C743.177551,786.700623 742.130981,799.456726 740.995544,812.204895 
	C739.462097,829.420410 737.039307,846.612793 736.652344,863.852234 
	C736.435303,873.522766 731.847656,875.755859 724.031311,877.893127 
	C651.575806,897.704895 579.211426,917.850037 506.821045,937.900146 
	C501.714325,939.314575 501.026917,938.862610 501.020172,933.406128 
	C500.985321,905.082764 501.003387,876.759338 501.065277,847.893799 
	C501.127563,847.351685 501.056702,847.118408 501.456421,847.121216 
	C503.305054,846.757080 504.761810,846.418457 506.201752,846.019165 
	C563.550964,830.115356 620.895508,814.194946 678.256531,798.333679 
	C680.818054,797.625366 682.687134,797.069275 682.970764,793.714478 
	C685.509094,763.692322 688.236206,733.686096 690.916138,703.675903 
	C695.520813,652.111572 700.136536,600.548157 704.734314,548.983215 
	C705.436401,541.108948 706.066589,533.228149 706.750000,525.114563 
	C705.102722,525.033875 703.960205,524.929016 702.817688,524.928894 
	C636.364502,524.921692 569.911255,524.922546 503.458069,524.931702 
	C502.629730,524.931824 501.801422,525.048096 501.001587,525.006592 
	C501.030090,524.902893 501.040436,524.688232 501.030090,524.239319 
	C501.024323,493.941559 501.028900,464.092743 501.029663,434.144775 
	C501.025787,434.045654 500.967377,433.856079 501.432648,433.930054 
	C572.821960,434.004028 643.746033,434.004028 714.913513,434.004028 
	C717.580872,404.265045 720.205017,375.008698 722.874268,345.248474 
	C720.449524,345.248474 718.646057,345.248474 716.842590,345.248474 
	C646.538513,345.248474 576.234436,345.247101 505.930389,345.256927 
	C504.269073,345.257141 502.607727,345.382568 500.969543,345.323181 
	C500.992645,345.196777 501.001312,344.939880 501.001312,344.939880 
z"/>
<path fill="#EBEAEA" opacity="1.000000" stroke="none" 
	d="
M500.965485,613.955933 
	C498.646240,613.826904 496.327026,613.586060 494.007751,613.585266 
	C432.204681,613.564697 370.401428,613.509705 308.598816,613.681824 
	C303.678009,613.695496 302.255585,612.457947 301.843689,607.433716 
	C298.918762,571.757141 295.581848,536.114319 292.394562,500.459106 
	C289.592682,469.115417 286.818481,437.769257 284.024628,406.424835 
	C282.487335,389.177582 280.921631,371.932861 279.401794,354.684052 
	C279.142883,351.746002 279.050751,348.793304 278.846741,345.240997 
	C281.451416,345.240997 283.572296,345.240997 285.693176,345.240997 
	C354.992584,345.240997 424.292023,345.241882 493.591431,345.236908 
	C495.755859,345.236725 497.920319,345.175781 500.543030,345.041534 
	C501.001312,344.939880 500.992645,345.196777 500.982117,345.762878 
	C500.970184,375.504669 500.968781,404.680389 500.967377,433.856079 
	C500.967377,433.856079 501.025787,434.045654 500.566101,434.065063 
	C458.742157,434.084442 417.377838,434.084442 375.548309,434.084442 
	C378.287170,464.772461 380.958527,494.704102 383.655334,524.921082 
	C386.064667,524.921082 387.881622,524.921082 389.698578,524.921082 
	C412.170166,524.921082 434.641846,524.949097 457.113342,524.911194 
	C471.755798,524.886475 486.398071,524.765869 501.040436,524.688232 
	C501.040436,524.688232 501.030090,524.902893 500.998993,525.468140 
	C500.955750,555.113647 500.943604,584.193848 500.964539,613.443298 
	C500.997620,613.612549 500.965485,613.955933 500.965485,613.955933 
z"/>
<path fill="#EBEBEA" opacity="1.000000" stroke="none" 
	d="
M501.073608,847.461060 
	C461.108398,836.533508 421.194427,825.506409 381.287018,814.455505 
	C361.893433,809.085144 342.536255,803.580444 323.100861,798.366699 
	C319.998199,797.534424 318.789154,796.264404 318.518646,793.100769 
	C316.447571,768.878540 314.217438,744.669861 312.040253,720.456604 
	C310.474457,703.043152 308.903473,685.630066 307.361206,668.214539 
	C307.082733,665.069885 306.932251,661.913940 306.694305,658.336792 
	C336.288818,658.336792 365.654358,658.336792 395.487762,658.336792 
	C396.302856,667.037048 397.147614,675.778564 397.935181,684.525269 
	C399.144745,697.958374 400.216339,711.405396 401.629822,724.816711 
	C401.801819,726.448486 403.450256,728.891174 404.874603,729.282410 
	C436.623077,738.001099 468.436218,746.484131 500.628723,755.040100 
	C501.020325,755.068298 500.952881,755.274048 500.961792,755.725464 
	C500.999329,786.490662 501.028015,816.804565 501.056702,847.118408 
	C501.056702,847.118408 501.127563,847.351685 501.073608,847.461060 
z"/>
<path fill="#F16529" opacity="1.000000" stroke="none" 
	d="
M501.022095,754.960083 
	C501.010071,708.200867 500.996246,661.549866 500.973969,614.427429 
	C500.965485,613.955933 500.997620,613.612549 501.425873,613.551208 
	C537.752380,613.489868 573.650635,613.489868 609.833984,613.489868 
	C609.704102,615.452271 609.651855,616.595276 609.549683,617.733826 
	C606.380066,653.052979 603.118347,688.364441 600.154541,723.700867 
	C599.825867,727.619568 598.418701,729.017639 594.869141,729.962463 
	C563.537903,738.302917 532.252136,746.813660 500.952881,755.274048 
	C500.952881,755.274048 501.020325,755.068298 501.022095,754.960083 
z"/>
<path fill="#FFFFFF" opacity="1.000000" stroke="none" 
	d="
M500.961792,755.725403 
	C532.252136,746.813660 563.537903,738.302917 594.869141,729.962463 
	C598.418701,729.017639 599.825867,727.619568 600.154541,723.700867 
	C603.118347,688.364441 606.380066,653.052979 609.549683,617.733826 
	C609.651855,616.595276 609.704102,615.452271 609.833984,613.489868 
	C573.650635,613.489868 537.752380,613.489868 501.392822,613.381958 
	C500.943604,584.193848 500.955750,555.113647 500.970490,525.571838 
	C501.801422,525.048096 502.629730,524.931824 503.458069,524.931702 
	C569.911255,524.922546 636.364502,524.921692 702.817688,524.928894 
	C703.960205,524.929016 705.102722,525.033875 706.750000,525.114563 
	C706.066589,533.228149 705.436401,541.108948 704.734314,548.983215 
	C700.136536,600.548157 695.520813,652.111572 690.916138,703.675903 
	C688.236206,733.686096 685.509094,763.692322 682.970764,793.714478 
	C682.687134,797.069275 680.818054,797.625366 678.256531,798.333679 
	C620.895508,814.194946 563.550964,830.115356 506.201752,846.019165 
	C504.761810,846.418457 503.305054,846.757080 501.456421,847.121216 
	C501.028015,816.804565 500.999329,786.490662 500.961792,755.725403 
z"/>
<path fill="#FFFFFF" opacity="1.000000" stroke="none" 
	d="
M501.432648,433.930054 
	C500.968781,404.680389 500.970184,375.504669 500.958984,345.889282 
	C502.607727,345.382568 504.269073,345.257141 505.930389,345.256927 
	C576.234436,345.247101 646.538513,345.248474 716.842590,345.248474 
	C718.646057,345.248474 720.449524,345.248474 722.874268,345.248474 
	C720.205017,375.008698 717.580872,404.265045 714.913513,434.004028 
	C643.746033,434.004028 572.821960,434.004028 501.432648,433.930054 
z"/>
<path fill="#E44D26" opacity="1.000000" stroke="none" 
	d="
M501.030090,524.239319 
	C486.398071,524.765869 471.755798,524.886475 457.113342,524.911194 
	C434.641846,524.949097 412.170166,524.921082 389.698578,524.921082 
	C387.881622,524.921082 386.064667,524.921082 383.655334,524.921082 
	C380.958527,494.704102 378.287170,464.772461 375.548309,434.084442 
	C417.377838,434.084442 458.742157,434.084442 500.569977,434.164185 
	C501.028900,464.092743 501.024323,493.941559 501.030090,524.239319 
z"/>
</svg>