<?xml version="1.0" encoding="UTF-8"?>
<svg version="1.1" viewBox="0 0 2048 1657" width="1280" height="1280" xmlns="http://www.w3.org/2000/svg">
<path transform="translate(0)" d="m0 0h2048v1657h-2048z" fill="#E41A36"/>
<path transform="translate(0)" d="m0 0h2048v1657h-2048zm535 100-90 1-15 2-20 5-16 6-20 10-16 11-12 11-5 4-7 8-8 10-10 15-10 21-6 18-5 23v1170l4 20 7 21 8 17 10 16 8 10 9 10 11 11 13 10 15 9 16 8 21 7 20 4 20 2h1129l23-2 20-4 21-7 19-9 15-10 10-8 10-9 7-8 10-13 9-14 8-14 9-28 3-15 1-208v-922l1-36-2-6-3-16-2-13-10-26-9-16-12-16-15-16-13-11-19-12-19-9-21-7-15-3-30-2z" fill="#FAFBFB"/>
<path transform="translate(1272,1214)" d="m0 0h41l22 3 17 5 14 7 12 11 6 10 4 11 2 10 1 158 3 14 5 7v2h-91l-1-1v-17l-14 10-15 8-16 5-14 2h-12l-14-2-14-5-8-6-8-9-5-12-2-9-1-12v-17l2-19 4-13 6-10 2-3h2v-2l8-6 16-8 23-7 41-10 16-6 3-2-1-24-4-6-9-3h-7l-7 2-5 6-2 7-1 17h-76v-34l4-13 6-11 9-9 11-7 11-5 15-4z" fill="#FAFBFB"/>
<path transform="translate(840,1214)" d="m0 0h38l19 2 16 4 13 5 11 7 9 9 8 16 3 11 1 162 3 13 6 9h-92l-1-1v-17l-14 10-17 9-14 4-13 2h-12l-16-2-15-6-10-9-6-9-4-12-2-14v-22l3-21 5-13 6-8 7-7 14-8 24-8 38-9 21-7 5-3v-18l-2-8-5-5-5-2h-10l-7 3-4 5-2 7-1 17h-76v-33l3-11 6-12 9-10 10-7 16-7 17-4z" fill="#FAFBFB"/>
<path transform="translate(1179,1218)" d="m0 0 3 1-4 20-15 65-24 103-11 46h-99l-3-8-15-61-22-91-17-69v-5h81l1 1 22 153 1 7h2v-11l20-142 2-8z" fill="#FAFBFB"/>
<path transform="translate(640,1143)" d="m0 0h87v247l-3 21-5 13-6 9-8 8-14 7-19 4-12 1h-68v-59l24-1 11-1 6-3 4-5 2-9z" fill="#FAFBFB"/>
<path transform="translate(773,938)" d="m0 0h27l15 3 14 7 2 4-10 6-21 6-24 6-12 5-6 4 4 2 36 9 34 6 36 5 50 4 19 1h89l39-2 47-4 41-5 41-7 37-8 33-9h2l1-18 2-5 7 1 12 7 7 7 3 7-1 8-4 7-7 7-11 7-17 9-23 9-23 7-39 8-33 5-34 4-55 4-27 1h-99l-61-3-51-4-59-7-32-5-17-4-12-5-9-6-4-7-1-4v-7l3-10 6-9 9-9 15-10 21-9 21-6z" fill="#FAFBFB"/>
<path transform="translate(1093,205)" d="m0 0h9l9 14 9 19 5 15 3 15 1 10v10l-3 21-6 18-8 16-9 14-10 13-10 11-7 8-17 17-8 7-13 12-11 9-7 7-8 7-10 9-26 26-7 9-10 15-7 14-4 16v24l5 19 8 16 8 12 10 13 8 10 10 14 9 16 4 12 2 10v8l-6-2-18-11-18-13-10-8-13-11-7-6v-2h-2l-5-6-5-5-11-12-11-15-9-15-7-16-5-19-1-8v-23l3-15 6-16 9-16 13-16 9-10 7-7 11-9 13-11 32-24 13-10 18-14 13-11 8-7 20-20 11-15 8-13 7-17 4-15 2-17-4-32 1-12 3-6z" fill="#FAFBFB"/>
<path transform="translate(1197,385)" d="m0 0h9l-2 7-10 13-10 9-17 12-29 17-26 16-12 9-11 9-9 10-8 13-4 11-1 5v15l4 13 6 11 12 16 13 17 8 14 5 14 1 5v22l-4 17-5 12-8 12-11 12-12 9-12 7-16 6-10 2h-5l2-11 6-12 10-16 3-11v-11l-4-13-7-13-10-14-13-17-10-16-7-17-4-18v-22l4-20 6-16 7-13 9-11 4-5h2l2-4 8-7 16-12 16-10 16-8 25-11 27-10 44-14z" fill="#FAFBFB"/>
<path transform="translate(868,683)" d="m0 0h23l13 2 7 3-3 6-9 8-12 5-35 9-13 6h-2l1 2 19 5 25 4 22 2h72l31-2 63-6 66-6 21-1h32l3 1-2 9-6 8-11 7-15 5-37 8-38 7-39 5-32 3-41 2h-69l-50-2-33-3-26-4-19-5-12-5-9-7-4-7v-10l6-9 8-7 15-9 16-7 24-8 26-6z" fill="#FAFBFB"/>
<path transform="translate(1318,994)" d="m0 0h14l-1 9-4 11-7 11-11 12-16 11-16 8-12 5-18 6-24 6-36 6-36 4-40 3-38 2-36 1h-49l-73-3-36-3-26-4-25-7-14-6-11-7-3-2v-3l11-6 11-2 15 1 29 5 14 2 29 2 38 1h39l40-1 54-3 52-5 48-7 36-7 31-8 30-10 20-9 18-11z" fill="#FAFBFB"/>
<path transform="translate(869,782)" d="m0 0h7l2 2v9l-6 12 3 2 17 4 36 5 27 2h42l34-3 58-9 9-1h28l16 4 13 7 11 10-1 5-14 9-18 8-28 8-27 5-31 4-25 2-24 1h-42l-35-2-32-4-25-5-16-5-13-6-9-6-6-7-3-7v-12l3-9 8-9 16-8 18-5z" fill="#FAFBFB"/>
<path transform="translate(878,876)" d="m0 0h7l6 3 4 7 2 10 16 5 20 3 14 1h14l40-3 49-5 21-1h13l22 2 18 5 11 6 11 9 3 5-3 4h-2l-1 3-10 7-16 8-18 6-23 5-26 4-39 3h-46l-35-3-23-4-19-5-16-6-12-6-10-9-4-5-3-7v-12l7-12 9-9 12-7z" fill="#FAFBFB"/>
<path transform="translate(1243,671)" d="m0 0h22l21 5 16 7 14 9 7 6 7 11 5 11 3 11v19l-4 17-10 19-8 10-11 12-14 12-9 6-17 10-20 9-20 6-17 3h-26l1-4 8-10 10-9 14-10 17-11 17-12 14-12 8-9 8-15 3-15-1-13-4-10-6-8-10-7-12-4-18-3h-27l-1-2 5-9 9-10 10-6z" fill="#FAFBFB"/>
<path transform="translate(1305,1341)" d="m0 0 2 1v58l-4 8-5 4-4 1h-15l-5-2-4-6-2-10-1-14 1-16 4-8 9-6 16-7z" fill="#E41A36"/>
<path transform="translate(872,1341)" d="m0 0h2v58l-4 8-6 5-3 1h-16l-6-4-3-7-1-6v-30l4-8 7-6 15-7z" fill="#E41A36"/>
</svg>
