<svg version="1.1" id="Layer_1" xmlns="http://www.w3.org/2000/svg" xmlns:xlink="http://www.w3.org/1999/xlink" x="0px" y="0px"
	 width="100%" viewBox="0 0 2800 1750" enable-background="new 0 0 2800 1750" xml:space="preserve">
<path fill="#47704C" opacity="1.000000" stroke="none" 
	d="
M1266.000000,2.000000 
	C1278.053711,2.000000 1290.107544,2.000000 1302.975586,2.932468 
	C1303.755737,51.187553 1303.701904,98.510193 1303.731201,145.832764 
	C1303.733154,148.982040 1304.366699,152.130905 1304.789062,156.044998 
	C1317.536377,156.044998 1329.164673,156.044998 1340.793091,156.044998 
	C1352.790527,156.044998 1364.788696,155.962372 1376.785156,156.068710 
	C1388.313843,156.170883 1399.887695,155.555801 1411.437744,156.550507 
	C1411.437744,161.291565 1411.437744,164.759720 1411.437744,169.474182 
	C1406.741333,169.474182 1402.818726,169.474091 1398.896118,169.474182 
	C1371.235352,169.474930 1343.574585,169.440506 1315.914062,169.517273 
	C1312.091797,169.527878 1308.271118,170.088882 1303.745483,170.451492 
	C1303.709595,194.459976 1303.499756,217.264969 1303.859741,239.715363 
	C1316.487915,242.489700 1483.304077,241.918793 1490.488281,239.412079 
	C1492.602295,228.651672 1492.123779,92.416389 1489.593262,83.955002 
	C1478.041748,83.955002 1466.114014,83.955009 1454.186279,83.955009 
	C1442.522095,83.955009 1430.857788,83.994141 1419.193726,83.944084 
	C1407.349976,83.893265 1395.506348,83.754440 1383.443848,83.652306 
	C1383.443848,78.716949 1383.443848,75.279747 1383.443848,70.525337 
	C1401.805420,70.525337 1419.383423,70.683174 1436.957153,70.481262 
	C1454.795410,70.276321 1472.687256,71.416687 1491.432373,69.591805 
	C1491.626465,46.487160 1491.813232,24.243580 1492.000000,2.000000 
	C1503.387085,2.000000 1514.774292,2.000000 1527.132446,2.936137 
	C1528.103516,54.070370 1528.103516,104.268471 1528.103516,155.274506 
	C1533.415283,155.586624 1537.305664,156.005569 1541.196899,156.013428 
	C1569.517212,156.070694 1597.837524,156.019714 1626.157837,156.078522 
	C1629.654785,156.085785 1633.150635,156.538818 1637.398071,156.838226 
	C1637.083618,161.516785 1636.852417,164.955338 1636.548706,169.474411 
	C1617.923340,169.474411 1600.329956,169.289688 1582.742065,169.526031 
	C1564.925415,169.765442 1547.042480,168.444489 1528.314575,170.500092 
	C1528.073608,194.208206 1528.075073,216.996170 1528.278809,239.396240 
	C1537.583862,241.938797 1705.378174,242.177444 1714.828979,240.039368 
	C1717.224609,230.344193 1716.865356,92.514587 1714.011230,83.757225 
	C1679.291382,83.757225 1644.136841,83.757225 1608.398560,83.757225 
	C1608.398560,79.002029 1608.398560,75.514290 1608.398560,71.139076 
	C1612.817993,70.917908 1616.729492,70.559525 1620.641479,70.552475 
	C1648.295532,70.502663 1675.949585,70.555206 1703.603394,70.489532 
	C1707.464600,70.480362 1711.324707,70.003288 1716.000000,69.687859 
	C1716.000000,46.477722 1716.000000,24.238861 1716.000000,2.000000 
	C2077.964111,2.000000 2439.928467,2.000000 2801.946289,2.000000 
	C2801.946289,585.239746 2801.946289,1168.479492 2801.946289,1751.859619 
	C1868.852661,1751.859619 935.705322,1751.859619 2.278992,1751.859619 
	C2.278992,1168.910522 2.278992,585.820862 2.278992,2.000000 
	C360.053375,2.000000 718.107239,2.000000 1077.331543,2.909647 
	C1078.582764,8.146213 1078.732788,12.473118 1078.733765,16.800055 
	C1078.748779,85.738632 1078.724365,154.677216 1078.791870,223.615738 
	C1078.796265,228.069794 1079.477051,232.523178 1079.817139,236.659958 
	C1097.319946,239.033936 1258.370117,238.125107 1265.674438,235.693176 
	C1265.674438,210.625122 1265.674438,185.451355 1265.674438,159.452621 
	C1261.167358,159.191193 1257.256592,158.775894 1253.344971,158.767700 
	C1225.703003,158.709793 1198.060913,158.772522 1170.419067,158.691772 
	C1166.579590,158.680557 1162.741699,158.093353 1158.474854,157.737045 
	C1158.474854,131.876099 1158.474854,107.055305 1158.474854,81.256615 
	C1162.896729,80.943481 1166.770752,80.441017 1170.646240,80.431282 
	C1198.287964,80.361839 1225.930176,80.420296 1253.572021,80.360619 
	C1257.438232,80.352272 1261.303589,79.920845 1266.000000,79.634636 
	C1266.000000,53.114132 1266.000000,27.557066 1266.000000,2.000000 
M1563.000000,344.584686 
	C1306.348267,344.626709 1049.696411,344.668030 793.044617,344.735107 
	C792.072449,344.735352 791.094299,345.080780 790.131775,345.317322 
	C789.821228,345.393677 789.524231,345.604736 789.271484,345.814789 
	C789.029053,346.016296 788.851990,346.296478 787.887207,347.447876 
	C788.424316,351.507324 789.255371,356.346313 789.677979,361.220703 
	C792.007690,388.092926 794.148438,414.981628 796.520203,441.850037 
	C801.761719,501.225891 807.077209,560.595276 812.411743,619.962830 
	C815.630493,655.784912 818.986084,691.594727 822.195862,727.417603 
	C824.424622,752.291321 826.442688,777.184021 828.673706,802.057556 
	C833.016785,850.478760 837.499573,898.887512 841.818420,947.310852 
	C845.575439,989.433716 849.108887,1031.576538 852.881042,1073.697998 
	C857.752136,1128.090820 862.856567,1182.463013 867.685547,1236.859497 
	C872.161133,1287.273926 876.314392,1337.717163 880.777710,1388.132690 
	C885.887390,1445.850586 891.176758,1503.552734 896.401733,1561.260498 
	C897.542786,1573.862183 898.991699,1586.442627 899.801575,1599.064819 
	C900.161987,1604.682983 902.328613,1607.746094 907.900818,1608.461060 
	C909.201172,1608.627686 910.434143,1609.272217 911.717163,1609.628418 
	C993.246704,1632.258911 1074.779907,1654.876099 1156.309082,1677.508301 
	C1232.388184,1698.627563 1308.574707,1719.375122 1384.446411,1741.215576 
	C1399.664429,1745.596313 1413.284912,1744.907959 1428.138794,1740.730957 
	C1538.453125,1709.708862 1648.906372,1679.180420 1759.320923,1648.515015 
	C1807.144165,1635.233154 1854.964844,1621.940308 1902.829956,1608.810425 
	C1908.024780,1607.385376 1911.689819,1606.030396 1912.245361,1599.426758 
	C1915.204468,1564.256714 1918.768799,1529.138306 1921.908691,1493.982788 
	C1925.522339,1453.524292 1928.840820,1413.039429 1932.418213,1372.577515 
	C1936.113403,1330.784180 1940.018311,1289.009521 1943.732788,1247.217896 
	C1946.710327,1213.719116 1949.434937,1180.197510 1952.461182,1146.703247 
	C1956.835327,1098.291748 1961.488281,1049.905396 1965.819824,1001.490234 
	C1969.499390,960.361084 1972.760864,919.194519 1976.443115,878.065613 
	C1981.995483,816.048096 1987.812134,754.054260 1993.400269,692.039917 
	C1996.537964,657.219971 1999.391479,622.374512 2002.464600,587.548645 
	C2006.299194,544.093567 2010.200439,500.644379 2014.124878,457.197357 
	C2017.030273,425.033051 2020.043823,392.878448 2022.944092,360.713684 
	C2023.381226,355.865753 2023.464478,350.985901 2023.697998,346.386414 
	C2021.786499,345.611847 2020.873535,344.918427 2019.960083,344.917572 
	C1868.306763,344.774475 1716.653320,344.681000 1563.000000,344.584686 
z"/>
<path fill="#000101" opacity="1.000000" stroke="none" 
	d="
M1491.062744,2.000000 
	C1491.813232,24.243580 1491.626465,46.487160 1491.432373,69.591805 
	C1472.687256,71.416687 1454.795410,70.276321 1436.957153,70.481262 
	C1419.383423,70.683174 1401.805420,70.525337 1383.443848,70.525337 
	C1383.443848,75.279747 1383.443848,78.716949 1383.443848,83.652306 
	C1395.506348,83.754440 1407.349976,83.893265 1419.193726,83.944084 
	C1430.857788,83.994141 1442.522095,83.955009 1454.186279,83.955009 
	C1466.114014,83.955009 1478.041748,83.955002 1489.593262,83.955002 
	C1492.123779,92.416389 1492.602295,228.651672 1490.488281,239.412079 
	C1483.304077,241.918793 1316.487915,242.489700 1303.859741,239.715363 
	C1303.499756,217.264969 1303.709595,194.459976 1303.745483,170.451492 
	C1308.271118,170.088882 1312.091797,169.527878 1315.914062,169.517273 
	C1343.574585,169.440506 1371.235352,169.474930 1398.896118,169.474182 
	C1402.818726,169.474091 1406.741333,169.474182 1411.437744,169.474182 
	C1411.437744,164.759720 1411.437744,161.291565 1411.437744,156.550507 
	C1399.887695,155.555801 1388.313843,156.170883 1376.785156,156.068710 
	C1364.788696,155.962372 1352.790527,156.044998 1340.793091,156.044998 
	C1329.164673,156.044998 1317.536377,156.044998 1304.789062,156.044998 
	C1304.366699,152.130905 1303.733154,148.982040 1303.731201,145.832764 
	C1303.701904,98.510193 1303.755737,51.187553 1303.895020,2.932468 
	C1366.041748,2.000000 1428.083618,2.000000 1491.062744,2.000000 
z"/>
<path fill="#000101" opacity="1.000000" stroke="none" 
	d="
M1715.062744,2.000000 
	C1716.000000,24.238861 1716.000000,46.477722 1716.000000,69.687859 
	C1711.324707,70.003288 1707.464600,70.480362 1703.603394,70.489532 
	C1675.949585,70.555206 1648.295532,70.502663 1620.641479,70.552475 
	C1616.729492,70.559525 1612.817993,70.917908 1608.398560,71.139076 
	C1608.398560,75.514290 1608.398560,79.002029 1608.398560,83.757225 
	C1644.136841,83.757225 1679.291382,83.757225 1714.011230,83.757225 
	C1716.865356,92.514587 1717.224609,230.344193 1714.828979,240.039368 
	C1705.378174,242.177444 1537.583862,241.938797 1528.278809,239.396240 
	C1528.075073,216.996170 1528.073608,194.208206 1528.314575,170.500092 
	C1547.042480,168.444489 1564.925415,169.765442 1582.742065,169.526031 
	C1600.329956,169.289688 1617.923340,169.474411 1636.548706,169.474411 
	C1636.852417,164.955338 1637.083618,161.516785 1637.398071,156.838226 
	C1633.150635,156.538818 1629.654785,156.085785 1626.157837,156.078522 
	C1597.837524,156.019714 1569.517212,156.070694 1541.196899,156.013428 
	C1537.305664,156.005569 1533.415283,155.586624 1528.103516,155.274506 
	C1528.103516,104.268471 1528.103516,54.070370 1528.051758,2.936137 
	C1590.041748,2.000000 1652.083618,2.000000 1715.062744,2.000000 
z"/>
<path fill="#010102" opacity="1.000000" stroke="none" 
	d="
M1265.062744,2.000000 
	C1266.000000,27.557066 1266.000000,53.114132 1266.000000,79.634636 
	C1261.303589,79.920845 1257.438232,80.352272 1253.572021,80.360619 
	C1225.930176,80.420296 1198.287964,80.361839 1170.646240,80.431282 
	C1166.770752,80.441017 1162.896729,80.943481 1158.474854,81.256615 
	C1158.474854,107.055305 1158.474854,131.876099 1158.474854,157.737045 
	C1162.741699,158.093353 1166.579590,158.680557 1170.419067,158.691772 
	C1198.060913,158.772522 1225.703003,158.709793 1253.344971,158.767700 
	C1257.256592,158.775894 1261.167358,159.191193 1265.674438,159.452621 
	C1265.674438,185.451355 1265.674438,210.625122 1265.674438,235.693176 
	C1258.370117,238.125107 1097.319946,239.033936 1079.817139,236.659958 
	C1079.477051,232.523178 1078.796265,228.069794 1078.791870,223.615738 
	C1078.724365,154.677216 1078.748779,85.738632 1078.733765,16.800055 
	C1078.732788,12.473118 1078.582764,8.146213 1078.250977,2.909647 
	C1140.041748,2.000000 1202.083618,2.000000 1265.062744,2.000000 
z"/>
<path fill="#264DE4" opacity="1.000000" stroke="none" 
	d="
M1564.000000,344.585144 
	C1716.653320,344.681000 1868.306763,344.774475 2019.960083,344.917572 
	C2020.873535,344.918427 2021.786499,345.611847 2023.697998,346.386414 
	C2023.464478,350.985901 2023.381226,355.865753 2022.944092,360.713684 
	C2020.043823,392.878448 2017.030273,425.033051 2014.124878,457.197357 
	C2010.200439,500.644379 2006.299194,544.093567 2002.464600,587.548645 
	C1999.391479,622.374512 1996.537964,657.219971 1993.400269,692.039917 
	C1987.812134,754.054260 1981.995483,816.048096 1976.443115,878.065613 
	C1972.760864,919.194519 1969.499390,960.361084 1965.819824,1001.490234 
	C1961.488281,1049.905396 1956.835327,1098.291748 1952.461182,1146.703247 
	C1949.434937,1180.197510 1946.710327,1213.719116 1943.732788,1247.217896 
	C1940.018311,1289.009521 1936.113403,1330.784180 1932.418213,1372.577515 
	C1928.840820,1413.039429 1925.522339,1453.524292 1921.908691,1493.982788 
	C1918.768799,1529.138306 1915.204468,1564.256714 1912.245361,1599.426758 
	C1911.689819,1606.030396 1908.024780,1607.385376 1902.829956,1608.810425 
	C1854.964844,1621.940308 1807.144165,1635.233154 1759.320923,1648.515015 
	C1648.906372,1679.180420 1538.453125,1709.708862 1428.138794,1740.730957 
	C1413.284912,1744.907959 1399.664429,1745.596313 1384.446411,1741.215576 
	C1308.574707,1719.375122 1232.388184,1698.627563 1156.309082,1677.508301 
	C1074.779907,1654.876099 993.246704,1632.258911 911.717163,1609.628418 
	C910.434143,1609.272217 909.201172,1608.627686 907.900818,1608.461060 
	C902.328613,1607.746094 900.161987,1604.682983 899.801575,1599.064819 
	C898.991699,1586.442627 897.542786,1573.862183 896.401733,1561.260498 
	C891.176758,1503.552734 885.887390,1445.850586 880.777710,1388.132690 
	C876.314392,1337.717163 872.161133,1287.273926 867.685547,1236.859497 
	C862.856567,1182.463013 857.752136,1128.090820 852.881042,1073.697998 
	C849.108887,1031.576538 845.575439,989.433716 841.818420,947.310852 
	C837.499573,898.887512 833.016785,850.478760 828.673706,802.057556 
	C826.442688,777.184021 824.424622,752.291321 822.195862,727.417603 
	C818.986084,691.594727 815.630493,655.784912 812.411743,619.962830 
	C807.077209,560.595276 801.761719,501.225891 796.520203,441.850037 
	C794.148438,414.981628 792.007690,388.092926 789.677979,361.220703 
	C789.255371,356.346313 788.424316,351.507324 787.887207,347.447876 
	C788.851990,346.296478 789.029053,346.016296 789.271484,345.814789 
	C789.524231,345.604736 789.821228,345.393677 790.131775,345.317322 
	C791.094299,345.080780 792.072449,344.735352 793.044617,344.735107 
	C1049.696411,344.668030 1306.348267,344.626709 1564.000000,344.585144 
M1404.228149,915.870789 
	C1285.133545,915.870789 1166.038940,915.870789 1046.234741,915.870789 
	C1050.918091,968.007446 1055.464478,1018.620178 1060.117310,1070.418823 
	C1064.651123,1070.418823 1068.547974,1070.418823 1072.444702,1070.418823 
	C1179.336426,1070.418945 1286.228149,1070.411865 1393.119873,1070.444946 
	C1397.430542,1070.446289 1401.741089,1070.827271 1406.024048,1072.773804 
	C1406.019287,1148.953369 1406.029053,1225.132812 1405.977783,1301.312378 
	C1405.974365,1306.549683 1406.971313,1312.064575 1401.557617,1316.656128 
	C1345.688232,1301.634521 1289.818970,1286.613037 1233.321655,1271.422607 
	C1229.597046,1230.265259 1225.917847,1189.609985 1222.216431,1148.709229 
	C1170.234863,1148.709229 1119.152588,1148.709229 1067.067749,1148.709229 
	C1074.331421,1229.942139 1081.522095,1310.358398 1088.716309,1390.814453 
	C1118.479858,1399.089478 1147.303589,1407.123413 1176.138916,1415.115845 
	C1252.763062,1436.354248 1329.392212,1457.574829 1405.990967,1480.576294 
	C1405.995605,1527.561646 1405.998535,1574.546997 1406.008667,1621.532349 
	C1406.009277,1624.531006 1405.871216,1627.546509 1406.133179,1630.524658 
	C1406.690186,1636.858643 1408.387207,1638.218384 1414.498535,1636.671997 
	C1422.233887,1634.714722 1429.849365,1632.288940 1437.541870,1630.156860 
	C1481.177002,1618.062012 1524.821777,1606.002075 1568.459595,1593.916626 
	C1647.416260,1572.049805 1726.370483,1550.173340 1805.325684,1528.301025 
	C1814.779175,1525.682251 1815.478149,1524.520752 1816.036133,1514.441772 
	C1816.660889,1503.157104 1817.482910,1491.876221 1818.552856,1480.625488 
	C1820.189209,1463.419312 1822.338135,1446.260620 1823.859863,1429.045532 
	C1826.172363,1402.885986 1827.986694,1376.682495 1830.286011,1350.521729 
	C1832.643066,1323.704834 1835.478394,1296.930176 1837.828979,1270.112915 
	C1840.122192,1243.952881 1841.875610,1217.745117 1844.220337,1191.590088 
	C1846.475708,1166.431519 1849.245850,1141.319214 1851.664062,1116.174561 
	C1852.618774,1106.247681 1853.225586,1096.287354 1854.004883,1086.343384 
	C1854.836304,1075.736328 1855.532104,1065.115967 1856.559814,1054.527710 
	C1858.229736,1037.323730 1860.324463,1020.159546 1861.865234,1002.945068 
	C1863.554443,984.072205 1864.602783,965.141663 1866.321411,946.271912 
	C1868.642578,920.784302 1871.454346,895.341675 1873.836914,869.859253 
	C1875.971558,847.026794 1877.818970,824.167480 1879.774658,801.318420 
	C1880.540161,792.373901 1881.288696,783.427795 1881.984619,774.477661 
	C1882.860962,763.207214 1883.544312,751.920349 1884.545654,740.661377 
	C1886.282715,721.128784 1888.241821,701.615967 1890.025635,682.087341 
	C1891.023560,671.163025 1891.748535,660.213440 1892.788208,649.293457 
	C1894.426514,632.085754 1896.411377,614.909607 1897.908203,597.690430 
	C1899.578125,578.482117 1900.620728,559.218079 1902.383179,540.019348 
	C1904.631714,515.525818 1907.798096,491.109589 1909.689209,466.592194 
	C1911.343994,445.137817 1908.774780,448.040253 1892.582520,448.036346 
	C1736.296753,447.998596 1580.010986,448.013641 1423.725220,448.014282 
	C1421.392578,448.014282 1419.058472,447.969635 1416.727661,448.036896 
	C1407.357910,448.307312 1406.350464,449.273285 1406.033813,458.322540 
	C1405.952393,460.652496 1406.007202,462.987335 1406.005371,465.319946 
	C1405.969971,510.972443 1405.935303,556.624939 1404.085938,602.726379 
	C1399.755737,602.782837 1395.425659,602.888245 1391.095459,602.888611 
	C1271.477417,602.897461 1151.859253,602.895752 1032.241211,602.895752 
	C1027.993774,602.895752 1023.746338,602.895691 1018.416443,602.895691 
	C1023.150269,655.057556 1027.766479,705.923706 1032.467041,757.719116 
	C1037.328491,757.719116 1041.255615,757.719116 1045.182739,757.719116 
	C1161.135620,757.719116 1277.088623,757.714111 1393.041504,757.739014 
	C1397.360840,757.739929 1401.680176,758.032593 1406.008179,760.040222 
	C1406.033081,811.863770 1406.057861,863.687378 1404.228149,915.870789 
z"/>
<path fill="#2965F1" opacity="1.000000" stroke="none" 
	d="
M1405.900513,602.277405 
	C1405.935303,556.624939 1405.969971,510.972443 1406.005371,465.319946 
	C1406.007202,462.987335 1405.952393,460.652496 1406.033813,458.322540 
	C1406.350464,449.273285 1407.357910,448.307312 1416.727661,448.036896 
	C1419.058472,447.969635 1421.392578,448.014282 1423.725220,448.014282 
	C1580.010986,448.013641 1736.296753,447.998596 1892.582520,448.036346 
	C1908.774780,448.040253 1911.343994,445.137817 1909.689209,466.592194 
	C1907.798096,491.109589 1904.631714,515.525818 1902.383179,540.019348 
	C1900.620728,559.218079 1899.578125,578.482117 1897.908203,597.690430 
	C1896.411377,614.909607 1894.426514,632.085754 1892.788208,649.293457 
	C1891.748535,660.213440 1891.023560,671.163025 1890.025635,682.087341 
	C1888.241821,701.615967 1886.282715,721.128784 1884.545654,740.661377 
	C1883.544312,751.920349 1882.860962,763.207214 1881.984619,774.477661 
	C1881.288696,783.427795 1880.540161,792.373901 1879.774658,801.318420 
	C1877.818970,824.167480 1875.971558,847.026794 1873.836914,869.859253 
	C1871.454346,895.341675 1868.642578,920.784302 1866.321411,946.271912 
	C1864.602783,965.141663 1863.554443,984.072205 1861.865234,1002.945068 
	C1860.324463,1020.159546 1858.229736,1037.323730 1856.559814,1054.527710 
	C1855.532104,1065.115967 1854.836304,1075.736328 1854.004883,1086.343384 
	C1853.225586,1096.287354 1852.618774,1106.247681 1851.664062,1116.174561 
	C1849.245850,1141.319214 1846.475708,1166.431519 1844.220337,1191.590088 
	C1841.875610,1217.745117 1840.122192,1243.952881 1837.828979,1270.112915 
	C1835.478394,1296.930176 1832.643066,1323.704834 1830.286011,1350.521729 
	C1827.986694,1376.682495 1826.172363,1402.885986 1823.859863,1429.045532 
	C1822.338135,1446.260620 1820.189209,1463.419312 1818.552856,1480.625488 
	C1817.482910,1491.876221 1816.660889,1503.157104 1816.036133,1514.441772 
	C1815.478149,1524.520752 1814.779175,1525.682251 1805.325684,1528.301025 
	C1726.370483,1550.173340 1647.416260,1572.049805 1568.459595,1593.916626 
	C1524.821777,1606.002075 1481.177002,1618.062012 1437.541870,1630.156860 
	C1429.849365,1632.288940 1422.233887,1634.714722 1414.498535,1636.671997 
	C1408.387207,1638.218384 1406.690186,1636.858643 1406.133179,1630.524658 
	C1405.871216,1627.546509 1406.009277,1624.531006 1406.008667,1621.532349 
	C1405.998535,1574.546997 1405.995605,1527.561646 1406.011230,1479.445435 
	C1406.031372,1478.314575 1405.960083,1477.831665 1406.749268,1477.919189 
	C1408.524414,1477.847290 1409.536133,1477.780762 1410.492554,1477.515259 
	C1497.746094,1453.282959 1584.995361,1429.034546 1672.245361,1404.789307 
	C1688.867920,1400.170166 1705.492676,1395.559326 1722.595581,1390.811646 
	C1746.036865,1128.343384 1769.427979,866.437927 1792.943604,603.137268 
	C1787.514038,603.137268 1783.282715,603.137268 1779.051270,603.137268 
	C1658.721924,603.137268 1538.392700,603.131897 1418.063354,603.160278 
	C1414.079956,603.161194 1410.096558,603.503662 1406.069336,603.333130 
	C1406.025391,602.979370 1405.900513,602.277405 1405.900513,602.277405 
z"/>
<path fill="#EAEAEB" opacity="1.000000" stroke="none" 
	d="
M1406.025391,1478.558594 
	C1329.392212,1457.574829 1252.763062,1436.354248 1176.138916,1415.115845 
	C1147.303589,1407.123413 1118.479858,1399.089478 1088.716309,1390.814453 
	C1081.522095,1310.358398 1074.331421,1229.942139 1067.067749,1148.709229 
	C1119.152588,1148.709229 1170.234863,1148.709229 1222.216431,1148.709229 
	C1225.917847,1189.609985 1229.597046,1230.265259 1233.321655,1271.422607 
	C1289.818970,1286.613037 1345.688232,1301.634521 1402.733887,1317.031738 
	C1404.631104,1317.662231 1405.352051,1317.917114 1406.051758,1319.098389 
	C1406.006958,1372.627075 1405.983521,1425.229370 1405.960205,1477.831665 
	C1405.960083,1477.831665 1406.031372,1478.314575 1406.025391,1478.558594 
z"/>
<path fill="#E8E9EB" opacity="1.000000" stroke="none" 
	d="
M1404.993164,602.501892 
	C1405.900513,602.277405 1406.025391,602.979370 1406.030884,604.290161 
	C1405.985352,656.140564 1405.934326,706.680237 1405.937500,757.459229 
	C1405.991821,757.698547 1405.999512,758.189331 1405.999512,758.189331 
	C1401.680176,758.032593 1397.360840,757.739929 1393.041504,757.739014 
	C1277.088623,757.714111 1161.135620,757.719116 1045.182739,757.719116 
	C1041.255615,757.719116 1037.328491,757.719116 1032.467041,757.719116 
	C1027.766479,705.923706 1023.150269,655.057556 1018.416443,602.895691 
	C1023.746338,602.895691 1027.993774,602.895752 1032.241211,602.895752 
	C1151.859253,602.895752 1271.477417,602.897461 1391.095459,602.888611 
	C1395.425659,602.888245 1399.755737,602.782837 1404.993164,602.501892 
z"/>
<path fill="#EAEBEB" opacity="1.000000" stroke="none" 
	d="
M1406.051758,1071.031372 
	C1401.741089,1070.827271 1397.430542,1070.446289 1393.119873,1070.444946 
	C1286.228149,1070.411865 1179.336426,1070.418945 1072.444702,1070.418823 
	C1068.547974,1070.418823 1064.651123,1070.418823 1060.117310,1070.418823 
	C1055.464478,1018.620178 1050.918091,968.007446 1046.234741,915.870789 
	C1166.038940,915.870789 1285.133545,915.870789 1405.135742,915.938110 
	C1406.043457,916.005432 1405.912720,916.484009 1405.934082,917.390503 
	C1405.966797,968.850647 1405.978149,1019.404297 1406.015869,1070.225586 
	C1406.042236,1070.493408 1406.051758,1071.031372 1406.051758,1071.031372 
z"/>
<path fill="#2B66F1" opacity="1.000000" stroke="none" 
	d="
M1406.073120,1318.171875 
	C1405.352051,1317.917114 1404.631104,1317.662231 1403.499268,1317.007324 
	C1406.971313,1312.064575 1405.974365,1306.549683 1405.977783,1301.312378 
	C1406.029053,1225.132812 1406.019287,1148.953369 1406.037842,1071.902588 
	C1406.051758,1071.031372 1406.042236,1070.493408 1406.934814,1070.427734 
	C1470.308716,1070.431152 1532.789795,1070.500244 1596.075317,1070.570312 
	C1589.984253,1138.383545 1584.033203,1204.637695 1578.063477,1271.099731 
	C1574.495850,1272.160645 1571.685303,1273.064453 1568.838135,1273.832397 
	C1543.765625,1280.594360 1518.668335,1287.265991 1493.613892,1294.094238 
	C1464.415039,1302.051880 1435.251831,1310.140137 1406.073120,1318.171875 
z"/>
<path fill="#2A65F1" opacity="1.000000" stroke="none" 
	d="
M1406.062988,915.758179 
	C1406.057861,863.687378 1406.033081,811.863770 1406.003906,759.114746 
	C1405.999512,758.189331 1405.991821,757.698547 1406.867432,757.635132 
	C1479.288452,757.655151 1550.833740,757.738586 1622.887939,757.822571 
	C1622.887939,762.108398 1622.887939,765.059204 1622.665283,768.493103 
	C1622.522461,769.321716 1622.602295,769.667236 1622.484863,770.886414 
	C1617.994263,819.632324 1613.701172,867.504578 1609.348145,916.044922 
	C1604.630371,916.044922 1601.022583,916.044983 1597.414795,916.044983 
	C1537.559692,916.045044 1477.704712,916.036682 1417.849609,916.063904 
	C1413.870605,916.065674 1409.891724,916.337708 1405.912720,916.484009 
	C1405.912720,916.484009 1406.043457,916.005432 1406.062988,915.758179 
z"/>
<path fill="#FFFFFF" opacity="1.000000" stroke="none" 
	d="
M1405.934082,917.390503 
	C1409.891724,916.337708 1413.870605,916.065674 1417.849609,916.063904 
	C1477.704712,916.036682 1537.559692,916.045044 1597.414795,916.044983 
	C1601.022583,916.044983 1604.630371,916.044922 1609.348145,916.044922 
	C1613.701172,867.504578 1617.994263,819.632324 1622.678955,770.677368 
	C1623.332764,769.026917 1623.271973,768.498718 1622.887939,768.010071 
	C1622.887939,765.059204 1622.887939,762.108398 1622.887939,757.822571 
	C1550.833740,757.738586 1479.288452,757.655151 1406.813232,757.395752 
	C1405.934326,706.680237 1405.985352,656.140564 1406.074707,604.643921 
	C1410.096558,603.503662 1414.079956,603.161194 1418.063354,603.160278 
	C1538.392700,603.131897 1658.721924,603.137268 1779.051270,603.137268 
	C1783.282715,603.137268 1787.514038,603.137268 1792.943604,603.137268 
	C1769.427979,866.437927 1746.036865,1128.343384 1722.595581,1390.811646 
	C1705.492676,1395.559326 1688.867920,1400.170166 1672.245361,1404.789307 
	C1584.995361,1429.034546 1497.746094,1453.282959 1410.492554,1477.515259 
	C1409.536133,1477.780762 1408.524414,1477.847290 1406.749390,1477.919189 
	C1405.983521,1425.229370 1406.006958,1372.627075 1406.051758,1319.098267 
	C1435.251831,1310.140137 1464.415039,1302.051880 1493.613892,1294.094238 
	C1518.668335,1287.265991 1543.765625,1280.594360 1568.838135,1273.832397 
	C1571.685303,1273.064453 1574.495850,1272.160645 1578.063477,1271.099731 
	C1584.033203,1204.637695 1589.984253,1138.383545 1596.075317,1070.570312 
	C1532.789795,1070.500244 1470.308716,1070.431152 1406.908447,1070.159912 
	C1405.978149,1019.404297 1405.966797,968.850647 1405.934082,917.390503 
z"/>
<path fill="#E8E9EB" opacity="1.000000" stroke="none" 
	d="
M1622.665283,768.493103 
	C1623.271973,768.498718 1623.332764,769.026917 1622.876343,769.803711 
	C1622.602295,769.667236 1622.522461,769.321716 1622.665283,768.493103 
z"/>
</svg>