<svg version="1.1" id="Layer_1" xmlns="http://www.w3.org/2000/svg" xmlns:xlink="http://www.w3.org/1999/xlink" x="0px" y="0px"
	 width="100%" viewBox="0 0 908 1280" enable-background="new 0 0 908 1280" xml:space="preserve">
<path fill="#E44D26" opacity="1.000000" stroke="none" 
	d="
M0.999996,263.000000 
	C1.000000,258.975464 1.000000,254.950912 1.433448,250.647369 
	C3.349559,250.245651 4.832215,250.015472 6.314884,250.015396 
	C307.209930,249.999603 608.104980,250.000076 909.000000,250.000000 
	C909.000000,253.692917 909.000000,257.385834 908.588928,261.368256 
	C907.766541,265.001648 907.278015,268.338165 906.957275,271.690704 
	C905.610657,285.765930 904.276855,299.842651 903.013367,313.925537 
	C902.248169,322.453400 901.680542,330.998932 900.917297,339.526947 
	C899.656921,353.609619 898.284058,367.682190 897.009399,381.763580 
	C896.252319,390.127014 895.651428,398.504791 894.875183,406.866333 
	C893.629211,420.289215 892.234802,433.698486 891.021545,447.124176 
	C890.220825,455.983795 889.716919,464.870178 888.920654,473.730255 
	C887.685120,487.478912 886.266357,501.211060 885.017029,514.958557 
	C884.242310,523.483459 883.710632,532.030457 882.939758,540.555786 
	C881.682312,554.463440 880.276917,568.357788 879.014893,582.265076 
	C878.241028,590.792847 877.692444,599.341187 876.910400,607.868103 
	C875.664856,621.448669 874.263306,635.014954 873.022461,648.595947 
	C872.527344,654.015747 872.410767,659.470459 871.900879,664.888550 
	C870.669800,677.971191 869.235779,691.034729 868.025513,704.119202 
	C867.206360,712.975220 866.732727,721.863098 865.917908,730.719604 
	C864.698059,743.978821 863.237366,757.215881 862.026611,770.475891 
	C861.203247,779.493652 860.716797,788.541931 859.929443,797.563354 
	C858.685669,811.813171 857.293030,826.049988 856.008423,840.296326 
	C855.269104,848.494324 854.676025,856.705750 853.914734,864.901550 
	C852.653381,878.480103 851.241150,892.044922 850.024048,905.627258 
	C849.215210,914.652710 848.750977,923.709106 847.925720,932.732788 
	C846.714172,945.978394 845.238464,959.199890 844.027466,972.445557 
	C843.202454,981.468018 842.724426,990.521729 841.936218,999.547974 
	C840.692261,1013.794128 839.283203,1028.025635 838.012390,1042.269653 
	C837.250793,1050.805054 836.704590,1059.360107 835.909180,1067.892212 
	C834.674316,1081.138794 833.233398,1094.366211 832.026367,1107.615234 
	C831.204346,1116.638428 830.757202,1125.696289 829.919128,1134.717773 
	C828.719421,1147.633057 827.184570,1160.518555 826.101318,1173.442505 
	C825.861694,1176.301636 824.857605,1177.338257 822.270874,1178.040039 
	C801.227112,1183.749390 780.200989,1189.525635 759.202148,1195.398438 
	C731.304016,1203.200806 703.451782,1211.167725 675.549866,1218.956299 
	C640.754639,1228.669067 605.937073,1238.302612 571.113892,1247.914917 
	C533.458008,1258.309204 495.782166,1268.631592 458.133911,1279.053467 
	C457.306396,1279.282471 456.706238,1280.332764 456.000000,1281.000000 
	C455.250000,1281.000000 454.500000,1281.000000 453.630920,1280.650635 
	C452.846283,1279.876953 452.234314,1279.252075 451.507263,1279.057861 
	C439.874542,1275.950806 428.190460,1273.030273 416.593597,1269.796387 
	C405.481262,1266.697876 394.493042,1263.155273 383.385162,1260.039917 
	C357.059814,1252.656616 330.700043,1245.395874 304.346161,1238.114624 
	C282.387878,1232.047852 260.419067,1226.019165 238.453033,1219.980591 
	C226.215515,1216.616333 213.965500,1213.297119 201.736526,1209.902222 
	C180.289154,1203.948486 158.859909,1197.929443 137.411163,1191.980713 
	C120.464661,1187.280640 103.492165,1182.673828 86.564789,1177.906494 
	C85.566368,1177.625244 84.316147,1176.385010 84.130531,1175.410522 
	C83.518974,1172.199707 83.280418,1168.910889 83.012207,1165.642822 
	C82.284683,1156.778320 81.704330,1147.901001 80.902672,1139.043457 
	C79.673439,1125.461792 78.254097,1111.897217 77.019417,1098.316040 
	C76.229118,1089.622925 75.696724,1080.906494 74.922882,1072.211914 
	C73.669655,1058.130859 72.273872,1044.062500 71.014595,1029.981934 
	C70.252304,1021.458557 69.699829,1012.916260 68.935814,1004.393005 
	C67.673714,990.313049 66.285233,976.244446 65.011726,962.165466 
	C64.255249,953.802612 63.682400,945.422974 62.910648,937.061584 
	C61.657364,923.483276 60.242340,909.919678 59.023438,896.338440 
	C58.213669,887.315735 57.728054,878.263977 56.916210,869.241455 
	C55.693962,855.658142 54.256557,842.094299 53.020412,828.512146 
	C52.229259,819.819397 51.716164,811.101501 50.935417,802.407715 
	C49.685902,788.494202 48.276569,774.595093 47.014797,760.682617 
	C46.241550,752.156738 45.691597,743.610474 44.909637,735.085388 
	C43.664207,721.507568 42.254665,707.944702 41.019611,694.365967 
	C40.228809,685.671509 39.723446,676.951050 38.917938,668.258118 
	C37.690315,655.009827 36.235600,641.782410 35.027271,628.532471 
	C34.204441,619.509705 33.715195,610.457031 32.938923,601.429565 
	C31.685516,586.853394 30.301029,572.288696 29.006458,557.716003 
	C28.278072,549.516724 27.677019,541.305908 26.915556,533.109863 
	C25.654179,519.533081 24.254976,505.968903 23.019779,492.389771 
	C22.229017,483.696503 21.720736,474.977417 20.921539,466.285034 
	C19.688328,452.872101 18.233976,439.479309 17.027925,426.064087 
	C16.201849,416.875458 15.742779,407.653992 14.933087,398.463623 
	C13.707112,384.548309 12.276734,370.651123 11.015065,356.738800 
	C10.241776,348.211731 9.712657,339.662262 8.911124,331.138123 
	C7.680993,318.055969 6.226286,304.994659 5.029013,291.909698 
	C4.203794,282.890900 3.690797,273.843689 2.900117,264.821289 
	C2.842493,264.163757 1.659677,263.604797 0.999996,263.000000 
M454.286469,963.843445 
	C413.282471,952.839233 372.286346,941.805420 331.258606,930.890381 
	C328.177216,930.070618 328.132690,928.087097 327.924957,925.682129 
	C326.233398,906.098877 324.489075,886.520142 322.730682,866.942749 
	C321.929474,858.022400 321.060333,849.108154 320.216888,840.136475 
	C282.185486,840.136475 244.637695,840.136475 206.768707,840.136475 
	C206.974533,843.333984 207.094238,846.140503 207.344147,848.935425 
	C212.195190,903.189575 217.124542,957.436951 221.804977,1011.705750 
	C222.180603,1016.061035 223.476135,1017.917358 227.765717,1019.099670 
	C303.535889,1039.982300 379.255615,1061.047852 454.988464,1083.001953 
	C454.992859,1119.661377 454.987183,1156.320923 455.011902,1192.980347 
	C455.015900,1198.938232 455.310028,1199.110229 460.940002,1197.557983 
	C491.290924,1189.189453 521.653320,1180.862427 551.992737,1172.452393 
	C617.808105,1154.208496 683.601501,1135.884888 749.445007,1117.743164 
	C753.596924,1116.599121 754.823364,1114.665894 755.110291,1110.495117 
	C756.273682,1093.580200 757.851257,1076.693359 759.344910,1059.802124 
	C760.853088,1042.747070 762.468750,1025.701416 763.988037,1008.647339 
	C765.138794,995.730835 766.180786,982.804749 767.327942,969.887939 
	C768.857300,952.668030 770.461792,935.454712 771.995850,918.235168 
	C773.131897,905.484253 774.158630,892.723450 775.321411,879.974976 
	C776.831360,863.420166 778.484253,846.878296 779.971436,830.321533 
	C781.473633,813.597778 782.799927,796.858337 784.292664,780.133728 
	C785.800110,763.245361 787.468384,746.371399 788.971863,729.482666 
	C790.460815,712.757751 791.777649,696.017517 793.270081,679.292908 
	C794.777100,662.404541 796.463623,645.532227 797.967224,628.643555 
	C799.456177,611.918457 800.754883,595.176453 802.247314,578.451721 
	C803.754395,561.563354 805.458862,544.692627 806.962524,527.803955 
	C808.451660,511.079041 809.714966,494.333862 811.227051,477.611115 
	C813.397766,453.605225 815.783447,429.618713 817.930542,405.610809 
	C820.092590,381.435364 822.055969,357.242188 824.150146,333.060608 
	C824.669006,327.069336 824.746826,327.029633 818.511353,327.029144 
	C699.532410,327.019806 580.553467,327.019592 461.574524,327.029510 
	C455.287384,327.030029 455.011841,327.298035 455.010010,333.464569 
	C454.999573,369.124878 455.015869,404.785156 454.096802,440.615417 
	C451.931244,440.643860 449.765717,440.697052 447.600159,440.697144 
	C357.614380,440.701355 267.628632,440.700806 177.642853,440.700806 
	C175.550293,440.700806 173.457733,440.700775 170.944473,440.700775 
	C181.168549,555.278137 191.318680,669.026855 201.495285,783.072327 
	C204.127121,783.072327 206.112198,783.072388 208.097275,783.072388 
	C288.251251,783.072388 368.405243,783.070190 448.559235,783.083801 
	C450.718079,783.084167 452.876923,783.254639 455.015167,784.238831 
	C455.023682,844.037598 455.032196,903.836304 454.286469,963.843445 
z"/>
<path fill="#000000" opacity="1.000000" stroke="none" 
	d="
M909.000000,249.540298 
	C608.104980,250.000076 307.209930,249.999603 6.314884,250.015396 
	C4.832215,250.015472 3.349559,250.245651 1.433448,250.184189 
	C1.000000,167.024765 1.000000,84.049538 1.000000,1.037156 
	C303.551575,1.037156 606.103149,1.037156 909.000000,1.037156 
	C909.000000,83.693214 909.000000,166.386902 909.000000,249.540298 
z"/>
<path fill="#000000" opacity="1.000000" stroke="none" 
	d="
M456.468658,1281.000000 
	C456.706238,1280.332764 457.306396,1279.282471 458.133911,1279.053467 
	C495.782166,1268.631592 533.458008,1258.309204 571.113892,1247.914917 
	C605.937073,1238.302612 640.754639,1228.669067 675.549866,1218.956299 
	C703.451782,1211.167725 731.304016,1203.200806 759.202148,1195.398438 
	C780.200989,1189.525635 801.227112,1183.749390 822.270874,1178.040039 
	C824.857605,1177.338257 825.861694,1176.301636 826.101318,1173.442505 
	C827.184570,1160.518555 828.719421,1147.633057 829.919128,1134.717773 
	C830.757202,1125.696289 831.204346,1116.638428 832.026367,1107.615234 
	C833.233398,1094.366211 834.674316,1081.138794 835.909180,1067.892212 
	C836.704590,1059.360107 837.250793,1050.805054 838.012390,1042.269653 
	C839.283203,1028.025635 840.692261,1013.794128 841.936218,999.547974 
	C842.724426,990.521729 843.202454,981.468018 844.027466,972.445557 
	C845.238464,959.199890 846.714172,945.978394 847.925720,932.732788 
	C848.750977,923.709106 849.215210,914.652710 850.024048,905.627258 
	C851.241150,892.044922 852.653381,878.480103 853.914734,864.901550 
	C854.676025,856.705750 855.269104,848.494324 856.008423,840.296326 
	C857.293030,826.049988 858.685669,811.813171 859.929443,797.563354 
	C860.716797,788.541931 861.203247,779.493652 862.026611,770.475891 
	C863.237366,757.215881 864.698059,743.978821 865.917908,730.719604 
	C866.732727,721.863098 867.206360,712.975220 868.025513,704.119202 
	C869.235779,691.034729 870.669800,677.971191 871.900879,664.888550 
	C872.410767,659.470459 872.527344,654.015747 873.022461,648.595947 
	C874.263306,635.014954 875.664856,621.448669 876.910400,607.868103 
	C877.692444,599.341187 878.241028,590.792847 879.014893,582.265076 
	C880.276917,568.357788 881.682312,554.463440 882.939758,540.555786 
	C883.710632,532.030457 884.242310,523.483459 885.017029,514.958557 
	C886.266357,501.211060 887.685120,487.478912 888.920654,473.730255 
	C889.716919,464.870178 890.220825,455.983795 891.021545,447.124176 
	C892.234802,433.698486 893.629211,420.289215 894.875183,406.866333 
	C895.651428,398.504791 896.252319,390.127014 897.009399,381.763580 
	C898.284058,367.682190 899.656921,353.609619 900.917297,339.526947 
	C901.680542,330.998932 902.248169,322.453400 903.013367,313.925537 
	C904.276855,299.842651 905.610657,285.765930 906.957275,271.690704 
	C907.278015,268.338165 907.766541,265.001648 908.588928,261.828888 
	C909.000000,601.565735 909.000000,941.131531 909.000000,1281.000000 
	C758.312561,1281.000000 607.624939,1281.000000 456.468658,1281.000000 
z"/>
<path fill="#000000" opacity="1.000000" stroke="none" 
	d="
M0.999996,263.468658 
	C1.659677,263.604797 2.842493,264.163757 2.900117,264.821289 
	C3.690797,273.843689 4.203794,282.890900 5.029013,291.909698 
	C6.226286,304.994659 7.680993,318.055969 8.911124,331.138123 
	C9.712657,339.662262 10.241776,348.211731 11.015065,356.738800 
	C12.276734,370.651123 13.707112,384.548309 14.933087,398.463623 
	C15.742779,407.653992 16.201849,416.875458 17.027925,426.064087 
	C18.233976,439.479309 19.688328,452.872101 20.921539,466.285034 
	C21.720736,474.977417 22.229017,483.696503 23.019779,492.389771 
	C24.254976,505.968903 25.654179,519.533081 26.915556,533.109863 
	C27.677019,541.305908 28.278072,549.516724 29.006458,557.716003 
	C30.301029,572.288696 31.685516,586.853394 32.938923,601.429565 
	C33.715195,610.457031 34.204441,619.509705 35.027271,628.532471 
	C36.235600,641.782410 37.690315,655.009827 38.917938,668.258118 
	C39.723446,676.951050 40.228809,685.671509 41.019611,694.365967 
	C42.254665,707.944702 43.664207,721.507568 44.909637,735.085388 
	C45.691597,743.610474 46.241550,752.156738 47.014797,760.682617 
	C48.276569,774.595093 49.685902,788.494202 50.935417,802.407715 
	C51.716164,811.101501 52.229259,819.819397 53.020412,828.512146 
	C54.256557,842.094299 55.693962,855.658142 56.916210,869.241455 
	C57.728054,878.263977 58.213669,887.315735 59.023438,896.338440 
	C60.242340,909.919678 61.657364,923.483276 62.910648,937.061584 
	C63.682400,945.422974 64.255249,953.802612 65.011726,962.165466 
	C66.285233,976.244446 67.673714,990.313049 68.935814,1004.393005 
	C69.699829,1012.916260 70.252304,1021.458557 71.014595,1029.981934 
	C72.273872,1044.062500 73.669655,1058.130859 74.922882,1072.211914 
	C75.696724,1080.906494 76.229118,1089.622925 77.019417,1098.316040 
	C78.254097,1111.897217 79.673439,1125.461792 80.902672,1139.043457 
	C81.704330,1147.901001 82.284683,1156.778320 83.012207,1165.642822 
	C83.280418,1168.910889 83.518974,1172.199707 84.130531,1175.410522 
	C84.316147,1176.385010 85.566368,1177.625244 86.564789,1177.906494 
	C103.492165,1182.673828 120.464661,1187.280640 137.411163,1191.980713 
	C158.859909,1197.929443 180.289154,1203.948486 201.736526,1209.902222 
	C213.965500,1213.297119 226.215515,1216.616333 238.453033,1219.980591 
	C260.419067,1226.019165 282.387878,1232.047852 304.346161,1238.114624 
	C330.700043,1245.395874 357.059814,1252.656616 383.385162,1260.039917 
	C394.493042,1263.155273 405.481262,1266.697876 416.593597,1269.796387 
	C428.190460,1273.030273 439.874542,1275.950806 451.507263,1279.057861 
	C452.234314,1279.252075 452.846283,1279.876953 453.255920,1280.650635 
	C302.378143,1281.000000 151.756271,1281.000000 1.000000,1281.000000 
	C1.000000,941.979126 1.000000,602.958191 0.999996,263.468658 
z"/>
<path fill="#F1652A" opacity="1.000000" stroke="none" 
	d="
M455.023102,440.445465 
	C455.015869,404.785156 454.999573,369.124878 455.010010,333.464569 
	C455.011841,327.298035 455.287384,327.030029 461.574524,327.029510 
	C580.553467,327.019592 699.532410,327.019806 818.511353,327.029144 
	C824.746826,327.029633 824.669006,327.069336 824.150146,333.060608 
	C822.055969,357.242188 820.092590,381.435364 817.930542,405.610809 
	C815.783447,429.618713 813.397766,453.605225 811.227051,477.611115 
	C809.714966,494.333862 808.451660,511.079041 806.962524,527.803955 
	C805.458862,544.692627 803.754395,561.563354 802.247314,578.451721 
	C800.754883,595.176453 799.456177,611.918457 797.967224,628.643555 
	C796.463623,645.532227 794.777100,662.404541 793.270081,679.292908 
	C791.777649,696.017517 790.460815,712.757751 788.971863,729.482666 
	C787.468384,746.371399 785.800110,763.245361 784.292664,780.133728 
	C782.799927,796.858337 781.473633,813.597778 779.971436,830.321533 
	C778.484253,846.878296 776.831360,863.420166 775.321411,879.974976 
	C774.158630,892.723450 773.131897,905.484253 771.995850,918.235168 
	C770.461792,935.454712 768.857300,952.668030 767.327942,969.887939 
	C766.180786,982.804749 765.138794,995.730835 763.988037,1008.647339 
	C762.468750,1025.701416 760.853088,1042.747070 759.344910,1059.802124 
	C757.851257,1076.693359 756.273682,1093.580200 755.110291,1110.495117 
	C754.823364,1114.665894 753.596924,1116.599121 749.445007,1117.743164 
	C683.601501,1135.884888 617.808105,1154.208496 551.992737,1172.452393 
	C521.653320,1180.862427 491.290924,1189.189453 460.940002,1197.557983 
	C455.310028,1199.110229 455.015900,1198.938232 455.011902,1192.980347 
	C454.987183,1156.320923 454.992859,1119.661377 455.020752,1082.398560 
	C455.053070,1081.795166 455.093628,1081.511597 455.500183,1081.471924 
	C466.022278,1078.644165 476.140656,1075.866455 486.252899,1073.066406 
	C551.419434,1055.021729 616.584229,1036.971069 681.751343,1018.928406 
	C684.449951,1018.181274 686.845154,1017.878906 687.189026,1013.856018 
	C690.949219,969.863525 694.968201,925.893250 698.902283,881.915588 
	C704.157715,823.168152 709.402832,764.419800 714.646301,705.671265 
	C715.692871,693.945435 716.711731,682.217102 717.796448,669.886475 
	C715.351562,669.886475 713.391113,669.886414 711.430725,669.886414 
	C627.771912,669.886414 544.113098,669.885071 460.454285,669.895569 
	C458.626740,669.895813 456.799194,670.031433 454.999786,669.980408 
	C455.027924,669.856934 455.047729,669.604553 455.035278,669.161011 
	C455.024963,630.539856 455.027161,592.362244 455.015625,554.060120 
	C455.001923,553.935669 454.938568,553.693298 455.403992,553.779663 
	C546.449341,553.865967 637.029297,553.865967 728.145752,553.865967 
	C731.531555,516.136047 734.886047,478.755280 738.300720,440.703491 
	C735.543396,440.703491 733.431641,440.703491 731.319824,440.703491 
	C641.211853,440.703491 551.103882,440.701874 460.995941,440.713715 
	C459.004120,440.713989 457.012329,440.867340 455.051819,440.823486 
	C455.083130,440.697693 455.023102,440.445465 455.023102,440.445465 
z"/>
<path fill="#EBEBEB" opacity="1.000000" stroke="none" 
	d="
M455.035767,783.345825 
	C452.876923,783.254639 450.718079,783.084167 448.559235,783.083801 
	C368.405243,783.070190 288.251251,783.072388 208.097275,783.072388 
	C206.112198,783.072388 204.127121,783.072327 201.495285,783.072327 
	C191.318680,669.026855 181.168549,555.278137 170.944473,440.700775 
	C173.457733,440.700775 175.550293,440.700806 177.642853,440.700806 
	C267.628632,440.700806 357.614380,440.701355 447.600159,440.697144 
	C449.765717,440.697052 451.931244,440.643860 454.559937,440.530457 
	C455.023102,440.445465 455.083130,440.697693 455.037781,441.295288 
	C454.974487,479.159698 454.956512,516.426514 454.938568,553.693298 
	C454.938568,553.693298 455.001923,553.935669 454.555298,553.962280 
	C401.209625,553.988892 348.310547,553.988892 294.742950,553.988892 
	C298.219666,592.883545 301.646393,631.218811 305.102875,669.887268 
	C307.259613,669.887268 308.732910,669.887268 310.206238,669.887268 
	C356.996094,669.887146 403.785950,669.889648 450.575806,669.875122 
	C452.066467,669.874634 453.557098,669.698730 455.047729,669.604614 
	C455.047729,669.604553 455.027924,669.856934 454.998291,670.442383 
	C454.965271,708.304138 454.961884,745.580444 454.988647,782.977295 
	C455.018799,783.097900 455.035767,783.345825 455.035767,783.345825 
z"/>
<path fill="#EBEBEA" opacity="1.000000" stroke="none" 
	d="
M455.093628,1081.511597 
	C455.093628,1081.511597 455.053070,1081.795166 455.019653,1081.934570 
	C379.255615,1061.047852 303.535889,1039.982300 227.765717,1019.099670 
	C223.476135,1017.917358 222.180603,1016.061035 221.804977,1011.705750 
	C217.124542,957.436951 212.195190,903.189575 207.344147,848.935425 
	C207.094238,846.140503 206.974533,843.333984 206.768707,840.136475 
	C244.637695,840.136475 282.185486,840.136475 320.216888,840.136475 
	C321.060333,849.108154 321.929474,858.022400 322.730682,866.942749 
	C324.489075,886.520142 326.233398,906.098877 327.924957,925.682129 
	C328.132690,928.087097 328.177216,930.070618 331.258606,930.890381 
	C372.286346,941.805420 413.282471,952.839233 454.659393,963.868103 
	C455.032318,963.892761 454.964508,964.141602 454.965393,964.601318 
	C455.008698,1003.877869 455.051178,1042.694702 455.093628,1081.511597 
z"/>
<path fill="#F1662A" opacity="1.000000" stroke="none" 
	d="
M455.036499,963.763916 
	C455.032196,903.836304 455.023682,844.037598 455.025452,783.792358 
	C455.035767,783.345825 455.018799,783.097900 455.453156,783.062256 
	C501.809967,783.026550 547.732422,783.026550 593.704590,783.026550 
	C593.773132,784.468689 593.883057,785.134888 593.824585,785.785950 
	C589.608154,832.746155 585.351929,879.702881 581.217102,926.670288 
	C580.978943,929.375549 579.825012,930.340637 577.440063,930.959229 
	C567.284851,933.593506 557.160522,936.347839 547.035767,939.098267 
	C516.342651,947.436096 485.654572,955.792480 454.964508,964.141602 
	C454.964508,964.141602 455.032318,963.892761 455.036499,963.763916 
z"/>
<path fill="#FFFFFF" opacity="1.000000" stroke="none" 
	d="
M454.965393,964.601318 
	C485.654572,955.792480 516.342651,947.436096 547.035767,939.098267 
	C557.160522,936.347839 567.284851,933.593506 577.440063,930.959229 
	C579.825012,930.340637 580.978943,929.375549 581.217102,926.670288 
	C585.351929,879.702881 589.608154,832.746155 593.824585,785.785950 
	C593.883057,785.134888 593.773132,784.468689 593.704590,783.026550 
	C547.732422,783.026550 501.809967,783.026550 455.423004,782.941650 
	C454.961884,745.580444 454.965271,708.304138 454.970154,670.565857 
	C456.799194,670.031433 458.626740,669.895813 460.454285,669.895569 
	C544.113098,669.885071 627.771912,669.886414 711.430725,669.886414 
	C713.391113,669.886414 715.351562,669.886475 717.796448,669.886475 
	C716.711731,682.217102 715.692871,693.945435 714.646301,705.671265 
	C709.402832,764.419800 704.157715,823.168152 698.902283,881.915588 
	C694.968201,925.893250 690.949219,969.863525 687.189026,1013.856018 
	C686.845154,1017.878906 684.449951,1018.181274 681.751343,1018.928406 
	C616.584229,1036.971069 551.419434,1055.021729 486.252899,1073.066406 
	C476.140656,1075.866455 466.022278,1078.644165 455.500183,1081.471924 
	C455.051178,1042.694702 455.008698,1003.877869 454.965393,964.601318 
z"/>
<path fill="#FFFFFF" opacity="1.000000" stroke="none" 
	d="
M455.403992,553.779663 
	C454.956512,516.426514 454.974487,479.159698 455.006470,441.421082 
	C457.012329,440.867340 459.004120,440.713989 460.995941,440.713715 
	C551.103882,440.701874 641.211853,440.703491 731.319824,440.703491 
	C733.431641,440.703491 735.543396,440.703491 738.300720,440.703491 
	C734.886047,478.755280 731.531555,516.136047 728.145752,553.865967 
	C637.029297,553.865967 546.449341,553.865967 455.403992,553.779663 
z"/>
<path fill="#E44D26" opacity="1.000000" stroke="none" 
	d="
M455.035278,669.161072 
	C453.557098,669.698730 452.066467,669.874634 450.575806,669.875122 
	C403.785950,669.889648 356.996094,669.887146 310.206238,669.887268 
	C308.732910,669.887268 307.259613,669.887268 305.102875,669.887268 
	C301.646393,631.218811 298.219666,592.883545 294.742950,553.988892 
	C348.310547,553.988892 401.209625,553.988892 454.569031,554.086731 
	C455.027161,592.362244 455.024963,630.539856 455.035278,669.161072 
z"/>
</svg>