<svg version="1.1" id="Layer_1" xmlns="http://www.w3.org/2000/svg" xmlns:xlink="http://www.w3.org/1999/xlink" x="0px" y="0px"
	 width="100%" viewBox="0 0 512 512" enable-background="new 0 0 512 512" xml:space="preserve">
<path fill="#007AB9" opacity="1.000000" stroke="none" 
	d="
M279.000000,513.000000 
	C264.645782,513.000000 250.291550,513.000000 235.280685,512.613770 
	C226.532486,511.155243 218.423706,510.197754 210.352615,508.988739 
	C187.722900,505.598877 166.351547,498.132904 145.809631,488.299133 
	C125.300255,478.480988 106.445953,466.123932 89.362175,450.992401 
	C73.771301,437.183105 59.664268,422.154785 47.540394,405.183411 
	C34.618958,387.095642 24.252813,367.660614 16.541012,346.898865 
	C9.867482,328.932343 4.969646,310.428528 2.960533,291.261383 
	C2.529671,287.150909 1.664891,283.085938 1.000000,279.000000 
	C1.000000,264.645782 1.000000,250.291550 1.386289,235.280609 
	C2.844648,226.533646 3.801986,218.426239 5.010674,210.356461 
	C8.400189,187.726425 15.865170,166.354294 25.699163,145.812256 
	C35.517532,125.302864 47.872353,106.446800 63.005749,89.363663 
	C76.816353,73.773727 91.843491,59.665062 108.815331,47.541428 
	C126.903488,34.620361 146.338013,24.252716 167.100311,16.541260 
	C185.067245,9.868040 203.571106,4.969776 222.738480,2.960541 
	C226.848984,2.529652 230.914017,1.664892 235.000000,1.000001 
	C249.354233,1.000000 263.708466,1.000000 278.719421,1.386293 
	C287.466431,2.844660 295.573914,3.801985 303.643768,5.010694 
	C326.273773,8.400250 347.645844,15.865263 368.187866,25.699272 
	C388.697235,35.517647 407.553284,47.872437 424.636444,63.005825 
	C440.226318,76.816444 454.334961,91.843597 466.458618,108.815384 
	C479.379730,126.903519 489.747253,146.338104 497.458740,167.100372 
	C504.131989,185.067276 509.030151,203.571136 511.039459,222.738480 
	C511.470367,226.848984 512.335144,230.914017 513.000000,235.000000 
	C513.000000,249.354233 513.000000,263.708466 512.613708,278.719421 
	C511.141754,288.464722 510.709137,297.689484 508.847473,306.616241 
	C503.328461,333.080353 494.436981,358.327972 481.086548,382.012054 
	C466.187988,408.442474 447.218719,431.338104 424.370087,451.233215 
	C405.684601,467.503296 385.144409,480.690613 362.574829,490.859467 
	C339.632202,501.196472 315.792938,508.184601 290.760223,511.040039 
	C286.816925,511.489838 282.918945,512.336731 279.000000,513.000000 
M240.501755,199.048309 
	C234.759079,199.048309 229.016403,199.048309 223.384262,199.048309 
	C223.384262,260.813507 223.384262,321.719543 223.384262,382.786285 
	C243.731369,382.786285 263.794769,382.786285 284.303894,382.786285 
	C284.303894,380.543304 284.303894,378.582367 284.303894,376.621429 
	C284.304169,345.303741 284.376465,313.985779 284.268463,282.668457 
	C284.226593,270.534637 286.866150,259.698425 296.282501,251.110260 
	C310.001099,238.598251 339.494507,239.089493 345.895233,264.609192 
	C347.737488,271.954193 348.647980,279.708954 348.727478,287.289032 
	C349.041962,317.270782 348.857025,347.257751 348.857208,377.242798 
	C348.857239,379.026062 348.857239,380.809357 348.857239,382.816101 
	C369.425385,382.816101 389.481323,382.816101 409.844482,382.816101 
	C409.901062,381.616180 409.985870,380.655365 409.985870,379.694519 
	C409.985565,345.378357 410.382629,311.054688 409.743469,276.750275 
	C409.528931,265.234924 407.933380,253.407944 404.768890,242.353195 
	C397.583832,217.252945 380.917084,200.904388 354.831604,196.289703 
	C328.075562,191.556366 304.468079,197.355499 287.508423,220.633301 
	C286.824982,221.571335 285.933044,222.357422 284.302948,224.114868 
	C284.302948,215.097809 284.302948,207.350632 284.302948,199.048309 
	C269.721710,199.048309 255.611313,199.048309 240.501755,199.048309 
M184.404617,383.071960 
	C185.970749,383.000732 187.536880,382.929474 188.921143,382.866516 
	C188.921143,321.271851 188.921143,260.357452 188.921143,199.410309 
	C168.523331,199.410309 148.469604,199.410309 128.335602,199.410309 
	C128.335602,260.694336 128.335602,321.616913 128.335602,383.071991 
	C146.857529,383.071991 165.138306,383.071991 184.404617,383.071960 
M188.401947,125.203056 
	C180.102707,112.820679 168.021469,109.594780 153.998276,110.855667 
	C138.412201,112.257080 126.135406,123.764267 124.946426,138.251480 
	C123.527206,155.544052 132.342545,168.845581 148.633820,172.619324 
	C163.176544,175.988037 176.843399,173.787750 186.645462,161.440628 
	C195.403732,150.408310 195.201111,138.137070 188.401947,125.203056 
z"/>
<path fill="#FFFFFF" opacity="1.000000" stroke="none" 
	d="
M1.000000,279.468658 
	C1.664891,283.085938 2.529671,287.150909 2.960533,291.261383 
	C4.969646,310.428528 9.867482,328.932343 16.541012,346.898865 
	C24.252813,367.660614 34.618958,387.095642 47.540394,405.183411 
	C59.664268,422.154785 73.771301,437.183105 89.362175,450.992401 
	C106.445953,466.123932 125.300255,478.480988 145.809631,488.299133 
	C166.351547,498.132904 187.722900,505.598877 210.352615,508.988739 
	C218.423706,510.197754 226.532486,511.155243 234.812027,512.613770 
	C157.072968,513.000000 79.145927,513.000000 1.000000,513.000000 
	C1.000000,435.312561 1.000000,357.624939 1.000000,279.468658 
z"/>
<path fill="#FFFFFF" opacity="1.000000" stroke="none" 
	d="
M279.468658,513.000000 
	C282.918945,512.336731 286.816925,511.489838 290.760223,511.040039 
	C315.792938,508.184601 339.632202,501.196472 362.574829,490.859467 
	C385.144409,480.690613 405.684601,467.503296 424.370087,451.233215 
	C447.218719,431.338104 466.187988,408.442474 481.086548,382.012054 
	C494.436981,358.327972 503.328461,333.080353 508.847473,306.616241 
	C510.709137,297.689484 511.141754,288.464722 512.613708,279.188049 
	C513.000000,356.927032 513.000000,434.854095 513.000000,513.000000 
	C435.312561,513.000000 357.624939,513.000000 279.468658,513.000000 
z"/>
<path fill="#FFFFFF" opacity="1.000000" stroke="none" 
	d="
M234.531342,1.000001 
	C230.914017,1.664892 226.848984,2.529652 222.738480,2.960541 
	C203.571106,4.969776 185.067245,9.868040 167.100311,16.541260 
	C146.338013,24.252716 126.903488,34.620361 108.815331,47.541428 
	C91.843491,59.665062 76.816353,73.773727 63.005749,89.363663 
	C47.872353,106.446800 35.517532,125.302864 25.699163,145.812256 
	C15.865170,166.354294 8.400189,187.726425 5.010674,210.356461 
	C3.801986,218.426239 2.844648,226.533646 1.386289,234.811951 
	C1.000000,157.072952 1.000000,79.145912 1.000000,1.000000 
	C78.687424,1.000000 156.375061,1.000000 234.531342,1.000001 
z"/>
<path fill="#FFFFFF" opacity="1.000000" stroke="none" 
	d="
M513.000000,234.531342 
	C512.335144,230.914017 511.470367,226.848984 511.039459,222.738480 
	C509.030151,203.571136 504.131989,185.067276 497.458740,167.100372 
	C489.747253,146.338104 479.379730,126.903519 466.458618,108.815384 
	C454.334961,91.843597 440.226318,76.816444 424.636444,63.005825 
	C407.553284,47.872437 388.697235,35.517647 368.187866,25.699272 
	C347.645844,15.865263 326.273773,8.400250 303.643768,5.010694 
	C295.573914,3.801985 287.466431,2.844660 279.188049,1.386293 
	C356.927032,1.000000 434.854095,1.000000 513.000000,1.000000 
	C513.000000,78.687424 513.000000,156.375061 513.000000,234.531342 
z"/>
<path fill="#F0F1F2" opacity="1.000000" stroke="none" 
	d="
M241.001343,199.048309 
	C255.611313,199.048309 269.721710,199.048309 284.302948,199.048309 
	C284.302948,207.350632 284.302948,215.097809 284.302948,224.114868 
	C285.933044,222.357422 286.824982,221.571335 287.508423,220.633301 
	C304.468079,197.355499 328.075562,191.556366 354.831604,196.289703 
	C380.917084,200.904388 397.583832,217.252945 404.768890,242.353195 
	C407.933380,253.407944 409.528931,265.234924 409.743469,276.750275 
	C410.382629,311.054688 409.985565,345.378357 409.985870,379.694519 
	C409.985870,380.655365 409.901062,381.616180 409.844482,382.816101 
	C389.481323,382.816101 369.425385,382.816101 348.857239,382.816101 
	C348.857239,380.809357 348.857239,379.026062 348.857208,377.242798 
	C348.857025,347.257751 349.041962,317.270782 348.727478,287.289032 
	C348.647980,279.708954 347.737488,271.954193 345.895233,264.609192 
	C339.494507,239.089493 310.001099,238.598251 296.282501,251.110260 
	C286.866150,259.698425 284.226593,270.534637 284.268463,282.668457 
	C284.376465,313.985779 284.304169,345.303741 284.303894,376.621429 
	C284.303894,378.582367 284.303894,380.543304 284.303894,382.786285 
	C263.794769,382.786285 243.731369,382.786285 223.384262,382.786285 
	C223.384262,321.719543 223.384262,260.813507 223.384262,199.048309 
	C229.016403,199.048309 234.759079,199.048309 241.001343,199.048309 
z"/>
<path fill="#F0F2F2" opacity="1.000000" stroke="none" 
	d="
M183.911850,383.071960 
	C165.138306,383.071991 146.857529,383.071991 128.335602,383.071991 
	C128.335602,321.616913 128.335602,260.694336 128.335602,199.410309 
	C148.469604,199.410309 168.523331,199.410309 188.921143,199.410309 
	C188.921143,260.357452 188.921143,321.271851 188.921143,382.866516 
	C187.536880,382.929474 185.970749,383.000732 183.911850,383.071960 
z"/>
<path fill="#EFF1F2" opacity="1.000000" stroke="none" 
	d="
M188.600082,125.518127 
	C195.201111,138.137070 195.403732,150.408310 186.645462,161.440628 
	C176.843399,173.787750 163.176544,175.988037 148.633820,172.619324 
	C132.342545,168.845581 123.527206,155.544052 124.946426,138.251480 
	C126.135406,123.764267 138.412201,112.257080 153.998276,110.855667 
	C168.021469,109.594780 180.102707,112.820679 188.600082,125.518127 
z"/>
</svg>