<svg version="1.1" id="Layer_1" xmlns="http://www.w3.org/2000/svg" xmlns:xlink="http://www.w3.org/1999/xlink" x="0px" y="0px"
	 width="100%" viewBox="0 0 512 512" enable-background="new 0 0 512 512" xml:space="preserve">
<path fill="#000000" opacity="1.000000" stroke="none" 
	d="
M356.000000,513.000000 
	C237.362167,513.000000 119.224319,513.000000 1.043242,513.000000 
	C1.043242,342.403809 1.043242,171.807602 1.043242,1.105696 
	C171.554504,1.105696 342.109100,1.105696 512.831848,1.105696 
	C512.831848,171.666534 512.831848,342.333252 512.831848,513.000000 
	C460.807526,513.000000 408.653778,513.000000 356.000000,513.000000 
M118.597809,407.189911 
	C122.429558,407.189911 126.294014,406.876862 130.084412,407.272797 
	C134.378418,407.721344 137.051956,406.018402 139.776779,402.821472 
	C163.221619,375.314606 186.836441,347.952545 210.408005,320.553711 
	C218.964371,310.608032 227.541000,300.679810 236.257416,290.570801 
	C237.115875,291.801544 237.684921,292.607056 238.243546,293.419708 
	C263.500397,330.161743 288.787140,366.883362 313.948151,403.690918 
	C315.763062,406.345856 317.625397,407.283752 320.813538,407.266937 
	C346.804596,407.130066 372.796661,407.189941 398.788422,407.189941 
	C400.216217,407.189941 401.643982,407.189911 404.126404,407.189911 
	C364.050903,348.856995 324.549133,291.359131 285.031464,233.838181 
	C321.468231,191.475433 357.687347,149.365753 394.621368,106.424896 
	C386.782043,106.424896 380.014740,106.605606 373.264160,106.347946 
	C369.934998,106.220886 367.761810,107.336678 365.625854,109.836037 
	C344.092285,135.032867 322.451996,160.138504 300.833832,185.262985 
	C291.780304,195.784882 282.707886,206.290543 273.538452,216.926102 
	C272.829224,215.986130 272.408569,215.471207 272.033264,214.925095 
	C248.005295,179.963272 223.953094,145.018036 200.012695,109.996353 
	C198.218842,107.372208 196.376160,106.325836 193.138214,106.343620 
	C166.814011,106.488220 140.488663,106.420479 114.163681,106.439537 
	C112.977478,106.440392 111.791420,106.654022 110.072090,106.820038 
	C148.500900,162.753601 186.539017,218.118515 224.726425,273.700714 
	C186.602661,318.028290 148.593796,362.222290 109.919563,407.189911 
	C113.344261,407.189911 115.488037,407.189911 118.597809,407.189911 
z"/>
<path fill="#FCFCFC" opacity="1.000000" stroke="none" 
	d="
M118.114807,407.189911 
	C115.488037,407.189911 113.344261,407.189911 109.919563,407.189911 
	C148.593796,362.222290 186.602661,318.028290 224.726425,273.700714 
	C186.539017,218.118515 148.500900,162.753601 110.072090,106.820038 
	C111.791420,106.654022 112.977478,106.440392 114.163681,106.439537 
	C140.488663,106.420479 166.814011,106.488220 193.138214,106.343620 
	C196.376160,106.325836 198.218842,107.372208 200.012695,109.996353 
	C223.953094,145.018036 248.005295,179.963272 272.033264,214.925095 
	C272.408569,215.471207 272.829224,215.986130 273.538452,216.926102 
	C282.707886,206.290543 291.780304,195.784882 300.833832,185.262985 
	C322.451996,160.138504 344.092285,135.032867 365.625854,109.836037 
	C367.761810,107.336678 369.934998,106.220886 373.264160,106.347946 
	C380.014740,106.605606 386.782043,106.424896 394.621368,106.424896 
	C357.687347,149.365753 321.468231,191.475433 285.031464,233.838181 
	C324.549133,291.359131 364.050903,348.856995 404.126404,407.189911 
	C401.643982,407.189911 400.216217,407.189941 398.788422,407.189941 
	C372.796661,407.189941 346.804596,407.130066 320.813538,407.266937 
	C317.625397,407.283752 315.763062,406.345856 313.948151,403.690918 
	C288.787140,366.883362 263.500397,330.161743 238.243546,293.419708 
	C237.684921,292.607056 237.115875,291.801544 236.257416,290.570801 
	C227.541000,300.679810 218.964371,310.608032 210.408005,320.553711 
	C186.836441,347.952545 163.221619,375.314606 139.776779,402.821472 
	C137.051956,406.018402 134.378418,407.721344 130.084412,407.272797 
	C126.294014,406.876862 122.429558,407.189911 118.114807,407.189911 
M170.393066,162.105270 
	C192.306458,193.461502 214.215454,224.820801 236.134323,256.173218 
	C266.154541,299.113678 296.170624,342.057068 326.255463,384.952209 
	C327.302490,386.445038 329.043976,388.463226 330.501495,388.496460 
	C342.895844,388.779175 355.299347,388.658203 368.496216,388.658203 
	C366.999603,386.423523 366.038086,384.932404 365.022369,383.479156 
	C307.565765,301.272217 249.968323,219.162888 192.856491,136.717148 
	C187.197128,128.547348 181.635361,124.654366 171.634964,125.802567 
	C163.197617,126.771317 154.560684,126.002022 145.167099,126.002022 
	C153.839325,138.409851 161.912552,149.960648 170.393066,162.105270 
z"/>
<path fill="#020202" opacity="1.000000" stroke="none" 
	d="
M170.189423,161.808365 
	C161.912552,149.960648 153.839325,138.409851 145.167099,126.002022 
	C154.560684,126.002022 163.197617,126.771317 171.634964,125.802567 
	C181.635361,124.654366 187.197128,128.547348 192.856491,136.717148 
	C249.968323,219.162888 307.565765,301.272217 365.022369,383.479156 
	C366.038086,384.932404 366.999603,386.423523 368.496216,388.658203 
	C355.299347,388.658203 342.895844,388.779175 330.501495,388.496460 
	C329.043976,388.463226 327.302490,386.445038 326.255463,384.952209 
	C296.170624,342.057068 266.154541,299.113678 236.134323,256.173218 
	C214.215454,224.820801 192.306458,193.461502 170.189423,161.808365 
z"/>
</svg>