<svg version="1.1" id="Layer_1" xmlns="http://www.w3.org/2000/svg" xmlns:xlink="http://www.w3.org/1999/xlink" x="0px" y="0px"
	 width="100%" viewBox="0 0 512 512" enable-background="new 0 0 512 512" xml:space="preserve">
<path fill="#FFB64F" opacity="1.000000" stroke="none" 
	d="
M0.999995,324.000000 
	C1.000000,314.645782 1.000000,305.291534 1.338483,295.530334 
	C4.922002,298.386230 8.348926,301.489441 11.378798,304.941223 
	C21.444893,316.408875 31.350868,328.016876 41.351242,339.542480 
	C51.027733,350.694794 60.687168,361.863312 70.513718,372.882355 
	C71.822769,374.350250 74.070335,374.981171 76.073990,376.310303 
	C81.745949,391.796875 89.476318,405.543091 101.346138,416.751526 
	C110.298080,425.204681 120.957573,430.807800 132.109070,436.071350 
	C133.250061,438.267944 134.115997,440.310913 135.499268,441.904999 
	C153.769073,462.959137 172.154312,483.913269 190.374649,505.009888 
	C192.350830,507.298096 193.478653,510.318970 195.000000,513.000000 
	C185.312439,513.000000 175.624878,513.000000 165.406418,512.659790 
	C164.351456,511.485016 163.923798,510.567566 163.288498,509.828613 
	C156.361130,501.770447 149.385727,493.753571 142.453796,485.699341 
	C130.759338,472.111542 119.120995,458.475281 107.394318,444.915375 
	C97.836418,433.863281 88.154213,422.918793 78.580727,411.880096 
	C66.290962,397.709442 54.047123,383.498932 41.798130,369.292999 
	C32.042530,357.978790 22.398481,346.566620 12.517796,335.363007 
	C8.959151,331.327881 4.855128,327.773682 0.999995,324.000000 
z"/>
<path fill="#D9408B" opacity="1.000000" stroke="none" 
	d="
M513.000000,201.000000 
	C513.000000,209.687561 513.000000,218.375137 512.661743,227.469849 
	C508.724701,224.260376 504.928284,220.817596 501.564545,216.994171 
	C491.921661,206.033478 482.453247,194.919296 472.917877,183.864044 
	C463.923828,173.436386 454.984863,162.960007 445.855743,152.652039 
	C444.956909,151.637085 442.897369,151.650070 441.241211,150.851395 
	C436.952026,131.417892 428.681854,114.515701 414.914398,100.393311 
	C403.882599,89.077080 390.626770,81.452568 375.984741,75.571442 
	C372.102814,70.105560 368.496094,64.776176 364.326080,59.931625 
	C350.374451,43.723228 336.157501,27.743254 322.199982,11.539862 
	C319.440430,8.336296 317.381866,4.528913 315.000000,0.999997 
	C323.020905,1.000000 331.041809,1.000000 339.546997,1.362544 
	C344.592590,7.554927 348.963837,13.546456 353.755554,19.180321 
	C363.219543,30.307659 372.943756,41.213215 382.509247,52.254780 
	C392.397980,63.669460 402.203400,75.156319 412.087128,86.575394 
	C421.538971,97.495499 431.068024,108.348801 440.520294,119.268524 
	C450.404510,130.687195 460.236694,142.150894 470.093414,153.593384 
	C479.841949,164.910294 489.479462,176.325821 499.395630,187.493942 
	C503.629883,192.262802 508.447479,196.513718 513.000000,201.000000 
z"/>
<path fill="#FFBF50" opacity="1.000000" stroke="none" 
	d="
M0.999995,324.468658 
	C4.855128,327.773682 8.959151,331.327881 12.517796,335.363007 
	C22.398481,346.566620 32.042530,357.978790 41.798130,369.292999 
	C54.047123,383.498932 66.290962,397.709442 78.580727,411.880096 
	C88.154213,422.918793 97.836418,433.863281 107.394318,444.915375 
	C119.120995,458.475281 130.759338,472.111542 142.453796,485.699341 
	C149.385727,493.753571 156.361130,501.770447 163.288498,509.828613 
	C163.923798,510.567566 164.351456,511.485016 164.937759,512.659790 
	C156.979095,513.000000 148.958191,513.000000 140.446564,512.620605 
	C139.265762,510.625275 138.921356,508.713348 137.831192,507.439880 
	C128.763641,496.847260 119.503662,486.419647 110.406532,475.852051 
	C92.431709,454.971802 74.563751,433.999481 56.577007,413.129547 
	C39.456127,393.264191 22.257336,373.465790 5.023220,353.698639 
	C3.998480,352.523315 2.355349,351.887115 0.999996,351.000000 
	C1.000000,342.312439 1.000000,333.624878 0.999995,324.468658 
z"/>
<path fill="#D63E90" opacity="1.000000" stroke="none" 
	d="
M513.000000,200.531464 
	C508.447479,196.513718 503.629883,192.262802 499.395630,187.493942 
	C489.479462,176.325821 479.841949,164.910294 470.093414,153.593384 
	C460.236694,142.150894 450.404510,130.687195 440.520294,119.268524 
	C431.068024,108.348801 421.538971,97.495499 412.087128,86.575394 
	C402.203400,75.156319 392.397980,63.669460 382.509247,52.254780 
	C372.943756,41.213215 363.219543,30.307659 353.755554,19.180321 
	C348.963837,13.546456 344.592590,7.554927 340.015625,1.362544 
	C345.688049,1.000000 351.376068,1.000000 357.547607,1.362208 
	C358.830292,3.125413 359.436920,4.689367 360.461212,5.899854 
	C365.495331,11.848709 370.658875,17.687748 375.742188,23.595274 
	C385.149048,34.527370 394.488007,45.518211 403.936890,56.413776 
	C413.714691,67.688675 423.634308,78.840652 433.410492,90.116920 
	C445.464050,104.019997 457.440430,117.990013 469.437164,131.942291 
	C479.163849,143.254532 488.739899,154.700104 498.647003,165.851791 
	C503.099030,170.863083 508.195770,175.301590 513.000000,180.000000 
	C513.000000,186.687637 513.000000,193.375290 513.000000,200.531464 
z"/>
<path fill="#FFC651" opacity="1.000000" stroke="none" 
	d="
M0.999996,351.468628 
	C2.355349,351.887115 3.998480,352.523315 5.023220,353.698639 
	C22.257336,373.465790 39.456127,393.264191 56.577007,413.129547 
	C74.563751,433.999481 92.431709,454.971802 110.406532,475.852051 
	C119.503662,486.419647 128.763641,496.847260 137.831192,507.439880 
	C138.921356,508.713348 139.265762,510.625275 139.977905,512.620605 
	C133.312347,513.000000 126.624710,513.000000 119.800537,512.774048 
	C119.428825,512.070740 119.193642,511.593292 118.911362,510.769043 
	C113.432182,503.970856 108.067368,497.461304 102.553146,491.080902 
	C92.897453,479.908386 83.122040,468.839417 73.448776,457.681946 
	C63.560898,446.276978 53.725887,434.826050 43.885593,423.379883 
	C34.477890,412.436890 25.225111,401.356903 15.640864,390.571167 
	C11.075917,385.433868 5.899462,380.839996 1.000003,376.000000 
	C1.000000,367.979095 1.000000,359.958191 0.999996,351.468628 
z"/>
<path fill="#EA4968" opacity="1.000000" stroke="none" 
	d="
M513.000000,342.000000 
	C513.000000,357.354218 513.000000,372.708466 512.635620,388.515259 
	C510.845673,387.974060 509.151306,387.216217 508.038330,385.948120 
	C500.840637,377.747375 493.811279,369.399231 486.647949,361.167969 
	C474.706818,347.446594 462.726318,333.759308 450.703613,320.109375 
	C449.347015,318.569183 447.611786,317.362457 445.976990,315.537537 
	C445.986328,300.050323 446.070801,285.026642 446.510040,270.020630 
	C448.272064,271.073669 449.921021,271.896790 451.047211,273.179077 
	C458.280304,281.414581 465.397247,289.752136 472.555298,298.053558 
	C482.531738,309.623505 492.401520,321.288391 502.554657,332.701141 
	C505.632141,336.160461 509.496216,338.919952 513.000000,342.000000 
z"/>
<path fill="#E44673" opacity="1.000000" stroke="none" 
	d="
M513.000000,341.531342 
	C509.496216,338.919952 505.632141,336.160461 502.554657,332.701141 
	C492.401520,321.288391 482.531738,309.623505 472.555298,298.053558 
	C465.397247,289.752136 458.280304,281.414581 451.047211,273.179077 
	C449.921021,271.896790 448.272064,271.073669 446.438477,269.556519 
	C446.065887,254.383789 446.119629,239.692810 446.542572,225.005341 
	C448.812714,226.138992 451.122559,226.898575 452.542175,228.464966 
	C457.989685,234.475693 463.132263,240.761902 468.424225,246.914688 
	C478.469086,258.593445 488.413177,270.362701 498.655853,281.865753 
	C503.110291,286.868317 508.199249,291.305847 513.000000,296.000000 
	C513.000000,311.020905 513.000000,326.041779 513.000000,341.531342 
z"/>
<path fill="#000000" opacity="1.000000" stroke="none" 
	d="
M118.958466,511.115845 
	C119.193642,511.593292 119.428825,512.070740 119.332001,512.774048 
	C79.743973,513.000000 40.487946,513.000000 1.000000,513.000000 
	C1.000000,478.312775 1.000000,443.625061 1.331805,408.129272 
	C2.086269,407.820557 2.789417,408.269928 2.888707,408.826874 
	C4.026498,415.209473 5.072453,421.608398 6.097967,428.273651 
	C6.349694,428.736237 6.646339,428.928192 6.951221,429.082764 
	C6.959458,429.045349 6.888379,429.073761 6.939375,429.476654 
	C7.004380,430.545898 6.863339,431.260864 7.054804,431.871582 
	C13.906571,453.725494 23.309080,474.092438 42.077515,488.482544 
	C51.073219,495.379730 60.737198,501.318817 72.137100,504.451355 
	C80.542953,506.469208 88.770317,508.151306 97.434799,509.908752 
	C104.900764,510.361328 111.929611,510.738586 118.958466,511.115845 
z"/>
<path fill="#EF4C5E" opacity="1.000000" stroke="none" 
	d="
M446.052185,316.001099 
	C447.611786,317.362457 449.347015,318.569183 450.703613,320.109375 
	C462.726318,333.759308 474.706818,347.446594 486.647949,361.167969 
	C493.811279,369.399231 500.840637,377.747375 508.038330,385.948120 
	C509.151306,387.216217 510.845673,387.974060 512.635620,388.983948 
	C513.000000,397.354218 513.000000,405.708466 512.623108,414.318787 
	C511.108398,418.716736 509.970581,422.858521 508.506470,426.930359 
	C505.889771,424.737305 503.411591,422.781372 501.345123,420.459015 
	C495.732880,414.151794 490.304199,407.681519 484.786163,401.290192 
	C474.723022,389.634521 464.878235,377.776978 454.449493,366.457733 
	C450.925049,362.632294 449.091858,356.541931 442.701508,355.467590 
	C443.864380,342.028900 444.958282,329.015015 446.052185,316.001099 
z"/>
<path fill="#000000" opacity="1.000000" stroke="none" 
	d="
M508.832733,427.000305 
	C509.970581,422.858521 511.108398,418.716736 512.623108,414.787476 
	C513.000000,447.600677 513.000000,480.201385 513.000000,513.000000 
	C473.645996,513.000000 434.291656,513.000000 394.135315,512.774292 
	C393.570007,512.070374 393.806702,511.592102 394.506409,511.066742 
	C398.912170,511.013397 402.877808,511.272949 406.792206,510.936493 
	C412.213928,510.470398 417.597076,509.556030 423.423828,508.905640 
	C432.249695,506.354858 440.648499,503.732086 449.423492,501.063629 
	C451.020447,500.629700 452.427429,500.509338 453.432190,499.810577 
	C460.996643,494.549561 468.481934,489.174774 476.326538,483.813690 
	C483.388458,475.195526 490.115784,466.599213 496.998444,457.676208 
	C501.046753,447.233093 504.939728,437.116699 508.832733,427.000305 
z"/>
<path fill="#000000" opacity="1.000000" stroke="none" 
	d="
M0.999999,101.000000 
	C1.000000,67.737251 1.000000,34.474510 1.000000,1.000000 
	C36.353947,1.000000 71.708313,1.000000 107.747803,1.392678 
	C103.955269,2.579410 99.477608,3.373464 94.608887,4.244062 
	C85.116043,6.841531 76.014275,9.362454 66.549927,11.942308 
	C56.665291,16.480581 47.187851,21.029127 39.579208,29.092773 
	C34.809669,33.805691 30.348671,38.381069 25.583096,43.114037 
	C21.816839,48.831196 18.355164,54.390762 14.579111,60.119469 
	C11.565346,68.193604 8.865956,76.098602 5.986082,84.360123 
	C4.869799,89.297638 4.012750,93.897316 2.934193,98.444450 
	C2.708559,99.395706 1.666066,100.153214 0.999999,101.000000 
z"/>
<path fill="#000000" opacity="1.000000" stroke="none" 
	d="
M413.000000,1.000000 
	C446.259521,1.000000 479.519043,1.000000 513.000000,1.000000 
	C513.000000,33.353889 513.000000,65.708290 512.711670,98.857529 
	C511.893219,98.434807 511.363037,97.217239 510.890045,95.599556 
	C510.646240,94.450348 510.208466,93.726669 510.063904,92.948517 
	C504.450500,62.731991 489.995850,38.105732 464.195312,20.758173 
	C455.545807,14.942508 446.485107,9.857679 435.842285,7.557611 
	C428.649536,5.813987 421.646973,4.439356 414.678131,2.910973 
	C414.011139,2.764697 413.554352,1.659848 413.000000,1.000000 
z"/>
<path fill="#CF3B9D" opacity="1.000000" stroke="none" 
	d="
M389.000000,0.999999 
	C395.354401,1.000000 401.708801,1.000000 408.550659,1.363825 
	C410.590576,4.216647 411.859497,6.947777 413.743286,9.153865 
	C423.318665,20.367636 433.079224,31.422997 442.724884,42.577129 
	C452.259949,53.603394 461.723236,64.691689 471.240021,75.733795 
	C481.297638,87.403328 491.295715,99.126106 501.500092,110.666191 
	C505.056915,114.688606 509.151215,118.235756 513.000000,121.999985 
	C513.000000,129.020950 513.000000,136.041901 512.645874,143.510605 
	C511.456146,143.487579 510.414642,143.198349 509.815491,142.518982 
	C499.398468,130.706879 488.975403,118.899101 478.675140,106.985298 
	C462.635101,88.432526 446.731049,69.762169 430.684570,51.214993 
	C418.755157,37.426437 406.625824,23.810427 394.744568,9.980909 
	C392.451660,7.312044 390.895844,4.009976 389.000000,0.999999 
z"/>
<path fill="#FFAB4D" opacity="1.000000" stroke="none" 
	d="
M195.468658,513.000000 
	C193.478653,510.318970 192.350830,507.298096 190.374649,505.009888 
	C172.154312,483.913269 153.769073,462.959137 135.499268,441.904999 
	C134.115997,440.310913 133.250061,438.267944 132.483002,436.140015 
	C137.218201,437.185669 141.539139,438.907227 146.025177,439.786194 
	C155.972427,441.735199 166.002533,443.261353 176.013992,445.324402 
	C176.366714,446.606750 176.479187,447.718048 177.076263,448.412994 
	C183.987640,456.457550 190.969589,464.441498 197.938187,472.436829 
	C207.411209,483.305511 216.963104,494.106995 226.304535,505.087555 
	C228.263382,507.390106 229.454895,510.345459 231.000000,513.000000 
	C219.312439,513.000000 207.624878,513.000000 195.468658,513.000000 
z"/>
<path fill="#D43D94" opacity="1.000000" stroke="none" 
	d="
M513.000000,179.532394 
	C508.195770,175.301590 503.099030,170.863083 498.647003,165.851791 
	C488.739899,154.700104 479.163849,143.254532 469.437164,131.942291 
	C457.440430,117.990013 445.464050,104.019997 433.410492,90.116920 
	C423.634308,78.840652 413.714691,67.688675 403.936890,56.413776 
	C394.488007,45.518211 385.149048,34.527370 375.742188,23.595274 
	C370.658875,17.687748 365.495331,11.848709 360.461212,5.899854 
	C359.436920,4.689367 358.830292,3.125413 358.015564,1.362208 
	C362.689240,1.000000 367.378510,1.000000 372.549500,1.362548 
	C373.376434,2.641448 373.503174,3.743215 374.099792,4.446157 
	C382.261749,14.062538 390.452667,23.654928 398.708099,33.191189 
	C410.223175,46.492798 421.817902,59.725430 433.342743,73.018639 
	C445.734589,87.311920 458.100037,101.628181 470.448761,115.958763 
	C480.197205,127.271729 489.784790,138.726074 499.683899,149.905029 
	C503.801178,154.554611 508.542450,158.651703 513.000000,163.000000 
	C513.000000,168.354935 513.000000,173.709854 513.000000,179.532394 
z"/>
<path fill="#FFCD52" opacity="1.000000" stroke="none" 
	d="
M118.911362,510.769073 
	C111.929611,510.738586 104.900764,510.361328 97.369720,509.572205 
	C95.690582,507.386017 94.681580,505.467865 93.306808,503.863037 
	C88.135132,497.826019 82.803398,491.926422 77.606316,485.910858 
	C65.592979,472.005585 53.619625,458.065765 41.637020,444.133972 
	C31.921597,432.838226 22.462034,421.307220 12.369994,410.358978 
	C8.952994,406.652100 7.201786,400.750275 1.000000,400.000000 
	C1.000000,392.312408 1.000000,384.624847 1.000003,376.468628 
	C5.899462,380.839996 11.075917,385.433868 15.640864,390.571167 
	C25.225111,401.356903 34.477890,412.436890 43.885593,423.379883 
	C53.725887,434.826050 63.560898,446.276978 73.448776,457.681946 
	C83.122040,468.839417 92.897453,479.908386 102.553146,491.080902 
	C108.067368,497.461304 113.432182,503.970856 118.911362,510.769073 
z"/>
<path fill="#D23C98" opacity="1.000000" stroke="none" 
	d="
M513.000000,162.531738 
	C508.542450,158.651703 503.801178,154.554611 499.683899,149.905029 
	C489.784790,138.726074 480.197205,127.271729 470.448761,115.958763 
	C458.100037,101.628181 445.734589,87.311920 433.342743,73.018639 
	C421.817902,59.725430 410.223175,46.492798 398.708099,33.191189 
	C390.452667,23.654928 382.261749,14.062538 374.099792,4.446157 
	C373.503174,3.743215 373.376434,2.641448 373.015625,1.362548 
	C378.022095,1.000000 383.044189,1.000000 388.533142,0.999999 
	C390.895844,4.009976 392.451660,7.312044 394.744568,9.980909 
	C406.625824,23.810427 418.755157,37.426437 430.684570,51.214993 
	C446.731049,69.762169 462.635101,88.432526 478.675140,106.985298 
	C488.975403,118.899101 499.398468,130.706879 509.815491,142.518982 
	C510.414642,143.198349 511.456146,143.487579 512.645874,143.979187 
	C513.000000,150.021149 513.000000,156.042297 513.000000,162.531738 
z"/>
<path fill="#E0437C" opacity="1.000000" stroke="none" 
	d="
M513.000000,295.531342 
	C508.199249,291.305847 503.110291,286.868317 498.655853,281.865753 
	C488.413177,270.362701 478.469086,258.593445 468.424225,246.914688 
	C463.132263,240.761902 457.989685,234.475693 452.542175,228.464966 
	C451.122559,226.898575 448.812714,226.138992 446.474335,224.540924 
	C445.917908,211.407440 445.798859,198.741852 446.040405,186.108124 
	C448.059784,187.443832 449.970001,188.527573 451.335876,190.087860 
	C459.177094,199.045212 466.893158,208.112213 474.644135,217.148499 
	C484.333008,228.444077 493.916321,239.832672 503.764069,250.987869 
	C506.437531,254.016296 509.899780,256.348328 513.000000,259.000000 
	C513.000000,271.020905 513.000000,283.041779 513.000000,295.531342 
z"/>
<path fill="#FF7544" opacity="1.000000" stroke="none" 
	d="
M394.043396,511.113831 
	C393.806702,511.592102 393.570007,512.070374 393.666656,512.774292 
	C382.312439,513.000000 370.624878,513.000000 358.453125,512.637451 
	C356.061401,509.436768 354.414917,506.374817 352.204254,503.796600 
	C337.248932,486.354919 322.142700,469.042633 307.199524,451.590607 
	C306.025604,450.219604 305.719238,448.105804 305.472046,446.259888 
	C316.955658,445.778290 327.976868,445.374023 339.059326,445.312195 
	C339.318359,446.110229 339.418152,446.650421 339.727936,447.009369 
	C355.023621,464.733276 370.370056,482.413513 385.620819,500.175873 
	C388.614227,503.662262 391.245239,507.459808 394.043396,511.113831 
z"/>
<path fill="#EC4A63" opacity="1.000000" stroke="none" 
	d="
M160.000000,0.999998 
	C171.687561,1.000000 183.375122,1.000000 195.594299,1.342296 
	C198.540588,4.803670 200.825363,8.034315 203.392014,11.022890 
	C215.769684,25.435246 228.326431,39.695263 240.585175,54.207397 
	C244.122742,58.395241 246.880646,63.241669 249.532104,67.855377 
	C237.377869,67.838188 225.687561,67.751801 213.975342,67.318085 
	C213.276245,65.476639 212.888397,63.739422 211.872345,62.529976 
	C207.172180,56.935204 202.297379,51.487148 197.485229,45.986458 
	C185.674469,32.485798 173.837173,19.008099 162.099274,5.444400 
	C161.066559,4.251068 160.684357,2.494799 160.000000,0.999998 
z"/>
<path fill="#FF8146" opacity="1.000000" stroke="none" 
	d="
M305.009644,446.337219 
	C305.719238,448.105804 306.025604,450.219604 307.199524,451.590607 
	C322.142700,469.042633 337.248932,486.354919 352.204254,503.796600 
	C354.414917,506.374817 356.061401,509.436768 357.984467,512.637451 
	C346.645782,513.000000 335.291534,513.000000 323.406677,512.660522 
	C318.494781,506.959381 314.238464,501.489471 309.708008,496.256897 
	C297.802246,482.506073 285.694427,468.929291 273.875305,455.105164 
	C271.727020,452.592407 270.564880,449.236511 269.417908,446.215942 
	C281.595398,446.220428 293.302551,446.278839 305.009644,446.337219 
z"/>
<path fill="#F14D5A" opacity="1.000000" stroke="none" 
	d="
M159.531342,0.999998 
	C160.684357,2.494799 161.066559,4.251068 162.099274,5.444400 
	C173.837173,19.008099 185.674469,32.485798 197.485229,45.986458 
	C202.297379,51.487148 207.172180,56.935204 211.872345,62.529976 
	C212.888397,63.739422 213.276245,65.476639 213.512970,67.399887 
	C202.380707,68.164650 191.688889,68.500290 180.979782,68.483597 
	C179.024033,65.306801 177.324478,62.277679 175.108475,59.690990 
	C160.477631,42.612778 145.702484,25.658203 131.069611,8.581710 
	C129.105438,6.289532 127.676682,3.538534 126.000000,1.000000 
	C137.020889,1.000000 148.041794,1.000000 159.531342,0.999998 
z"/>
<path fill="#CD39A2" opacity="1.000000" stroke="none" 
	d="
M513.000000,121.531372 
	C509.151215,118.235756 505.056915,114.688606 501.500092,110.666191 
	C491.295715,99.126106 481.297638,87.403328 471.240021,75.733795 
	C461.723236,64.691689 452.259949,53.603394 442.724884,42.577129 
	C433.079224,31.422997 423.318665,20.367636 413.743286,9.153865 
	C411.859497,6.947777 410.590576,4.216647 409.019043,1.363825 
	C410.066681,1.000000 411.133331,1.000000 412.600006,1.000000 
	C413.554352,1.659848 414.011139,2.764697 414.678131,2.910973 
	C421.646973,4.439356 428.649536,5.813987 435.847473,7.933451 
	C436.754700,10.288969 437.100128,12.249183 438.215851,13.547248 
	C447.633606,24.503839 457.236938,35.300571 466.695770,46.222191 
	C476.369110,57.391434 485.854523,68.724358 495.596130,79.833115 
	C500.475342,85.397072 505.741638,90.621620 510.832855,95.999680 
	C511.363037,97.217239 511.893219,98.434807 512.711670,99.326187 
	C513.000000,106.354256 513.000000,113.708504 513.000000,121.531372 
z"/>
<path fill="#F64F51" opacity="1.000000" stroke="none" 
	d="
M125.532059,1.000000 
	C127.676682,3.538534 129.105438,6.289532 131.069611,8.581710 
	C145.702484,25.658203 160.477631,42.612778 175.108475,59.690990 
	C177.324478,62.277679 179.024033,65.306801 180.546539,68.565552 
	C170.419571,70.287766 160.708542,71.575699 150.980194,72.503960 
	C150.098770,70.392952 149.557617,68.362152 148.321060,66.933067 
	C134.447876,50.899979 120.406685,35.012142 106.553902,18.961617 
	C102.470589,14.230485 98.838715,9.109720 94.999954,4.167517 
	C99.477608,3.373464 103.955269,2.579410 108.216461,1.392678 
	C113.688042,1.000000 119.376083,1.000000 125.532059,1.000000 
z"/>
<path fill="#FF9F4B" opacity="1.000000" stroke="none" 
	d="
M231.468658,513.000000 
	C229.454895,510.345459 228.263382,507.390106 226.304535,505.087555 
	C216.963104,494.106995 207.411209,483.305511 197.938187,472.436829 
	C190.969589,464.441498 183.987640,456.457550 177.076263,448.412994 
	C176.479187,447.718048 176.366714,446.606750 176.452820,445.273346 
	C187.920013,445.339691 198.963547,445.821533 210.027802,446.652771 
	C210.945221,448.742676 211.541153,450.742676 212.784698,452.183868 
	C226.341309,467.894714 240.067322,483.459686 253.585602,499.203125 
	C257.331940,503.566071 260.543243,508.388428 264.000000,513.000000 
	C253.312439,513.000000 242.624878,513.000000 231.468658,513.000000 
z"/>
<path fill="#DC4284" opacity="1.000000" stroke="none" 
	d="
M513.000000,258.531342 
	C509.899780,256.348328 506.437531,254.016296 503.764069,250.987869 
	C493.916321,239.832672 484.333008,228.444077 474.644135,217.148499 
	C466.893158,208.112213 459.177094,199.045212 451.335876,190.087860 
	C449.970001,188.527573 448.059784,187.443832 445.889343,185.727844 
	C444.044006,173.939133 442.710266,162.562546 441.376556,151.185944 
	C442.897369,151.650070 444.956909,151.637085 445.855743,152.652039 
	C454.984863,162.960007 463.923828,173.436386 472.917877,183.864044 
	C482.453247,194.919296 491.921661,206.033478 501.564545,216.994171 
	C504.928284,220.817596 508.724701,224.260376 512.661743,227.938507 
	C513.000000,238.020889 513.000000,248.041794 513.000000,258.531342 
z"/>
<path fill="#FF7A45" opacity="1.000000" stroke="none" 
	d="
M0.999999,101.449982 
	C1.666066,100.153214 2.708559,99.395706 2.934193,98.444450 
	C4.012750,93.897316 4.869799,89.297638 6.313071,84.429512 
	C8.990006,86.358025 11.279012,88.469727 13.310149,90.805649 
	C30.665722,110.765503 47.933586,130.801880 65.364815,150.695236 
	C66.991585,152.551773 69.563522,153.580109 71.700615,155.391205 
	C70.589264,165.200790 69.473915,174.612152 67.996506,183.971710 
	C65.275139,181.900253 62.704205,180.077362 60.603153,177.817596 
	C56.889511,173.823425 53.470490,169.555923 49.913025,165.415848 
	C40.100830,153.996704 30.366222,142.509277 20.433046,131.196274 
	C14.110099,123.994987 7.487969,117.056389 1.000000,110.000000 
	C1.000000,107.299988 1.000000,104.599968 0.999999,101.449982 
z"/>
<path fill="#FF8D48" opacity="1.000000" stroke="none" 
	d="
M268.947510,446.269836 
	C270.564880,449.236511 271.727020,452.592407 273.875305,455.105164 
	C285.694427,468.929291 297.802246,482.506073 309.708008,496.256897 
	C314.238464,501.489471 318.494781,506.959381 322.938019,512.660522 
	C312.645782,513.000000 302.291534,513.000000 291.453125,512.637817 
	C286.194427,506.233032 281.610474,500.027344 276.606934,494.180817 
	C265.105133,480.741180 253.323441,467.540741 241.853821,454.074188 
	C240.040695,451.945343 239.262054,448.935425 238.467697,446.254211 
	C248.936020,446.206940 258.941772,446.238403 268.947510,446.269836 
z"/>
<path fill="#E8486C" opacity="1.000000" stroke="none" 
	d="
M249.996002,67.786163 
	C246.880646,63.241669 244.122742,58.395241 240.585175,54.207397 
	C228.326431,39.695263 215.769684,25.435246 203.392014,11.022890 
	C200.825363,8.034315 198.540588,4.803670 196.062958,1.342296 
	C205.687561,1.000000 215.375122,1.000000 225.546799,1.361824 
	C228.193146,4.565593 230.223709,7.520035 232.539749,10.230541 
	C244.351624,24.054129 256.337708,37.730145 268.044434,51.641602 
	C272.338379,56.744255 276.031891,62.352196 279.535950,67.804794 
	C269.380402,67.848686 259.688202,67.817429 249.996002,67.786163 
z"/>
<path fill="#FFAE4D" opacity="1.000000" stroke="none" 
	d="
M75.883278,375.999695 
	C74.070335,374.981171 71.822769,374.350250 70.513718,372.882355 
	C60.687168,361.863312 51.027733,350.694794 41.351242,339.542480 
	C31.350868,328.016876 21.444893,316.408875 11.378798,304.941223 
	C8.348926,301.489441 4.922002,298.386230 1.338483,295.061646 
	C1.000000,285.979095 1.000000,276.958221 1.338799,267.530579 
	C3.295706,268.506134 5.116420,269.712128 6.498197,271.300110 
	C14.009245,279.931885 21.396723,288.671082 28.855846,297.348267 
	C38.693905,308.792877 48.376659,320.379852 58.519917,331.548004 
	C61.694283,335.043121 63.690529,340.250977 69.514938,341.365784 
	C71.738396,353.152954 73.810837,364.576324 75.883278,375.999695 
z"/>
<path fill="#FFD453" opacity="1.000000" stroke="none" 
	d="
M1.000000,400.444153 
	C7.201786,400.750275 8.952994,406.652100 12.369994,410.358978 
	C22.462034,421.307220 31.921597,432.838226 41.637020,444.133972 
	C53.619625,458.065765 65.592979,472.005585 77.606316,485.910858 
	C82.803398,491.926422 88.135132,497.826019 93.306808,503.863037 
	C94.681580,505.467865 95.690582,507.386017 96.932602,509.496857 
	C88.770317,508.151306 80.542953,506.469208 72.091934,504.093506 
	C70.563316,501.107727 69.594978,498.524170 67.901749,496.568115 
	C49.144531,474.899780 30.296021,453.310181 11.381793,431.778748 
	C10.282337,430.527161 8.404144,429.959656 6.888373,429.073792 
	C6.888379,429.073761 6.959458,429.045349 6.854164,428.871826 
	C6.596104,428.423615 6.394109,428.191833 6.142885,428.002991 
	C5.072453,421.608398 4.026498,415.209473 2.888707,408.826874 
	C2.789417,408.269928 2.086269,407.820557 1.331805,407.660614 
	C1.000000,405.629425 1.000000,403.258881 1.000000,400.444153 
z"/>
<path fill="#FF9F4B" opacity="1.000000" stroke="none" 
	d="
M1.000001,240.000000 
	C1.000000,230.979111 1.000000,221.958206 1.364395,212.484711 
	C4.006547,214.041718 6.533398,215.832809 8.520098,218.097702 
	C18.559278,229.542633 28.424885,241.139572 38.416275,252.626740 
	C46.346931,261.744659 54.305817,270.840424 62.419189,279.794678 
	C63.749031,281.262329 65.941963,281.947937 67.809845,283.458832 
	C67.884216,293.613953 67.884720,303.305206 67.554108,312.929016 
	C61.829708,307.065826 56.277992,301.408447 51.073032,295.448273 
	C35.805710,277.965668 20.700760,260.341278 5.442119,242.851059 
	C4.331420,241.577896 2.497613,240.935608 1.000001,240.000000 
z"/>
<path fill="#FFA74C" opacity="1.000000" stroke="none" 
	d="
M1.000001,240.468658 
	C2.497613,240.935608 4.331420,241.577896 5.442119,242.851059 
	C20.700760,260.341278 35.805710,277.965668 51.073032,295.448273 
	C56.277992,301.408447 61.829708,307.065826 67.638458,313.384186 
	C68.490593,322.938538 68.927261,331.970245 69.363922,341.001953 
	C63.690529,340.250977 61.694283,335.043121 58.519917,331.548004 
	C48.376659,320.379852 38.693905,308.792877 28.855846,297.348267 
	C21.396723,288.671082 14.009245,279.931885 6.498197,271.300110 
	C5.116420,269.712128 3.295706,268.506134 1.338799,267.061890 
	C1.000000,258.312439 1.000000,249.624863 1.000001,240.468658 
z"/>
<path fill="#DC4284" opacity="1.000000" stroke="none" 
	d="
M314.531342,0.999997 
	C317.381866,4.528913 319.440430,8.336296 322.199982,11.539862 
	C336.157501,27.743254 350.374451,43.723228 364.326080,59.931625 
	C368.496094,64.776176 372.102814,70.105560 375.598969,75.564766 
	C365.092224,73.823540 354.954071,71.730362 344.815216,69.256073 
	C342.969238,66.181244 341.363495,63.280151 339.239929,60.827389 
	C325.280334,44.703773 311.142914,28.733788 297.225555,12.574103 
	C294.150208,9.003284 291.724731,4.872782 289.000000,1.000000 
	C297.354218,1.000000 305.708466,1.000000 314.531342,0.999997 
z"/>
<path fill="#FF9549" opacity="1.000000" stroke="none" 
	d="
M238.005096,446.332886 
	C239.262054,448.935425 240.040695,451.945343 241.853821,454.074188 
	C253.323441,467.540741 265.105133,480.741180 276.606934,494.180817 
	C281.610474,500.027344 286.194427,506.233032 290.984497,512.637817 
	C282.312439,513.000000 273.624878,513.000000 264.468658,513.000000 
	C260.543243,508.388428 257.331940,503.566071 253.585602,499.203125 
	C240.067322,483.459686 226.341309,467.894714 212.784698,452.183868 
	C211.541153,450.742676 210.945221,448.742676 210.492035,446.587952 
	C219.958694,446.226776 228.981903,446.279846 238.005096,446.332886 
z"/>
<path fill="#FF8246" opacity="1.000000" stroke="none" 
	d="
M1.000000,110.468658 
	C7.487969,117.056389 14.110099,123.994987 20.433046,131.196274 
	C30.366222,142.509277 40.100830,153.996704 49.913025,165.415848 
	C53.470490,169.555923 56.889511,173.823425 60.603153,177.817596 
	C62.704205,180.077362 65.275139,181.900253 68.058289,184.435913 
	C68.245262,193.299576 68.008385,201.647278 67.424019,209.976501 
	C63.174923,206.268631 58.955170,202.858612 55.426979,198.841248 
	C40.464310,181.804016 25.759357,164.540619 10.830356,147.473480 
	C7.845096,144.060654 4.291524,141.144928 1.000000,138.000000 
	C1.000000,128.979111 1.000000,119.958214 1.000000,110.468658 
z"/>
<path fill="#FF974A" opacity="1.000000" stroke="none" 
	d="
M67.735992,282.994995 
	C65.941963,281.947937 63.749031,281.262329 62.419189,279.794678 
	C54.305817,270.840424 46.346931,261.744659 38.416275,252.626740 
	C28.424885,241.139572 18.559278,229.542633 8.520098,218.097702 
	C6.533398,215.832809 4.006547,214.041718 1.364395,212.016052 
	C1.000000,203.312439 1.000000,194.624863 1.338779,185.530594 
	C2.746217,185.879532 4.018386,186.458298 4.852393,187.417892 
	C14.299439,198.287537 23.661943,209.230606 33.082226,220.123627 
	C42.828384,231.393509 52.557224,242.679657 62.448444,253.821243 
	C63.756752,255.294907 65.978645,255.957489 67.848038,257.459961 
	C67.857765,266.281158 67.796875,274.638092 67.735992,282.994995 
z"/>
<path fill="#FF9049" opacity="1.000000" stroke="none" 
	d="
M67.777428,256.995697 
	C65.978645,255.957489 63.756752,255.294907 62.448444,253.821243 
	C52.557224,242.679657 42.828384,231.393509 33.082226,220.123627 
	C23.661943,209.230606 14.299439,198.287537 4.852393,187.417892 
	C4.018386,186.458298 2.746217,185.879532 1.338779,185.061951 
	C1.000000,177.645752 1.000000,170.291504 1.338051,162.530090 
	C3.098537,163.229843 4.720271,164.157181 5.908051,165.475510 
	C10.451535,170.518433 14.866586,175.677444 19.309383,180.810608 
	C31.769571,195.206970 44.030804,209.783127 56.809952,223.890305 
	C59.908230,227.310577 61.513466,233.121368 67.810211,233.458115 
	C67.850090,241.612976 67.813759,249.304337 67.777428,256.995697 
z"/>
<path fill="#FF8947" opacity="1.000000" stroke="none" 
	d="
M67.734001,232.994614 
	C61.513466,233.121368 59.908230,227.310577 56.809952,223.890305 
	C44.030804,209.783127 31.769571,195.206970 19.309383,180.810608 
	C14.866586,175.677444 10.451535,170.518433 5.908051,165.475510 
	C4.720271,164.157181 3.098537,163.229843 1.338051,162.061462 
	C1.000000,154.312424 1.000000,146.624832 1.000000,138.468628 
	C4.291524,141.144928 7.845096,144.060654 10.830356,147.473480 
	C25.759357,164.540619 40.464310,181.804016 55.426979,198.841248 
	C58.955170,202.858612 63.174923,206.268631 67.494308,210.440796 
	C67.852722,218.280579 67.793365,225.637589 67.734001,232.994614 
z"/>
<path fill="#DF447D" opacity="1.000000" stroke="none" 
	d="
M288.531433,1.000000 
	C291.724731,4.872782 294.150208,9.003284 297.225555,12.574103 
	C311.142914,28.733788 325.280334,44.703773 339.239929,60.827389 
	C341.363495,63.280151 342.969238,66.181244 344.357758,69.273529 
	C336.600403,69.081169 329.299774,68.490234 321.936554,67.558167 
	C321.171478,65.916237 320.680634,64.431686 319.734680,63.342274 
	C305.861084,47.364311 291.858124,31.498159 278.050385,15.463824 
	C274.098022,10.874106 270.668976,5.833735 267.000000,1.000002 
	C274.020966,1.000000 281.041901,1.000000 288.531433,1.000000 
z"/>
<path fill="#E44673" opacity="1.000000" stroke="none" 
	d="
M279.999298,67.729645 
	C276.031891,62.352196 272.338379,56.744255 268.044434,51.641602 
	C256.337708,37.730145 244.351624,24.054129 232.539749,10.230541 
	C230.223709,7.520035 228.193146,4.565593 226.015457,1.361824 
	C232.687637,1.000000 239.375290,1.000000 246.594467,1.342281 
	C249.551682,4.817392 251.847610,8.061599 254.425079,11.064115 
	C266.746216,25.417070 279.242157,39.621243 291.452606,54.067081 
	C295.013214,58.279545 297.836945,63.114880 300.536194,67.745041 
	C293.382385,67.793472 286.690857,67.761559 279.999298,67.729645 
z"/>
<path fill="#E24578" opacity="1.000000" stroke="none" 
	d="
M300.998444,67.664703 
	C297.836945,63.114880 295.013214,58.279545 291.452606,54.067081 
	C279.242157,39.621243 266.746216,25.417070 254.425079,11.064115 
	C251.847610,8.061599 249.551682,4.817392 247.063004,1.342281 
	C253.354385,1.000000 259.708771,1.000000 266.531586,1.000002 
	C270.668976,5.833735 274.098022,10.874106 278.050385,15.463824 
	C291.858124,31.498159 305.861084,47.364311 319.734680,63.342274 
	C320.680634,64.431686 321.171478,65.916237 321.471802,67.621658 
	C314.379211,67.905754 307.688843,67.785233 300.998444,67.664703 
z"/>
<path fill="#FFFEFE" opacity="1.000000" stroke="none" 
	d="
M300.536194,67.745049 
	C307.688843,67.785233 314.379211,67.905754 321.534363,67.962791 
	C329.299774,68.490234 336.600403,69.081169 344.358490,69.654640 
	C354.954071,71.730362 365.092224,73.823540 375.616150,75.923401 
	C390.626770,81.452568 403.882599,89.077080 414.914398,100.393311 
	C428.681854,114.515701 436.952026,131.417892 441.241211,150.851379 
	C442.710266,162.562546 444.044006,173.939133 445.528809,185.695999 
	C445.798859,198.741852 445.917908,211.407440 446.105164,224.537430 
	C446.119629,239.692810 446.065887,254.383789 446.083710,269.538879 
	C446.070801,285.026642 445.986328,300.050323 445.977020,315.537537 
	C444.958282,329.015015 443.864380,342.028900 442.450073,355.765778 
	C439.369751,366.542450 436.609863,376.596161 433.567383,386.873047 
	C427.432007,396.018066 421.579163,404.940002 415.430908,414.003906 
	C406.421448,420.275818 397.707428,426.405731 388.679230,432.623779 
	C381.245850,435.200562 374.126617,437.689178 366.616882,440.166382 
	C357.150299,441.759857 348.074188,443.364807 338.998077,444.969757 
	C327.976868,445.374023 316.955658,445.778290 305.472046,446.259888 
	C293.302551,446.278839 281.595398,446.220428 269.417908,446.215942 
	C258.941772,446.238403 248.936020,446.206940 238.467682,446.254211 
	C228.981903,446.279846 219.958694,446.226776 210.471283,446.238556 
	C198.963547,445.821533 187.920013,445.339691 176.437683,444.908875 
	C166.002533,443.261353 155.972427,441.735199 146.025177,439.786194 
	C141.539139,438.907227 137.218201,437.185669 132.448425,435.777710 
	C120.957573,430.807800 110.298080,425.204681 101.346138,416.751526 
	C89.476318,405.543091 81.745949,391.796875 76.073990,376.310303 
	C73.810837,364.576324 71.738396,353.152954 69.514938,341.365784 
	C68.927261,331.970245 68.490593,322.938538 67.969574,313.451660 
	C67.884720,303.305206 67.884216,293.613953 67.809845,283.458832 
	C67.796875,274.638092 67.857765,266.281158 67.848038,257.459961 
	C67.813759,249.304337 67.850090,241.612976 67.810211,233.458115 
	C67.793365,225.637589 67.852722,218.280579 67.841797,210.459259 
	C68.008385,201.647278 68.245262,193.299576 68.420357,184.487701 
	C69.473915,174.612152 70.589264,165.200790 71.822502,155.000122 
	C74.259262,146.138824 76.578133,138.066833 79.112976,129.714417 
	C82.257179,123.637337 85.185410,117.840698 88.421402,111.896370 
	C92.615074,107.133186 96.500992,102.517700 100.670364,97.669670 
	C108.991234,92.015793 117.028648,86.594460 125.436089,81.121597 
	C134.203232,78.334602 142.600372,75.599121 150.997498,72.863632 
	C160.708542,71.575699 170.419571,70.287766 180.563843,68.917877 
	C191.688889,68.500290 202.380707,68.164650 213.534882,67.747208 
	C225.687561,67.751801 237.377869,67.838188 249.532104,67.855377 
	C259.688202,67.817429 269.380402,67.848686 279.535950,67.804794 
	C286.690857,67.761559 293.382385,67.793472 300.536194,67.745049 
M318.067535,102.016319 
	C311.044617,102.011490 304.021698,102.006660 296.080048,101.819725 
	C291.053131,101.895966 286.026215,101.972206 280.077576,101.887329 
	C275.051788,101.963448 270.025970,102.039566 264.075470,101.965096 
	C258.716827,102.031776 253.358200,102.098450 247.070724,102.031898 
	C239.711441,102.092888 232.352142,102.153877 224.065842,102.075027 
	C213.710281,102.372917 203.354736,102.670807 192.078384,102.803070 
	C180.344940,104.001480 168.611511,105.199890 156.048752,106.471405 
	C143.393280,109.291771 131.344559,113.268333 122.214005,124.234550 
	C116.540527,130.855392 112.815109,138.463043 110.269867,147.472641 
	C108.622917,156.258682 106.975967,165.044739 105.097374,174.578415 
	C104.463570,183.383926 103.829773,192.189438 103.033600,201.920013 
	C102.814285,210.612183 102.594971,219.304352 102.189072,228.917068 
	C102.195175,236.942459 102.201279,244.967865 102.060913,253.921494 
	C102.123299,262.611237 102.185684,271.300964 102.102058,280.919128 
	C102.354568,289.613556 102.607071,298.308014 102.697044,307.928619 
	C103.427208,318.620483 104.157379,329.312347 104.797577,340.891754 
	C105.590324,346.466644 106.119690,352.094025 107.219391,357.607697 
	C113.451889,388.856354 132.637253,405.771210 164.805389,408.097137 
	C174.206207,408.972626 183.607040,409.848083 193.928726,410.897186 
	C201.623596,411.044586 209.318481,411.191956 217.916199,411.590485 
	C224.947693,411.636108 231.979172,411.681763 239.936356,411.871826 
	C248.625931,411.858246 257.315521,411.844666 266.934174,411.958771 
	C275.957489,411.944580 284.980774,411.930359 294.929932,412.070374 
	C304.965637,411.843445 315.001343,411.616547 325.845276,411.549286 
	C337.278961,409.831848 348.712616,408.114410 360.929443,406.294373 
	C370.480316,403.544861 379.603790,399.959473 387.616272,392.740570 
	C391.102539,388.546356 394.588776,384.352142 398.656372,379.744629 
	C400.953125,374.570892 403.249847,369.397186 405.899872,363.594330 
	C407.287170,355.396393 408.674438,347.198486 410.359985,338.219910 
	C410.781952,329.150513 411.203888,320.081085 411.829407,310.092346 
	C411.950439,303.424927 412.071472,296.757507 412.505981,289.324280 
	C412.614838,283.549744 412.723694,277.775208 412.978424,271.075195 
	C412.977844,265.716858 412.977234,260.358521 413.169006,254.079483 
	C413.091766,245.053467 413.014496,236.027435 413.093170,226.075089 
	C412.288483,212.051758 411.483826,198.028427 410.763428,183.190720 
	C408.154327,170.860153 406.418671,158.261520 402.735565,146.260590 
	C396.914032,127.292152 384.270691,114.136856 364.949768,108.295036 
	C358.784668,106.430962 352.323059,105.547523 345.158722,104.011467 
	C336.437225,103.394745 327.715698,102.778023 318.067535,102.016319 
z"/>
<path fill="#FFDA54" opacity="1.000000" stroke="none" 
	d="
M6.939370,429.476685 
	C8.404144,429.959656 10.282337,430.527161 11.381793,431.778748 
	C30.296021,453.310181 49.144531,474.899780 67.901749,496.568115 
	C69.594978,498.524170 70.563316,501.107727 71.913460,503.757751 
	C60.737198,501.318817 51.073219,495.379730 42.077515,488.482544 
	C23.309080,474.092438 13.906571,453.725494 7.054804,431.871582 
	C6.863339,431.260864 7.004380,430.545898 6.939370,429.476685 
z"/>
<path fill="#FFDA54" opacity="1.000000" stroke="none" 
	d="
M6.097966,428.273651 
	C6.394109,428.191833 6.596104,428.423615 6.845927,428.909210 
	C6.646339,428.928192 6.349694,428.736237 6.097966,428.273651 
z"/>
<path fill="#F44E54" opacity="1.000000" stroke="none" 
	d="
M433.849976,386.649902 
	C436.609863,376.596161 439.369751,366.542450 442.381073,356.190552 
	C449.091858,356.541931 450.925049,362.632294 454.449493,366.457733 
	C464.878235,377.776978 474.723022,389.634521 484.786163,401.290192 
	C490.304199,407.681519 495.732880,414.151794 501.345123,420.459015 
	C503.411591,422.781372 505.889771,424.737305 508.506439,426.930359 
	C504.939728,437.116699 501.046753,447.233093 496.670685,457.604675 
	C495.288513,457.161255 494.243378,456.589264 493.512054,455.745300 
	C481.380890,441.745239 469.290192,427.710114 457.188110,413.684814 
	C449.410736,404.671448 441.629517,395.661438 433.849976,386.649902 
z"/>
<path fill="#FE5540" opacity="1.000000" stroke="none" 
	d="
M388.993347,432.535645 
	C397.707428,426.405731 406.421448,420.275818 415.755310,414.158173 
	C417.725616,415.337219 419.225800,416.370972 420.400543,417.693817 
	C425.447937,423.377502 430.394348,429.150726 435.387299,434.882935 
	C447.000031,448.215088 458.681213,461.488586 470.181244,474.917236 
	C472.469391,477.589142 474.072815,480.847534 475.991974,483.835510 
	C468.481934,489.174774 460.996643,494.549561 453.432190,499.810577 
	C452.427429,500.509338 451.020447,500.629700 449.257385,500.766602 
	C443.361420,494.394684 437.973938,488.303345 432.661560,482.147217 
	C422.907288,470.843781 413.258698,459.448547 403.441803,448.199982 
	C398.772827,442.850098 393.818451,437.749298 388.993347,432.535645 
z"/>
<path fill="#F9514A" opacity="1.000000" stroke="none" 
	d="
M476.326538,483.813690 
	C474.072815,480.847534 472.469391,477.589142 470.181244,474.917236 
	C458.681213,461.488586 447.000031,448.215088 435.387299,434.882935 
	C430.394348,429.150726 425.447937,423.377502 420.400543,417.693817 
	C419.225800,416.370972 417.725616,415.337219 416.050720,414.016174 
	C421.579163,404.940002 427.432007,396.018066 433.567413,386.873047 
	C441.629517,395.661438 449.410736,404.671448 457.188110,413.684814 
	C469.290192,427.710114 481.380890,441.745239 493.512054,455.745300 
	C494.243378,456.589264 495.288513,457.161255 496.515350,457.931335 
	C490.115784,466.599213 483.388458,475.195526 476.326538,483.813690 
z"/>
<path fill="#FF6040" opacity="1.000000" stroke="none" 
	d="
M388.679199,432.623810 
	C393.818451,437.749298 398.772827,442.850098 403.441803,448.199982 
	C413.258698,459.448547 422.907288,470.843781 432.661560,482.147217 
	C437.973938,488.303345 443.361420,494.394684 448.881165,500.812256 
	C440.648499,503.732086 432.249695,506.354858 423.406647,508.554016 
	C420.664429,504.945770 418.594208,501.563568 416.030731,498.609344 
	C401.792145,482.200439 387.378174,465.943542 373.170319,449.508331 
	C370.752930,446.712006 369.043732,443.303497 367.007385,440.177826 
	C374.126617,437.689178 381.245850,435.200562 388.679199,432.623810 
z"/>
<path fill="#FF6942" opacity="1.000000" stroke="none" 
	d="
M366.616882,440.166382 
	C369.043732,443.303497 370.752930,446.712006 373.170319,449.508331 
	C387.378174,465.943542 401.792145,482.200439 416.030731,498.609344 
	C418.594208,501.563568 420.664429,504.945770 422.979553,508.481995 
	C417.597076,509.556030 412.213928,510.470398 406.792206,510.936493 
	C402.877808,511.272949 398.912170,511.013397 394.506409,511.066742 
	C391.245239,507.459808 388.614227,503.662262 385.620819,500.175873 
	C370.370056,482.413513 355.023621,464.733276 339.727936,447.009369 
	C339.418152,446.650421 339.318359,446.110229 339.059326,445.312195 
	C348.074188,443.364807 357.150299,441.759857 366.616882,440.166382 
z"/>
<path fill="#FE5540" opacity="1.000000" stroke="none" 
	d="
M125.066071,81.173111 
	C117.028648,86.594460 108.991234,92.015793 100.505997,97.305923 
	C96.704514,93.282364 93.348961,89.391640 89.997574,85.497345 
	C80.156464,74.062065 70.417564,62.536724 60.441643,51.220314 
	C53.764076,43.645466 46.750805,36.366562 39.887753,28.955235 
	C47.187851,21.029127 56.665291,16.480581 66.725845,12.236668 
	C82.517960,30.158604 97.831337,47.794132 112.986900,65.564262 
	C117.251244,70.564270 121.052437,75.959282 125.066071,81.173111 
z"/>
<path fill="#FA5148" opacity="1.000000" stroke="none" 
	d="
M125.436081,81.121597 
	C121.052437,75.959282 117.251244,70.564270 112.986900,65.564262 
	C97.831337,47.794132 82.517960,30.158604 67.088425,12.177738 
	C76.014275,9.362454 85.116043,6.841531 94.608887,4.244062 
	C98.838715,9.109720 102.470589,14.230485 106.553902,18.961617 
	C120.406685,35.012142 134.447876,50.899979 148.321060,66.933067 
	C149.557617,68.362152 150.098770,70.392952 150.980194,72.503960 
	C142.600372,75.599121 134.203232,78.334602 125.436081,81.121597 
z"/>
<path fill="#FF7043" opacity="1.000000" stroke="none" 
	d="
M78.897003,129.994858 
	C76.578133,138.066833 74.259262,146.138824 71.818504,154.601898 
	C69.563522,153.580109 66.991585,152.551773 65.364815,150.695236 
	C47.933586,130.801880 30.665722,110.765503 13.310149,90.805649 
	C11.279012,88.469727 8.990006,86.358025 6.493556,84.072990 
	C8.865956,76.098602 11.565346,68.193604 14.877164,60.287331 
	C22.040756,67.736916 28.630039,75.154671 35.134949,82.645691 
	C47.722477,97.141426 60.209591,111.724953 72.891998,126.136848 
	C74.403366,127.854317 76.872055,128.729340 78.897003,129.994858 
z"/>
<path fill="#FF6040" opacity="1.000000" stroke="none" 
	d="
M39.579208,29.092773 
	C46.750805,36.366562 53.764076,43.645466 60.441643,51.220314 
	C70.417564,62.536724 80.156464,74.062065 89.997574,85.497345 
	C93.348961,89.391640 96.704514,93.282364 100.222542,97.538460 
	C96.500992,102.517700 92.615074,107.133186 88.075195,111.830048 
	C85.788216,110.544182 83.971664,109.342705 82.557892,107.777435 
	C78.887695,103.713966 75.401405,99.484673 71.829567,95.332024 
	C62.086067,84.004128 52.391621,72.633347 42.567188,61.376038 
	C37.121727,55.136356 31.454786,49.089962 25.887672,42.956448 
	C30.348671,38.381069 34.809669,33.805691 39.579208,29.092773 
z"/>
<path fill="#FF6741" opacity="1.000000" stroke="none" 
	d="
M25.583096,43.114037 
	C31.454786,49.089962 37.121727,55.136356 42.567188,61.376038 
	C52.391621,72.633347 62.086067,84.004128 71.829567,95.332024 
	C75.401405,99.484673 78.887695,103.713966 82.557892,107.777435 
	C83.971664,109.342705 85.788216,110.544182 87.767441,111.977737 
	C85.185410,117.840698 82.257179,123.637337 79.112976,129.714417 
	C76.872055,128.729340 74.403366,127.854317 72.891998,126.136848 
	C60.209591,111.724953 47.722477,97.141426 35.134949,82.645691 
	C28.630039,75.154671 22.040756,67.736916 15.191540,60.118195 
	C18.355164,54.390762 21.816839,48.831196 25.583096,43.114037 
z"/>
<path fill="#CA38A7" opacity="1.000000" stroke="none" 
	d="
M510.890045,95.599548 
	C505.741638,90.621620 500.475342,85.397072 495.596130,79.833115 
	C485.854523,68.724358 476.369110,57.391434 466.695770,46.222191 
	C457.236938,35.300571 447.633606,24.503839 438.215851,13.547248 
	C437.100128,12.249183 436.754700,10.288969 436.046997,8.259851 
	C446.485107,9.857679 455.545807,14.942508 464.195312,20.758173 
	C489.995850,38.105732 504.450500,62.731991 510.063904,92.948517 
	C510.208466,93.726669 510.646240,94.450348 510.890045,95.599548 
z"/>
<path fill="#FF8146" opacity="1.000000" stroke="none" 
	d="
M102.207382,252.993256 
	C102.201279,244.967865 102.195175,236.942459 102.620285,228.477142 
	C105.885330,230.702103 108.966858,233.150696 111.513069,236.066727 
	C128.838867,255.908966 146.010452,275.885956 163.369232,295.699066 
	C164.999146,297.559418 167.579681,298.586914 169.926010,300.291840 
	C179.437103,318.927338 193.531586,332.634857 210.907166,343.178894 
	C210.941940,344.590637 210.873413,346.018768 211.535416,346.894958 
	C213.531250,349.536469 215.800018,351.973083 217.982162,354.472321 
	C231.947922,370.467560 245.975235,386.409668 259.835052,402.496155 
	C262.250000,405.299103 263.966156,408.704132 266.005096,411.831055 
	C257.315521,411.844666 248.625931,411.858246 239.468170,411.437439 
	C238.584427,409.775909 238.484680,408.280365 237.704849,407.362823 
	C229.213028,397.371704 220.635086,387.453400 212.039993,377.550537 
	C202.573441,366.643677 193.038940,355.795807 183.580338,344.882141 
	C171.298416,330.710754 159.054901,316.505981 146.808548,302.303802 
	C137.054993,290.992584 127.450050,279.549713 117.524605,268.391724 
	C112.720268,262.990784 107.331520,258.109711 102.207382,252.993256 
z"/>
<path fill="#FF8947" opacity="1.000000" stroke="none" 
	d="
M102.134148,253.457367 
	C107.331520,258.109711 112.720268,262.990784 117.524605,268.391724 
	C127.450050,279.549713 137.054993,290.992584 146.808548,302.303802 
	C159.054901,316.505981 171.298416,330.710754 183.580338,344.882141 
	C193.038940,355.795807 202.573441,366.643677 212.039993,377.550537 
	C220.635086,387.453400 229.213028,397.371704 237.704849,407.362823 
	C238.484680,408.280365 238.584427,409.775909 239.005310,411.365234 
	C231.979172,411.681763 224.947693,411.636108 217.368042,411.170319 
	C216.035492,409.487122 215.400970,408.095612 214.444611,406.980011 
	C196.113144,385.595184 177.765045,364.224518 159.376129,342.889069 
	C142.718277,323.562042 126.055923,304.238281 109.250954,285.039642 
	C107.404243,282.929871 104.605339,281.653564 102.248062,279.990723 
	C102.185684,271.300964 102.123299,262.611237 102.134148,253.457367 
z"/>
<path fill="#FE5541" opacity="1.000000" stroke="none" 
	d="
M122.798782,123.920090 
	C131.344559,113.268333 143.393280,109.291771 156.524506,106.821037 
	C160.720978,111.999809 164.253632,116.988792 168.197403,121.628311 
	C180.325165,135.895538 192.645630,149.998856 204.798615,164.244858 
	C206.770508,166.556335 208.271072,169.269943 209.721954,172.022079 
	C200.722183,179.347641 191.989960,186.448822 183.092026,193.218689 
	C171.319656,179.463577 159.748154,166.009171 148.094589,152.626190 
	C139.719391,143.008087 131.234650,133.485367 122.798782,123.920090 
z"/>
<path fill="#ED4B62" opacity="1.000000" stroke="none" 
	d="
M412.832581,272.000671 
	C412.723694,277.775208 412.614838,283.549744 412.028961,289.556580 
	C405.974457,283.924805 400.171631,278.256897 394.863403,272.158386 
	C381.125793,256.375427 367.671509,240.345795 353.925934,224.569931 
	C351.966614,222.321198 349.017029,220.935318 346.325256,218.882401 
	C337.445282,198.674637 323.343170,183.563370 304.874329,171.948227 
	C304.117096,170.110214 303.632904,168.435471 302.610504,167.209671 
	C296.765076,160.201294 290.825165,153.270691 284.853912,146.368530 
	C275.406647,135.448410 265.835968,124.634010 256.474670,113.641060 
	C253.398926,110.029236 250.810715,106.002266 247.999573,102.165131 
	C253.358200,102.098450 258.716827,102.031776 264.605499,102.371414 
	C276.306122,115.900620 287.419006,129.073166 298.663330,142.132553 
	C310.137085,155.458420 321.761597,168.654343 333.280365,181.941650 
	C345.665771,196.228653 358.017029,210.545349 370.360474,224.868637 
	C380.104767,236.175842 389.706787,247.607986 399.591248,258.790833 
	C403.712097,263.453033 408.401611,267.612579 412.832581,272.000671 
z"/>
<path fill="#FF9049" opacity="1.000000" stroke="none" 
	d="
M102.175064,280.454926 
	C104.605339,281.653564 107.404243,282.929871 109.250954,285.039642 
	C126.055923,304.238281 142.718277,323.562042 159.376129,342.889069 
	C177.765045,364.224518 196.113144,385.595184 214.444611,406.980011 
	C215.400970,408.095612 216.035492,409.487122 216.916611,411.044739 
	C209.318481,411.191956 201.623596,411.044586 193.396530,410.482178 
	C191.900986,408.535858 191.102875,406.864563 189.945328,405.497711 
	C185.229675,399.929230 180.381760,394.473083 175.623230,388.940552 
	C163.839371,375.240021 152.085464,361.513733 140.305008,347.810303 
	C130.361893,336.244141 120.471611,324.630951 110.384651,313.191406 
	C108.264076,310.786499 105.387680,309.048004 102.859573,307.002441 
	C102.607071,298.308014 102.354568,289.613556 102.175064,280.454926 
z"/>
<path fill="#FF5640" opacity="1.000000" stroke="none" 
	d="
M386.987335,392.971100 
	C379.603790,399.959473 370.480316,403.544861 360.378845,406.020691 
	C358.161530,403.900452 356.461609,402.082672 354.833313,400.202881 
	C342.252075,385.678253 329.575836,371.233643 317.174683,356.556671 
	C313.081055,351.711792 309.708618,346.257599 306.243774,340.834473 
	C313.222656,335.354340 319.964142,330.121765 327.018311,325.050720 
	C329.702576,327.521973 332.249756,329.679138 334.413849,332.169220 
	C341.790192,340.656738 348.980347,349.305817 356.336914,357.810791 
	C366.508392,369.570099 376.766388,381.254578 386.987335,392.971100 
z"/>
<path fill="#EB4A65" opacity="1.000000" stroke="none" 
	d="
M412.905518,271.537933 
	C408.401611,267.612579 403.712097,263.453033 399.591248,258.790833 
	C389.706787,247.607986 380.104767,236.175842 370.360474,224.868637 
	C358.017029,210.545349 345.665771,196.228653 333.280365,181.941650 
	C321.761597,168.654343 310.137085,155.458420 298.663330,142.132553 
	C287.419006,129.073166 276.306122,115.900620 265.067871,102.446716 
	C270.025970,102.039566 275.051788,101.963448 280.554749,102.326614 
	C285.828094,108.816727 290.468964,114.998901 295.453156,120.890648 
	C305.403290,132.652573 315.415741,144.367599 325.670227,155.863129 
	C329.303223,159.935791 333.715546,163.313293 337.986176,167.269165 
	C339.842438,169.571335 341.484589,171.612503 343.147461,174.019424 
	C343.941010,175.842392 344.476440,177.503098 345.523865,178.724899 
	C354.710297,189.440567 363.986145,200.079575 373.239166,210.738129 
	C385.104034,224.405258 396.952362,238.086899 408.871399,251.706635 
	C410.008972,253.006500 411.597473,253.911743 412.976654,255.000183 
	C412.977234,260.358521 412.977844,265.716858 412.905518,271.537933 
z"/>
<path fill="#F9514B" opacity="1.000000" stroke="none" 
	d="
M209.989502,171.797668 
	C208.271072,169.269943 206.770508,166.556335 204.798615,164.244858 
	C192.645630,149.998856 180.325165,135.895538 168.197403,121.628311 
	C164.253632,116.988792 160.720978,111.999809 156.939178,106.784485 
	C168.611511,105.199890 180.344940,104.001480 192.600525,103.230484 
	C196.672806,108.196121 200.059723,112.874237 203.805161,117.245132 
	C213.270523,128.291168 222.980392,139.128143 232.408539,150.205261 
	C235.249023,153.542526 237.486221,157.393295 239.671997,161.207306 
	C229.559311,164.869751 219.774399,168.333710 209.989502,171.797668 
z"/>
<path fill="#FF984A" opacity="1.000000" stroke="none" 
	d="
M102.778305,307.465515 
	C105.387680,309.048004 108.264076,310.786499 110.384651,313.191406 
	C120.471611,324.630951 130.361893,336.244141 140.305008,347.810303 
	C152.085464,361.513733 163.839371,375.240021 175.623230,388.940552 
	C180.381760,394.473083 185.229675,399.929230 189.945328,405.497711 
	C191.102875,406.864563 191.900986,408.535858 192.936096,410.395355 
	C183.607040,409.848083 174.206207,408.972626 164.386353,407.629578 
	C163.386993,406.005341 163.002975,404.684479 162.194763,403.718506 
	C156.572708,396.998444 150.882874,390.334656 145.176315,383.685822 
	C135.270584,372.144409 125.452873,360.523804 115.344986,349.161743 
	C112.289139,345.726715 108.396751,343.035919 104.887543,340.004211 
	C104.157379,329.312347 103.427208,318.620483 102.778305,307.465515 
z"/>
<path fill="#FF6341" opacity="1.000000" stroke="none" 
	d="
M306.006409,341.082031 
	C309.708618,346.257599 313.081055,351.711792 317.174683,356.556671 
	C329.575836,371.233643 342.252075,385.678253 354.833313,400.202881 
	C356.461609,402.082672 358.161530,403.900452 359.987305,406.071960 
	C348.712616,408.114410 337.278961,409.831848 325.428833,411.131042 
	C324.532928,409.512177 324.331085,408.071747 323.532257,407.146973 
	C312.149933,393.970306 300.619141,380.921539 289.278046,367.709808 
	C284.985809,362.709656 281.086426,357.372345 277.381165,352.069153 
	C287.171722,348.327087 296.589050,344.704559 306.006409,341.082031 
z"/>
<path fill="#FF6040" opacity="1.000000" stroke="none" 
	d="
M122.506393,124.077316 
	C131.234650,133.485367 139.719391,143.008087 148.094589,152.626190 
	C159.748154,166.009171 171.319656,179.463577 182.955872,193.508881 
	C178.683609,200.428528 174.381775,206.726730 169.735794,212.960526 
	C165.026154,208.195969 160.536591,203.604095 156.319916,198.774017 
	C146.290009,187.285065 136.442505,175.636902 126.413948,164.146744 
	C121.305923,158.294266 115.966225,152.643967 110.731247,146.902267 
	C112.815109,138.463043 116.540527,130.855392 122.506393,124.077316 
z"/>
<path fill="#F44E54" opacity="1.000000" stroke="none" 
	d="
M239.999786,161.008820 
	C237.486221,157.393295 235.249023,153.542526 232.408539,150.205261 
	C222.980392,139.128143 213.270523,128.291168 203.805161,117.245132 
	C200.059723,112.874237 196.672806,108.196121 193.060913,103.313293 
	C203.354736,102.670807 213.710281,102.372917 224.549805,102.495049 
	C225.945892,104.654366 226.569000,106.641975 227.816147,108.093391 
	C237.194946,119.008476 246.816528,129.716461 256.114716,140.698730 
	C261.640442,147.225281 266.717529,154.131683 271.564819,160.918976 
	C260.755463,160.983368 250.377625,160.996094 239.999786,161.008820 
z"/>
<path fill="#FF6F43" opacity="1.000000" stroke="none" 
	d="
M277.007965,352.188721 
	C281.086426,357.372345 284.985809,362.709656 289.278046,367.709808 
	C300.619141,380.921539 312.149933,393.970306 323.532257,407.146973 
	C324.331085,408.071747 324.532928,409.512177 325.024719,411.051208 
	C315.001343,411.616547 304.965637,411.843445 294.449097,411.636292 
	C293.610840,410.294250 293.464630,409.205231 292.864563,408.505310 
	C282.204803,396.070862 271.419983,383.743134 260.818451,371.259583 
	C256.035828,365.627869 251.594742,359.706085 247.465134,353.863159 
	C257.623718,353.269836 267.315826,352.729279 277.007965,352.188721 
z"/>
<path fill="#FF6942" opacity="1.000000" stroke="none" 
	d="
M110.500557,147.187454 
	C115.966225,152.643967 121.305923,158.294266 126.413948,164.146744 
	C136.442505,175.636902 146.290009,187.285065 156.319916,198.774017 
	C160.536591,203.604095 165.026154,208.195969 169.688812,213.322510 
	C167.348160,220.833664 164.710327,227.918427 161.729248,234.944519 
	C158.264359,231.766464 154.952362,228.813507 152.053879,225.498947 
	C139.332794,210.951706 126.791473,196.247040 114.036018,181.730331 
	C111.465858,178.805267 108.248161,176.449188 105.329010,173.830780 
	C106.975967,165.044739 108.622917,156.258682 110.500557,147.187454 
z"/>
<path fill="#FF7844" opacity="1.000000" stroke="none" 
	d="
M246.998688,353.915894 
	C251.594742,359.706085 256.035828,365.627869 260.818451,371.259583 
	C271.419983,383.743134 282.204803,396.070862 292.864563,408.505310 
	C293.464630,409.205231 293.610840,410.294250 293.986176,411.559143 
	C284.980774,411.930359 275.957489,411.944580 266.469635,411.894897 
	C263.966156,408.704132 262.250000,405.299103 259.835052,402.496155 
	C245.975235,386.409668 231.947922,370.467560 217.982162,354.472321 
	C215.800018,351.973083 213.531250,349.536469 211.535416,346.894958 
	C210.873413,346.018768 210.941940,344.590637 211.257492,343.230164 
	C214.420181,344.304718 216.884613,345.979034 219.604904,346.747192 
	C228.686768,349.311707 237.860291,351.551636 246.998688,353.915894 
z"/>
<path fill="#F65050" opacity="1.000000" stroke="none" 
	d="
M410.061707,339.000549 
	C408.674438,347.198486 407.287170,355.396393 405.388031,363.746094 
	C399.069672,357.583527 393.130676,351.384979 387.485992,344.929047 
	C377.701111,333.737885 368.207886,322.290710 358.367157,311.149811 
	C354.265076,306.505768 349.585754,302.371613 345.209717,297.651520 
	C347.550781,290.532501 349.851044,283.767548 352.504639,277.020935 
	C354.011230,277.862671 355.344971,278.519806 356.284698,279.539917 
	C359.426331,282.950073 362.447052,286.472778 365.478027,289.983521 
	C375.540314,301.638458 385.457825,313.421997 395.699493,324.916840 
	C400.149811,329.911743 405.254333,334.323792 410.061707,339.000549 
z"/>
<path fill="#FF7244" opacity="1.000000" stroke="none" 
	d="
M105.213196,174.204590 
	C108.248161,176.449188 111.465858,178.805267 114.036018,181.730331 
	C126.791473,196.247040 139.332794,210.951706 152.053879,225.498947 
	C154.952362,228.813507 158.264359,231.766464 161.746323,235.364990 
	C161.349228,244.561386 160.591858,253.278610 159.482239,261.978790 
	C157.169250,260.540955 154.849503,259.431732 153.303802,257.650757 
	C139.326202,241.545563 125.524460,225.287827 111.565277,209.166489 
	C109.021965,206.229248 105.998032,203.708160 103.195969,200.994949 
	C103.829773,192.189438 104.463570,183.383926 105.213196,174.204590 
z"/>
<path fill="#F34E57" opacity="1.000000" stroke="none" 
	d="
M410.210846,338.610229 
	C405.254333,334.323792 400.149811,329.911743 395.699493,324.916840 
	C385.457825,313.421997 375.540314,301.638458 365.478027,289.983521 
	C362.447052,286.472778 359.426331,282.950073 356.284698,279.539917 
	C355.344971,278.519806 354.011230,277.862671 352.478027,276.609100 
	C352.744659,267.453003 353.391235,258.727051 354.399353,250.017242 
	C356.347015,251.107635 358.204041,251.932297 359.467743,253.303665 
	C363.045746,257.186432 366.368744,261.303406 369.813904,265.309448 
	C379.720642,276.829224 389.517670,288.446930 399.615479,299.796936 
	C403.240692,303.871674 407.601013,307.292450 411.625824,311.011688 
	C411.203888,320.081085 410.781952,329.150513 410.210846,338.610229 
z"/>
<path fill="#E1467C" opacity="1.000000" stroke="none" 
	d="
M345.997101,104.215378 
	C352.323059,105.547523 358.784668,106.430962 364.949768,108.295036 
	C384.270691,114.136856 396.914032,127.292152 402.735565,146.260590 
	C406.418671,158.261520 408.154327,170.860153 410.380371,183.577576 
	C404.672241,178.654877 399.358551,173.333893 394.018677,168.039352 
	C389.632874,163.690857 385.215912,159.373810 380.647247,154.709244 
	C379.754395,146.298096 375.429901,140.480560 369.146484,135.785553 
	C368.773224,134.089706 368.536438,132.341507 367.574005,131.211197 
	C362.406830,125.142563 356.931091,119.334251 351.831940,113.211182 
	C349.560883,110.484131 347.922577,107.230186 345.997101,104.215378 
z"/>
<path fill="#FF7A45" opacity="1.000000" stroke="none" 
	d="
M103.114784,201.457489 
	C105.998032,203.708160 109.021965,206.229248 111.565277,209.166489 
	C125.524460,225.287827 139.326202,241.545563 153.303802,257.650757 
	C154.849503,259.431732 157.169250,260.540955 159.565948,262.404907 
	C161.179443,275.771576 163.775757,288.323975 169.718842,300.001099 
	C167.579681,298.586914 164.999146,297.559418 163.369232,295.699066 
	C146.010452,275.885956 128.838867,255.908966 111.513069,236.066727 
	C108.966858,233.150696 105.885330,230.702103 102.713577,228.016876 
	C102.594971,219.304352 102.814285,210.612183 103.114784,201.457489 
z"/>
<path fill="#E94969" opacity="1.000000" stroke="none" 
	d="
M413.072815,254.539825 
	C411.597473,253.911743 410.008972,253.006500 408.871399,251.706635 
	C396.952362,238.086899 385.104034,224.405258 373.239166,210.738129 
	C363.986145,200.079575 354.710297,189.440567 345.523865,178.724899 
	C344.476440,177.503098 343.941010,175.842392 343.479248,174.154846 
	C351.304932,179.432922 359.376251,180.045334 368.056824,176.983948 
	C379.001068,189.887268 389.688873,202.561905 400.634399,215.009903 
	C404.404755,219.297775 408.817780,223.020523 412.937256,227.001419 
	C413.014496,236.027435 413.091766,245.053467 413.072815,254.539825 
z"/>
<path fill="#FC5345" opacity="1.000000" stroke="none" 
	d="
M387.301819,392.855835 
	C376.766388,381.254578 366.508392,369.570099 356.336914,357.810791 
	C348.980347,349.305817 341.790192,340.656738 334.413849,332.169220 
	C332.249756,329.679138 329.702576,327.521973 327.165436,324.741394 
	C330.398376,320.183105 333.796875,316.095612 337.519592,312.079102 
	C340.287048,314.364960 342.962738,316.374573 345.132263,318.831177 
	C353.467468,328.269257 361.649750,337.842621 369.871552,347.380585 
	C379.282440,358.297943 388.674683,369.231415 398.075012,380.157898 
	C394.588776,384.352142 391.102539,388.546356 387.301819,392.855835 
z"/>
<path fill="#F04D5C" opacity="1.000000" stroke="none" 
	d="
M271.996338,160.867294 
	C266.717529,154.131683 261.640442,147.225281 256.114716,140.698730 
	C246.816528,129.716461 237.194946,119.008476 227.816147,108.093391 
	C226.569000,106.641975 225.945892,104.654366 225.013321,102.564972 
	C232.352142,102.153877 239.711441,102.092888 247.535156,102.098511 
	C250.810715,106.002266 253.398926,110.029236 256.474670,113.641060 
	C265.835968,124.634010 275.406647,135.448410 284.853912,146.368530 
	C290.825165,153.270691 296.765076,160.201294 302.610504,167.209671 
	C303.632904,168.435471 304.117096,170.110214 304.517517,171.866028 
	C293.455566,168.392044 282.725952,164.629669 271.996338,160.867294 
z"/>
<path fill="#E54772" opacity="1.000000" stroke="none" 
	d="
M413.015198,226.538254 
	C408.817780,223.020523 404.404755,219.297775 400.634399,215.009903 
	C389.688873,202.561905 379.001068,189.887268 368.280823,176.748566 
	C376.856812,171.709381 380.011078,164.069168 380.812775,155.042801 
	C385.215912,159.373810 389.632874,163.690857 394.018677,168.039352 
	C399.358551,173.333893 404.672241,178.654877 410.338196,183.984756 
	C411.483826,198.028427 412.288483,212.051758 413.015198,226.538254 
z"/>
<path fill="#F9514A" opacity="1.000000" stroke="none" 
	d="
M398.365692,379.951263 
	C388.674683,369.231415 379.282440,358.297943 369.871552,347.380585 
	C361.649750,337.842621 353.467468,328.269257 345.132263,318.831177 
	C342.962738,316.374573 340.287048,314.364960 337.607910,311.757202 
	C339.971008,306.911407 342.569946,302.458496 345.168884,298.005615 
	C349.585754,302.371613 354.265076,306.505768 358.367157,311.149811 
	C368.207886,322.290710 377.701111,333.737885 387.485992,344.929047 
	C393.130676,351.384979 399.069672,357.583527 405.211365,364.060669 
	C403.249847,369.397186 400.953125,374.570892 398.365692,379.951263 
z"/>
<path fill="#F04D5C" opacity="1.000000" stroke="none" 
	d="
M411.727600,310.552002 
	C407.601013,307.292450 403.240692,303.871674 399.615479,299.796936 
	C389.517670,288.446930 379.720642,276.829224 369.813904,265.309448 
	C366.368744,261.303406 363.045746,257.186432 359.467743,253.303665 
	C358.204041,251.932297 356.347015,251.107635 354.278381,249.623627 
	C351.372498,239.192627 348.949127,229.171356 346.525757,219.150101 
	C349.017029,220.935318 351.966614,222.321198 353.925934,224.569931 
	C367.671509,240.345795 381.125793,256.375427 394.863403,272.158386 
	C400.171631,278.256897 405.974457,283.924805 411.872223,289.939514 
	C412.071472,296.757507 411.950439,303.424927 411.727600,310.552002 
z"/>
<path fill="#FFA24D" opacity="1.000000" stroke="none" 
	d="
M104.842560,340.447998 
	C108.396751,343.035919 112.289139,345.726715 115.344986,349.161743 
	C125.452873,360.523804 135.270584,372.144409 145.176315,383.685822 
	C150.882874,390.334656 156.572708,396.998444 162.194763,403.718506 
	C163.002975,404.684479 163.386993,406.005341 163.986832,407.516235 
	C132.637253,405.771210 113.451889,388.856354 107.219391,357.607697 
	C106.119690,352.094025 105.590324,346.466644 104.842560,340.447998 
z"/>
<path fill="#E94969" opacity="1.000000" stroke="none" 
	d="
M337.772064,167.008148 
	C333.715546,163.313293 329.303223,159.935791 325.670227,155.863129 
	C315.415741,144.367599 305.403290,132.652573 295.453156,120.890648 
	C290.468964,114.998901 285.828094,108.816727 281.015625,102.407181 
	C286.026215,101.972206 291.053131,101.895966 296.555237,102.272629 
	C297.594116,103.884399 297.945557,105.223846 298.754242,106.174202 
	C306.887360,115.732147 314.998322,125.312424 323.323639,134.701889 
	C327.467377,139.375305 332.042664,143.666077 336.339478,148.533417 
	C334.267944,155.169830 335.181122,161.159348 337.772064,167.008148 
z"/>
<path fill="#E8486C" opacity="1.000000" stroke="none" 
	d="
M336.422760,148.129913 
	C332.042664,143.666077 327.467377,139.375305 323.323639,134.701889 
	C314.998322,125.312424 306.887360,115.732147 298.754242,106.174202 
	C297.945557,105.223846 297.594116,103.884399 297.014618,102.363678 
	C304.021698,102.006660 311.044617,102.011490 318.550537,102.446823 
	C319.906158,104.629272 320.480804,106.630363 321.701843,108.091087 
	C327.767578,115.347420 334.066101,122.409027 340.142120,129.657013 
	C341.989990,131.861267 343.389587,134.441315 344.685608,136.997284 
	C341.725403,140.806854 339.074066,144.468384 336.422760,148.129913 
z"/>
<path fill="#E44775" opacity="1.000000" stroke="none" 
	d="
M344.994507,136.849243 
	C343.389587,134.441315 341.989990,131.861267 340.142120,129.657013 
	C334.066101,122.409027 327.767578,115.347420 321.701843,108.091087 
	C320.480804,106.630363 319.906158,104.629272 319.013855,102.519310 
	C327.715698,102.778023 336.437225,103.394745 345.577911,104.113426 
	C347.922577,107.230186 349.560883,110.484131 351.831940,113.211182 
	C356.931091,119.334251 362.406830,125.142563 367.574005,131.211197 
	C368.536438,132.341507 368.773224,134.089706 368.775757,135.727997 
	C360.292114,131.871689 352.600830,133.317902 344.994507,136.849243 
z"/>
<path fill="#FFFEFE" opacity="1.000000" stroke="none" 
	d="
M346.325256,218.882401 
	C348.949127,229.171356 351.372498,239.192627 353.916840,249.607498 
	C353.391235,258.727051 352.744659,267.453003 352.124695,276.590790 
	C349.851044,283.767548 347.550781,290.532501 345.209717,297.651520 
	C342.569946,302.458496 339.971008,306.911407 337.283691,311.686218 
	C333.796875,316.095612 330.398376,320.183105 326.852783,324.579895 
	C319.964142,330.121765 313.222656,335.354340 306.243774,340.834473 
	C296.589050,344.704559 287.171722,348.327087 277.381165,352.069153 
	C267.315826,352.729279 257.623718,353.269836 247.465149,353.863159 
	C237.860291,351.551636 228.686768,349.311707 219.604904,346.747192 
	C216.884613,345.979034 214.420181,344.304718 211.488205,342.994232 
	C193.531586,332.634857 179.437103,318.927338 169.926010,300.291840 
	C163.775757,288.323975 161.179443,275.771576 159.918182,262.421967 
	C160.591858,253.278610 161.349228,244.561386 162.089539,235.423676 
	C164.710327,227.918427 167.348160,220.833664 170.032959,213.386902 
	C174.381775,206.726730 178.683609,200.428528 183.121597,193.840164 
	C191.989960,186.448822 200.722183,179.347641 209.721954,172.022064 
	C219.774399,168.333710 229.559311,164.869751 239.671997,161.207306 
	C250.377625,160.996094 260.755463,160.983368 271.564819,160.918976 
	C282.725952,164.629669 293.455566,168.392044 304.541992,172.236633 
	C323.343170,183.563370 337.445282,198.674637 346.325256,218.882401 
M239.796616,317.978912 
	C247.534317,318.534332 255.272003,319.089752 263.803894,319.742340 
	C271.540192,317.497070 279.276489,315.251770 287.684357,312.799255 
	C298.195190,307.538788 305.964539,299.551270 311.779144,288.651093 
	C316.684906,279.023010 319.569153,268.913696 319.305237,257.096008 
	C318.725433,221.897430 296.939331,197.244904 263.082977,194.238754 
	C252.315964,193.590256 241.741409,194.244736 231.043945,198.932785 
	C220.505234,203.244324 211.809555,209.796295 205.257339,220.061188 
	C202.319794,226.875351 199.382248,233.689499 196.075394,241.193665 
	C195.826965,249.791809 195.578522,258.389954 195.262802,267.763275 
	C195.514664,269.063477 195.715302,270.376068 196.025970,271.662048 
	C201.687759,295.099396 215.094940,311.313507 239.796616,317.978912 
z"/>
<path fill="#FFFEFE" opacity="1.000000" stroke="none" 
	d="
M344.685608,136.997284 
	C352.600830,133.317902 360.292114,131.871689 368.577393,135.960831 
	C375.429901,140.480560 379.754395,146.298096 380.647247,154.709244 
	C380.011078,164.069168 376.856812,171.709381 368.125488,176.430954 
	C359.376251,180.045334 351.304932,179.432922 343.458557,173.789093 
	C341.484589,171.612503 339.842438,169.571335 337.986176,167.269165 
	C335.181122,161.159348 334.267944,155.169830 336.339478,148.533417 
	C339.074066,144.468384 341.725403,140.806854 344.685608,136.997284 
z"/>
<path fill="#FE5541" opacity="1.000000" stroke="none" 
	d="
M205.841949,219.664551 
	C211.809555,209.796295 220.505234,203.244324 231.670349,199.117889 
	C245.818817,214.991089 259.354065,230.667831 272.858429,246.371094 
	C282.471008,257.548859 291.964813,268.829987 301.678680,279.918640 
	C304.582214,283.233063 308.049164,286.053925 311.257996,289.100891 
	C305.964539,299.551270 298.195190,307.538788 287.065430,312.724609 
	C277.394501,302.254486 268.318085,291.880157 259.297119,281.457825 
	C249.623535,270.281464 240.020035,259.044464 230.352509,247.862854 
	C222.207214,238.441895 214.013962,229.062393 205.841949,219.664551 
z"/>
<path fill="#F9514A" opacity="1.000000" stroke="none" 
	d="
M311.518555,288.875977 
	C308.049164,286.053925 304.582214,283.233063 301.678680,279.918640 
	C291.964813,268.829987 282.471008,257.548859 272.858429,246.371094 
	C259.354065,230.667831 245.818817,214.991089 232.024780,199.084656 
	C241.741409,194.244736 252.315964,193.590256 263.560364,194.697983 
	C267.742004,199.988327 271.255005,204.981674 275.188110,209.618713 
	C285.157471,221.372360 295.202271,233.066803 305.452057,244.575516 
	C309.683350,249.326538 314.516510,253.541550 319.075928,258.000336 
	C319.569153,268.913696 316.684906,279.023010 311.518555,288.875977 
z"/>
<path fill="#FF6040" opacity="1.000000" stroke="none" 
	d="
M205.549652,219.862854 
	C214.013962,229.062393 222.207214,238.441895 230.352509,247.862854 
	C240.020035,259.044464 249.623535,270.281464 259.297119,281.457825 
	C268.318085,291.880157 277.394501,302.254486 286.729645,312.828217 
	C279.276489,315.251770 271.540192,317.497070 263.331177,319.370667 
	C256.660522,311.259155 250.661026,303.349915 244.225510,295.812958 
	C228.405426,277.285278 212.384720,258.928925 196.444702,240.503662 
	C199.382248,233.689499 202.319794,226.875351 205.549652,219.862854 
z"/>
<path fill="#FF6741" opacity="1.000000" stroke="none" 
	d="
M196.260040,240.848663 
	C212.384720,258.928925 228.405426,277.285278 244.225510,295.812958 
	C250.661026,303.349915 256.660522,311.259155 262.934082,319.322083 
	C255.272003,319.089752 247.534317,318.534332 239.383484,317.498993 
	C237.484497,314.683899 236.236145,312.149292 234.471664,310.048065 
	C226.836594,300.955933 219.203018,291.853394 211.264328,283.028656 
	C206.230042,277.432495 200.659912,272.318390 195.330093,266.988098 
	C195.578522,258.389954 195.826965,249.791809 196.260040,240.848663 
z"/>
<path fill="#F64F51" opacity="1.000000" stroke="none" 
	d="
M319.190582,257.548157 
	C314.516510,253.541550 309.683350,249.326538 305.452057,244.575516 
	C295.202271,233.066803 285.157471,221.372360 275.188110,209.618713 
	C271.255005,204.981674 267.742004,199.988327 264.009979,194.825653 
	C296.939331,197.244904 318.725433,221.897430 319.190582,257.548157 
z"/>
<path fill="#FF6E45" opacity="1.000000" stroke="none" 
	d="
M195.296448,267.375671 
	C200.659912,272.318390 206.230042,277.432495 211.264328,283.028656 
	C219.203018,291.853394 226.836594,300.955933 234.471664,310.048065 
	C236.236145,312.149292 237.484497,314.683899 238.992401,317.364319 
	C215.094940,311.313507 201.687759,295.099396 196.025970,271.662048 
	C195.715302,270.376068 195.514664,269.063477 195.296448,267.375671 
z"/>
</svg>