<svg version="1.1" id="Layer_1" xmlns="http://www.w3.org/2000/svg" xmlns:xlink="http://www.w3.org/1999/xlink" x="0px" y="0px"
	 width="100%" viewBox="0 0 256 256" enable-background="new 0 0 256 256" xml:space="preserve">
<path fill="#777BB3" opacity="1.000000" stroke="none" 
	d="
M1.000000,232.000000 
	C1.000000,163.645767 1.000000,95.291542 1.327519,26.730381 
	C2.099868,25.882591 2.674139,25.296127 2.969771,24.592577 
	C6.435744,16.344177 11.661383,9.721342 19.791212,5.538902 
	C22.043154,4.380377 23.940151,2.531915 26.000000,1.000000 
	C94.354225,1.000000 162.708450,1.000000 231.269348,1.327399 
	C232.116776,2.099735 232.703140,2.674218 233.406677,2.969826 
	C241.655167,6.435726 248.278427,11.661012 252.461060,19.790934 
	C253.619659,22.042940 255.468079,23.940058 257.000000,26.000000 
	C257.000000,94.354225 257.000000,162.708450 256.672485,231.269592 
	C255.900177,232.117340 255.325912,232.703812 255.030273,233.407333 
	C251.564301,241.655609 246.339005,248.278687 238.209183,252.461121 
	C235.957153,253.619720 234.059998,255.468124 232.000000,257.000000 
	C163.645767,257.000000 95.291542,257.000000 26.730415,256.672485 
	C25.882668,255.900162 25.296228,255.325836 24.592676,255.030243 
	C16.344173,251.564651 9.721550,246.338974 5.538991,238.209396 
	C4.380322,235.957291 2.531940,234.060059 1.000000,232.000000 
M83.281609,155.921005 
	C88.439911,152.758224 93.598206,149.595444 99.033524,146.262802 
	C98.754128,148.439896 98.500114,150.974197 98.089882,153.482956 
	C97.504921,157.060379 98.811447,158.921768 102.569031,158.878510 
	C106.400726,158.834396 110.233322,158.873795 114.065491,158.863647 
	C117.439690,158.854721 119.128769,157.172913 119.718765,153.813477 
	C121.359924,144.468704 123.148323,135.148422 124.993141,125.841187 
	C126.819130,116.628922 125.105156,118.220146 134.175903,118.123032 
	C141.454254,118.045097 142.213272,119.081398 140.807098,126.405746 
	C139.175034,134.906647 137.640152,143.432373 135.719803,151.869186 
	C134.711823,156.297729 136.081299,158.132355 140.513412,158.260666 
	C145.139328,158.394608 149.758041,158.776550 154.752182,159.072098 
	C154.071487,163.105209 153.425781,166.845093 152.811722,170.590164 
	C151.973251,175.703842 152.833405,176.719193 158.174454,176.811401 
	C161.339310,176.866058 164.516068,176.662033 167.669067,176.863129 
	C171.662399,177.117813 173.846802,175.745697 174.424408,171.499405 
	C175.003174,167.244614 174.909561,161.416336 177.536835,159.323502 
	C180.375595,157.062195 186.020065,158.224808 190.446854,158.072357 
	C209.316528,157.422653 222.439545,145.796661 225.203506,127.196510 
	C227.345352,112.782837 220.371796,102.787231 205.950577,101.107361 
	C196.731003,100.033401 187.343658,100.287727 178.028732,100.173386 
	C166.870651,100.036415 166.872253,100.141823 164.023376,110.803207 
	C163.969070,111.006493 163.591934,111.123520 163.232727,111.372925 
	C155.623138,98.014969 142.338837,101.706490 130.187332,100.716248 
	C131.128098,96.055725 132.034195,91.685089 132.886887,87.304062 
	C133.526840,84.015991 132.407211,82.145821 128.773361,82.224281 
	C125.442619,82.296196 122.076736,82.524612 118.784027,82.161285 
	C113.713234,81.601768 111.711990,83.780029 110.930115,88.648445 
	C109.546730,97.262207 107.576729,105.781754 105.555046,115.815742 
	C101.137505,104.396408 92.660576,100.995026 82.900558,100.495712 
	C72.263161,99.951515 61.583530,100.224312 50.922195,100.161659 
	C47.938751,100.144127 46.455811,101.694954 45.932472,104.632393 
	C44.560337,112.334076 43.031933,120.008125 41.542374,127.688644 
	C38.816551,141.743561 36.031948,155.787247 33.358337,169.852051 
	C32.251942,175.672348 33.187462,176.744278 38.952614,176.816315 
	C41.951305,176.853790 44.967415,176.623428 47.946072,176.870605 
	C52.253433,177.228012 54.497784,175.606247 54.902653,171.169586 
	C55.173546,168.201065 56.129711,165.300125 56.496967,162.334000 
	C56.899342,159.084167 58.422951,158.111511 61.736813,157.982193 
	C68.675194,157.711472 75.587715,156.777863 83.281609,155.921005 
z"/>
<path fill="#000000" opacity="1.000000" stroke="none" 
	d="
M25.531321,1.000000 
	C23.940151,2.531915 22.043154,4.380377 19.791212,5.538902 
	C11.661383,9.721342 6.435744,16.344177 2.969771,24.592577 
	C2.674139,25.296127 2.099868,25.882591 1.327519,26.261724 
	C1.000000,17.740295 1.000000,9.480593 1.000000,1.000000 
	C9.019533,1.000000 17.041086,1.000000 25.531321,1.000000 
z"/>
<path fill="#000000" opacity="1.000000" stroke="none" 
	d="
M257.000000,25.531321 
	C255.468079,23.940058 253.619659,22.042940 252.461060,19.790934 
	C248.278427,11.661012 241.655167,6.435726 233.406677,2.969826 
	C232.703140,2.674218 232.116776,2.099735 231.738007,1.327399 
	C240.259705,1.000000 248.519409,1.000000 257.000000,1.000000 
	C257.000000,9.019533 257.000000,17.041086 257.000000,25.531321 
z"/>
<path fill="#000000" opacity="1.000000" stroke="none" 
	d="
M1.000000,232.468674 
	C2.531940,234.060059 4.380322,235.957291 5.538991,238.209396 
	C9.721550,246.338974 16.344173,251.564651 24.592676,255.030243 
	C25.296228,255.325836 25.882668,255.900162 26.261757,256.672485 
	C17.740294,257.000000 9.480589,257.000000 1.000000,257.000000 
	C1.000000,248.980469 1.000000,240.958908 1.000000,232.468674 
z"/>
<path fill="#000000" opacity="1.000000" stroke="none" 
	d="
M232.468689,257.000000 
	C234.059998,255.468124 235.957153,253.619720 238.209183,252.461121 
	C246.339005,248.278687 251.564301,241.655609 255.030273,233.407333 
	C255.325912,232.703812 255.900177,232.117340 256.672485,231.738251 
	C257.000000,240.259705 257.000000,248.519409 257.000000,257.000000 
	C248.980469,257.000000 240.958908,257.000000 232.468689,257.000000 
z"/>
<path fill="#E5E6E9" opacity="1.000000" stroke="none" 
	d="
M82.896233,156.018738 
	C75.587715,156.777863 68.675194,157.711472 61.736813,157.982193 
	C58.422951,158.111511 56.899342,159.084167 56.496967,162.334000 
	C56.129711,165.300125 55.173546,168.201065 54.902653,171.169586 
	C54.497784,175.606247 52.253433,177.228012 47.946072,176.870605 
	C44.967415,176.623428 41.951305,176.853790 38.952614,176.816315 
	C33.187462,176.744278 32.251942,175.672348 33.358337,169.852051 
	C36.031948,155.787247 38.816551,141.743561 41.542374,127.688644 
	C43.031933,120.008125 44.560337,112.334076 45.932472,104.632393 
	C46.455811,101.694954 47.938751,100.144127 50.922195,100.161659 
	C61.583530,100.224312 72.263161,99.951515 82.900558,100.495712 
	C92.660576,100.995026 101.137505,104.396408 105.555046,115.815742 
	C107.576729,105.781754 109.546730,97.262207 110.930115,88.648445 
	C111.711990,83.780029 113.713234,81.601768 118.784027,82.161285 
	C122.076736,82.524612 125.442619,82.296196 128.773361,82.224281 
	C132.407211,82.145821 133.526840,84.015991 132.886887,87.304062 
	C132.034195,91.685089 131.128098,96.055725 130.187332,100.716248 
	C142.338837,101.706490 155.623138,98.014969 163.232727,111.372925 
	C163.591934,111.123520 163.969070,111.006493 164.023376,110.803207 
	C166.872253,100.141823 166.870651,100.036415 178.028732,100.173386 
	C187.343658,100.287727 196.731003,100.033401 205.950577,101.107361 
	C220.371796,102.787231 227.345352,112.782837 225.203506,127.196510 
	C222.439545,145.796661 209.316528,157.422653 190.446854,158.072357 
	C186.020065,158.224808 180.375595,157.062195 177.536835,159.323502 
	C174.909561,161.416336 175.003174,167.244614 174.424408,171.499405 
	C173.846802,175.745697 171.662399,177.117813 167.669067,176.863129 
	C164.516068,176.662033 161.339310,176.866058 158.174454,176.811401 
	C152.833405,176.719193 151.973251,175.703842 152.811722,170.590164 
	C153.425781,166.845093 154.071487,163.105209 154.752182,159.072098 
	C149.758041,158.776550 145.139328,158.394608 140.513412,158.260666 
	C136.081299,158.132355 134.711823,156.297729 135.719803,151.869186 
	C137.640152,143.432373 139.175034,134.906647 140.807098,126.405746 
	C142.213272,119.081398 141.454254,118.045097 134.175903,118.123032 
	C125.105156,118.220146 126.819130,116.628922 124.993141,125.841187 
	C123.148323,135.148422 121.359924,144.468704 119.718765,153.813477 
	C119.128769,157.172913 117.439690,158.854721 114.065491,158.863647 
	C110.233322,158.873795 106.400726,158.834396 102.569031,158.878510 
	C98.811447,158.921768 97.504921,157.060379 98.089882,153.482956 
	C98.500114,150.974197 98.754128,148.439896 99.033524,146.262802 
	C93.598206,149.595444 88.439911,152.758224 82.896233,156.018738 
M166.179810,117.806305 
	C162.713211,136.157654 159.246628,154.509018 155.688980,173.342331 
	C160.303192,173.342331 164.125671,173.555267 167.897614,173.212296 
	C169.026688,173.109650 170.654785,171.622986 170.956345,170.480591 
	C172.264832,165.523407 173.167435,160.459106 174.391571,154.601166 
	C180.755081,154.601166 187.082809,155.054993 193.324234,154.513763 
	C210.214737,153.049118 221.852509,140.183945 222.133560,123.216080 
	C222.304657,112.885094 217.513397,105.632790 207.283279,104.715858 
	C194.642029,103.582817 181.821930,104.444839 168.886063,104.444839 
	C168.066635,108.509079 167.213409,112.740944 166.179810,117.806305 
M78.422028,103.684395 
	C69.928680,103.684509 61.432590,103.577675 52.944809,103.795166 
	C51.606789,103.829453 49.340103,105.137474 49.130852,106.182541 
	C44.691624,128.353256 40.485775,150.570709 36.125835,173.346054 
	C40.300137,173.346054 44.130447,173.638840 47.873592,173.195557 
	C49.283154,173.028625 51.207405,171.387299 51.649647,170.015884 
	C52.764359,166.559082 53.394924,162.898193 53.792637,159.272293 
	C54.152744,155.989166 55.443443,154.786499 58.858646,154.901031 
	C64.169617,155.079163 69.548561,155.069962 74.812668,154.431213 
	C86.614349,152.999161 95.504723,146.967911 99.940620,135.780777 
	C106.621468,118.931938 102.505936,103.488945 78.422028,103.684395 
M107.578102,123.121086 
	C105.458672,133.689575 103.339249,144.258057 101.171181,155.069061 
	C106.320541,155.069061 111.070763,155.069061 115.955383,155.069061 
	C118.572243,141.633255 121.141693,128.440842 123.763924,114.977448 
	C127.117165,114.977448 130.090927,114.977097 133.064682,114.977501 
	C144.961472,114.979103 146.060562,116.294044 143.796997,128.090607 
	C142.107895,136.893295 140.339432,145.680756 138.513443,154.946274 
	C143.929321,154.946274 148.843872,154.946274 153.983688,154.946274 
	C155.966507,144.499435 157.993530,134.230865 159.850723,123.931679 
	C162.224564,110.767387 157.489288,104.854591 143.981247,104.255196 
	C138.193665,103.998390 132.385193,104.212234 126.193611,104.212234 
	C127.432922,97.726830 128.543015,91.917610 129.785858,85.413689 
	C125.661346,85.413689 122.036285,85.574104 118.433174,85.361877 
	C115.654190,85.198189 114.684410,86.386101 114.208939,88.963524 
	C112.156357,100.090065 109.929733,111.184486 107.578102,123.121086 
z"/>
<path fill="#060606" opacity="1.000000" stroke="none" 
	d="
M166.270004,117.389557 
	C167.213409,112.740944 168.066635,108.509079 168.886063,104.444839 
	C181.821930,104.444839 194.642029,103.582817 207.283279,104.715858 
	C217.513397,105.632790 222.304657,112.885094 222.133560,123.216080 
	C221.852509,140.183945 210.214737,153.049118 193.324234,154.513763 
	C187.082809,155.054993 180.755081,154.601166 174.391571,154.601166 
	C173.167435,160.459106 172.264832,165.523407 170.956345,170.480591 
	C170.654785,171.622986 169.026688,173.109650 167.897614,173.212296 
	C164.125671,173.555267 160.303192,173.342331 155.688980,173.342331 
	C159.246628,154.509018 162.713211,136.157654 166.270004,117.389557 
M182.041077,115.520515 
	C180.100540,124.871231 178.159988,134.221939 176.124863,144.028442 
	C180.460052,144.028442 184.256424,144.172745 188.038544,144.001740 
	C200.036636,143.459229 206.700912,135.916489 206.322098,123.864662 
	C206.166580,118.916771 203.914490,115.750282 199.195190,115.240189 
	C193.654709,114.641350 188.023697,114.880035 182.041077,115.520515 
z"/>
<path fill="#060606" opacity="1.000000" stroke="none" 
	d="
M78.907417,103.684464 
	C102.505936,103.488945 106.621468,118.931938 99.940620,135.780777 
	C95.504723,146.967911 86.614349,152.999161 74.812668,154.431213 
	C69.548561,155.069962 64.169617,155.079163 58.858646,154.901031 
	C55.443443,154.786499 54.152744,155.989166 53.792637,159.272293 
	C53.394924,162.898193 52.764359,166.559082 51.649647,170.015884 
	C51.207405,171.387299 49.283154,173.028625 47.873592,173.195557 
	C44.130447,173.638840 40.300137,173.346054 36.125835,173.346054 
	C40.485775,150.570709 44.691624,128.353256 49.130852,106.182541 
	C49.340103,105.137474 51.606789,103.829453 52.944809,103.795166 
	C61.432590,103.577675 69.928680,103.684509 78.907417,103.684464 
M77.327080,142.045059 
	C84.459511,138.465378 86.683052,132.079742 86.881363,124.754181 
	C87.045876,118.676758 84.647972,115.771538 78.638069,115.004761 
	C73.576286,114.358948 68.433601,114.347229 62.838619,114.026871 
	C60.745377,124.154671 58.733368,133.889450 56.455807,144.909058 
	C63.945103,143.955658 70.277161,143.149582 77.327080,142.045059 
z"/>
<path fill="#070707" opacity="1.000000" stroke="none" 
	d="
M107.672272,122.705841 
	C109.929733,111.184486 112.156357,100.090065 114.208939,88.963524 
	C114.684410,86.386101 115.654190,85.198189 118.433174,85.361877 
	C122.036285,85.574104 125.661346,85.413689 129.785858,85.413689 
	C128.543015,91.917610 127.432922,97.726830 126.193611,104.212234 
	C132.385193,104.212234 138.193665,103.998390 143.981247,104.255196 
	C157.489288,104.854591 162.224564,110.767387 159.850723,123.931679 
	C157.993530,134.230865 155.966507,144.499435 153.983688,154.946274 
	C148.843872,154.946274 143.929321,154.946274 138.513443,154.946274 
	C140.339432,145.680756 142.107895,136.893295 143.796997,128.090607 
	C146.060562,116.294044 144.961472,114.979103 133.064682,114.977501 
	C130.090927,114.977097 127.117165,114.977448 123.763924,114.977448 
	C121.141693,128.440842 118.572243,141.633255 115.955383,155.069061 
	C111.070763,155.069061 106.320541,155.069061 101.171181,155.069061 
	C103.339249,144.258057 105.458672,133.689575 107.672272,122.705841 
z"/>
<path fill="#E5E5E9" opacity="1.000000" stroke="none" 
	d="
M182.236511,115.138000 
	C188.023697,114.880035 193.654709,114.641350 199.195190,115.240189 
	C203.914490,115.750282 206.166580,118.916771 206.322098,123.864662 
	C206.700912,135.916489 200.036636,143.459229 188.038544,144.001740 
	C184.256424,144.172745 180.460052,144.028442 176.124863,144.028442 
	C178.159988,134.221939 180.100540,124.871231 182.236511,115.138000 
M197.813705,118.138222 
	C194.488602,118.042404 191.142990,117.701218 187.848907,117.976562 
	C186.603790,118.080635 184.699219,119.415604 184.425232,120.519562 
	C182.795776,127.084877 181.556030,133.746902 180.078018,140.895691 
	C182.772797,140.895691 184.909958,140.985611 187.037476,140.880463 
	C197.507553,140.363052 202.925446,134.903687 203.109268,125.068413 
	C203.173691,121.622070 202.211472,119.213470 197.813705,118.138222 
z"/>
<path fill="#E4E4E8" opacity="1.000000" stroke="none" 
	d="
M76.968147,142.194275 
	C70.277161,143.149582 63.945103,143.955658 56.455807,144.909058 
	C58.733368,133.889450 60.745377,124.154671 62.838619,114.026871 
	C68.433601,114.347229 73.576286,114.358948 78.638069,115.004761 
	C84.647972,115.771538 87.045876,118.676758 86.881363,124.754181 
	C86.683052,132.079742 84.459511,138.465378 76.968147,142.194275 
M83.331429,122.836502 
	C81.810127,118.679749 68.937546,115.484932 65.658211,118.461533 
	C65.430115,118.668564 65.228447,118.984039 65.164772,119.281273 
	C63.660328,126.304352 62.176548,133.331848 60.679638,140.402695 
	C76.148651,142.448563 83.175156,137.039597 83.331429,122.836502 
z"/>
<path fill="#7A7EB5" opacity="1.000000" stroke="none" 
	d="
M198.238281,118.231064 
	C202.211472,119.213470 203.173691,121.622070 203.109268,125.068413 
	C202.925446,134.903687 197.507553,140.363052 187.037476,140.880463 
	C184.909958,140.985611 182.772797,140.895691 180.078018,140.895691 
	C181.556030,133.746902 182.795776,127.084877 184.425232,120.519562 
	C184.699219,119.415604 186.603790,118.080635 187.848907,117.976562 
	C191.142990,117.701218 194.488602,118.042404 198.238281,118.231064 
z"/>
<path fill="#7A7EB5" opacity="1.000000" stroke="none" 
	d="
M83.343109,123.282883 
	C83.175156,137.039597 76.148651,142.448563 60.679638,140.402695 
	C62.176548,133.331848 63.660328,126.304352 65.164772,119.281273 
	C65.228447,118.984039 65.430115,118.668564 65.658211,118.461533 
	C68.937546,115.484932 81.810127,118.679749 83.343109,123.282883 
z"/>
</svg>