<svg version="1.1" id="Layer_1" xmlns="http://www.w3.org/2000/svg" xmlns:xlink="http://www.w3.org/1999/xlink" x="0px" y="0px"
	 width="100%" viewBox="0 0 270 252" enable-background="new 0 0 270 252" xml:space="preserve">
<path fill="#FEFEFD" opacity="1.000000" stroke="none" 
	d="
M1.000000,88.000000 
	C1.000000,58.666672 1.000000,29.833347 1.000000,1.000015 
	C90.999969,1.000010 180.999939,1.000010 270.999939,1.000005 
	C270.999939,84.999947 270.999939,168.999893 270.999969,252.999878 
	C181.000076,252.999924 91.000137,252.999924 1.000105,252.999969 
	C1.000000,198.166672 1.000000,143.333328 1.000000,88.000000 
M167.048080,36.982597 
	C169.175385,36.982597 171.302689,36.982597 173.452820,36.982597 
	C175.381683,29.633009 177.206390,22.680378 179.031082,15.727746 
	C179.392624,15.782709 179.754150,15.837672 180.115692,15.892634 
	C180.115692,22.917408 180.115692,29.942183 180.115692,36.804707 
	C182.887253,36.804707 185.173965,36.804707 187.682800,36.804707 
	C187.682800,26.187775 187.682800,15.792086 187.682800,5.185256 
	C183.343338,5.185256 179.242783,5.185256 174.814880,5.185256 
	C173.277405,11.044770 171.738525,16.909643 169.839676,24.146374 
	C167.897385,16.853703 166.345963,11.028589 164.775482,5.131896 
	C160.424225,5.131896 156.297958,5.131896 151.943954,5.131896 
	C151.943954,15.726875 151.943954,26.169291 151.943954,37.895580 
	C154.935638,36.837090 157.518951,35.923092 160.846893,35.014599 
	C162.629730,35.648212 164.412567,36.281826 167.048080,36.982597 
M220.128036,221.579636 
	C224.912827,166.584015 229.697601,111.588394 234.508926,56.287598 
	C177.546631,56.287598 121.348793,56.287598 64.842735,56.287598 
	C64.842735,57.885162 64.749763,59.183296 64.856758,60.464733 
	C66.324814,78.046967 67.788429,95.629684 69.315979,113.206818 
	C72.501160,149.858047 75.805611,186.499329 78.813690,223.164978 
	C79.141335,227.158661 80.347374,228.928085 84.211609,229.994522 
	C104.578438,235.615372 124.848183,241.587906 145.212845,247.216873 
	C147.776932,247.925598 150.871414,247.945969 153.432373,247.240494 
	C173.640594,241.673828 193.736771,235.697296 213.971268,230.231430 
	C218.472900,229.015411 220.608643,227.088928 220.128036,221.579636 
M81.867561,16.514696 
	C81.867561,23.269165 81.867561,30.023634 81.867561,36.699219 
	C85.548317,36.699219 88.612640,36.699219 92.109818,36.699219 
	C92.109818,32.320198 92.109818,28.255827 92.109818,24.216366 
	C95.827126,24.216366 99.090752,24.216366 102.828102,24.216366 
	C102.828102,28.493954 102.828102,32.570839 102.828102,36.714470 
	C106.366173,36.714470 109.416191,36.714470 112.480682,36.714470 
	C112.480682,26.021729 112.480682,15.633471 112.480682,5.322122 
	C109.111465,5.322122 106.043327,5.322122 102.687927,5.322122 
	C102.687927,8.941733 102.687927,12.221333 102.687927,15.717549 
	C99.004997,15.717549 95.621445,15.717549 91.775787,15.717549 
	C91.775787,12.052637 91.775787,8.646152 91.775787,5.289589 
	C88.239746,5.289589 85.173187,5.289589 81.866646,5.289589 
	C81.866646,8.903863 81.866646,12.211780 81.867561,16.514696 
M127.154762,27.453117 
	C127.154762,30.560038 127.154762,33.666958 127.154762,36.687408 
	C130.864502,36.687408 133.933929,36.687408 137.275970,36.687408 
	C137.275970,28.570860 137.275970,20.782148 137.275970,12.763546 
	C140.765594,12.594610 143.988983,12.438563 147.002518,12.292676 
	C147.002518,9.558856 147.002518,7.335065 147.002518,5.240802 
	C136.844772,5.240802 127.074707,5.240802 117.279892,5.240802 
	C117.279892,7.746704 117.279892,9.975854 117.279892,12.634928 
	C120.638565,12.634928 123.719490,12.634928 127.154762,12.634928 
	C127.154762,17.533667 127.154762,22.001581 127.154762,27.453117 
M204.533875,37.022388 
	C209.617874,37.022388 214.701859,37.022388 219.559143,37.022388 
	C219.559143,33.928146 219.559143,31.535925 219.559143,28.742039 
	C214.294022,28.742039 209.391571,28.742039 204.046173,28.742039 
	C204.046173,20.617077 204.046173,12.904865 204.046173,5.181341 
	C200.649017,5.181341 197.717545,5.181341 194.531952,5.181341 
	C194.531952,15.762779 194.531952,26.142796 194.531952,37.022404 
	C197.670944,37.022404 200.611725,37.022404 204.533875,37.022388 
z"/>
<path fill="#E04E2B" opacity="1.000000" stroke="none" 
	d="
M220.104797,222.025909 
	C220.608643,227.088928 218.472900,229.015411 213.971268,230.231430 
	C193.736771,235.697296 173.640594,241.673828 153.432373,247.240494 
	C150.871414,247.945969 147.776932,247.925598 145.212845,247.216873 
	C124.848183,241.587906 104.578438,235.615372 84.211609,229.994522 
	C80.347374,228.928085 79.141335,227.158661 78.813690,223.164978 
	C75.805611,186.499329 72.501160,149.858047 69.315979,113.206818 
	C67.788429,95.629684 66.324814,78.046967 64.856758,60.464733 
	C64.749763,59.183296 64.842735,57.885162 64.842735,56.287598 
	C121.348793,56.287598 177.546631,56.287598 234.508926,56.287598 
	C229.697601,111.588394 224.912827,166.584015 220.104797,222.025909 
M149.011124,158.091370 
	C149.348602,168.650574 149.686081,179.209763 149.220459,189.998016 
	C141.788895,188.273315 134.307541,186.725006 126.973312,184.655380 
	C125.706985,184.298050 124.512398,181.818649 124.242737,180.163391 
	C123.558891,175.965775 123.419075,171.679535 123.050285,167.296570 
	C116.199051,167.296570 109.958817,167.296570 103.105743,167.296570 
	C104.068604,177.829071 104.937897,188.034027 106.037651,198.214081 
	C106.139595,199.157730 107.575150,200.462631 108.611481,200.722549 
	C120.036751,203.587891 131.505630,206.279358 143.352982,209.369583 
	C143.858261,209.436996 144.363541,209.504410 145.518936,209.926590 
	C146.006744,209.965561 146.494553,210.004532 147.410004,210.442566 
	C147.945114,210.682724 148.480209,210.922882 149.013519,212.079803 
	C149.013519,218.864822 149.013519,225.649841 149.013519,233.724747 
	C169.541046,227.839630 189.150620,222.217667 209.089447,216.501328 
	C209.409302,211.032455 209.607910,205.915756 210.030441,200.817612 
	C210.658951,193.234131 211.457520,185.664856 212.162643,178.087570 
	C213.449509,164.258820 214.750336,150.431290 215.988495,136.598145 
	C216.829300,127.204315 217.601242,117.804054 218.353104,108.402596 
	C219.263229,97.022606 220.124069,85.638641 220.996292,74.255638 
	C221.218857,71.350800 219.963074,69.983734 216.934158,69.990555 
	C195.611832,70.038544 174.289322,70.037239 152.966980,69.992111 
	C149.856049,69.985527 148.921463,71.549561 148.989594,74.369957 
	C149.082077,78.199081 149.193573,82.043274 148.960251,85.860428 
	C148.719971,89.791283 150.279419,91.126595 154.182922,91.080475 
	C168.007233,90.917145 181.834808,90.993477 195.660843,91.049294 
	C197.443954,91.056496 199.225388,91.476349 200.077026,91.854477 
	C184.059937,91.954292 168.042847,92.054115 151.352692,92.005249 
	C150.900650,92.064880 150.448593,92.124512 149.073471,92.015717 
	C133.283630,92.012604 117.493675,91.982620 101.704132,92.049805 
	C100.200462,92.056206 98.699364,92.670189 96.995338,93.655884 
	C97.061180,94.103287 97.127022,94.550690 97.061958,95.883179 
	C98.033043,105.926064 99.004128,115.968941 99.832901,126.762680 
	C99.951721,127.509178 100.070534,128.255676 100.095215,129.890579 
	C100.769615,136.918106 101.444016,143.945633 101.979324,151.669693 
	C102.055573,152.132370 102.131813,152.595032 102.030968,153.877472 
	C102.898308,154.901642 103.649384,156.643341 104.656242,156.806488 
	C107.039047,157.192581 109.543358,156.828766 112.920731,156.945496 
	C123.966286,156.887039 135.011841,156.828568 146.784927,156.936066 
	C147.525787,157.016083 148.266663,157.096115 149.011124,158.091370 
z"/>
<path fill="#0A090B" opacity="1.000000" stroke="none" 
	d="
M160.102249,35.009094 
	C157.518951,35.923092 154.935638,36.837090 151.943954,37.895580 
	C151.943954,26.169291 151.943954,15.726875 151.943954,5.131896 
	C156.297958,5.131896 160.424225,5.131896 164.775482,5.131896 
	C166.345963,11.028589 167.897385,16.853703 169.839676,24.146374 
	C171.738525,16.909643 173.277405,11.044770 174.814880,5.185256 
	C179.242783,5.185256 183.343338,5.185256 187.682800,5.185256 
	C187.682800,15.792086 187.682800,26.187775 187.682800,36.804707 
	C185.173965,36.804707 182.887253,36.804707 180.115692,36.804707 
	C180.115692,29.942183 180.115692,22.917408 180.115692,15.892634 
	C179.754150,15.837672 179.392624,15.782709 179.031082,15.727746 
	C177.206390,22.680378 175.381683,29.633009 173.452820,36.982597 
	C171.302689,36.982597 169.175385,36.982597 166.549805,36.561844 
	C164.246979,29.205027 162.442429,22.268961 160.637863,15.332893 
	C160.459320,15.366695 160.280792,15.400497 160.102249,15.434299 
	C160.102249,21.959230 160.102249,28.484163 160.102249,35.009094 
z"/>
<path fill="#09080A" opacity="1.000000" stroke="none" 
	d="
M81.867104,16.017197 
	C81.866646,12.211780 81.866646,8.903863 81.866646,5.289589 
	C85.173187,5.289589 88.239746,5.289589 91.775787,5.289589 
	C91.775787,8.646152 91.775787,12.052637 91.775787,15.717549 
	C95.621445,15.717549 99.004997,15.717549 102.687927,15.717549 
	C102.687927,12.221333 102.687927,8.941733 102.687927,5.322122 
	C106.043327,5.322122 109.111465,5.322122 112.480682,5.322122 
	C112.480682,15.633471 112.480682,26.021729 112.480682,36.714470 
	C109.416191,36.714470 106.366173,36.714470 102.828102,36.714470 
	C102.828102,32.570839 102.828102,28.493954 102.828102,24.216366 
	C99.090752,24.216366 95.827126,24.216366 92.109818,24.216366 
	C92.109818,28.255827 92.109818,32.320198 92.109818,36.699219 
	C88.612640,36.699219 85.548317,36.699219 81.867561,36.699219 
	C81.867561,30.023634 81.867561,23.269165 81.867104,16.017197 
z"/>
<path fill="#0A0A0A" opacity="1.000000" stroke="none" 
	d="
M127.154762,26.961306 
	C127.154762,22.001581 127.154762,17.533667 127.154762,12.634928 
	C123.719490,12.634928 120.638565,12.634928 117.279892,12.634928 
	C117.279892,9.975854 117.279892,7.746704 117.279892,5.240802 
	C127.074707,5.240802 136.844772,5.240802 147.002518,5.240802 
	C147.002518,7.335065 147.002518,9.558856 147.002518,12.292676 
	C143.988983,12.438563 140.765594,12.594610 137.275970,12.763546 
	C137.275970,20.782148 137.275970,28.570860 137.275970,36.687408 
	C133.933929,36.687408 130.864502,36.687408 127.154762,36.687408 
	C127.154762,33.666958 127.154762,30.560038 127.154762,26.961306 
z"/>
<path fill="#0A0A0B" opacity="1.000000" stroke="none" 
	d="
M204.043198,37.022396 
	C200.611725,37.022404 197.670944,37.022404 194.531952,37.022404 
	C194.531952,26.142796 194.531952,15.762779 194.531952,5.181341 
	C197.717545,5.181341 200.649017,5.181341 204.046173,5.181341 
	C204.046173,12.904865 204.046173,20.617077 204.046173,28.742039 
	C209.391571,28.742039 214.294022,28.742039 219.559143,28.742039 
	C219.559143,31.535925 219.559143,33.928146 219.559143,37.022388 
	C214.701859,37.022388 209.617874,37.022388 204.043198,37.022396 
z"/>
<path fill="#EDEDEC" opacity="1.000000" stroke="none" 
	d="
M160.474579,35.011848 
	C160.102249,28.484163 160.102249,21.959230 160.102249,15.434299 
	C160.280792,15.400497 160.459320,15.366695 160.637863,15.332893 
	C162.442429,22.268961 164.246979,29.205027 166.123474,36.528267 
	C164.412567,36.281826 162.629730,35.648212 160.474579,35.011848 
z"/>
<path fill="#ED662E" opacity="1.000000" stroke="none" 
	d="
M201.007599,91.705055 
	C199.225388,91.476349 197.443954,91.056496 195.660843,91.049294 
	C181.834808,90.993477 168.007233,90.917145 154.182922,91.080475 
	C150.279419,91.126595 148.719971,89.791283 148.960251,85.860428 
	C149.193573,82.043274 149.082077,78.199081 148.989594,74.369957 
	C148.921463,71.549561 149.856049,69.985527 152.966980,69.992111 
	C174.289322,70.037239 195.611832,70.038544 216.934158,69.990555 
	C219.963074,69.983734 221.218857,71.350800 220.996292,74.255638 
	C220.124069,85.638641 219.263229,97.022606 218.353104,108.402596 
	C217.601242,117.804054 216.829300,127.204315 215.988495,136.598145 
	C214.750336,150.431290 213.449509,164.258820 212.162643,178.087570 
	C211.457520,185.664856 210.658951,193.234131 210.030441,200.817612 
	C209.607910,205.915756 209.409302,211.032455 209.089447,216.501328 
	C189.150620,222.217667 169.541046,227.839630 149.013519,233.724747 
	C149.013519,225.649841 149.013519,218.864822 149.398743,211.546692 
	C152.181778,210.319839 154.579559,209.626129 157.344391,208.943665 
	C158.173996,208.806534 158.636581,208.658142 159.342911,208.593414 
	C160.016388,208.436249 160.446136,208.195419 160.911804,207.975388 
	C160.947708,207.996185 160.984161,207.921631 161.390167,207.950378 
	C171.694809,205.396729 181.593460,202.814346 191.639908,200.290955 
	C191.787704,200.349960 192.051727,200.172180 192.444839,200.172287 
	C193.495819,197.107101 194.153687,194.041794 194.896545,190.648590 
	C194.959442,189.872040 194.937363,189.423401 195.121185,188.642120 
	C195.459106,185.553787 195.591095,182.798080 195.823959,179.670593 
	C195.930191,178.530869 195.935532,177.762894 196.150681,176.652573 
	C196.833145,169.879608 197.305801,163.448990 197.874634,156.685516 
	C197.954330,155.893402 197.937897,155.434189 198.120361,154.634247 
	C198.489990,151.188828 198.660736,148.084122 198.935883,144.656738 
	C199.015030,143.884995 198.989761,143.435944 199.164948,142.669891 
	C199.365402,140.641785 199.365402,138.930649 199.365402,137.186859 
	C196.901840,137.186859 194.938782,137.186859 192.513184,137.118317 
	C178.016022,137.106354 163.981400,137.162933 149.985260,137.098480 
	C150.023758,136.977448 150.061523,136.726242 150.022980,136.323181 
	C150.000763,128.046326 150.017105,120.172508 150.490570,112.212112 
	C167.527786,112.125534 184.107864,112.125534 201.771637,112.125534 
	C201.771637,108.448776 201.771637,105.211365 201.872589,101.650085 
	C201.959747,100.876854 201.945969,100.427513 202.134796,99.655823 
	C201.894119,96.790665 201.450867,94.247856 201.007599,91.705055 
z"/>
<path fill="#FCEAE4" opacity="1.000000" stroke="none" 
	d="
M146.057404,156.770096 
	C135.011841,156.828568 123.966286,156.887039 112.414108,156.522141 
	C111.358459,155.139175 110.809441,154.179565 110.160385,153.045120 
	C107.339111,154.800842 104.669250,156.509415 102.208054,153.057709 
	C102.131813,152.595032 102.055573,152.132370 102.346909,151.151367 
	C103.395073,149.024841 104.710136,147.383881 104.629066,145.815063 
	C104.438301,142.123871 103.785713,138.417572 102.913826,134.815704 
	C102.420433,132.777466 101.124062,130.933594 100.189354,129.002182 
	C100.070534,128.255676 99.951721,127.509178 100.202896,126.098480 
	C101.340256,120.513870 102.758789,115.584274 102.689514,110.675682 
	C102.621956,105.888939 101.129959,101.100555 99.999809,96.375938 
	C99.845253,95.729813 98.166122,95.448372 97.192863,94.998093 
	C97.127022,94.550690 97.061180,94.103287 97.550247,93.328491 
	C115.092957,93.012260 132.080765,93.023415 149.050125,93.361923 
	C149.020309,94.126289 149.008926,94.563293 148.529236,95.000443 
	C141.543243,95.000587 135.025558,95.000587 128.507858,95.000587 
	C128.390930,95.661118 128.274002,96.321648 128.157059,96.982170 
	C130.283188,97.653931 132.381958,98.774292 134.541031,98.905960 
	C139.337982,99.198502 144.165161,98.995728 148.985016,99.421661 
	C149.313568,103.234901 149.637100,106.621346 149.496552,110.004990 
	C141.859055,109.464958 134.689804,108.817062 127.506355,108.547005 
	C126.713097,108.517181 125.838608,110.648148 124.569443,111.867676 
	C122.413422,112.040474 120.689751,112.122566 118.930855,112.206337 
	C118.807442,114.192200 118.717468,115.639877 118.470123,117.252594 
	C118.468178,117.929932 118.623611,118.442223 118.881088,119.287041 
	C118.956177,120.080032 118.929207,120.540489 118.556015,121.069901 
	C118.731857,124.404266 119.253914,127.669685 119.883858,131.276825 
	C119.962837,132.091385 119.933929,132.564209 119.690674,133.195557 
	C119.677917,133.912048 119.879517,134.470032 120.192970,135.258942 
	C120.255371,135.821014 120.205910,136.152191 120.163788,136.912170 
	C123.477539,139.874619 126.756081,140.092316 130.459015,137.137756 
	C137.300888,136.943939 143.681198,136.835083 150.061523,136.726242 
	C150.061523,136.726242 150.023758,136.977448 150.004181,137.540985 
	C149.653793,142.403687 149.322998,146.702850 148.643738,151.008179 
	C147.712234,151.375046 147.129196,151.735764 146.546173,152.096481 
	C147.680511,152.396637 148.814865,152.696777 149.959991,153.371017 
	C149.989807,154.493027 150.008850,155.240967 149.674881,155.992035 
	C148.233704,156.253479 147.145554,156.511795 146.057404,156.770096 
z"/>
<path fill="#FCE9E3" opacity="1.000000" stroke="none" 
	d="
M142.962692,209.017944 
	C131.505630,206.279358 120.036751,203.587891 108.611481,200.722549 
	C107.575150,200.462631 106.139595,199.157730 106.037651,198.214081 
	C104.937897,188.034027 104.068604,177.829071 103.105743,167.296570 
	C109.958817,167.296570 116.199051,167.296570 123.050285,167.296570 
	C123.419075,171.679535 123.558891,175.965775 124.242737,180.163391 
	C124.512398,181.818649 125.706985,184.298050 126.973312,184.655380 
	C134.307541,186.725006 141.788895,188.273315 149.863068,189.998749 
	C150.663589,190.082535 150.821518,190.165573 150.785477,190.565186 
	C150.062424,192.515701 149.155319,194.131882 149.077515,195.787064 
	C148.871170,200.175842 149.023178,204.581451 148.725967,209.007797 
	C147.940323,209.371323 147.461349,209.707413 146.982361,210.043518 
	C146.494553,210.004532 146.006744,209.965561 144.995392,209.588943 
	C143.968781,209.173508 143.465744,209.095734 142.962692,209.017944 
z"/>
<path fill="#FDFDFB" opacity="1.000000" stroke="none" 
	d="
M148.997559,95.000305 
	C149.008926,94.563293 149.020309,94.126289 149.245697,93.269424 
	C149.716949,92.690948 149.895889,92.469139 149.996552,92.184143 
	C150.448593,92.124512 150.900650,92.064880 152.001770,92.347725 
	C164.692123,92.796524 176.750916,92.559776 188.766296,93.173149 
	C193.774719,93.428818 200.771179,91.566658 201.932190,99.978165 
	C201.945969,100.427513 201.959747,100.876854 201.515991,101.752686 
	C200.456238,103.971115 199.854019,105.763062 198.886459,108.642151 
	C192.991989,109.080513 186.685974,109.818016 180.366699,109.958115 
	C170.235962,110.182724 160.096436,110.011642 149.960632,110.007797 
	C149.637100,106.621346 149.313568,103.234901 149.248047,99.213379 
	C149.336563,97.385643 149.167053,96.192978 148.997559,95.000305 
z"/>
<path fill="#EB6831" opacity="1.000000" stroke="none" 
	d="
M150.979446,190.248611 
	C150.821518,190.165573 150.663589,190.082535 150.264618,189.884232 
	C149.686081,179.209763 149.348602,168.650574 149.339783,157.558594 
	C150.111679,156.947510 150.554901,156.869202 151.372055,156.857529 
	C152.501419,156.878662 153.256836,156.833160 154.336182,156.881592 
	C155.101227,156.914841 155.542328,156.854126 156.446655,156.863159 
	C161.940353,156.882446 166.970871,156.832001 172.250061,156.854950 
	C172.664536,156.879288 172.830307,156.830246 173.368988,156.848724 
	C174.495956,156.873566 175.250015,156.830902 176.247147,156.875809 
	C176.659912,156.933853 176.829590,156.904312 177.052948,156.950455 
	C177.106628,157.026138 177.287277,156.983749 177.332123,157.167206 
	C177.503571,157.596710 177.704910,157.729721 177.963959,158.061371 
	C177.975998,158.579041 178.005081,158.785065 177.811432,159.312164 
	C177.478806,162.078339 177.368927,164.523438 177.171539,167.366730 
	C177.071869,168.847961 177.059692,169.930984 176.861938,171.335083 
	C176.597153,173.421906 176.517960,175.187683 176.311584,177.345779 
	C176.198608,178.834274 176.212830,179.930450 176.053818,181.296631 
	C175.628021,182.379196 175.375458,183.191772 174.761261,184.059784 
	C170.586929,185.185959 166.774246,186.256699 162.680542,187.250961 
	C161.910965,187.429520 161.422379,187.684570 160.964813,187.969376 
	C160.995819,187.999146 160.951782,187.925415 160.560455,187.902191 
	C157.769577,188.555771 155.370026,189.232574 152.629639,189.900116 
	C151.852356,190.010117 151.415894,190.129364 150.979446,190.248611 
z"/>
<path fill="#FCECE0" opacity="1.000000" stroke="none" 
	d="
M97.127411,95.440636 
	C98.166122,95.448372 99.845253,95.729813 99.999809,96.375938 
	C101.129959,101.100555 102.621956,105.888939 102.689514,110.675682 
	C102.758789,115.584274 101.340256,120.513870 100.274055,125.723053 
	C99.004128,115.968941 98.033043,105.926064 97.127411,95.440636 
z"/>
<path fill="#FCECE0" opacity="1.000000" stroke="none" 
	d="
M202.134796,99.655823 
	C200.771179,91.566658 193.774719,93.428818 188.766296,93.173149 
	C176.750916,92.559776 164.692123,92.796524 152.338303,92.422066 
	C168.042847,92.054115 184.059937,91.954292 200.542328,91.779770 
	C201.450867,94.247856 201.894119,96.790665 202.134796,99.655823 
z"/>
<path fill="#FCECE0" opacity="1.000000" stroke="none" 
	d="
M100.142288,129.446381 
	C101.124062,130.933594 102.420433,132.777466 102.913826,134.815704 
	C103.785713,138.417572 104.438301,142.123871 104.629066,145.815063 
	C104.710136,147.383881 103.395073,149.024841 102.416458,150.803101 
	C101.444016,143.945633 100.769615,136.918106 100.142288,129.446381 
z"/>
<path fill="#FCECE0" opacity="1.000000" stroke="none" 
	d="
M149.535004,92.099930 
	C149.895889,92.469139 149.716949,92.690948 149.264160,92.942078 
	C132.080765,93.023415 115.092957,93.012260 97.651108,93.001602 
	C98.699364,92.670189 100.200462,92.056206 101.704132,92.049805 
	C117.493675,91.982620 133.283630,92.012604 149.535004,92.099930 
z"/>
<path fill="#FCECE0" opacity="1.000000" stroke="none" 
	d="
M102.119507,153.467590 
	C104.669250,156.509415 107.339111,154.800842 110.160385,153.045120 
	C110.809441,154.179565 111.358459,155.139175 111.953018,156.433472 
	C109.543358,156.828766 107.039047,157.192581 104.656242,156.806488 
	C103.649384,156.643341 102.898308,154.901642 102.119507,153.467590 
z"/>
<path fill="#FCECE0" opacity="1.000000" stroke="none" 
	d="
M147.196182,210.243042 
	C147.461349,209.707413 147.940323,209.371323 149.124695,209.011719 
	C152.212509,208.969620 154.594925,208.951004 156.977356,208.932404 
	C154.579559,209.626129 152.181778,210.319839 149.399658,211.088303 
	C148.480209,210.922882 147.945114,210.682724 147.196182,210.243042 
z"/>
<path fill="#FCECE0" opacity="1.000000" stroke="none" 
	d="
M150.998123,156.790878 
	C150.554901,156.869202 150.111679,156.947510 149.337982,157.100983 
	C148.266663,157.096115 147.525787,157.016083 146.421173,156.853088 
	C147.145554,156.511795 148.233704,156.253479 149.875214,156.074432 
	C150.692322,156.300034 150.882156,156.512436 150.998123,156.790878 
z"/>
<path fill="#FCECE0" opacity="1.000000" stroke="none" 
	d="
M143.157837,209.193756 
	C143.465744,209.095734 143.968781,209.173508 144.670319,209.411560 
	C144.363541,209.504410 143.858261,209.436996 143.157837,209.193756 
z"/>
<path fill="#FEFDFB" opacity="1.000000" stroke="none" 
	d="
M151.372055,156.857529 
	C150.882156,156.512436 150.692322,156.300034 150.228241,156.071289 
	C150.008850,155.240967 149.989807,154.493027 149.954178,153.073944 
	C149.622467,151.935852 149.307327,151.468933 148.992203,151.002014 
	C149.322998,146.702850 149.653793,142.403687 149.965668,137.662018 
	C163.981400,137.162933 178.016022,137.106354 192.596359,137.454803 
	C195.082870,139.568863 197.023666,141.277878 198.964478,142.986877 
	C198.989761,143.435944 199.015030,143.884995 198.564484,144.759827 
	C198.032928,148.448715 197.977203,151.711838 197.921478,154.974960 
	C197.937897,155.434189 197.954330,155.893402 197.563660,156.892044 
	C196.153107,163.490555 195.115387,169.544647 194.230774,175.621048 
	C194.177307,175.988235 195.342651,176.532867 195.940872,176.994934 
	C195.935532,177.762894 195.930191,178.530869 195.587616,179.935577 
	C195.138672,183.373138 195.026962,186.173950 194.915268,188.974747 
	C194.937363,189.423401 194.959442,189.872040 194.544342,190.739563 
	C193.421997,194.163010 192.736862,197.167603 192.051727,200.172180 
	C192.051727,200.172180 191.787704,200.349960 191.186584,200.213837 
	C181.648560,201.924988 172.699615,203.717789 163.790894,205.692123 
	C162.742126,205.924545 161.914383,207.154251 160.984161,207.921631 
	C160.984161,207.921631 160.947708,207.996185 160.667603,207.961624 
	C159.958038,208.121292 159.528610,208.315521 159.099167,208.509735 
	C158.636581,208.658142 158.173996,208.806534 157.344391,208.943665 
	C154.594925,208.951004 152.212509,208.969620 149.431351,208.984314 
	C149.023178,204.581451 148.871170,200.175842 149.077515,195.787064 
	C149.155319,194.131882 150.062424,192.515701 150.785477,190.565186 
	C151.415894,190.129364 151.852356,190.010117 152.852341,190.189484 
	C155.927841,189.633850 158.439819,188.779633 160.951782,187.925415 
	C160.951782,187.925415 160.995819,187.999146 161.245621,188.002640 
	C161.984131,187.779892 162.472839,187.553665 162.961548,187.327438 
	C166.774246,186.256699 170.586929,185.185959 175.070679,184.031113 
	C175.903503,182.973541 176.065277,182.000076 176.227051,181.026611 
	C176.212830,179.930450 176.198608,178.834274 176.573074,177.142197 
	C176.990341,174.702194 177.018921,172.858109 177.047516,171.014023 
	C177.059692,169.930984 177.071869,168.847961 177.416565,167.145935 
	C182.100510,161.984848 182.125366,161.327774 178.034164,158.991104 
	C178.005081,158.785065 177.975998,158.579041 177.908997,157.889206 
	C177.733215,157.186386 177.538620,157.045837 177.287277,156.983749 
	C177.287277,156.983749 177.106628,157.026138 176.975067,156.791656 
	C176.563705,156.634216 176.283890,156.711227 176.004074,156.788239 
	C175.250015,156.830902 174.495956,156.873566 173.275177,156.705933 
	C172.539444,156.590942 172.270401,156.686249 172.001373,156.781570 
	C166.970871,156.832001 161.940353,156.882446 156.293915,156.669556 
	C155.122726,156.533371 154.567505,156.660507 154.012268,156.787643 
	C153.256836,156.833160 152.501419,156.878662 151.372055,156.857529 
z"/>
<path fill="#DE4F2B" opacity="1.000000" stroke="none" 
	d="
M120.156448,136.483353 
	C120.205910,136.152191 120.255371,135.821014 120.323441,135.078949 
	C120.196381,134.124359 120.050713,133.580704 119.905029,133.037033 
	C119.933929,132.564209 119.962837,132.091385 119.965561,130.855652 
	C119.593666,127.062157 119.247948,124.031555 118.902237,121.000954 
	C118.929207,120.540489 118.956177,120.080032 118.943924,118.972481 
	C118.812294,117.912781 118.719894,117.500168 118.627502,117.087555 
	C118.717468,115.639877 118.807442,114.192200 118.930855,112.206337 
	C120.689751,112.122566 122.413422,112.040474 125.030624,111.955399 
	C133.960571,112.067848 141.997009,112.183266 150.033447,112.298691 
	C150.017105,120.172508 150.000763,128.046326 150.022980,136.323181 
	C143.681198,136.835083 137.300888,136.943939 130.014771,137.051666 
	C126.124802,136.861481 123.140625,136.672409 120.156448,136.483353 
z"/>
<path fill="#FCECE0" opacity="1.000000" stroke="none" 
	d="
M150.490570,112.212112 
	C141.997009,112.183266 133.960571,112.067848 125.462967,111.864700 
	C125.838608,110.648148 126.713097,108.517181 127.506355,108.547005 
	C134.689804,108.817062 141.859055,109.464958 149.496552,110.004990 
	C160.096436,110.011642 170.235962,110.182724 180.366699,109.958115 
	C186.685974,109.818016 192.991989,109.080513 198.886459,108.642151 
	C199.854019,105.763062 200.456238,103.971115 201.415039,102.076569 
	C201.771637,105.211365 201.771637,108.448776 201.771637,112.125534 
	C184.107864,112.125534 167.527786,112.125534 150.490570,112.212112 
z"/>
<path fill="#FCECE0" opacity="1.000000" stroke="none" 
	d="
M161.390167,207.950378 
	C161.914383,207.154251 162.742126,205.924545 163.790894,205.692123 
	C172.699615,203.717789 181.648560,201.924988 191.038788,200.154846 
	C181.593460,202.814346 171.694809,205.396729 161.390167,207.950378 
z"/>
<path fill="#FCECE0" opacity="1.000000" stroke="none" 
	d="
M196.150681,176.652573 
	C195.342651,176.532867 194.177307,175.988235 194.230774,175.621048 
	C195.115387,169.544647 196.153107,163.490555 197.467514,157.224915 
	C197.305801,163.448990 196.833145,169.879608 196.150681,176.652573 
z"/>
<path fill="#FCECE0" opacity="1.000000" stroke="none" 
	d="
M192.444839,200.172287 
	C192.736862,197.167603 193.421997,194.163010 194.459335,191.067474 
	C194.153687,194.041794 193.495819,197.107101 192.444839,200.172287 
z"/>
<path fill="#FCECE0" opacity="1.000000" stroke="none" 
	d="
M199.164948,142.669891 
	C197.023666,141.277878 195.082870,139.568863 193.058884,137.523361 
	C194.938782,137.186859 196.901840,137.186859 199.365402,137.186859 
	C199.365402,138.930649 199.365402,140.641785 199.164948,142.669891 
z"/>
<path fill="#FCECE0" opacity="1.000000" stroke="none" 
	d="
M198.120361,154.634247 
	C197.977203,151.711838 198.032928,148.448715 198.460052,145.082489 
	C198.660736,148.084122 198.489990,151.188828 198.120361,154.634247 
z"/>
<path fill="#FCECE0" opacity="1.000000" stroke="none" 
	d="
M195.121185,188.642120 
	C195.026962,186.173950 195.138672,183.373138 195.486725,180.307358 
	C195.591095,182.798080 195.459106,185.553787 195.121185,188.642120 
z"/>
<path fill="#FCECE0" opacity="1.000000" stroke="none" 
	d="
M159.342911,208.593414 
	C159.528610,208.315521 159.958038,208.121292 160.631683,207.940826 
	C160.446136,208.195419 160.016388,208.436249 159.342911,208.593414 
z"/>
<path fill="#FCECE0" opacity="1.000000" stroke="none" 
	d="
M148.529236,95.000443 
	C149.167053,96.192978 149.336563,97.385643 149.243042,98.786591 
	C144.165161,98.995728 139.337982,99.198502 134.541031,98.905960 
	C132.381958,98.774292 130.283188,97.653931 128.157059,96.982170 
	C128.274002,96.321648 128.390930,95.661118 128.507858,95.000587 
	C135.025558,95.000587 141.543243,95.000587 148.529236,95.000443 
z"/>
<path fill="#FCECE0" opacity="1.000000" stroke="none" 
	d="
M120.163788,136.912170 
	C123.140625,136.672409 126.124802,136.861481 129.553223,137.136627 
	C126.756081,140.092316 123.477539,139.874619 120.163788,136.912170 
z"/>
<path fill="#FCECE0" opacity="1.000000" stroke="none" 
	d="
M118.556015,121.069901 
	C119.247948,124.031555 119.593666,127.062157 119.857674,130.513931 
	C119.253914,127.669685 118.731857,124.404266 118.556015,121.069901 
z"/>
<path fill="#FCECE0" opacity="1.000000" stroke="none" 
	d="
M148.643738,151.008179 
	C149.307327,151.468933 149.622467,151.935852 149.943390,152.699860 
	C148.814865,152.696777 147.680511,152.396637 146.546173,152.096481 
	C147.129196,151.735764 147.712234,151.375046 148.643738,151.008179 
z"/>
<path fill="#FCECE0" opacity="1.000000" stroke="none" 
	d="
M119.690681,133.195557 
	C120.050713,133.580704 120.196381,134.124359 120.211586,134.848022 
	C119.879517,134.470032 119.677917,133.912048 119.690681,133.195557 
z"/>
<path fill="#FCECE0" opacity="1.000000" stroke="none" 
	d="
M118.470123,117.252594 
	C118.719894,117.500168 118.812294,117.912781 118.841866,118.639954 
	C118.623611,118.442223 118.468178,117.929932 118.470123,117.252594 
z"/>
<path fill="#FCECE0" opacity="1.000000" stroke="none" 
	d="
M177.811432,159.312164 
	C182.125366,161.327774 182.100510,161.984848 177.504074,166.747742 
	C177.368927,164.523438 177.478806,162.078339 177.811432,159.312164 
z"/>
<path fill="#FCE9E3" opacity="1.000000" stroke="none" 
	d="
M160.560455,187.902191 
	C158.439819,188.779633 155.927841,189.633850 153.193176,190.198730 
	C155.370026,189.232574 157.769577,188.555771 160.560455,187.902191 
z"/>
<path fill="#FCECE0" opacity="1.000000" stroke="none" 
	d="
M176.861938,171.335083 
	C177.018921,172.858109 176.990341,174.702194 176.700256,176.749863 
	C176.517960,175.187683 176.597153,173.421906 176.861938,171.335083 
z"/>
<path fill="#FCECE0" opacity="1.000000" stroke="none" 
	d="
M176.053802,181.296631 
	C176.065277,182.000076 175.903503,182.973541 175.432312,183.975677 
	C175.375458,183.191772 175.628021,182.379196 176.053802,181.296631 
z"/>
<path fill="#FCE9E3" opacity="1.000000" stroke="none" 
	d="
M162.680542,187.250961 
	C162.472839,187.553665 161.984131,187.779892 161.214600,187.972870 
	C161.422379,187.684570 161.910965,187.429520 162.680542,187.250961 
z"/>
<path fill="#FCECE0" opacity="1.000000" stroke="none" 
	d="
M154.336182,156.881592 
	C154.567505,156.660507 155.122726,156.533371 155.830704,156.599823 
	C155.542328,156.854126 155.101227,156.914841 154.336182,156.881592 
z"/>
<path fill="#FCECE0" opacity="1.000000" stroke="none" 
	d="
M177.332123,157.167206 
	C177.538620,157.045837 177.733215,157.186386 177.926041,157.577576 
	C177.704910,157.729721 177.503571,157.596710 177.332123,157.167206 
z"/>
<path fill="#FCECE0" opacity="1.000000" stroke="none" 
	d="
M176.247147,156.875809 
	C176.283890,156.711227 176.563705,156.634216 176.921402,156.715973 
	C176.829590,156.904312 176.659912,156.933853 176.247147,156.875809 
z"/>
<path fill="#FCECE0" opacity="1.000000" stroke="none" 
	d="
M172.250061,156.854950 
	C172.270401,156.686249 172.539444,156.590942 172.902283,156.638428 
	C172.830307,156.830246 172.664536,156.879288 172.250061,156.854950 
z"/>
</svg>