<svg version="1.1" id="Layer_1" xmlns="http://www.w3.org/2000/svg" xmlns:xlink="http://www.w3.org/1999/xlink" x="0px" y="0px"
	 width="100%" viewBox="0 0 564 564" enable-background="new 0 0 564 564" xml:space="preserve">
<path fill="#F5DD19" opacity="1.000000" stroke="none" 
	d="
M1.000000,564.000000 
	C1.000000,376.403839 1.000000,188.807648 1.000000,1.000000 
	C188.025787,1.000000 375.051636,1.000000 562.538757,1.468657 
	C563.000000,185.693283 562.989136,369.449249 563.063293,553.205200 
	C563.065125,557.760132 563.032715,561.983826 559.000000,565.000000 
	C373.640839,565.000000 188.281677,565.000000 2.326223,564.803650 
	C1.521843,564.362549 1.278531,564.160095 1.000000,564.000000 
M184.704605,450.254181 
	C184.443527,450.490570 184.182465,450.726959 183.812012,451.202759 
	C183.812012,451.202759 183.550003,451.177948 182.839493,451.190826 
	C182.363770,451.644623 181.888046,452.098419 181.086807,451.996552 
	C181.199509,452.179779 181.312210,452.363037 180.706223,452.357483 
	C179.485062,453.276276 178.263901,454.195068 177.045883,455.041901 
	C177.045883,455.041901 177.114578,455.063660 176.415543,455.035919 
	C175.603821,455.692780 174.792084,456.349640 173.990814,456.980591 
	C173.990814,456.980591 174.018066,456.986877 173.337646,456.990112 
	C172.747360,457.523499 172.157089,458.056885 171.509460,458.557739 
	C171.509460,458.557739 171.487778,458.619995 170.801544,458.547699 
	C169.998596,459.197540 169.195663,459.847382 168.154297,460.261230 
	C168.154297,460.261230 168.424759,460.459656 167.872849,460.484863 
	C167.603088,460.722321 167.333313,460.959808 167.078552,461.095886 
	C167.078552,461.095886 167.178070,461.120392 166.409607,461.139313 
	C163.763962,462.924377 161.118317,464.709473 158.327499,466.260223 
	C158.327499,466.260223 158.426117,466.517609 157.878189,466.531097 
	C157.615082,466.771912 157.351974,467.012695 157.106827,467.138824 
	C157.106827,467.138824 157.218567,467.170166 156.423630,467.073364 
	C155.464951,467.891266 154.506271,468.709198 153.492447,469.582916 
	C153.492447,469.582916 153.414047,469.579895 152.699158,469.364807 
	C147.707123,470.834015 147.412262,471.549286 150.285614,474.876831 
	C150.285614,474.876831 150.507980,474.564819 150.485443,475.121613 
	C150.703445,475.410583 150.921448,475.699524 151.045364,475.959015 
	C151.045364,475.959015 151.079208,475.866394 151.097977,476.500977 
	C151.468216,476.982269 151.838470,477.463562 152.100464,477.920074 
	C152.100464,477.920074 152.134872,477.814484 152.064697,478.596954 
	C152.809174,481.701172 152.809296,485.328613 157.098236,485.891388 
	C157.098236,485.891388 157.140060,485.815155 157.084198,486.564606 
	C158.108490,487.679230 159.132782,488.793854 160.080170,489.913940 
	C160.080170,489.913940 160.101196,489.839752 160.170486,490.464600 
	C160.618622,490.840027 161.066757,491.215424 161.333786,491.828979 
	C161.333786,491.828979 161.528107,491.584595 161.336441,492.302551 
	C162.635483,493.480530 163.934509,494.658539 165.154236,495.845490 
	C165.154236,495.845490 165.162796,495.766113 165.155014,496.508881 
	C166.889847,497.873352 168.624664,499.237823 170.175629,500.871704 
	C170.175629,500.871704 170.390640,500.626373 170.348389,501.330017 
	C171.257660,501.876587 172.166916,502.423187 173.013855,502.990112 
	C173.013855,502.990112 173.026855,502.925873 173.059830,503.677979 
	C174.394485,504.443726 175.729141,505.209442 177.005905,505.996368 
	C177.005905,505.996368 177.016769,505.935669 177.103638,506.642761 
	C180.197372,508.230927 183.291107,509.819122 186.446808,511.417908 
	C186.446808,511.417908 186.490509,511.463104 186.536407,512.190430 
	C188.006302,512.837524 189.476196,513.484619 191.238098,514.767517 
	C194.391876,515.977173 197.466034,517.519653 200.722794,518.299072 
	C203.726807,519.018005 206.926834,518.917908 210.764526,519.101807 
	C211.225159,519.238403 211.685806,519.375061 212.386932,520.130127 
	C213.735031,520.693298 215.078842,521.729736 216.431946,521.742004 
	C224.513657,521.815613 232.602737,521.788940 240.677063,521.477051 
	C242.778275,521.395874 244.835587,520.177307 247.570160,519.195740 
	C248.045517,519.188293 248.520859,519.180908 249.492828,519.523254 
	C250.326599,519.216187 251.160355,518.909119 252.114624,518.525696 
	C252.114624,518.525696 252.217407,518.624634 253.140350,518.823425 
	C257.239899,517.977295 262.121674,519.499878 264.966125,514.978333 
	C264.966125,514.978333 264.905090,514.945312 265.698792,515.008545 
	C269.651642,512.837646 273.604523,510.666687 277.838989,508.895721 
	C277.838989,508.895721 277.583740,508.478577 278.312561,508.663757 
	C280.193268,507.072021 282.074005,505.480286 283.957916,503.960327 
	C283.957916,503.960327 283.887268,503.947357 284.492004,503.857880 
	C284.792633,503.393250 285.093292,502.928589 285.446075,502.366241 
	C285.446075,502.366241 285.556183,502.353943 286.030060,502.330841 
	C286.358521,502.166931 286.492828,501.903839 286.466156,501.453827 
	C286.466156,501.453827 286.556030,501.427002 287.268188,501.612823 
	C288.163177,500.441895 289.058167,499.270996 290.229675,497.474823 
	C301.997375,484.263306 306.385712,468.168365 308.978424,450.689423 
	C309.311737,448.618591 309.933990,446.548126 309.936371,444.476898 
	C310.004730,385.071655 310.020264,325.666382 309.980621,266.261108 
	C309.979462,264.537109 309.288452,262.813568 308.687378,260.717743 
	C308.687378,260.717743 308.730011,260.281525 308.645996,259.500397 
	C307.688568,259.018097 306.733551,258.120941 305.773376,258.115417 
	C289.848297,258.023804 273.922302,258.011444 257.997589,258.127563 
	C257.123230,258.133911 256.258209,259.417572 255.285828,260.611389 
	C255.208572,260.764709 255.131302,260.918060 254.432510,261.224396 
	C254.287048,264.290741 254.015533,267.357086 254.014786,270.423462 
	C254.000671,328.290039 254.018600,386.156616 254.009567,444.861328 
	C253.440216,449.485352 252.870850,454.109406 252.346848,458.904572 
	C252.346848,458.904572 252.189270,458.985321 251.486252,459.137268 
	C250.517624,461.261780 249.548996,463.386292 248.548965,465.590088 
	C248.548965,465.590088 248.469864,465.622040 247.752594,465.427185 
	C247.124954,465.591034 246.370178,465.584625 245.888718,465.944214 
	C238.223343,471.669067 229.726334,473.024384 220.502106,471.035675 
	C218.599091,470.625397 216.596756,470.675873 214.512756,470.509735 
	C214.512756,470.509735 214.463226,470.392273 214.813019,469.858185 
	C213.556717,465.872009 209.758469,466.226135 206.873901,465.121490 
	C206.873901,465.121490 206.854645,465.210297 206.893204,464.381439 
	C206.896698,462.026245 206.166443,460.614777 203.287979,461.652740 
	C203.287979,461.652740 203.285736,461.451508 203.295700,460.974915 
	C203.152435,460.635773 202.897507,460.483337 202.601532,460.404510 
	C202.601532,460.404510 202.483200,460.465912 202.511368,459.817291 
	C201.929840,459.243866 201.348297,458.670441 200.870209,458.110260 
	C200.870209,458.110260 200.843933,458.211151 200.824051,457.566559 
	C200.376633,457.177399 199.929199,456.788239 199.989838,456.035217 
	C199.820786,456.155060 199.651749,456.274933 199.660400,455.661621 
	C198.588669,454.293304 197.516922,452.924988 196.394730,451.507690 
	C196.394730,451.507690 196.386581,451.437866 196.667587,450.596039 
	C195.936172,448.486816 195.768555,445.536652 194.288345,444.544281 
	C193.177994,443.799866 190.249191,445.330139 188.386887,446.327423 
	C187.439194,446.834900 187.057831,448.399933 185.967056,449.228394 
	C186.120102,449.308990 186.273148,449.389557 185.871948,449.491089 
	C185.604355,449.732605 185.336746,449.974121 185.084717,450.082184 
	C185.084717,450.082184 185.216797,450.106812 184.704605,450.254181 
M449.547394,421.365479 
	C449.547394,421.365479 449.616669,421.519379 449.480377,422.229675 
	C451.154266,422.976074 452.828125,423.722504 454.390442,424.941254 
	C454.390442,424.941254 454.530640,424.476013 454.551025,425.193573 
	C456.078644,426.099518 457.606262,427.005463 459.060242,427.936920 
	C459.060242,427.936920 459.074066,427.860229 459.136475,428.581818 
	C460.906342,430.163452 462.676208,431.745087 464.662415,433.387817 
	C464.662415,433.387817 464.671539,433.612427 464.394104,434.378082 
	C465.274170,439.111816 466.587250,443.818481 466.885406,448.588593 
	C467.091980,451.892975 465.899414,455.284760 465.336426,458.892670 
	C465.336426,458.892670 465.103149,458.996155 464.359344,459.028992 
	C463.208160,459.605560 461.564453,459.874725 460.982788,460.806702 
	C455.785919,469.133759 446.843292,470.555786 438.610657,471.725769 
	C427.720703,473.273407 416.817230,471.694214 406.875854,466.077667 
	C405.069733,465.057220 402.865662,464.741180 400.920898,464.076599 
	C400.920898,464.076599 400.907166,464.154541 400.951691,463.461914 
	C400.982422,460.207520 398.875977,460.649323 396.173523,460.826691 
	C390.590820,454.547668 385.008118,448.268646 379.254517,441.797424 
	C365.409576,449.889465 351.349976,458.106964 337.162445,466.399231 
	C345.571075,483.765045 358.007996,496.985565 374.561218,506.110840 
	C403.908966,522.289429 435.058167,524.554932 467.015411,516.283447 
	C488.404785,510.747284 505.514832,498.895477 515.082642,478.208618 
	C530.620972,444.612762 519.968140,405.462952 489.808716,384.075928 
	C473.914825,372.805023 455.811127,365.975586 438.325317,357.832581 
	C429.003601,353.491486 419.582245,348.602509 411.714539,342.127594 
	C404.659149,336.321198 403.596039,327.210907 406.819000,318.281433 
	C409.927338,309.669678 416.227417,304.340179 425.151825,303.288635 
	C438.537659,301.711426 450.263580,305.397919 458.704041,316.682526 
	C460.857788,319.562012 462.827423,322.579254 465.014313,325.723969 
	C478.955078,316.747803 492.596924,307.964081 506.332672,299.119934 
	C505.161865,297.150085 504.341980,295.717102 503.472076,294.315094 
	C489.057465,271.083405 468.055908,258.833221 440.759552,256.573151 
	C440.470093,256.405670 440.219513,256.458160 439.328827,256.870270 
	C438.876068,256.795380 438.423340,256.720520 437.626251,255.994781 
	C433.451355,256.191620 429.276428,256.388489 424.348694,256.801422 
	C423.568573,256.796112 422.788422,256.790833 421.321625,256.381866 
	C415.527313,257.269165 409.708282,258.022583 403.946564,259.086456 
	C399.392334,259.927368 394.908539,261.149658 391.218536,262.010162 
	C388.333618,263.893463 385.740143,265.238831 383.582642,267.091827 
	C381.384552,268.979706 379.615387,271.367004 377.596008,273.683289 
	C377.596008,273.683289 377.435883,273.690674 376.733429,273.471313 
	C375.573792,274.735992 374.414154,276.000671 373.141113,277.108551 
	C373.141113,277.108551 373.292877,277.228638 372.605316,277.358276 
	C364.404999,280.848633 361.521393,288.858032 358.315338,295.872162 
	C349.478882,315.204285 349.826874,335.320496 356.229248,355.291382 
	C357.646576,359.712433 361.008759,363.510010 363.000000,367.998779 
	C363.158142,367.863586 363.316284,367.728394 363.321686,368.377838 
	C363.479553,372.293549 364.933014,375.210358 369.522095,376.530060 
	C372.356628,379.303284 375.191162,382.076508 378.381989,385.239075 
	C378.720001,385.290375 379.058014,385.341675 379.541656,385.412140 
	C379.541656,385.412140 379.585022,385.552490 379.356720,386.352936 
	C379.304169,390.368591 381.715973,390.141174 384.616119,389.333557 
	C384.616119,389.333557 384.675293,389.466644 384.621521,390.150543 
	C389.120544,392.741943 393.619598,395.333344 398.052155,397.955475 
	C398.052155,397.955475 398.047821,397.882385 398.162964,398.570129 
	C405.865265,404.470581 414.645172,407.924561 424.017639,410.007477 
	C424.017639,410.007477 424.018677,409.961975 424.350891,410.572906 
	C427.268311,411.694397 430.185730,412.815887 433.036896,413.963593 
	C433.036896,413.963593 433.023987,413.893524 433.319855,414.520081 
	C438.020844,417.190033 441.975555,421.594025 448.061157,420.956604 
	C448.061157,420.956604 448.074249,420.865326 448.403992,421.251190 
	C448.728912,421.291229 449.053802,421.331299 449.547394,421.365479 
z"/>
<path fill="#F5E024" opacity="1.000000" stroke="none" 
	d="
M559.499512,565.000000 
	C563.032715,561.983826 563.065125,557.760132 563.063293,553.205200 
	C562.989136,369.449249 563.000000,185.693283 563.000000,1.468658 
	C563.666687,1.165941 564.850891,1.228232 564.908508,1.516146 
	C565.132935,2.636846 565.000000,3.829113 565.000000,4.994761 
	C565.000000,191.663177 565.000000,378.331573 564.997314,565.000000 
	C563.329407,565.000000 561.664185,565.000000 559.499512,565.000000 
z"/>
<path fill="#F5E024" opacity="1.000000" stroke="none" 
	d="
M1.000000,564.500000 
	C1.278531,564.160095 1.521843,564.362549 1.864968,564.803650 
	C1.666667,565.000000 1.333333,565.000000 1.000000,564.500000 
z"/>
<path fill="#030201" opacity="1.000000" stroke="none" 
	d="
M465.103149,458.996155 
	C465.103149,458.996155 465.336426,458.892670 465.627441,458.539062 
	C470.216431,449.755280 469.749695,441.566864 464.671539,433.612427 
	C464.671539,433.612427 464.662415,433.387817 464.412781,433.077332 
	C462.466797,431.131317 460.770447,429.495758 459.074066,427.860229 
	C459.074066,427.860229 459.060242,427.936920 458.963013,427.624939 
	C457.420746,426.367310 455.975708,425.421661 454.530640,424.476013 
	C454.530640,424.476013 454.390442,424.941254 454.230408,424.464966 
	C452.585785,423.165619 451.101227,422.342499 449.616669,421.519379 
	C449.616669,421.519379 449.547394,421.365479 449.288055,421.195496 
	C448.731232,420.849060 448.413086,420.795654 448.074249,420.865326 
	C448.074249,420.865326 448.061157,420.956604 447.880585,420.652405 
	C442.808014,418.196625 437.916016,416.045074 433.023987,413.893524 
	C433.023987,413.893524 433.036896,413.963593 432.853149,413.676208 
	C429.785858,412.246521 426.902252,411.104248 424.018677,409.961975 
	C424.018677,409.961975 424.017639,410.007477 423.778992,409.750916 
	C415.042816,405.623688 406.545319,401.753052 398.047821,397.882385 
	C398.047821,397.882385 398.052155,397.955475 397.880951,397.668549 
	C393.364929,394.743317 389.020111,392.104980 384.675293,389.466644 
	C384.675293,389.466644 384.616119,389.333557 384.358795,389.079468 
	C382.595978,387.734406 381.090515,386.643463 379.585022,385.552490 
	C379.585022,385.552490 379.541656,385.412140 379.300720,385.171936 
	C378.715088,384.904388 378.370392,384.877045 378.025696,384.849701 
	C375.191162,382.076508 372.356628,379.303284 369.367126,375.897644 
	C367.299591,372.707886 365.387024,370.150543 363.474426,367.593201 
	C363.316284,367.728394 363.158142,367.863586 363.144836,367.449097 
	C360.894409,361.258545 357.733490,355.813110 356.234833,349.943298 
	C349.317902,322.851715 353.444855,298.142090 373.292877,277.228638 
	C373.292877,277.228638 373.141113,277.108551 373.490814,277.084167 
	C375.038971,275.936707 376.237427,274.813690 377.435883,273.690674 
	C377.435883,273.690674 377.596008,273.683289 377.933777,273.474976 
	C391.104553,263.139771 406.090698,258.726715 422.008301,256.785553 
	C422.788422,256.790833 423.568573,256.796112 425.166290,256.787140 
	C429.979462,256.730438 433.975006,256.688049 437.970581,256.645630 
	C438.423340,256.720520 438.876068,256.795380 439.890869,256.886963 
	C440.452911,256.903687 440.921997,256.814056 440.921997,256.814056 
	C468.055908,258.833221 489.057465,271.083405 503.472076,294.315094 
	C504.341980,295.717102 505.161865,297.150085 506.332672,299.119934 
	C492.596924,307.964081 478.955078,316.747803 465.014313,325.723969 
	C462.827423,322.579254 460.857788,319.562012 458.704041,316.682526 
	C450.263580,305.397919 438.537659,301.711426 425.151825,303.288635 
	C416.227417,304.340179 409.927338,309.669678 406.819000,318.281433 
	C403.596039,327.210907 404.659149,336.321198 411.714539,342.127594 
	C419.582245,348.602509 429.003601,353.491486 438.325317,357.832581 
	C455.811127,365.975586 473.914825,372.805023 489.808716,384.075928 
	C519.968140,405.462952 530.620972,444.612762 515.082642,478.208618 
	C505.514832,498.895477 488.404785,510.747284 467.015411,516.283447 
	C435.058167,524.554932 403.908966,522.289429 374.561218,506.110840 
	C358.007996,496.985565 345.571075,483.765045 337.162445,466.399231 
	C351.349976,458.106964 365.409576,449.889465 379.254517,441.797424 
	C385.008118,448.268646 390.590820,454.547668 396.637512,461.233856 
	C398.370026,462.478882 399.638580,463.316711 400.907166,464.154541 
	C400.907166,464.154541 400.920898,464.076599 401.050140,464.390808 
	C413.413818,472.727386 426.945984,474.890778 441.129608,472.836609 
	C450.794403,471.436859 459.786102,468.231567 465.103149,458.996155 
z"/>
<path fill="#040301" opacity="1.000000" stroke="none" 
	d="
M212.146439,519.511597 
	C211.685806,519.375061 211.225159,519.238403 210.040558,518.990601 
	C203.518433,517.244751 197.720261,515.610107 191.675171,513.754089 
	C189.782318,512.842834 188.136414,512.152954 186.490509,511.463104 
	C186.490509,511.463104 186.446808,511.417908 186.175125,511.189972 
	C182.941223,509.286560 179.979004,507.611115 177.016769,505.935669 
	C177.016769,505.935669 177.005905,505.996368 176.903015,505.689636 
	C175.542358,504.563873 174.284592,503.744873 173.026855,502.925903 
	C173.026855,502.925873 173.013855,502.990112 172.928940,502.695618 
	C172.026230,501.809509 171.208435,501.217957 170.390640,500.626373 
	C170.390640,500.626373 170.175629,500.871704 170.105621,500.460541 
	C168.411346,498.621613 166.787064,497.193878 165.162796,495.766113 
	C165.162796,495.766113 165.154236,495.845490 165.092819,495.535034 
	C163.863632,494.011230 162.695877,492.797913 161.528107,491.584595 
	C161.528107,491.584595 161.333786,491.828979 161.323349,491.432648 
	C160.909012,490.637451 160.505112,490.238586 160.101196,489.839752 
	C160.101196,489.839752 160.080170,489.913940 160.037842,489.596558 
	C159.043686,488.124512 158.091873,486.969849 157.140060,485.815155 
	C157.140060,485.815155 157.098236,485.891388 157.063110,485.548676 
	C155.396957,482.742126 153.765915,480.278320 152.134872,477.814484 
	C152.134872,477.814484 152.100464,477.920074 152.125534,477.620605 
	C151.793472,476.836243 151.436340,476.351318 151.079193,475.866394 
	C151.079208,475.866394 151.045364,475.959015 151.083344,475.699066 
	C150.916870,475.147675 150.712433,474.856262 150.507980,474.564819 
	C150.507980,474.564819 150.285614,474.876831 150.337097,474.395630 
	C151.397079,472.469574 152.405563,471.024750 153.414047,469.579895 
	C153.414047,469.579895 153.492447,469.582916 153.823669,469.458099 
	C155.176117,468.612244 156.197342,467.891205 157.218567,467.170166 
	C157.218567,467.170166 157.106827,467.138824 157.363007,467.156097 
	C157.888168,466.954803 158.157150,466.736206 158.426117,466.517609 
	C158.426117,466.517609 158.327499,466.260223 158.724304,466.261780 
	C161.806763,464.549011 164.492432,462.834717 167.178070,461.120422 
	C167.178070,461.120392 167.078552,461.095886 167.340332,461.110962 
	C167.876312,460.903900 168.150543,460.681763 168.424759,460.459656 
	C168.424759,460.459656 168.154297,460.261230 168.560913,460.280548 
	C169.807632,459.739929 170.647705,459.179962 171.487778,458.619995 
	C171.487778,458.619995 171.509460,458.557739 171.824753,458.480042 
	C172.766052,457.930481 173.392059,457.458679 174.018066,456.986877 
	C174.018066,456.986877 173.990814,456.980591 174.303711,456.958496 
	C175.449249,456.312134 176.281921,455.687897 177.114594,455.063660 
	C177.114578,455.063660 177.045883,455.041901 177.367188,455.025574 
	C178.933960,454.188263 180.179443,453.367310 181.424927,452.546326 
	C181.312210,452.363037 181.199509,452.179779 181.565262,452.180786 
	C182.545807,451.969360 183.047913,451.573639 183.550003,451.177948 
	C183.550003,451.177948 183.812012,451.202759 184.151825,451.067627 
	C184.733368,450.657257 184.975082,450.382019 185.216797,450.106812 
	C185.216797,450.106812 185.084717,450.082184 185.352234,450.122131 
	C185.888550,449.931458 186.157364,449.700806 186.426178,449.470154 
	C186.273148,449.389557 186.120102,449.308990 186.523804,449.262329 
	C188.913681,448.254272 190.746826,447.212280 192.736526,446.081329 
	C194.011642,447.952576 195.199112,449.695221 196.386581,451.437866 
	C196.386581,451.437866 196.394730,451.507690 196.524261,451.837219 
	C197.596756,453.576080 198.539719,454.985443 199.482697,456.394775 
	C199.651749,456.274933 199.820786,456.155060 199.833694,456.494690 
	C200.066345,457.373169 200.455139,457.792175 200.843933,458.211151 
	C200.843933,458.211151 200.870209,458.110260 200.878891,458.399872 
	C201.419449,459.281647 201.951324,459.873779 202.483200,460.465912 
	C202.483200,460.465912 202.601532,460.404510 202.627731,460.661438 
	C202.795639,461.177673 203.006241,461.355377 203.285736,461.451508 
	C203.285736,461.451508 203.287979,461.652740 203.522522,461.961273 
	C204.789597,463.249969 205.822113,464.230133 206.854645,465.210297 
	C206.854645,465.210297 206.873901,465.121490 206.991364,465.439758 
	C209.560287,467.302795 212.011749,468.847534 214.463226,470.392273 
	C214.463226,470.392273 214.512756,470.509735 214.868317,470.733582 
	C227.119507,474.248932 238.643738,475.226166 248.469864,465.622040 
	C248.469864,465.622040 248.548965,465.590088 248.820435,465.339111 
	C250.124359,463.053894 251.156815,461.019592 252.189270,458.985321 
	C252.189270,458.985321 252.346848,458.904572 252.592834,458.520203 
	C253.545059,453.424164 254.251312,448.712463 255.046112,443.539215 
	C255.188843,441.416595 255.290207,439.755554 255.290421,438.094513 
	C255.297974,380.073639 255.297211,322.052734 255.285370,264.031860 
	C255.285172,263.045044 255.134506,262.058258 255.054047,261.071442 
	C255.131302,260.918060 255.208572,260.764709 255.776733,260.321625 
	C273.755096,260.115082 291.242554,260.198303 308.730011,260.281525 
	C308.730011,260.281525 308.687378,260.717743 308.686584,261.348450 
	C308.678833,292.308014 308.679688,322.636810 308.662811,352.965637 
	C308.645264,384.451477 308.610535,415.937286 308.448120,447.619202 
	C308.218262,448.144287 308.272675,448.446503 308.368652,449.113342 
	C308.287872,450.044098 308.314575,450.583466 308.341278,451.122833 
	C306.385712,468.168365 301.997375,484.263306 289.810669,497.892883 
	C288.446472,499.349609 287.501251,500.388306 286.556030,501.427002 
	C286.556030,501.427002 286.466156,501.453827 286.260437,501.580292 
	C285.815430,501.866150 285.649261,502.081879 285.556183,502.353943 
	C285.556183,502.353943 285.446075,502.366241 285.173645,502.539185 
	C284.563232,503.123871 284.225250,503.535614 283.887268,503.947327 
	C283.887268,503.947357 283.957916,503.960327 283.630219,504.014587 
	C281.396271,505.538788 279.490021,507.008698 277.583740,508.478577 
	C277.583740,508.478577 277.838989,508.895721 277.362305,508.817078 
	C272.892120,510.807404 268.898621,512.876343 264.905090,514.945312 
	C264.905090,514.945312 264.966125,514.978333 264.583618,514.946655 
	C260.206573,516.151550 256.212006,517.388123 252.217407,518.624634 
	C252.217407,518.624634 252.114624,518.525696 251.669586,518.561096 
	C250.481766,518.788818 249.738983,518.981201 248.996216,519.173523 
	C248.520859,519.180908 248.045517,519.188293 246.839218,519.295288 
	C234.787659,519.433838 223.467056,519.472717 212.146439,519.511597 
z"/>
<path fill="#F4E844" opacity="1.000000" stroke="none" 
	d="
M308.659851,450.906128 
	C308.314575,450.583466 308.287872,450.044098 308.462463,448.910339 
	C308.737640,448.009338 308.710846,447.711731 308.583344,447.423126 
	C308.610535,415.937286 308.645264,384.451477 308.662811,352.965637 
	C308.679688,322.636810 308.678833,292.308014 308.802429,261.534485 
	C309.288452,262.813568 309.979462,264.537109 309.980621,266.261108 
	C310.020264,325.666382 310.004730,385.071655 309.936371,444.476898 
	C309.933990,446.548126 309.311737,448.618591 308.659851,450.906128 
z"/>
<path fill="#F1E341" opacity="1.000000" stroke="none" 
	d="
M254.743286,261.147919 
	C255.134506,262.058258 255.285172,263.045044 255.285370,264.031860 
	C255.297211,322.052734 255.297974,380.073639 255.290421,438.094513 
	C255.290207,439.755554 255.188843,441.416595 254.814178,443.545410 
	C254.493729,444.013214 254.029846,444.023193 254.029846,444.023193 
	C254.018600,386.156616 254.000671,328.290039 254.014786,270.423462 
	C254.015533,267.357086 254.287048,264.290741 254.743286,261.147919 
z"/>
<path fill="#DBCE3F" opacity="1.000000" stroke="none" 
	d="
M372.949097,277.293457 
	C353.444855,298.142090 349.317902,322.851715 356.234833,349.943298 
	C357.733490,355.813110 360.894409,361.258545 363.382568,367.247070 
	C361.008759,363.510010 357.646576,359.712433 356.229248,355.291382 
	C349.826874,335.320496 349.478882,315.204285 358.315338,295.872162 
	C361.521393,288.858032 364.404999,280.848633 372.949097,277.293457 
z"/>
<path fill="#DBCE3F" opacity="1.000000" stroke="none" 
	d="
M464.731262,459.012573 
	C459.786102,468.231567 450.794403,471.436859 441.129608,472.836609 
	C426.945984,474.890778 413.413818,472.727386 401.012329,464.402496 
	C402.865662,464.741180 405.069733,465.057220 406.875854,466.077667 
	C416.817230,471.694214 427.720703,473.273407 438.610657,471.725769 
	C446.843292,470.555786 455.785919,469.133759 460.982788,460.806702 
	C461.564453,459.874725 463.208160,459.605560 464.731262,459.012573 
z"/>
<path fill="#DFCC3C" opacity="1.000000" stroke="none" 
	d="
M308.687988,259.890961 
	C291.242554,260.198303 273.755096,260.115082 255.828247,260.069275 
	C256.258209,259.417572 257.123230,258.133911 257.997589,258.127563 
	C273.922302,258.011444 289.848297,258.023804 305.773376,258.115417 
	C306.733551,258.120941 307.688568,259.018097 308.687988,259.890961 
z"/>
<path fill="#DBCE3F" opacity="1.000000" stroke="none" 
	d="
M421.664978,256.583710 
	C406.090698,258.726715 391.104553,263.139771 377.964966,273.401123 
	C379.615387,271.367004 381.384552,268.979706 383.582642,267.091827 
	C385.740143,265.238831 388.333618,263.893463 391.218536,262.010162 
	C394.908539,261.149658 399.392334,259.927368 403.946564,259.086456 
	C409.708282,258.022583 415.527313,257.269165 421.664978,256.583710 
z"/>
<path fill="#DBD03E" opacity="1.000000" stroke="none" 
	d="
M212.266693,519.820862 
	C223.467056,519.472717 234.787659,519.433838 246.510681,519.437988 
	C244.835587,520.177307 242.778275,521.395874 240.677063,521.477051 
	C232.602737,521.788940 224.513657,521.815613 216.431946,521.742004 
	C215.078842,521.729736 213.735031,520.693298 212.266693,519.820862 
z"/>
<path fill="#DFD23F" opacity="1.000000" stroke="none" 
	d="
M248.111237,465.524597 
	C238.643738,475.226166 227.119507,474.248932 214.932022,470.735718 
	C216.596756,470.675873 218.599091,470.625397 220.502106,471.035675 
	C229.726334,473.024384 238.223343,471.669067 245.888718,465.944214 
	C246.370178,465.584625 247.124954,465.591034 248.111237,465.524597 
z"/>
<path fill="#DBCE3F" opacity="1.000000" stroke="none" 
	d="
M398.105408,398.226257 
	C406.545319,401.753052 415.042816,405.623688 423.792786,409.732544 
	C414.645172,407.924561 405.865265,404.470581 398.105408,398.226257 
z"/>
<path fill="#DBCE3F" opacity="1.000000" stroke="none" 
	d="
M464.532837,433.995239 
	C469.749695,441.566864 470.216431,449.755280 465.625214,458.411499 
	C465.899414,455.284760 467.091980,451.892975 466.885406,448.588593 
	C466.587250,443.818481 465.274170,439.111816 464.532837,433.995239 
z"/>
<path fill="#DFD23F" opacity="1.000000" stroke="none" 
	d="
M196.527084,451.016968 
	C195.199112,449.695221 194.011642,447.952576 192.736526,446.081329 
	C190.746826,447.212280 188.913681,448.254272 186.750488,449.391541 
	C187.057831,448.399933 187.439194,446.834900 188.386887,446.327423 
	C190.249191,445.330139 193.177994,443.799866 194.288345,444.544281 
	C195.768555,445.536652 195.936172,448.486816 196.527084,451.016968 
z"/>
<path fill="#DBD03E" opacity="1.000000" stroke="none" 
	d="
M191.922104,513.975525 
	C197.720261,515.610107 203.518433,517.244751 209.678558,519.028931 
	C206.926834,518.917908 203.726807,519.018005 200.722794,518.299072 
	C197.466034,517.519653 194.391876,515.977173 191.334869,514.401733 
	C191.431656,514.035889 191.922104,513.975525 191.922104,513.975525 
z"/>
<path fill="#DBCE3F" opacity="1.000000" stroke="none" 
	d="
M433.171936,414.206787 
	C437.916016,416.045074 442.808014,418.196625 447.913727,420.620361 
	C441.975555,421.594025 438.020844,417.190033 433.171936,414.206787 
z"/>
<path fill="#DBCE3F" opacity="1.000000" stroke="none" 
	d="
M384.648407,389.808594 
	C389.020111,392.104980 393.364929,394.743317 397.914185,397.653198 
	C393.619598,395.333344 389.120544,392.741943 384.648407,389.808594 
z"/>
<path fill="#DBCE3F" opacity="1.000000" stroke="none" 
	d="
M437.798401,256.320190 
	C433.975006,256.688049 429.979462,256.730438 425.542725,256.679077 
	C429.276428,256.388489 433.451355,256.191620 437.798401,256.320190 
z"/>
<path fill="#DBD03E" opacity="1.000000" stroke="none" 
	d="
M265.301941,514.976929 
	C268.898621,512.876343 272.892120,510.807404 277.221527,508.617126 
	C273.604523,510.666687 269.651642,512.837646 265.301941,514.976929 
z"/>
<path fill="#DFD23F" opacity="1.000000" stroke="none" 
	d="
M254.019714,444.442261 
	C254.029846,444.023193 254.493729,444.013214 254.725647,444.007019 
	C254.251312,448.712463 253.545059,453.424164 252.570145,458.434631 
	C252.870850,454.109406 253.440216,449.485352 254.019714,444.442261 
z"/>
<path fill="#DBCE3F" opacity="1.000000" stroke="none" 
	d="
M363.398071,367.985535 
	C365.387024,370.150543 367.299591,372.707886 369.195435,375.619781 
	C364.933014,375.210358 363.479553,372.293549 363.398071,367.985535 
z"/>
<path fill="#DBD03E" opacity="1.000000" stroke="none" 
	d="
M252.678879,518.723999 
	C256.212006,517.388123 260.206573,516.151550 264.593262,514.913330 
	C262.121674,519.499878 257.239899,517.977295 252.678879,518.723999 
z"/>
<path fill="#DFD23F" opacity="1.000000" stroke="none" 
	d="
M214.638123,470.125244 
	C212.011749,468.847534 209.560287,467.302795 206.950287,465.459229 
	C209.758469,466.226135 213.556717,465.872009 214.638123,470.125244 
z"/>
<path fill="#DFD23F" opacity="1.000000" stroke="none" 
	d="
M177.060211,506.289215 
	C179.979004,507.611115 182.941223,509.286560 186.144135,511.184662 
	C183.291107,509.819122 180.197372,508.230927 177.060211,506.289215 
z"/>
<path fill="#DFD23F" opacity="1.000000" stroke="none" 
	d="
M152.099792,478.205719 
	C153.765915,480.278320 155.396957,482.742126 157.106262,485.543335 
	C152.809296,485.328613 152.809174,481.701172 152.099792,478.205719 
z"/>
<path fill="#DFD23F" opacity="1.000000" stroke="none" 
	d="
M166.793854,461.129883 
	C164.492432,462.834717 161.806763,464.549011 158.796890,466.378967 
	C161.118317,464.709473 163.763962,462.924377 166.793854,461.129883 
z"/>
<path fill="#DBCE3F" opacity="1.000000" stroke="none" 
	d="
M459.105286,428.221008 
	C460.770447,429.495758 462.466797,431.131317 464.304626,433.046783 
	C462.676208,431.745087 460.906342,430.163452 459.105286,428.221008 
z"/>
<path fill="#DBCE3F" opacity="1.000000" stroke="none" 
	d="
M424.184784,410.267456 
	C426.902252,411.104248 429.785858,412.246521 432.886292,413.663086 
	C430.185730,412.815887 427.268311,411.694397 424.184784,410.267456 
z"/>
<path fill="#DBCE3F" opacity="1.000000" stroke="none" 
	d="
M379.470886,385.952698 
	C381.090515,386.643463 382.595978,387.734406 384.286133,389.074249 
	C381.715973,390.141174 379.304169,390.368591 379.470886,385.952698 
z"/>
<path fill="#DFD23F" opacity="1.000000" stroke="none" 
	d="
M165.158905,496.137512 
	C166.787064,497.193878 168.411346,498.621613 170.197556,500.325836 
	C168.624664,499.237823 166.889847,497.873352 165.158905,496.137512 
z"/>
<path fill="#DBD03E" opacity="1.000000" stroke="none" 
	d="
M277.948151,508.571167 
	C279.490021,507.008698 281.396271,505.538788 283.628632,503.978729 
	C282.074005,505.480286 280.193268,507.072021 277.948151,508.571167 
z"/>
<path fill="#DFD23F" opacity="1.000000" stroke="none" 
	d="
M153.056610,469.472351 
	C152.405563,471.024750 151.397079,472.469574 150.466156,474.254028 
	C147.412262,471.549286 147.707123,470.834015 153.056610,469.472351 
z"/>
<path fill="#DFD23F" opacity="1.000000" stroke="none" 
	d="
M251.837769,459.061279 
	C251.156815,461.019592 250.124359,463.053894 248.836121,465.299500 
	C249.548996,463.386292 250.517624,461.261780 251.837769,459.061279 
z"/>
<path fill="#DBCE3F" opacity="1.000000" stroke="none" 
	d="
M377.084656,273.580994 
	C376.237427,274.813690 375.038971,275.936707 373.547516,277.162537 
	C374.414154,276.000671 375.573792,274.735992 377.084656,273.580994 
z"/>
<path fill="#DFD23F" opacity="1.000000" stroke="none" 
	d="
M161.432281,491.943573 
	C162.695877,492.797913 163.863632,494.011230 165.132477,495.530518 
	C163.934509,494.658539 162.635483,493.480530 161.432281,491.943573 
z"/>
<path fill="#DBCE3F" opacity="1.000000" stroke="none" 
	d="
M400.929443,463.808228 
	C399.638580,463.316711 398.370026,462.478882 396.945770,461.348328 
	C398.875977,460.649323 400.982422,460.207520 400.929443,463.808228 
z"/>
<path fill="#DFD23F" opacity="1.000000" stroke="none" 
	d="
M206.873917,464.795868 
	C205.822113,464.230133 204.789597,463.249969 203.616516,461.997192 
	C206.166443,460.614777 206.896698,462.026245 206.873917,464.795868 
z"/>
<path fill="#DBCE3F" opacity="1.000000" stroke="none" 
	d="
M454.540833,424.834778 
	C455.975708,425.421661 457.420746,426.367310 458.999847,427.612183 
	C457.606262,427.005463 456.078644,426.099518 454.540833,424.834778 
z"/>
<path fill="#DBCE3F" opacity="1.000000" stroke="none" 
	d="
M449.548523,421.874512 
	C451.101227,422.342499 452.585785,423.165619 454.286163,424.228821 
	C452.828125,423.722504 451.154266,422.976074 449.548523,421.874512 
z"/>
<path fill="#DBD03E" opacity="1.000000" stroke="none" 
	d="
M286.912109,501.519928 
	C287.501251,500.388306 288.446472,499.349609 289.672424,498.205505 
	C289.058167,499.270996 288.163177,500.441895 286.912109,501.519928 
z"/>
<path fill="#DFD23F" opacity="1.000000" stroke="none" 
	d="
M173.043335,503.301941 
	C174.284592,503.744873 175.542358,504.563873 176.931946,505.679016 
	C175.729141,505.209442 174.394485,504.443726 173.043335,503.301941 
z"/>
<path fill="#DFD23F" opacity="1.000000" stroke="none" 
	d="
M181.065582,452.451904 
	C180.179443,453.367310 178.933960,454.188263 177.365601,455.061554 
	C178.263901,454.195068 179.485062,453.276276 181.065582,452.451904 
z"/>
<path fill="#DFD23F" opacity="1.000000" stroke="none" 
	d="
M199.571533,456.028198 
	C198.539719,454.985443 197.596756,453.576080 196.549484,451.861694 
	C197.516922,452.924988 198.588669,454.293304 199.571533,456.028198 
z"/>
<path fill="#DFD23F" opacity="1.000000" stroke="none" 
	d="
M191.675171,513.754089 
	C191.922104,513.975525 191.431656,514.035889 191.188873,514.083740 
	C189.476196,513.484619 188.006302,512.837524 186.513458,511.826782 
	C188.136414,512.152954 189.782318,512.842834 191.675171,513.754089 
z"/>
<path fill="#DFD23F" opacity="1.000000" stroke="none" 
	d="
M157.112122,486.189880 
	C158.091873,486.969849 159.043686,488.124512 160.076294,489.593872 
	C159.132782,488.793854 158.108490,487.679230 157.112122,486.189880 
z"/>
<path fill="#DFD23F" opacity="1.000000" stroke="none" 
	d="
M156.821106,467.121765 
	C156.197342,467.891205 155.176117,468.612244 153.851242,469.430206 
	C154.506271,468.709198 155.464951,467.891266 156.821106,467.121765 
z"/>
<path fill="#DFD23F" opacity="1.000000" stroke="none" 
	d="
M170.369507,500.978210 
	C171.208435,501.217957 172.026230,501.809509 172.960098,502.685425 
	C172.166916,502.423187 171.257660,501.876587 170.369507,500.978210 
z"/>
<path fill="#DFD23F" opacity="1.000000" stroke="none" 
	d="
M176.765076,455.049805 
	C176.281921,455.687897 175.449249,456.312134 174.298477,456.971436 
	C174.792084,456.349640 175.603821,455.692780 176.765076,455.049805 
z"/>
<path fill="#DFD23F" opacity="1.000000" stroke="none" 
	d="
M171.144653,458.583862 
	C170.647705,459.179962 169.807632,459.739929 168.680145,460.398529 
	C169.195663,459.847382 169.998596,459.197540 171.144653,458.583862 
z"/>
<path fill="#DBD03E" opacity="1.000000" stroke="none" 
	d="
M249.244522,519.348389 
	C249.738983,518.981201 250.481766,518.788818 251.609314,518.599243 
	C251.160355,518.909119 250.326599,519.216187 249.244522,519.348389 
z"/>
<path fill="#DFD23F" opacity="1.000000" stroke="none" 
	d="
M202.497284,460.141602 
	C201.951324,459.873779 201.419449,459.281647 200.827179,458.393250 
	C201.348297,458.670441 201.929840,459.243866 202.497284,460.141602 
z"/>
<path fill="#DFD23F" opacity="1.000000" stroke="none" 
	d="
M173.677856,456.988495 
	C173.392059,457.458679 172.766052,457.930481 171.853424,458.496277 
	C172.157089,458.056885 172.747360,457.523499 173.677856,456.988495 
z"/>
<path fill="#DFD23F" opacity="1.000000" stroke="none" 
	d="
M151.088593,476.183685 
	C151.436340,476.351318 151.793472,476.836243 152.179657,477.632996 
	C151.838470,477.463562 151.468216,476.982269 151.088593,476.183685 
z"/>
<path fill="#DFD23F" opacity="1.000000" stroke="none" 
	d="
M160.135849,490.152161 
	C160.505112,490.238586 160.909012,490.637451 161.413910,491.313599 
	C161.066757,491.215424 160.618622,490.840027 160.135849,490.152161 
z"/>
<path fill="#DBD03E" opacity="1.000000" stroke="none" 
	d="
M284.189636,503.902588 
	C284.225250,503.535614 284.563232,503.123871 285.147583,502.588043 
	C285.093292,502.928589 284.792633,503.393250 284.189636,503.902588 
z"/>
<path fill="#DFD23F" opacity="1.000000" stroke="none" 
	d="
M200.833984,457.888855 
	C200.455139,457.792175 200.066345,457.373169 199.579651,456.676636 
	C199.929199,456.788239 200.376633,457.177399 200.833984,457.888855 
z"/>
<path fill="#DFD23F" opacity="1.000000" stroke="none" 
	d="
M183.194748,451.184387 
	C183.047913,451.573639 182.545807,451.969360 181.728012,452.458649 
	C181.888046,452.098419 182.363770,451.644623 183.194748,451.184387 
z"/>
<path fill="#DBCE3F" opacity="1.000000" stroke="none" 
	d="
M440.840759,256.693604 
	C440.921997,256.814056 440.452911,256.903687 440.230377,256.817139 
	C440.219513,256.458160 440.470093,256.405670 440.840759,256.693604 
z"/>
<path fill="#DBCE3F" opacity="1.000000" stroke="none" 
	d="
M378.203857,385.044373 
	C378.370392,384.877045 378.715088,384.904388 379.227905,385.162354 
	C379.058014,385.341675 378.720001,385.290375 378.203857,385.044373 
z"/>
<path fill="#DBCE3F" opacity="1.000000" stroke="none" 
	d="
M448.239136,421.058258 
	C448.413086,420.795654 448.731232,420.849060 449.203735,421.198425 
	C449.053802,421.331299 448.728912,421.291229 448.239136,421.058258 
z"/>
<path fill="#DFD23F" opacity="1.000000" stroke="none" 
	d="
M186.149063,449.480621 
	C186.157364,449.700806 185.888550,449.931458 185.344452,450.188873 
	C185.336746,449.974121 185.604355,449.732605 186.149063,449.480621 
z"/>
<path fill="#DFD23F" opacity="1.000000" stroke="none" 
	d="
M184.960693,450.180481 
	C184.975082,450.382019 184.733368,450.657257 184.206512,450.947906 
	C184.182465,450.726959 184.443527,450.490570 184.960693,450.180481 
z"/>
<path fill="#DBD03E" opacity="1.000000" stroke="none" 
	d="
M285.793121,502.342407 
	C285.649261,502.081879 285.815430,501.866150 286.243835,501.624146 
	C286.492828,501.903839 286.358521,502.166931 285.793121,502.342407 
z"/>
<path fill="#DFD23F" opacity="1.000000" stroke="none" 
	d="
M168.148804,460.472260 
	C168.150543,460.681763 167.876312,460.903900 167.332825,461.161652 
	C167.333313,460.959808 167.603088,460.722321 168.148804,460.472260 
z"/>
<path fill="#DFD23F" opacity="1.000000" stroke="none" 
	d="
M203.290710,461.213196 
	C203.006241,461.355377 202.795639,461.177673 202.592422,460.717957 
	C202.897507,460.483337 203.152435,460.635773 203.290710,461.213196 
z"/>
<path fill="#DFD23F" opacity="1.000000" stroke="none" 
	d="
M158.152161,466.524353 
	C158.157150,466.736206 157.888168,466.954803 157.354034,467.213440 
	C157.351974,467.012695 157.615082,466.771912 158.152161,466.524353 
z"/>
<path fill="#DFD23F" opacity="1.000000" stroke="none" 
	d="
M150.496704,474.843201 
	C150.712433,474.856262 150.916870,475.147675 151.130402,475.713806 
	C150.921448,475.699524 150.703445,475.410583 150.496704,474.843201 
z"/>
<path fill="#F5DD19" opacity="1.000000" stroke="none" 
	d="
M308.448120,447.619202 
	C308.710846,447.711731 308.737640,448.009338 308.569946,448.518951 
	C308.272675,448.446503 308.218262,448.144287 308.448120,447.619202 
z"/>
</svg>