<svg version="1.1" id="Layer_1" xmlns="http://www.w3.org/2000/svg" xmlns:xlink="http://www.w3.org/1999/xlink" x="0px" y="0px"
	 width="100%" viewBox="0 0 250 250" enable-background="new 0 0 250 250" xml:space="preserve">
<path fill="#FEFEFE" opacity="1.000000" stroke="none" 
	d="
M1.000000,94.000000 
	C1.000000,62.666672 1.000000,31.833344 1.000000,1.000012 
	C84.333313,1.000008 167.666626,1.000008 250.999954,1.000004 
	C250.999969,84.333298 250.999969,167.666595 250.999985,250.999908 
	C167.666718,250.999939 84.333435,250.999939 1.000075,250.999969 
	C1.000000,198.833328 1.000000,146.666672 1.000000,94.000000 
M63.838654,65.556747 
	C63.657383,65.872765 63.704281,66.119621 63.590797,67.199524 
	C63.468536,68.165161 63.346272,69.130791 62.885853,70.841568 
	C63.294914,78.871796 63.703972,86.902031 64.037674,95.641899 
	C64.179283,96.089798 64.320892,96.537697 64.411041,97.589195 
	C64.854095,98.467911 65.297142,99.346626 65.666443,100.220284 
	C65.666443,100.220284 65.652466,100.292885 65.723198,100.996758 
	C68.330254,107.532913 72.387619,112.290993 80.916389,112.862503 
	C84.267693,112.832787 87.618988,112.803078 91.803612,112.848083 
	C92.107597,107.558846 92.411591,102.269615 92.882156,96.323662 
	C92.861984,95.874443 92.841812,95.425217 93.007423,94.337151 
	C93.559105,93.157906 94.110786,91.978668 95.243500,91.149223 
	C95.799171,92.097916 96.354836,93.046600 96.965210,94.794479 
	C97.015511,95.858658 97.065811,96.922829 97.009903,98.913071 
	C97.060333,103.279236 97.110764,107.645409 97.027802,112.893150 
	C97.091576,115.265587 97.155350,117.638023 97.055153,120.868408 
	C97.071625,122.901512 97.088097,124.934608 96.955147,127.767067 
	C97.004860,128.843323 97.054565,129.919571 97.039536,131.738373 
	C97.047272,132.483627 97.055008,133.228882 96.579994,134.304337 
	C97.061363,134.862686 97.542740,135.421036 98.517891,136.233887 
	C98.994133,136.509155 99.470367,136.784409 100.158752,137.584763 
	C100.685501,138.115234 101.212257,138.645706 101.988495,139.634048 
	C102.284225,139.799820 102.579964,139.965591 102.868629,140.150940 
	C102.868629,140.150940 102.852005,140.163971 102.999771,140.771164 
	C103.675819,141.156555 104.351875,141.541931 105.367065,142.115967 
	C105.367065,142.115967 105.747261,142.193802 105.966789,142.823654 
	C107.029800,143.340286 108.092812,143.856903 109.798271,144.683975 
	C110.894623,145.074493 111.990974,145.465012 113.154724,146.629333 
	C120.925430,150.460480 129.124680,150.849091 137.421188,149.216476 
	C140.053055,148.698578 142.470123,147.089142 145.081741,145.531967 
	C145.081741,145.531967 145.096329,145.074707 145.043594,145.013626 
	C145.043594,145.013626 145.033310,145.093658 145.825958,145.137482 
	C146.882553,145.090073 147.939163,145.042679 149.403320,145.513626 
	C150.607834,144.695358 151.812332,143.877075 153.391907,142.741562 
	C153.643753,142.335007 153.895615,141.928452 154.796097,141.417831 
	C155.211792,141.285614 155.627487,141.153397 156.769974,141.006927 
	C161.733505,138.167816 164.596848,132.542191 164.053299,127.272125 
	C163.568329,122.570160 163.370178,117.838623 163.818466,113.012100 
	C164.854691,113.074333 165.890930,113.136559 166.975693,113.842804 
	C167.349167,114.401421 167.722641,114.960037 168.096085,115.518654 
	C168.421097,114.743736 168.746109,113.968826 169.727417,113.059090 
	C170.157486,112.944550 170.587540,112.830017 171.897964,112.904419 
	C174.585678,112.840996 177.273407,112.777565 180.617828,112.907333 
	C181.073776,112.924332 181.529709,112.941330 182.375061,113.477249 
	C183.250732,112.985100 184.126404,112.492950 185.261093,111.536217 
	C185.542145,111.091370 185.823181,110.646523 186.744019,110.034218 
	C187.882614,109.004051 189.021210,107.973892 190.599182,106.785797 
	C190.848557,106.588036 191.057480,106.354118 191.895248,105.936531 
	C195.923615,102.467567 198.896988,98.664734 196.002960,92.330109 
	C196.131546,91.904060 196.260132,91.478004 196.901520,90.933960 
	C196.938278,90.291275 196.975021,89.648582 196.967224,88.088844 
	C196.686005,84.215851 196.404785,80.342857 196.398880,75.829231 
	C196.312500,74.913811 196.226135,73.998398 196.478531,73.163078 
	C196.478531,73.163078 196.823929,73.105064 197.207474,72.846527 
	C196.921432,72.214455 196.635391,71.582382 196.099869,70.333847 
	C196.043762,69.895668 195.987640,69.457489 196.395813,68.733131 
	C196.048813,68.139206 195.701813,67.545273 195.146759,66.489349 
	C195.089828,66.330345 195.032883,66.171349 195.179611,65.542366 
	C195.228561,65.378807 195.277527,65.215248 195.975540,64.834557 
	C198.145081,61.282951 196.743927,59.182327 192.878235,57.387722 
	C192.593628,56.587231 192.309006,55.786743 192.513809,54.609085 
	C189.027222,45.807350 173.158478,41.550934 166.116119,47.537319 
	C166.017471,47.621174 166.043839,47.852093 166.001434,48.003510 
	C166.001434,48.003510 166.014511,48.012970 165.268829,47.998211 
	C164.523056,48.005951 163.777298,48.013691 163.014664,47.082649 
	C162.730530,41.734158 162.446396,36.385662 162.011993,30.272583 
	C161.569748,28.549419 161.127502,26.826258 160.577484,24.670912 
	C160.437439,24.406147 160.262222,24.167181 159.942871,23.289696 
	C157.919815,21.419878 155.896744,19.550058 153.426575,17.255402 
	C153.229904,17.195492 153.033249,17.135582 152.355469,16.568766 
	C140.530289,11.665196 128.331696,12.430173 115.504738,14.083122 
	C114.955444,14.212183 114.406151,14.341243 113.255913,14.394162 
	C112.868477,14.487654 112.481041,14.581144 111.497322,14.624015 
	C109.501472,15.361255 107.505623,16.098494 104.831474,16.905645 
	C99.573875,18.745392 97.206390,22.568581 97.026405,28.934681 
	C97.026405,33.654667 97.026405,38.374653 97.026405,43.374786 
	C108.068588,43.374786 118.446426,43.374786 128.887878,43.367203 
	C128.887878,43.367203 128.814117,43.392384 128.877808,44.110958 
	C128.906342,45.071087 128.934875,46.031219 128.539734,47.046223 
	C128.242584,47.108829 128.016541,47.270706 127.008438,47.606556 
	C125.004250,47.703682 123.000061,47.800808 120.134148,47.695965 
	C117.792145,47.656136 115.450134,47.616302 112.426140,47.163349 
	C109.250359,47.304974 106.074570,47.446602 102.071075,47.640179 
	C100.412270,47.625641 98.753464,47.611103 96.383743,47.176620 
	C91.231606,47.392834 86.079475,47.609043 80.201424,47.961964 
	C78.469276,48.685539 76.737122,49.409111 74.354973,50.154881 
	C73.452293,50.972942 72.549606,51.791004 71.658859,52.714794 
	C71.658859,52.714794 71.734642,52.640099 71.051025,52.680019 
	C70.260902,53.723198 69.470772,54.766373 68.806946,55.775742 
	C68.806946,55.775742 68.709641,55.688412 68.114067,55.855328 
	C67.724060,56.557281 67.334061,57.259232 67.003426,57.992958 
	C67.003426,57.992958 66.957802,57.942963 66.424210,58.386578 
	C65.907852,59.919285 65.391487,61.451988 64.960335,62.970898 
	C64.960335,62.970898 64.931801,62.889435 64.452942,63.264393 
	C64.362274,63.850166 64.271599,64.435936 64.006454,65.177963 
	C64.006454,65.177963 64.094322,65.395073 63.838654,65.556747 
M190.107590,219.665802 
	C190.764526,219.976349 191.421463,220.286911 192.770264,220.805847 
	C195.843445,221.292328 195.337296,219.148392 195.330933,217.343903 
	C195.309219,211.191589 195.669479,205.009552 195.176239,198.895950 
	C194.755463,193.680527 197.391647,192.092667 201.719742,191.593094 
	C207.396027,190.937927 210.522781,193.564102 210.652939,199.481247 
	C210.808258,206.542267 210.689545,213.609299 210.689545,220.895721 
	C213.032562,220.764572 214.474533,220.683868 216.322937,220.580414 
	C216.322937,213.385254 216.336044,206.424164 216.319641,199.463150 
	C216.298904,190.664352 213.023071,187.422256 204.097931,187.971268 
	C201.029617,188.160004 198.023880,189.365570 194.443863,190.080887 
	C194.230301,190.365326 194.016754,190.649765 193.081268,191.142563 
	C192.050842,192.783600 190.200745,194.391586 190.133057,196.071426 
	C189.852371,203.035706 190.110168,210.021698 190.020782,217.668854 
	C190.076263,218.119278 190.131729,218.569702 190.107590,219.665802 
M149.610718,220.424240 
	C149.771530,219.938919 149.932327,219.453613 150.278824,218.050003 
	C150.288605,211.554382 150.406189,205.056656 150.279694,198.563690 
	C150.135742,191.174515 145.470581,187.253357 138.129883,188.440964 
	C135.398941,188.882767 132.782623,190.033295 129.427963,191.073334 
	C129.427963,183.920166 129.427963,177.049728 129.427963,170.122879 
	C124.950256,170.014847 123.721024,171.802139 123.843773,175.587204 
	C124.097374,183.407288 123.901276,191.241837 123.896286,199.070435 
	C123.891754,206.184387 123.895340,213.298355 123.895340,220.480316 
	C126.043015,220.480316 127.569084,220.480316 129.502548,220.480316 
	C129.502548,213.638687 129.493851,207.162033 129.505280,200.685410 
	C129.514542,195.441772 133.112000,192.047012 138.569809,192.103394 
	C142.491821,192.143906 144.865631,195.239197 144.936096,200.633560 
	C145.010071,206.295898 145.084061,211.963654 144.913605,217.621674 
	C144.817764,220.802887 146.091370,221.449417 149.610718,220.424240 
M35.028336,217.499039 
	C35.027885,222.165604 35.246494,226.845551 34.962837,231.494843 
	C34.700695,235.791504 36.761036,236.926361 40.996666,236.759354 
	C40.996666,230.798691 40.996666,225.086838 40.996666,218.975861 
	C47.092861,221.715347 52.698166,222.926590 57.970783,218.727295 
	C64.555603,213.482941 65.510765,200.183533 59.958858,192.559799 
	C55.938171,187.038696 45.820530,186.160843 38.550491,190.552322 
	C36.019844,192.080963 34.841339,193.907700 34.951984,197.002289 
	C35.184086,203.493851 35.022549,209.999496 35.028336,217.499039 
M69.068100,199.544006 
	C69.068176,203.039551 69.044418,206.535309 69.073250,210.030609 
	C69.135406,217.565536 73.488350,221.704483 81.078018,221.189804 
	C84.315796,220.970245 87.520164,220.258087 90.738182,219.769989 
	C91.885963,228.392471 89.558495,231.696060 81.427254,233.176437 
	C80.937675,233.265564 80.297035,233.104950 79.966415,233.365158 
	C79.302048,233.888046 78.298058,234.681686 78.366158,235.252426 
	C78.448296,235.940933 79.404457,236.894791 80.143799,237.076431 
	C85.801636,238.466431 95.447945,232.643204 95.714424,226.724304 
	C96.279778,214.167297 95.886894,201.567139 95.886894,188.756470 
	C94.590317,188.756470 92.907974,188.756470 90.955132,188.756470 
	C90.955132,196.475784 91.064102,203.794250 90.867638,211.104507 
	C90.825912,212.656967 90.003952,214.471146 88.964325,215.660080 
	C86.069717,218.970413 82.344162,217.933411 78.955856,216.684601 
	C75.508995,215.414230 74.736198,212.380951 74.783401,208.944229 
	C74.876373,202.175842 74.810791,195.405258 74.810791,188.599457 
	C70.651443,188.352356 68.462364,189.416290 69.028877,193.580933 
	C69.251205,195.215408 69.067558,196.905121 69.068100,199.544006 
M157.566284,213.740677 
	C159.792831,215.868820 161.662216,218.774658 164.308060,219.989807 
	C175.452942,225.108246 185.523483,216.728546 185.092392,203.016922 
	C184.838104,194.928558 179.671753,188.716675 172.571350,187.961960 
	C164.016785,187.052673 157.633408,190.987534 156.063797,199.500565 
	C155.269913,203.806366 156.751175,208.531662 157.566284,213.740677 
M102.522003,191.293671 
	C105.399994,191.786987 106.299866,193.401260 106.166618,196.352310 
	C105.911530,202.001770 105.903076,207.682800 106.188156,213.330750 
	C106.506439,219.636398 111.823990,222.592087 118.631668,219.575989 
	C117.010063,218.794754 115.803825,218.516525 115.044617,217.778473 
	C113.838058,216.605484 112.095390,215.161346 112.035782,213.769547 
	C111.731796,206.671906 111.895424,199.554245 111.895424,193.252975 
	C114.319527,192.057800 116.046036,191.206573 117.772552,190.355331 
	C115.993378,189.349319 114.214203,188.343307 111.785233,186.969879 
	C111.785233,184.590790 111.785233,181.487808 111.785233,176.857819 
	C109.281013,178.611237 106.266640,179.908264 106.385460,180.776520 
	C106.965874,185.017868 105.109856,187.863205 102.522003,191.293671 
z"/>
<path fill="#336996" opacity="1.000000" stroke="none" 
	d="
M160.685272,25.103094 
	C161.127502,26.826258 161.569748,28.549419 162.006027,31.113766 
	C162.025314,42.968838 162.050568,53.982723 161.895233,65.297348 
	C160.770706,67.712326 159.826736,69.826576 158.920502,71.954620 
	C158.958237,71.968399 158.971313,71.889137 158.734619,71.996346 
	C158.343048,72.406563 158.188202,72.709564 157.714874,73.149063 
	C153.443985,77.036278 148.713058,78.216843 143.330139,78.213623 
	C131.268890,78.206406 119.207405,78.547729 107.108826,78.311966 
	C107.048218,77.586578 107.024803,77.296356 107.358673,76.967613 
	C110.146935,76.621742 112.577888,76.314377 115.416382,76.006775 
	C119.998032,76.006531 124.172142,76.006531 129.087906,76.006531 
	C127.667542,74.270805 126.857658,73.281105 125.745796,71.922379 
	C130.483383,69.944427 136.025742,72.236687 140.132217,67.714012 
	C137.818878,67.145020 136.110382,66.724792 135.228271,66.507828 
	C138.310852,63.058914 141.404892,59.773037 144.290359,56.313232 
	C146.603973,53.539085 148.258224,50.092331 150.916489,47.752182 
	C157.839539,41.657669 161.774216,34.633183 160.161194,25.163818 
	C160.337418,25.160341 160.685272,25.103094 160.685272,25.103094 
z"/>
<path fill="#FCD442" opacity="1.000000" stroke="none" 
	d="
M154.147461,141.521896 
	C153.895615,141.928452 153.643753,142.335007 152.859009,142.882874 
	C151.232910,143.356125 150.139709,143.688065 148.672333,144.007553 
	C147.209869,144.361282 146.121597,144.727463 145.033310,145.093658 
	C145.033310,145.093658 145.043594,145.013626 144.622879,145.013245 
	C139.130341,145.861313 134.058533,146.709778 128.598465,147.647537 
	C126.141785,147.482544 124.073349,147.228226 121.830162,146.654236 
	C120.049980,145.595840 118.511154,144.503586 116.826340,144.186157 
	C112.184586,143.311646 110.862633,139.912415 110.300850,135.882935 
	C111.396461,135.503082 112.198860,135.252029 113.052193,135.341400 
	C114.729996,136.121704 116.687737,137.365219 117.923958,136.856247 
	C122.269371,135.067154 126.366753,132.675613 130.579498,130.501770 
	C130.127228,129.220169 129.559036,127.610085 128.995422,125.999847 
	C129.000000,125.999695 129.000000,125.990540 129.380005,126.001678 
	C130.515427,126.521652 131.418839,126.900864 131.999069,127.563187 
	C133.885986,129.717056 134.988312,129.720673 136.056488,126.774742 
	C138.072571,121.214485 143.019119,118.015457 148.998306,118.009041 
	C151.151550,118.006737 153.319977,118.169960 155.454544,117.970131 
	C158.823517,117.654747 160.320404,118.788246 160.061768,122.384880 
	C159.825150,125.675224 160.101227,129.002457 160.134766,132.678085 
	C158.766983,135.374725 157.415863,137.706711 155.721863,140.065170 
	C154.968475,140.568405 154.557968,141.045151 154.147461,141.521896 
M149.152390,125.082726 
	C143.761230,125.311462 141.187988,127.422951 141.470718,131.385956 
	C141.753555,135.350464 145.038696,138.009674 149.207138,136.934341 
	C150.949448,136.484879 153.685120,134.160095 153.506500,133.104706 
	C153.041245,130.355301 151.213913,127.836411 149.152390,125.082726 
z"/>
<path fill="#3C79AA" opacity="1.000000" stroke="none" 
	d="
M97.094658,47.596565 
	C98.753464,47.611103 100.412270,47.625641 102.930817,47.758011 
	C106.896416,47.776054 110.002274,47.676262 113.108131,47.576469 
	C115.450134,47.616302 117.792145,47.656136 120.566254,48.217964 
	C121.433998,57.081463 111.364929,59.330994 110.467285,66.899284 
	C104.317184,67.334229 104.825890,71.767921 104.752151,76.003151 
	C104.503052,76.004868 104.004883,76.007149 103.628319,76.005295 
	C102.169579,76.669556 101.087402,77.335670 99.655243,78.056763 
	C98.532181,79.747688 97.759094,81.383629 96.737915,83.301285 
	C96.633293,84.050613 96.776764,84.518242 96.864227,84.970741 
	C96.808212,84.955612 96.742180,84.860207 96.379547,84.652420 
	C95.013611,84.633301 94.010315,84.821960 93.123550,84.718857 
	C93.299988,83.820557 93.359879,83.214005 93.419769,82.607460 
	C92.750626,82.870697 91.762360,82.944122 91.471832,83.432564 
	C90.580025,84.931877 90.384026,87.334404 89.146660,88.046692 
	C85.494942,90.148827 82.730507,92.383255 82.666824,97.078621 
	C82.653839,98.036362 80.758545,99.667297 79.608528,99.784271 
	C75.623947,100.189537 76.255730,102.469658 77.000305,104.999695 
	C77.000000,105.000000 76.999390,105.000610 76.636078,105.004654 
	C75.176559,105.999832 74.080360,106.990967 72.674866,107.832916 
	C71.239799,105.455956 70.114029,103.228172 69.323936,100.850204 
	C70.432030,99.733688 71.368134,98.854790 71.941154,97.781960 
	C72.979218,95.838448 73.457909,93.511986 74.777718,91.819077 
	C78.598190,86.918594 82.739319,82.269104 86.719955,77.492233 
	C92.789070,70.209145 98.842323,62.912712 104.872025,55.596973 
	C106.344658,53.810265 107.699562,51.926521 109.936935,49.006184 
	C103.546265,49.006184 98.770691,49.006184 93.551895,49.004658 
	C90.081421,48.724037 87.054153,48.444942 84.486771,48.113075 
	C88.995987,47.905724 93.045319,47.751144 97.094658,47.596565 
z"/>
<path fill="#417EB0" opacity="1.000000" stroke="none" 
	d="
M93.995117,49.006184 
	C98.770691,49.006184 103.546265,49.006184 109.936935,49.006184 
	C107.699562,51.926521 106.344658,53.810265 104.872025,55.596973 
	C98.842323,62.912712 92.789070,70.209145 86.719955,77.492233 
	C82.739319,82.269104 78.598190,86.918594 74.777718,91.819077 
	C73.457909,93.511986 72.979218,95.838448 71.941154,97.781960 
	C71.368134,98.854790 70.432030,99.733688 69.003189,100.710724 
	C67.448669,100.578583 66.550568,100.435730 65.652466,100.292885 
	C65.652466,100.292885 65.666443,100.220284 65.782944,99.884537 
	C65.420464,98.694389 64.941475,97.839996 64.462494,96.985596 
	C64.320892,96.537697 64.179283,96.089798 64.333496,95.038887 
	C64.102379,90.967697 63.575436,87.499519 63.411243,84.016464 
	C68.845001,79.668808 74.044235,75.474327 78.931374,70.943222 
	C81.274460,68.770844 83.220871,66.090591 85.004211,63.412163 
	C88.139946,58.702564 91.012405,53.817669 93.995117,49.006184 
z"/>
<path fill="#3873A2" opacity="1.000000" stroke="none" 
	d="
M105.001259,76.001434 
	C104.825890,71.767921 104.317184,67.334229 110.467285,66.899284 
	C111.364929,59.330994 121.433998,57.081463 120.997116,48.318951 
	C123.000061,47.800808 125.004250,47.703682 127.661148,47.709778 
	C128.661011,47.733540 129.008148,47.654076 129.355301,47.574612 
	C129.224670,47.380188 129.094040,47.185768 128.963409,46.991348 
	C128.934875,46.031219 128.906342,45.071087 129.171692,43.675850 
	C133.080170,45.417618 134.849228,43.106670 136.823654,40.497635 
	C141.974350,33.691387 146.177399,25.845709 155.346725,22.915627 
	C156.104248,23.266987 156.569992,23.580084 157.052780,24.255346 
	C158.451965,27.194876 157.129227,28.325680 154.941666,29.643658 
	C152.156860,31.321472 148.841370,33.109230 147.337326,35.750744 
	C140.789917,47.249798 132.678192,57.308643 122.174248,65.572891 
	C125.193260,69.221718 123.385124,70.876183 119.779144,70.889847 
	C116.009048,70.904152 114.586060,72.420937 115.008850,76.007019 
	C112.577888,76.314377 110.146935,76.621742 107.099854,76.859222 
	C105.989571,76.526703 105.495415,76.264069 105.001259,76.001434 
z"/>
<path fill="#6B6B6B" opacity="1.000000" stroke="none" 
	d="
M35.025482,216.999207 
	C35.022549,209.999496 35.184086,203.493851 34.951984,197.002289 
	C34.841339,193.907700 36.019844,192.080963 38.550491,190.552322 
	C45.820530,186.160843 55.938171,187.038696 59.958858,192.559799 
	C65.510765,200.183533 64.555603,213.482941 57.970783,218.727295 
	C52.698166,222.926590 47.092861,221.715347 40.996666,218.975861 
	C40.996666,225.086838 40.996666,230.798691 40.996666,236.759354 
	C36.761036,236.926361 34.700695,235.791504 34.962837,231.494843 
	C35.246494,226.845551 35.027885,222.165604 35.025482,216.999207 
M40.773029,207.386230 
	C40.776222,208.549713 40.766014,209.713409 40.784916,210.876648 
	C40.870594,216.149933 46.905155,219.624283 51.460850,217.027679 
	C57.816601,213.405060 59.579403,197.392273 53.488499,193.352905 
	C50.999737,191.702423 46.584099,192.348083 43.228779,192.958679 
	C42.119881,193.160446 41.196457,196.466293 40.887554,198.461166 
	C40.485249,201.059204 40.779488,203.765106 40.773029,207.386230 
z"/>
<path fill="#6E6E6E" opacity="1.000000" stroke="none" 
	d="
M69.068451,199.056839 
	C69.067558,196.905121 69.251205,195.215408 69.028877,193.580933 
	C68.462364,189.416290 70.651443,188.352356 74.810791,188.599457 
	C74.810791,195.405258 74.876373,202.175842 74.783401,208.944229 
	C74.736198,212.380951 75.508995,215.414230 78.955856,216.684601 
	C82.344162,217.933411 86.069717,218.970413 88.964325,215.660080 
	C90.003952,214.471146 90.825912,212.656967 90.867638,211.104507 
	C91.064102,203.794250 90.955132,196.475784 90.955132,188.756470 
	C92.907974,188.756470 94.590317,188.756470 95.886894,188.756470 
	C95.886894,201.567139 96.279778,214.167297 95.714424,226.724304 
	C95.447945,232.643204 85.801636,238.466431 80.143799,237.076431 
	C79.404457,236.894791 78.448296,235.940933 78.366158,235.252426 
	C78.298058,234.681686 79.302048,233.888046 79.966415,233.365158 
	C80.297035,233.104950 80.937675,233.265564 81.427254,233.176437 
	C89.558495,231.696060 91.885963,228.392471 90.738182,219.769989 
	C87.520164,220.258087 84.315796,220.970245 81.078018,221.189804 
	C73.488350,221.704483 69.135406,217.565536 69.073250,210.030609 
	C69.044418,206.535309 69.068176,203.039551 69.068451,199.056839 
z"/>
<path fill="#4986B6" opacity="1.000000" stroke="none" 
	d="
M93.551895,49.004658 
	C91.012405,53.817669 88.139946,58.702564 85.004211,63.412163 
	C83.220871,66.090591 81.274460,68.770844 78.931374,70.943222 
	C74.044235,75.474327 68.845001,79.668808 63.391617,83.562714 
	C63.080826,78.781364 63.152420,74.438896 63.224010,70.096428 
	C63.346272,69.130791 63.468536,68.165161 63.762630,66.639381 
	C63.933704,65.836418 63.986988,65.608360 64.094322,65.395073 
	C64.094322,65.395073 64.006454,65.177963 64.303185,64.891541 
	C64.710548,64.033226 64.821175,63.461330 64.931801,62.889435 
	C64.931801,62.889435 64.960335,62.970898 65.219025,62.789841 
	C65.971069,61.053513 66.464439,59.498238 66.957802,57.942963 
	C66.957802,57.942963 67.003426,57.992958 67.322769,57.944557 
	C67.997955,57.160240 68.353798,56.424324 68.709641,55.688412 
	C68.709641,55.688412 68.806946,55.775742 69.088913,55.753319 
	C70.158798,54.700634 70.946716,53.670364 71.734642,52.640099 
	C71.734642,52.640099 71.658859,52.714794 72.008057,52.771889 
	C73.239822,51.930222 74.122398,51.031452 75.004974,50.132683 
	C76.737122,49.409111 78.469276,48.685539 80.947426,47.969757 
	C82.471252,48.040318 83.249069,48.103081 84.026894,48.165848 
	C87.054153,48.444942 90.081421,48.724037 93.551895,49.004658 
z"/>
<path fill="#676767" opacity="1.000000" stroke="none" 
	d="
M148.800980,220.461700 
	C146.091370,221.449417 144.817764,220.802887 144.913605,217.621674 
	C145.084061,211.963654 145.010071,206.295898 144.936096,200.633560 
	C144.865631,195.239197 142.491821,192.143906 138.569809,192.103394 
	C133.112000,192.047012 129.514542,195.441772 129.505280,200.685410 
	C129.493851,207.162033 129.502548,213.638687 129.502548,220.480316 
	C127.569084,220.480316 126.043015,220.480316 123.895340,220.480316 
	C123.895340,213.298355 123.891754,206.184387 123.896286,199.070435 
	C123.901276,191.241837 124.097374,183.407288 123.843773,175.587204 
	C123.721024,171.802139 124.950256,170.014847 129.427963,170.122879 
	C129.427963,177.049728 129.427963,183.920166 129.427963,191.073334 
	C132.782623,190.033295 135.398941,188.882767 138.129883,188.440964 
	C145.470581,187.253357 150.135742,191.174515 150.279694,198.563690 
	C150.406189,205.056656 150.288605,211.554382 149.893982,218.679611 
	C149.273087,219.693375 149.037033,220.077530 148.800980,220.461700 
z"/>
<path fill="#FEE770" opacity="1.000000" stroke="none" 
	d="
M97.161194,112.011581 
	C97.110764,107.645409 97.060333,103.279236 97.373352,98.303619 
	C100.960457,97.262665 104.184113,96.831169 107.407761,96.399666 
	C107.417465,96.108749 107.427162,95.817825 107.436859,95.526901 
	C105.057480,95.172752 102.678101,94.818596 100.453537,94.487488 
	C102.824791,87.228455 107.976715,84.336952 114.673401,84.121628 
	C122.441200,83.871864 130.221863,84.022339 137.989838,84.378754 
	C136.845352,86.041473 135.900925,88.105766 134.530273,88.444298 
	C131.709335,89.140984 128.659058,88.892883 125.707329,89.094559 
	C125.293129,89.122864 124.902405,89.494881 124.203400,89.865486 
	C125.172653,90.698296 125.936012,91.354195 126.965462,92.238716 
	C122.110695,95.805954 117.676819,99.339722 112.964592,102.452049 
	C107.831429,105.842415 102.440018,108.841766 97.161194,112.011581 
z"/>
<path fill="#FED94E" opacity="1.000000" stroke="none" 
	d="
M196.139771,73.082977 
	C196.226135,73.998398 196.312500,74.913811 196.231628,76.574478 
	C196.035614,77.883423 196.006851,78.447105 195.626968,79.045441 
	C183.045807,87.371925 170.675568,95.469307 158.695938,104.108353 
	C156.083755,105.992126 154.867905,109.812149 152.568466,112.847580 
	C149.424210,112.883080 146.720474,112.811409 144.013763,112.371628 
	C143.238800,106.838585 145.485001,103.467598 150.723907,101.142204 
	C153.868790,99.746269 157.936752,98.556557 159.527420,95.993950 
	C161.644165,92.583817 164.511780,91.095352 167.522430,89.123604 
	C175.828445,83.683800 183.926224,77.924866 192.067657,72.236771 
	C192.848557,71.691177 193.358963,70.758423 194.002930,70.368454 
	C194.720520,71.515335 195.430130,72.299156 196.139771,73.082977 
z"/>
<path fill="#6A6A6A" opacity="1.000000" stroke="none" 
	d="
M157.385025,213.403992 
	C156.751175,208.531662 155.269913,203.806366 156.063797,199.500565 
	C157.633408,190.987534 164.016785,187.052673 172.571350,187.961960 
	C179.671753,188.716675 184.838104,194.928558 185.092392,203.016922 
	C185.523483,216.728546 175.452942,225.108246 164.308060,219.989807 
	C161.662216,218.774658 159.792831,215.868820 157.385025,213.403992 
M167.176224,192.132828 
	C161.432175,195.688766 159.570633,204.736481 162.939178,212.533981 
	C164.468170,216.073273 166.933090,218.278595 170.955948,217.901276 
	C174.870728,217.534088 177.477783,215.184753 178.170288,211.411499 
	C178.791763,208.025299 179.107956,204.473343 178.827744,201.054413 
	C178.257584,194.097885 175.071457,191.634628 167.176224,192.132828 
z"/>
<path fill="#FDD648" opacity="1.000000" stroke="none" 
	d="
M153.008972,112.740417 
	C154.867905,109.812149 156.083755,105.992126 158.695938,104.108353 
	C170.675568,95.469307 183.045807,87.371925 195.632935,79.478203 
	C195.331253,83.249779 194.672470,86.623245 193.661621,90.032684 
	C190.325287,91.817535 187.188721,93.362816 184.436462,95.421814 
	C183.425018,96.178482 183.109512,98.116478 182.881226,99.578804 
	C182.734116,100.520988 183.323486,101.578171 183.582794,102.583809 
	C183.294342,102.805939 183.005905,103.028061 182.717453,103.250191 
	C181.035156,101.979187 179.352844,100.708183 178.470306,100.041420 
	C176.002289,101.734222 174.026779,103.328529 171.835449,104.528801 
	C169.356796,105.886459 168.091797,107.229675 170.248901,109.915466 
	C170.805054,110.607925 170.777206,111.769432 171.017609,112.715485 
	C170.587540,112.830017 170.157486,112.944550 169.045502,113.033920 
	C167.884766,113.072105 167.405960,113.135452 166.927155,113.198792 
	C165.890930,113.136559 164.854691,113.074333 163.080292,112.996033 
	C161.872437,113.046585 161.402740,113.113205 160.497437,113.122345 
	C157.710892,112.956718 155.359924,112.848572 153.008972,112.740417 
z"/>
<path fill="#FFE267" opacity="1.000000" stroke="none" 
	d="
M97.094498,112.452362 
	C102.440018,108.841766 107.831429,105.842415 112.964592,102.452049 
	C117.676819,99.339722 122.110695,95.805954 126.965462,92.238716 
	C125.936012,91.354195 125.172653,90.698296 124.203400,89.865486 
	C124.902405,89.494881 125.293129,89.122864 125.707329,89.094559 
	C128.659058,88.892883 131.709335,89.140984 134.530273,88.444298 
	C135.900925,88.105766 136.845352,86.041473 138.408722,84.377541 
	C140.889816,84.331306 142.944916,84.665955 144.994141,85.383324 
	C143.466461,87.152649 140.957336,88.324318 140.600250,89.964508 
	C139.315201,95.867165 134.707657,97.877480 130.238388,100.452858 
	C125.246147,103.329605 120.614883,106.828583 115.652397,109.762245 
	C109.602737,113.338608 103.371712,116.608185 97.219131,120.010460 
	C97.155350,117.638023 97.091576,115.265587 97.094498,112.452362 
z"/>
<path fill="#676767" opacity="1.000000" stroke="none" 
	d="
M194.989548,190.106613 
	C198.023880,189.365570 201.029617,188.160004 204.097931,187.971268 
	C213.023071,187.422256 216.298904,190.664352 216.319641,199.463150 
	C216.336044,206.424164 216.322937,213.385254 216.322937,220.580414 
	C214.474533,220.683868 213.032562,220.764572 210.689545,220.895721 
	C210.689545,213.609299 210.808258,206.542267 210.652939,199.481247 
	C210.522781,193.564102 207.396027,190.937927 201.719742,191.593094 
	C197.391647,192.092667 194.755463,193.680527 195.176239,198.895950 
	C195.669479,205.009552 195.309219,211.191589 195.330933,217.343903 
	C195.337296,219.148392 195.843445,221.292328 192.587845,220.526611 
	C192.711380,219.937973 193.017349,219.628601 193.323303,219.319214 
	C192.881882,219.210968 192.440475,219.102737 191.964661,218.688232 
	C191.343567,217.921204 190.756912,217.460464 190.170258,216.999725 
	C190.110168,210.021698 189.852371,203.035706 190.133057,196.071426 
	C190.200745,194.391586 192.050842,192.783600 193.737183,191.067535 
	C194.589737,191.002228 194.786362,191.011932 195.041779,191.161270 
	C195.192596,191.347595 195.284622,191.394272 195.376633,191.440948 
	C195.258011,191.288498 195.139374,191.136063 195.013763,190.764328 
	C195.006775,190.545044 194.989548,190.106613 194.989548,190.106613 
z"/>
<path fill="#FFDF60" opacity="1.000000" stroke="none" 
	d="
M97.137146,120.439438 
	C103.371712,116.608185 109.602737,113.338608 115.652397,109.762245 
	C120.614883,106.828583 125.246147,103.329605 130.238388,100.452858 
	C134.707657,97.877480 139.315201,95.867165 140.600250,89.964508 
	C140.957336,88.324318 143.466461,87.152649 145.410675,85.382843 
	C147.221466,84.996292 148.609879,84.992928 149.999084,85.400085 
	C150.666168,88.873543 151.332474,91.936470 151.586731,94.999390 
	C148.774429,95.295769 145.545059,93.885994 144.674072,98.144104 
	C140.565628,100.525269 136.783112,102.762329 133.000305,104.999695 
	C133.000000,105.000000 132.999390,105.000305 132.632446,105.004349 
	C131.000549,105.682030 129.675751,106.263939 128.479996,107.043709 
	C118.312134,113.674232 108.167755,120.340767 97.788422,126.988449 
	C97.560509,126.980392 97.104576,126.967712 97.104576,126.967712 
	C97.088097,124.934608 97.071625,122.901512 97.137146,120.439438 
z"/>
<path fill="#F5F7E4" opacity="1.000000" stroke="none" 
	d="
M107.146019,78.747124 
	C119.207405,78.547729 131.268890,78.206406 143.330139,78.213623 
	C148.713058,78.216843 153.443985,77.036278 157.928070,73.015076 
	C158.630249,72.459450 158.800781,72.174294 158.971313,71.889137 
	C158.971313,71.889137 158.958237,71.968399 159.279938,71.945206 
	C160.740356,69.604034 161.879089,67.286064 163.016296,64.502495 
	C163.020370,58.698414 163.025940,53.359924 163.031525,48.021431 
	C163.777298,48.013691 164.523056,48.005951 165.654755,48.472195 
	C166.183716,59.173027 167.206757,69.617340 158.637527,77.858414 
	C157.917740,78.328712 157.480545,78.701691 156.720032,79.066193 
	C155.596146,79.699074 154.795547,80.340424 153.669952,80.994644 
	C152.924561,81.110359 152.504181,81.213196 151.666809,81.274277 
	C140.700928,81.517784 130.136414,82.288109 119.607552,81.949524 
	C109.432320,81.622314 101.602234,84.551895 96.910500,93.995293 
	C96.354836,93.046600 95.799171,92.097916 95.011230,90.600571 
	C95.433365,88.321342 96.087776,86.590775 96.742180,84.860207 
	C96.742180,84.860207 96.808212,84.955612 97.036095,85.026154 
	C97.874992,84.420372 98.486008,83.744057 99.363113,82.966583 
	C100.105766,82.292938 100.582329,81.720451 101.379608,81.110336 
	C102.170654,80.728333 102.640991,80.383957 103.338547,80.014099 
	C103.565765,79.988609 104.005463,79.862968 104.291481,79.906013 
	C105.433670,79.548416 106.289848,79.147766 107.146019,78.747124 
z"/>
<path fill="#FAE580" opacity="1.000000" stroke="none" 
	d="
M158.920120,77.761101 
	C167.206757,69.617340 166.183716,59.173027 166.027603,48.479576 
	C166.014511,48.012970 166.001434,48.003510 166.473267,48.000526 
	C176.038940,47.692806 185.409790,46.394100 192.024384,54.986252 
	C192.309006,55.786743 192.593628,56.587231 193.011597,58.043251 
	C193.872131,60.816418 194.599319,62.934055 195.326508,65.051689 
	C195.277527,65.215248 195.228561,65.378807 194.834259,65.775497 
	C194.488907,66.008636 194.001709,65.999725 193.838379,65.751434 
	C193.121613,65.323868 192.568176,65.144600 192.014069,64.722931 
	C192.013412,64.480545 192.007034,63.995815 192.010208,63.591980 
	C190.364380,59.727196 188.715393,56.266247 186.832657,52.314747 
	C180.986130,56.388065 177.620651,62.335545 170.673706,62.388134 
	C169.957260,62.393562 169.058731,63.933228 168.576462,64.922699 
	C166.312393,69.567764 164.164307,74.269371 161.621033,78.952087 
	C160.484894,78.555969 159.702499,78.158531 158.920120,77.761101 
z"/>
<path fill="#FDDC5B" opacity="1.000000" stroke="none" 
	d="
M98.016335,126.996506 
	C108.167755,120.340767 118.312134,113.674232 128.479996,107.043709 
	C129.675751,106.263939 131.000549,105.682030 132.633362,105.402885 
	C133.334320,108.112976 133.667419,110.428581 133.627136,112.836487 
	C131.955688,113.583466 130.657623,114.238152 129.244812,115.219810 
	C129.136200,116.006775 129.142319,116.466774 128.814407,116.982254 
	C127.987419,117.691650 127.494476,118.345573 126.629097,119.004196 
	C119.807297,122.570244 113.288338,126.015579 106.974419,129.802750 
	C105.873123,130.463318 105.635567,132.563889 104.637993,134.036743 
	C102.871979,134.386765 101.467049,134.699448 99.864716,134.768707 
	C99.077438,134.373856 98.487556,134.222458 97.690819,134.030670 
	C97.483963,133.990265 97.062752,133.974136 97.062744,133.974136 
	C97.055008,133.228882 97.047272,132.483627 97.322159,131.121277 
	C97.741959,129.334961 97.879150,128.165726 98.016335,126.996506 
z"/>
<path fill="#717171" opacity="1.000000" stroke="none" 
	d="
M102.432343,190.900803 
	C105.109856,187.863205 106.965874,185.017868 106.385460,180.776520 
	C106.266640,179.908264 109.281013,178.611237 111.785233,176.857819 
	C111.785233,181.487808 111.785233,184.590790 111.785233,186.969879 
	C114.214203,188.343307 115.993378,189.349319 117.772552,190.355331 
	C116.046036,191.206573 114.319527,192.057800 111.895424,193.252975 
	C111.895424,199.554245 111.731796,206.671906 112.035782,213.769547 
	C112.095390,215.161346 113.838058,216.605484 115.044617,217.778473 
	C115.803825,218.516525 117.010063,218.794754 118.631668,219.575989 
	C111.823990,222.592087 106.506439,219.636398 106.188156,213.330750 
	C105.903076,207.682800 105.911530,202.001770 106.166618,196.352310 
	C106.299866,193.401260 105.399994,191.786987 102.432343,190.900803 
z"/>
<path fill="#3874A4" opacity="1.000000" stroke="none" 
	d="
M72.984161,107.982101 
	C74.080360,106.990967 75.176559,105.999832 76.690063,105.143036 
	C77.193039,105.326599 77.278709,105.375839 77.364380,105.425079 
	C77.243118,105.283180 77.121864,105.141289 77.000610,104.999390 
	C76.255730,102.469658 75.623947,100.189537 79.608528,99.784271 
	C80.758545,99.667297 82.653839,98.036362 82.666824,97.078621 
	C82.730507,92.383255 85.494942,90.148827 89.146660,88.046692 
	C90.384026,87.334404 90.580025,84.931877 91.471832,83.432564 
	C91.762360,82.944122 92.750626,82.870697 93.419769,82.607460 
	C93.359879,83.214005 93.299988,83.820557 93.114616,85.123413 
	C92.933304,88.871819 92.877472,91.923912 92.821640,94.975998 
	C92.841812,95.425217 92.861984,95.874443 92.429451,96.776382 
	C91.641266,102.410530 91.305779,107.591942 90.970291,112.773361 
	C87.618988,112.803078 84.267693,112.832787 80.409470,112.432861 
	C77.596420,110.662842 75.290291,109.322472 72.984161,107.982101 
z"/>
<path fill="#3B76A6" opacity="1.000000" stroke="none" 
	d="
M155.054962,22.877365 
	C146.177399,25.845709 141.974350,33.691387 136.823654,40.497635 
	C134.849228,43.106670 133.080170,45.417618 129.139862,43.316566 
	C128.814117,43.392384 128.887878,43.367203 128.714539,43.007332 
	C127.025032,42.430206 125.508858,42.212948 124.032166,41.644955 
	C129.455231,35.621948 135.098083,30.165867 140.096085,24.172075 
	C142.123901,21.740259 142.747391,18.137421 144.382690,15.094915 
	C147.449219,15.773495 150.142899,16.424583 152.836594,17.075672 
	C153.033249,17.135582 153.229904,17.195492 153.690842,17.797817 
	C154.321716,19.852612 154.688339,21.364988 155.054962,22.877365 
z"/>
<path fill="#FDD43B" opacity="1.000000" stroke="none" 
	d="
M171.457794,112.809952 
	C170.777206,111.769432 170.805054,110.607925 170.248901,109.915466 
	C168.091797,107.229675 169.356796,105.886459 171.835449,104.528801 
	C174.026779,103.328529 176.002289,101.734222 178.470306,100.041420 
	C179.352844,100.708183 181.035156,101.979187 182.717453,103.250191 
	C183.005905,103.028061 183.294342,102.805939 183.582794,102.583809 
	C183.323486,101.578171 182.734116,100.520988 182.881226,99.578804 
	C183.109512,98.116478 183.425018,96.178482 184.436462,95.421814 
	C187.188721,93.362816 190.325287,91.817535 193.657837,90.394699 
	C194.307617,91.809456 194.609100,92.898178 194.937897,94.322510 
	C194.644287,95.438995 194.323349,96.219872 193.661453,97.046379 
	C191.664963,98.187843 190.009445,99.283669 188.209717,100.474945 
	C188.567734,102.500786 188.972687,104.792244 189.580078,107.087234 
	C189.782516,107.090775 190.159805,106.943726 190.159805,106.943726 
	C189.021210,107.973892 187.882614,109.004051 186.179626,109.800209 
	C182.660782,108.694115 179.764938,107.927277 179.961121,112.714134 
	C177.273407,112.777565 174.585678,112.840996 171.457794,112.809952 
z"/>
<path fill="#4482B2" opacity="1.000000" stroke="none" 
	d="
M113.856857,14.470304 
	C114.406151,14.341243 114.955444,14.212183 116.096848,14.394558 
	C122.451981,14.796022 128.214996,14.886052 133.981049,15.349536 
	C133.061157,16.943342 132.378250,18.528862 131.173630,19.320595 
	C126.063560,22.679184 121.767059,26.530184 120.578743,33.025070 
	C119.491158,31.998674 118.774094,30.987135 118.348755,29.944244 
	C118.950615,29.593407 119.260757,29.273922 119.570892,28.954437 
	C119.065338,28.644354 118.559776,28.334270 118.034195,27.623198 
	C118.035889,24.277245 117.105759,22.470900 113.807030,21.568377 
	C111.921738,21.052567 110.571495,18.581142 109.300987,16.966187 
	C110.409714,16.620745 111.197792,16.299353 112.325195,15.944447 
	C113.061974,15.430723 113.459412,14.950514 113.856857,14.470304 
M112.524696,17.637041 
	C112.470566,17.846998 112.416435,18.056953 112.362297,18.266909 
	C112.494743,18.132130 112.627197,17.997353 112.524696,17.637041 
z"/>
<path fill="#548BB4" opacity="1.000000" stroke="none" 
	d="
M118.057022,29.975597 
	C118.774094,30.987135 119.491158,31.998674 120.553383,33.302402 
	C118.501854,34.014626 116.105156,34.434662 113.947327,34.578491 
	C115.057190,31.860191 116.878120,29.246782 116.479004,27.033756 
	C116.193283,25.449497 112.990311,23.511108 110.983498,23.383060 
	C109.231339,23.271257 106.668137,25.059359 105.638695,26.731636 
	C103.631340,29.992525 105.831421,32.615559 108.003265,34.975437 
	C107.485184,35.409008 107.228645,35.702374 106.603607,35.949364 
	C104.580582,32.637894 102.926056,29.372799 101.273903,26.112381 
	C100.519943,26.551382 99.268311,27.280159 97.814095,28.012352 
	C97.611511,28.015768 97.206284,28.016466 97.206284,28.016466 
	C97.206390,22.568581 99.573875,18.745392 105.606552,16.917244 
	C107.247871,16.949308 108.114105,16.969772 108.980339,16.990234 
	C110.571495,18.581142 111.921738,21.052567 113.807030,21.568377 
	C117.105759,22.470900 118.035889,24.277245 118.029251,27.948257 
	C118.048569,29.108072 118.052795,29.541836 118.057022,29.975597 
M102.518799,22.404285 
	C102.518799,22.404285 102.591240,22.523876 102.518799,22.404285 
z"/>
<path fill="#FAE580" opacity="1.000000" stroke="none" 
	d="
M96.937851,94.394882 
	C101.602234,84.551895 109.432320,81.622314 119.607552,81.949524 
	C130.136414,82.288109 140.700928,81.517784 151.644028,81.602737 
	C152.015137,82.640617 151.992081,83.308266 151.713364,84.084915 
	C150.971222,84.459137 150.484756,84.724350 149.998276,84.989555 
	C148.609879,84.992928 147.221466,84.996292 145.416534,85.000137 
	C142.944916,84.665955 140.889816,84.331306 138.415833,83.997864 
	C130.221863,84.022339 122.441200,83.871864 114.673401,84.121628 
	C107.976715,84.336952 102.824791,87.228455 100.453537,94.487488 
	C102.678101,94.818596 105.057480,95.172752 107.436859,95.526901 
	C107.427162,95.817825 107.417465,96.108749 107.407761,96.399666 
	C104.184113,96.831169 100.960457,97.262665 97.426453,97.840591 
	C97.065811,96.922829 97.015511,95.858658 96.937851,94.394882 
z"/>
<path fill="#FCD750" opacity="1.000000" stroke="none" 
	d="
M100.062119,135.012146 
	C101.467049,134.699448 102.871979,134.386765 104.683960,134.345856 
	C105.777435,134.685730 106.496513,134.647766 107.142693,134.846619 
	C108.124245,135.148682 109.055191,135.615128 110.007637,136.011749 
	C110.862633,139.912415 112.184586,143.311646 116.826340,144.186157 
	C118.511154,144.503586 120.049980,145.595840 121.415077,146.690674 
	C118.478943,146.649673 115.783134,146.252594 113.087334,145.855515 
	C111.990974,145.465012 110.894623,145.074493 109.369057,144.245667 
	C107.875648,143.269501 106.811455,142.731659 105.747261,142.193802 
	C105.747261,142.193802 105.367065,142.115967 105.152740,141.696625 
	C104.242935,140.906189 103.547470,140.535080 102.852005,140.163971 
	C102.852005,140.163971 102.868629,140.150940 102.791168,139.876526 
	C102.388802,139.460144 102.063911,139.318161 101.739014,139.176178 
	C101.212257,138.645706 100.685501,138.115234 100.093369,136.982025 
	C100.039360,135.923584 100.050743,135.467865 100.062119,135.012146 
z"/>
<path fill="#628CAD" opacity="1.000000" stroke="none" 
	d="
M133.978027,14.976082 
	C128.214996,14.886052 122.451981,14.796022 116.378647,14.442198 
	C128.331696,12.430173 140.530289,11.665196 152.596039,16.822220 
	C150.142899,16.424583 147.449219,15.773495 143.927765,15.068396 
	C140.059357,15.001617 137.018692,14.988850 133.978027,14.976082 
z"/>
<path fill="#F5F7E4" opacity="1.000000" stroke="none" 
	d="
M192.269104,54.797668 
	C185.409790,46.394100 176.038940,47.692806 166.478470,48.005959 
	C166.043839,47.852093 166.017471,47.621174 166.116119,47.537319 
	C173.158478,41.550934 189.027222,45.807350 192.269104,54.797668 
z"/>
<path fill="#FEF9CC" opacity="1.000000" stroke="none" 
	d="
M113.121033,146.242432 
	C115.783134,146.252594 118.478943,146.649673 121.589828,147.010330 
	C124.073349,147.228226 126.141785,147.482544 129.029907,147.771774 
	C134.894897,147.197540 139.940186,146.588379 144.985489,145.979218 
	C142.470123,147.089142 140.053055,148.698578 137.421188,149.216476 
	C129.124680,150.849091 120.925430,150.460480 113.121033,146.242432 
z"/>
<path fill="#FEF9CC" opacity="1.000000" stroke="none" 
	d="
M160.933044,113.179832 
	C161.402740,113.113205 161.872437,113.046585 162.693787,113.050049 
	C163.370178,117.838623 163.568329,122.570160 164.053299,127.272125 
	C164.596848,132.542191 161.733505,138.167816 156.390106,140.767929 
	C156.010239,140.528931 156.064728,140.038696 156.064728,140.038696 
	C157.415863,137.706711 158.766983,135.374725 160.503601,132.503479 
	C160.929718,126.945892 160.970367,121.927544 161.002014,116.535736 
	C160.973022,115.168129 160.953033,114.173981 160.933044,113.179832 
z"/>
<path fill="#4E799E" opacity="1.000000" stroke="none" 
	d="
M72.674866,107.832916 
	C75.290291,109.322472 77.596420,110.662842 79.963226,112.332275 
	C72.387619,112.290993 68.330254,107.532913 65.687836,100.644821 
	C66.550568,100.435730 67.448669,100.578583 68.667511,100.860909 
	C70.114029,103.228172 71.239799,105.455956 72.674866,107.832916 
z"/>
<path fill="#4E7EA4" opacity="1.000000" stroke="none" 
	d="
M97.116348,28.475574 
	C97.206284,28.016466 97.611511,28.015768 97.808243,28.477352 
	C97.968124,42.027676 97.968124,42.027699 111.003159,41.992405 
	C111.331108,41.991516 111.659058,41.988667 112.448395,41.991554 
	C116.604088,41.996151 120.298378,41.995922 123.992676,41.995693 
	C125.508858,42.212948 127.025032,42.430206 128.682739,43.011124 
	C118.446426,43.374786 108.068588,43.374786 97.026405,43.374786 
	C97.026405,38.374653 97.026405,33.654667 97.116348,28.475574 
z"/>
<path fill="#4E799E" opacity="1.000000" stroke="none" 
	d="
M63.054932,70.468994 
	C63.152420,74.438896 63.080826,78.781364 63.028862,83.577591 
	C63.575436,87.499519 64.102379,90.967697 64.371170,94.684067 
	C63.703972,86.902031 63.294914,78.871796 63.054932,70.468994 
z"/>
<path fill="#E0F4FE" opacity="1.000000" stroke="none" 
	d="
M163.023102,47.552040 
	C163.025940,53.359924 163.020370,58.698414 162.780807,64.513718 
	C162.546829,64.990532 162.075806,64.996613 162.075806,64.996613 
	C162.050568,53.982723 162.025314,42.968838 162.081161,31.496059 
	C162.446396,36.385662 162.730530,41.734158 163.023102,47.552040 
z"/>
<path fill="#F5F7E4" opacity="1.000000" stroke="none" 
	d="
M194.002411,97.000740 
	C194.323349,96.219872 194.644287,95.438995 195.095886,94.130844 
	C195.401779,93.302704 195.655945,93.101730 195.989075,93.000648 
	C198.896988,98.664734 195.923615,102.467567 191.475037,105.967514 
	C191.054825,105.998505 190.874756,105.933983 190.962494,105.585228 
	C192.034286,102.491234 193.018356,99.745987 194.002411,97.000740 
z"/>
<path fill="#4E799E" opacity="1.000000" stroke="none" 
	d="
M91.386955,112.810722 
	C91.305779,107.591942 91.641266,102.410530 92.346161,97.104744 
	C92.411591,102.269615 92.107597,107.558846 91.386955,112.810722 
z"/>
<path fill="#FCD750" opacity="1.000000" stroke="none" 
	d="
M145.033615,145.755585 
	C139.940186,146.588379 134.894897,147.197540 129.418152,147.682465 
	C134.058533,146.709778 139.130341,145.861313 144.649246,145.043793 
	C145.096329,145.074707 145.081741,145.531967 145.033615,145.755585 
z"/>
<path fill="#4E799E" opacity="1.000000" stroke="none" 
	d="
M92.914536,94.656570 
	C92.877472,91.923912 92.933304,88.871819 92.998077,85.415176 
	C94.010315,84.821960 95.013611,84.633301 96.379547,84.652420 
	C96.087776,86.590775 95.433365,88.321342 94.720711,90.425674 
	C94.110786,91.978668 93.559105,93.157906 92.914536,94.656570 
z"/>
<path fill="#F9D553" opacity="1.000000" stroke="none" 
	d="
M195.996017,92.665375 
	C195.655945,93.101730 195.401779,93.302704 195.068573,93.795235 
	C194.609100,92.898178 194.307617,91.809456 194.009918,90.358719 
	C194.672470,86.623245 195.331253,83.249779 195.984070,79.443558 
	C196.006851,78.447105 196.035614,77.883423 196.093964,76.894798 
	C196.404785,80.342857 196.686005,84.215851 196.748657,88.722473 
	C196.482971,89.921387 196.435837,90.486671 196.388702,91.051949 
	C196.260132,91.478004 196.131546,91.904060 195.996017,92.665375 
z"/>
<path fill="#628CAD" opacity="1.000000" stroke="none" 
	d="
M155.346725,22.915628 
	C154.688339,21.364988 154.321716,19.852612 153.914398,18.010239 
	C155.896744,19.550058 157.919815,21.419878 159.920929,23.696054 
	C159.898987,24.102413 159.747147,24.251822 159.421356,24.142582 
	C158.408966,23.986618 157.722351,23.939898 157.035751,23.893179 
	C156.569992,23.580084 156.104248,23.266987 155.346725,22.915628 
z"/>
<path fill="#F9D553" opacity="1.000000" stroke="none" 
	d="
M180.289474,112.810730 
	C179.764938,107.927277 182.660782,108.694115 185.859711,109.883942 
	C185.823181,110.646523 185.542145,111.091370 184.796478,111.746338 
	C183.549789,112.290421 182.767715,112.624374 181.985657,112.958328 
	C181.529709,112.941330 181.073776,112.924332 180.289474,112.810730 
z"/>
<path fill="#F5F7E4" opacity="1.000000" stroke="none" 
	d="
M195.651031,64.943123 
	C194.599319,62.934055 193.872131,60.816418 193.163422,58.329288 
	C196.743927,59.182327 198.145081,61.282951 195.651031,64.943123 
z"/>
<path fill="#A5C8E4" opacity="1.000000" stroke="none" 
	d="
M84.486771,48.113075 
	C83.249069,48.103081 82.471252,48.040318 81.310379,47.901405 
	C86.079475,47.609043 91.231606,47.392834 96.739197,47.386593 
	C93.045319,47.751144 88.995987,47.905724 84.486771,48.113075 
z"/>
<path fill="#F9D553" opacity="1.000000" stroke="none" 
	d="
M194.001709,65.999725 
	C194.001709,65.999725 194.488907,66.008636 194.732422,66.010490 
	C195.032883,66.171349 195.089828,66.330345 195.165894,67.005203 
	C195.433853,68.020470 195.682693,68.519890 195.931519,69.019310 
	C195.987640,69.457489 196.043762,69.895668 196.148621,71.024796 
	C196.406219,72.178856 196.615067,72.641960 196.823929,73.105064 
	C196.823929,73.105064 196.478531,73.163078 196.309143,73.123032 
	C195.430130,72.299156 194.720520,71.515335 194.005173,69.967712 
	C194.000198,68.135849 194.000946,67.067787 194.001709,65.999725 
z"/>
<path fill="#628CAD" opacity="1.000000" stroke="none" 
	d="
M109.300987,16.966187 
	C108.114105,16.969772 107.247871,16.949308 105.945709,16.882290 
	C107.505623,16.098494 109.501472,15.361255 111.765579,14.975201 
	C112.017845,15.543578 112.001854,15.760770 111.985870,15.977961 
	C111.197792,16.299353 110.409714,16.620745 109.300987,16.966187 
z"/>
<path fill="#A5C8E4" opacity="1.000000" stroke="none" 
	d="
M112.767136,47.369911 
	C110.002274,47.676262 106.896416,47.776054 103.344673,47.732033 
	C106.074570,47.446602 109.250359,47.304974 112.767136,47.369911 
z"/>
<path fill="#FEF9CC" opacity="1.000000" stroke="none" 
	d="
M149.046509,144.020020 
	C150.139709,143.688065 151.232910,143.356125 152.671478,143.041489 
	C151.812332,143.877075 150.607834,144.695358 149.212418,145.010651 
	C149.021515,144.507675 149.046509,144.020020 149.046509,144.020020 
z"/>
<path fill="#4E799E" opacity="1.000000" stroke="none" 
	d="
M66.691010,58.164772 
	C66.464439,59.498238 65.971069,61.053513 65.176422,62.796741 
	C65.391487,61.451988 65.907852,59.919285 66.691010,58.164772 
z"/>
<path fill="#4E799E" opacity="1.000000" stroke="none" 
	d="
M74.679977,50.143784 
	C74.122398,51.031452 73.239822,51.930222 72.002090,52.719025 
	C72.549606,51.791004 73.452293,50.972942 74.679977,50.143784 
z"/>
<path fill="#FAE580" opacity="1.000000" stroke="none" 
	d="
M105.857025,142.508728 
	C106.811455,142.731659 107.875648,143.269501 109.047836,144.090439 
	C108.092812,143.856903 107.029800,143.340286 105.857025,142.508728 
z"/>
<path fill="#5A5A5A" opacity="1.000000" stroke="none" 
	d="
M191.999069,218.994507 
	C192.440475,219.102737 192.881882,219.210968 193.323303,219.319214 
	C193.017349,219.628601 192.711380,219.937973 192.241913,220.422409 
	C191.421463,220.286911 190.764526,219.976349 190.449417,219.340698 
	C191.193848,219.008560 191.596466,219.001526 191.999069,218.994507 
z"/>
<path fill="#4E799E" opacity="1.000000" stroke="none" 
	d="
M71.392838,52.660057 
	C70.946716,53.670364 70.158798,54.700634 69.025757,55.770226 
	C69.470772,54.766373 70.260902,53.723198 71.392838,52.660057 
z"/>
<path fill="#FEF9CC" opacity="1.000000" stroke="none" 
	d="
M182.180359,113.217789 
	C182.767715,112.624374 183.549789,112.290421 184.666962,111.978638 
	C184.126404,112.492950 183.250732,112.985100 182.180359,113.217789 
z"/>
<path fill="#FEF9CC" opacity="1.000000" stroke="none" 
	d="
M166.951416,113.520798 
	C167.405960,113.135452 167.884766,113.072105 168.717346,113.101334 
	C168.746109,113.968826 168.421097,114.743736 168.096100,115.518654 
	C167.722641,114.960037 167.349167,114.401421 166.951416,113.520798 
z"/>
<path fill="#4E799E" opacity="1.000000" stroke="none" 
	d="
M64.436768,97.287399 
	C64.941475,97.839996 65.420464,98.694389 65.819824,99.887070 
	C65.297142,99.346626 64.854095,98.467911 64.436768,97.287399 
z"/>
<path fill="#FAE580" opacity="1.000000" stroke="none" 
	d="
M99.864716,134.768707 
	C100.050743,135.467865 100.039360,135.923584 99.987289,136.719482 
	C99.470367,136.784409 98.994133,136.509155 98.263519,135.787735 
	C97.971985,134.918076 97.934830,134.494568 97.897675,134.071060 
	C98.487556,134.222458 99.077438,134.373856 99.864716,134.768707 
z"/>
<path fill="#686868" opacity="1.000000" stroke="none" 
	d="
M191.964661,218.688232 
	C191.596466,219.001526 191.193848,219.008560 190.489227,219.017853 
	C190.131729,218.569702 190.076263,218.119278 190.095520,217.334290 
	C190.756912,217.460464 191.343567,217.921204 191.964661,218.688232 
z"/>
<path fill="#FAE580" opacity="1.000000" stroke="none" 
	d="
M102.925888,140.467560 
	C103.547470,140.535080 104.242935,140.906189 104.983170,141.602310 
	C104.351875,141.541931 103.675819,141.156555 102.925888,140.467560 
z"/>
<path fill="#FCD750" opacity="1.000000" stroke="none" 
	d="
M148.672333,144.007553 
	C149.046509,144.020020 149.021515,144.507675 149.008636,144.751465 
	C147.939163,145.042679 146.882553,145.090073 145.429626,145.115570 
	C146.121597,144.727463 147.209869,144.361282 148.672333,144.007553 
z"/>
<path fill="#F5F7E4" opacity="1.000000" stroke="none" 
	d="
M97.690819,134.030670 
	C97.934830,134.494568 97.971985,134.918076 98.016624,135.660492 
	C97.542740,135.421036 97.061363,134.862686 96.821373,134.139236 
	C97.062752,133.974136 97.483963,133.990265 97.690819,134.030670 
z"/>
<path fill="#FAE580" opacity="1.000000" stroke="none" 
	d="
M97.788422,126.988449 
	C97.879150,128.165726 97.741959,129.334961 97.354523,130.750015 
	C97.054565,129.919571 97.004860,128.843323 97.029861,127.367386 
	C97.104576,126.967712 97.560509,126.980392 97.788422,126.988449 
z"/>
<path fill="#F5F7E4" opacity="1.000000" stroke="none" 
	d="
M196.163666,68.876221 
	C195.682693,68.519890 195.433853,68.020470 195.269913,67.236206 
	C195.701813,67.545273 196.048813,68.139206 196.163666,68.876221 
z"/>
<path fill="#4E799E" opacity="1.000000" stroke="none" 
	d="
M68.411850,55.771870 
	C68.353798,56.424324 67.997955,57.160240 67.293091,57.928673 
	C67.334061,57.259232 67.724060,56.557281 68.411850,55.771870 
z"/>
<path fill="#F5F7E4" opacity="1.000000" stroke="none" 
	d="
M196.645111,90.992950 
	C196.435837,90.486671 196.482971,89.921387 196.770935,89.181000 
	C196.975021,89.648582 196.938278,90.291275 196.645111,90.992950 
z"/>
<path fill="#F5F7E4" opacity="1.000000" stroke="none" 
	d="
M197.015701,72.975800 
	C196.615067,72.641960 196.406219,72.178856 196.273361,71.333031 
	C196.635391,71.582382 196.921432,72.214455 197.015701,72.975800 
z"/>
<path fill="#4E799E" opacity="1.000000" stroke="none" 
	d="
M64.692368,63.076912 
	C64.821175,63.461330 64.710548,64.033226 64.390427,64.813416 
	C64.271599,64.435936 64.362274,63.850166 64.692368,63.076912 
z"/>
<path fill="#4E799E" opacity="1.000000" stroke="none" 
	d="
M63.966488,65.475906 
	C63.986988,65.608360 63.933704,65.836418 63.956905,66.188278 
	C63.704281,66.119621 63.657383,65.872765 63.966488,65.475906 
z"/>
<path fill="#548BB4" opacity="1.000000" stroke="none" 
	d="
M112.325195,15.944447 
	C112.001854,15.760770 112.017845,15.543578 112.063721,15.000511 
	C112.481041,14.581144 112.868477,14.487654 113.556381,14.432234 
	C113.459412,14.950514 113.061974,15.430723 112.325195,15.944447 
z"/>
<path fill="#A5C8E4" opacity="1.000000" stroke="none" 
	d="
M128.751572,47.018784 
	C129.094040,47.185768 129.224670,47.380188 129.355301,47.574612 
	C129.008148,47.654076 128.661011,47.733540 128.087723,47.672424 
	C128.016541,47.270706 128.242584,47.108829 128.751572,47.018784 
z"/>
<path fill="#FCD750" opacity="1.000000" stroke="none" 
	d="
M155.721863,140.065170 
	C156.064728,140.038696 156.010239,140.528931 156.026703,140.775055 
	C155.627487,141.153397 155.211792,141.285614 154.471771,141.469864 
	C154.557968,141.045151 154.968475,140.568405 155.721863,140.065170 
z"/>
<path fill="#628CAD" opacity="1.000000" stroke="none" 
	d="
M160.631378,24.887003 
	C160.685272,25.103094 160.337418,25.160341 160.109558,24.932272 
	C159.881699,24.704203 159.747147,24.251822 159.747147,24.251822 
	C159.747147,24.251822 159.898987,24.102413 159.975403,24.028214 
	C160.262222,24.167181 160.437439,24.406147 160.631378,24.887003 
z"/>
<path fill="#5A5A5A" opacity="1.000000" stroke="none" 
	d="
M194.982986,191.021637 
	C194.786362,191.011932 194.589737,191.002228 194.098145,190.963348 
	C194.016754,190.649765 194.230301,190.365326 194.716705,190.093750 
	C194.989548,190.106613 195.006775,190.545044 195.003357,190.772827 
	C194.999939,191.000595 194.982986,191.021637 194.982986,191.021637 
z"/>
<path fill="#595959" opacity="1.000000" stroke="none" 
	d="
M149.205841,220.442963 
	C149.037033,220.077530 149.273087,219.693375 149.801132,219.138763 
	C149.932327,219.453613 149.771530,219.938919 149.205841,220.442963 
z"/>
<path fill="#FEF9CC" opacity="1.000000" stroke="none" 
	d="
M191.140381,106.041275 
	C191.057480,106.354118 190.848557,106.588036 190.379486,106.864761 
	C190.159805,106.943726 189.782516,107.090775 189.835510,106.895325 
	C190.217239,106.444580 190.545990,106.189278 190.874756,105.933975 
	C190.874756,105.933983 191.054825,105.998505 191.140381,106.041275 
z"/>
<path fill="#FAE580" opacity="1.000000" stroke="none" 
	d="
M101.863754,139.405121 
	C102.063911,139.318161 102.388802,139.460144 102.794693,139.866745 
	C102.579964,139.965591 102.284225,139.799820 101.863754,139.405121 
z"/>
<path fill="#356E9D" opacity="1.000000" stroke="none" 
	d="
M159.421356,24.142582 
	C159.747147,24.251822 159.881699,24.704203 159.933334,24.935749 
	C161.774216,34.633183 157.839539,41.657669 150.916489,47.752182 
	C148.258224,50.092331 146.603973,53.539085 144.290359,56.313232 
	C141.404892,59.773037 138.310852,63.058914 135.228271,66.507828 
	C136.110382,66.724792 137.818878,67.145020 140.132217,67.714012 
	C136.025742,72.236687 130.483383,69.944427 125.745796,71.922379 
	C126.857658,73.281105 127.667542,74.270805 129.087906,76.006531 
	C124.172142,76.006531 119.998032,76.006531 115.416382,76.006775 
	C114.586060,72.420937 116.009048,70.904152 119.779144,70.889847 
	C123.385124,70.876183 125.193260,69.221718 122.174248,65.572891 
	C132.678192,57.308643 140.789917,47.249798 147.337326,35.750744 
	C148.841370,33.109230 152.156860,31.321472 154.941666,29.643658 
	C157.129227,28.325680 158.451965,27.194876 157.052780,24.255344 
	C157.722351,23.939898 158.408966,23.986618 159.421356,24.142582 
z"/>
<path fill="#FEFEFE" opacity="1.000000" stroke="none" 
	d="
M161.895233,65.297348 
	C162.075806,64.996613 162.546829,64.990532 162.782318,64.979309 
	C161.879089,67.286064 160.740356,69.604034 159.242203,71.931419 
	C159.826736,69.826576 160.770706,67.712326 161.895233,65.297348 
z"/>
<path fill="#356E9D" opacity="1.000000" stroke="none" 
	d="
M107.108826,78.311966 
	C106.289848,79.147766 105.433670,79.548416 104.288795,79.520386 
	C104.001694,78.063522 104.003288,77.035339 104.004883,76.007149 
	C104.004883,76.007149 104.503052,76.004868 104.752151,76.003151 
	C105.495415,76.264069 105.989571,76.526703 106.742554,76.897736 
	C107.024803,77.296356 107.048218,77.586578 107.108826,78.311966 
z"/>
<path fill="#FEFEFE" opacity="1.000000" stroke="none" 
	d="
M158.734619,71.996346 
	C158.800781,72.174294 158.630249,72.459450 158.246521,72.878593 
	C158.188202,72.709564 158.343048,72.406563 158.734619,71.996346 
z"/>
<path fill="#FFD94F" opacity="1.000000" stroke="none" 
	d="
M110.300850,135.882935 
	C109.055191,135.615128 108.124245,135.148682 107.142693,134.846619 
	C106.496513,134.647766 105.777435,134.685730 105.045044,134.308517 
	C105.635567,132.563889 105.873123,130.463318 106.974419,129.802750 
	C113.288338,126.015579 119.807297,122.570244 126.974930,118.971207 
	C128.887390,119.176636 130.081589,119.419777 131.275787,119.662918 
	C130.911911,120.491188 130.494919,121.300850 130.196609,122.152100 
	C129.753662,123.416130 129.394714,124.709602 129.000000,125.990540 
	C129.000000,125.990540 129.000000,125.999695 128.622665,126.005096 
	C123.163971,129.007309 118.082619,132.004135 113.001259,135.000977 
	C112.198860,135.252029 111.396461,135.503082 110.300850,135.882935 
z"/>
<path fill="#FCD750" opacity="1.000000" stroke="none" 
	d="
M129.380005,126.001678 
	C129.394714,124.709602 129.753662,123.416130 130.196609,122.152100 
	C130.494919,121.300850 130.911911,120.491188 131.275787,119.662918 
	C130.081589,119.419777 128.887390,119.176636 127.347359,118.966492 
	C127.494476,118.345573 127.987419,117.691650 129.139954,116.990707 
	C130.227890,116.876686 130.656250,116.809692 131.543564,116.805954 
	C141.672028,116.882553 151.341537,116.895882 161.011032,116.909203 
	C160.970367,121.927544 160.929718,126.945892 160.520233,132.138824 
	C160.101227,129.002457 159.825150,125.675224 160.061768,122.384880 
	C160.320404,118.788246 158.823517,117.654747 155.454544,117.970131 
	C153.319977,118.169960 151.151550,118.006737 148.998306,118.009041 
	C143.019119,118.015457 138.072571,121.214485 136.056488,126.774742 
	C134.988312,129.720673 133.885986,129.717056 131.999069,127.563187 
	C131.418839,126.900864 130.515427,126.521652 129.380005,126.001678 
z"/>
<path fill="#FEFBE0" opacity="1.000000" stroke="none" 
	d="
M149.541138,125.154144 
	C151.213913,127.836411 153.041245,130.355301 153.506500,133.104706 
	C153.685120,134.160095 150.949448,136.484879 149.207138,136.934341 
	C145.038696,138.009674 141.753555,135.350464 141.470718,131.385956 
	C141.187988,127.422951 143.761230,125.311462 149.541138,125.154144 
z"/>
<path fill="#FCD750" opacity="1.000000" stroke="none" 
	d="
M113.052193,135.341400 
	C118.082619,132.004135 123.163971,129.007309 128.618088,126.005249 
	C129.559036,127.610085 130.127228,129.220169 130.579498,130.501770 
	C126.366753,132.675613 122.269371,135.067154 117.923958,136.856247 
	C116.687737,137.365219 114.729996,136.121704 113.052193,135.341400 
z"/>
<path fill="#3874A4" opacity="1.000000" stroke="none" 
	d="
M101.058899,81.147972 
	C100.582329,81.720451 100.105766,82.292938 99.011948,82.946106 
	C97.925133,83.024376 97.455574,83.021973 96.986008,83.019577 
	C97.759094,81.383629 98.532181,79.747688 99.899643,78.224426 
	C100.663155,78.892052 100.832291,79.446999 101.007744,80.288857 
	C101.029015,80.766502 101.043961,80.957237 101.058899,81.147972 
z"/>
<path fill="#3873A2" opacity="1.000000" stroke="none" 
	d="
M101.001427,80.001938 
	C100.832291,79.446999 100.663155,78.892052 100.249619,78.169449 
	C101.087402,77.335670 102.169579,76.669556 103.628319,76.005295 
	C104.003288,77.035339 104.001694,78.063522 104.002777,79.477341 
	C104.005463,79.862968 103.565765,79.988609 102.986343,79.998222 
	C101.938423,80.005875 101.469925,80.003906 101.001427,80.001938 
z"/>
<path fill="#4E799E" opacity="1.000000" stroke="none" 
	d="
M96.737915,83.301277 
	C97.455574,83.021973 97.925133,83.024376 98.745865,83.047256 
	C98.486008,83.744057 97.874992,84.420372 97.092102,85.041275 
	C96.776764,84.518242 96.633293,84.050613 96.737915,83.301277 
z"/>
<path fill="#FAFAFA" opacity="1.000000" stroke="none" 
	d="
M40.773506,206.905411 
	C40.779488,203.765106 40.485249,201.059204 40.887554,198.461166 
	C41.196457,196.466293 42.119881,193.160446 43.228779,192.958679 
	C46.584099,192.348083 50.999737,191.702423 53.488499,193.352905 
	C59.579403,197.392273 57.816601,213.405060 51.460850,217.027679 
	C46.905155,219.624283 40.870594,216.149933 40.784916,210.876648 
	C40.766014,209.713409 40.776222,208.549713 40.773506,206.905411 
z"/>
<path fill="#FDDC5A" opacity="1.000000" stroke="none" 
	d="
M193.838379,65.751434 
	C194.000946,67.067787 194.000198,68.135849 193.997192,69.604660 
	C193.358963,70.758423 192.848557,71.691177 192.067657,72.236771 
	C183.926224,77.924866 175.828445,83.683800 167.522430,89.123604 
	C164.511780,91.095352 161.644165,92.583817 159.527420,95.993950 
	C157.936752,98.556557 153.868790,99.746269 150.723907,101.142204 
	C145.485001,103.467598 143.238800,106.838585 143.567352,112.475349 
	C140.082779,112.879524 137.041656,112.811859 134.000519,112.744186 
	C133.667419,110.428581 133.334320,108.112976 133.000305,105.398834 
	C132.999390,105.000305 133.000000,105.000000 133.365784,104.961578 
	C136.759308,103.802254 139.888535,102.885101 142.761734,101.453949 
	C143.818985,100.927322 144.271591,99.186821 145.000000,98.000000 
	C145.545059,93.885994 148.774429,95.295769 151.950592,94.993103 
	C154.484360,92.991112 156.242203,90.995399 158.338074,88.997894 
	C159.450531,88.664116 160.224960,88.332130 161.367737,87.995644 
	C163.052032,87.381447 164.483414,86.940872 165.665039,86.134346 
	C172.849426,81.230576 180.083694,76.386856 187.057602,71.195686 
	C189.115585,69.663795 190.384308,67.071609 192.014740,64.965324 
	C192.568176,65.144600 193.121613,65.323868 193.838379,65.751434 
z"/>
<path fill="#FEFEFE" opacity="1.000000" stroke="none" 
	d="
M133.627136,112.836487 
	C137.041656,112.811859 140.082779,112.879524 143.570312,112.843468 
	C146.720474,112.811409 149.424210,112.883080 152.568466,112.847580 
	C155.359924,112.848572 157.710892,112.956718 160.497437,113.122345 
	C160.953033,114.173981 160.973022,115.168129 161.002014,116.535736 
	C151.341537,116.895882 141.672028,116.882553 131.487244,116.535233 
	C130.434479,115.765106 129.897018,115.328972 129.359543,114.892838 
	C130.657623,114.238152 131.955688,113.583466 133.627136,112.836487 
z"/>
<path fill="#F9F9F9" opacity="1.000000" stroke="none" 
	d="
M167.578979,192.045563 
	C175.071457,191.634628 178.257584,194.097885 178.827744,201.054413 
	C179.107956,204.473343 178.791763,208.025299 178.170288,211.411499 
	C177.477783,215.184753 174.870728,217.534088 170.955948,217.901276 
	C166.933090,218.278595 164.468170,216.073273 162.939178,212.533981 
	C159.570633,204.736481 161.432175,195.688766 167.578979,192.045563 
z"/>
<path fill="#5A5A5A" opacity="1.000000" stroke="none" 
	d="
M195.010345,190.992096 
	C195.139374,191.136063 195.258011,191.288498 195.376633,191.440948 
	C195.284622,191.394272 195.192596,191.347595 195.041779,191.161270 
	C194.982986,191.021637 194.999939,191.000595 195.010345,190.992096 
z"/>
<path fill="#FDDC5B" opacity="1.000000" stroke="none" 
	d="
M158.000046,88.999687 
	C156.242203,90.995399 154.484360,92.991112 152.362640,94.993103 
	C151.332474,91.936470 150.666168,88.873543 149.999084,85.400085 
	C150.484756,84.724350 150.971222,84.459137 152.013687,84.232399 
	C154.379807,85.847145 156.189926,87.423416 158.000046,88.999687 
z"/>
<path fill="#FDDC5B" opacity="1.000000" stroke="none" 
	d="
M144.674072,98.144104 
	C144.271591,99.186821 143.818985,100.927322 142.761734,101.453949 
	C139.888535,102.885101 136.759308,103.802254 133.366089,104.961273 
	C136.783112,102.762329 140.565628,100.525269 144.674072,98.144104 
z"/>
<path fill="#FEDD5A" opacity="1.000000" stroke="none" 
	d="
M192.014069,64.722931 
	C190.384308,67.071609 189.115585,69.663795 187.057602,71.195686 
	C180.083694,76.386856 172.849426,81.230576 165.665039,86.134346 
	C164.483414,86.940872 163.052032,87.381447 161.367981,87.585495 
	C161.047729,84.055191 161.393326,80.769753 157.094101,79.755692 
	C157.075226,79.528831 157.043350,79.074677 157.043350,79.074677 
	C157.480545,78.701691 157.917740,78.328712 158.637527,77.858414 
	C159.702499,78.158531 160.484894,78.555969 161.817413,79.208359 
	C164.054855,78.454002 165.742157,77.444695 167.429459,76.435387 
	C169.809189,76.844086 172.292892,76.774040 173.766571,75.518494 
	C178.382614,71.585732 182.617844,67.206001 187.031281,63.292336 
	C187.708786,63.721714 188.355637,63.858204 189.377960,63.995754 
	C190.504639,63.996483 191.255844,63.996151 192.007034,63.995815 
	C192.007034,63.995815 192.013412,64.480545 192.014069,64.722931 
z"/>
<path fill="#FFDE60" opacity="1.000000" stroke="none" 
	d="
M157.112976,79.982559 
	C161.393326,80.769753 161.047729,84.055191 160.999649,87.589989 
	C160.224960,88.332130 159.450531,88.664116 158.338074,88.997894 
	C156.189926,87.423416 154.379807,85.847145 152.269348,84.123398 
	C151.992081,83.308266 152.015137,82.640617 152.061005,81.644501 
	C152.504181,81.213196 152.924561,81.110359 153.836945,81.237640 
	C155.256943,80.972702 156.184967,80.477631 157.112976,79.982559 
z"/>
<path fill="#FAE580" opacity="1.000000" stroke="none" 
	d="
M157.094101,79.755692 
	C156.184967,80.477631 155.256943,80.972702 154.161926,81.224777 
	C154.795547,80.340424 155.596146,79.699074 156.720032,79.066193 
	C157.043350,79.074677 157.075226,79.528831 157.094101,79.755692 
z"/>
<path fill="#356E9D" opacity="1.000000" stroke="none" 
	d="
M101.007744,80.288849 
	C101.469925,80.003906 101.938423,80.005875 102.759125,80.023712 
	C102.640991,80.383957 102.170654,80.728333 101.379608,81.110336 
	C101.043961,80.957237 101.029015,80.766502 101.007744,80.288849 
z"/>
<path fill="#FEE062" opacity="1.000000" stroke="none" 
	d="
M187.000610,62.999443 
	C182.617844,67.206001 178.382614,71.585732 173.766571,75.518494 
	C172.292892,76.774040 169.809189,76.844086 167.429459,76.435387 
	C165.742157,77.444695 164.054855,78.454002 162.171188,79.207047 
	C164.164307,74.269371 166.312393,69.567764 168.576462,64.922699 
	C169.058731,63.933228 169.957260,62.393562 170.673706,62.388134 
	C177.620651,62.335545 180.986130,56.388065 186.832657,52.314747 
	C188.715393,56.266247 190.364380,59.727196 192.010208,63.591980 
	C191.255844,63.996151 190.504639,63.996483 189.209824,63.751400 
	C188.111008,63.337139 187.555801,63.168293 187.000610,62.999443 
z"/>
<path fill="#FEF9CC" opacity="1.000000" stroke="none" 
	d="
M129.244812,115.219803 
	C129.897018,115.328972 130.434479,115.765106 131.028275,116.471962 
	C130.656250,116.809692 130.227890,116.876686 129.473999,116.935226 
	C129.142319,116.466774 129.136200,116.006775 129.244812,115.219803 
z"/>
<path fill="#3C79AA" opacity="1.000000" stroke="none" 
	d="
M77.000305,104.999695 
	C77.121864,105.141289 77.243118,105.283180 77.364380,105.425079 
	C77.278709,105.375839 77.193039,105.326599 77.053375,105.138992 
	C76.999390,105.000610 77.000000,105.000000 77.000305,104.999695 
z"/>
<path fill="#3F7BAB" opacity="1.000000" stroke="none" 
	d="
M124.032166,41.644955 
	C120.298378,41.995922 116.604088,41.996151 112.451767,41.624336 
	C111.329018,39.555069 110.664299,37.857841 110.340378,36.109283 
	C111.690269,35.656868 112.699364,35.255783 113.708466,34.854698 
	C116.105156,34.434662 118.501854,34.014626 120.923904,33.317253 
	C121.767059,26.530184 126.063560,22.679184 131.173630,19.320595 
	C132.378250,18.528862 133.061157,16.943342 133.981049,15.349535 
	C137.018692,14.988850 140.059357,15.001617 143.554947,15.040905 
	C142.747391,18.137421 142.123901,21.740259 140.096085,24.172075 
	C135.098083,30.165867 129.455231,35.621948 124.032166,41.644955 
z"/>
<path fill="#F9D553" opacity="1.000000" stroke="none" 
	d="
M190.962494,105.585220 
	C190.545990,106.189278 190.217239,106.444580 189.633057,106.891792 
	C188.972687,104.792244 188.567734,102.500786 188.209717,100.474945 
	C190.009445,99.283669 191.664963,98.187843 193.661453,97.046379 
	C193.018356,99.745987 192.034286,102.491234 190.962494,105.585220 
z"/>
<path fill="#3F7BAB" opacity="1.000000" stroke="none" 
	d="
M118.348755,29.944244 
	C118.052795,29.541836 118.048569,29.108072 118.049286,28.349251 
	C118.559776,28.334270 119.065338,28.644354 119.570892,28.954437 
	C119.260757,29.273922 118.950615,29.593407 118.348755,29.944244 
z"/>
<path fill="#548BB4" opacity="1.000000" stroke="none" 
	d="
M112.642166,17.749809 
	C112.627197,17.997353 112.494743,18.132130 112.362297,18.266909 
	C112.416435,18.056953 112.470566,17.846998 112.642166,17.749809 
z"/>
<path fill="#4284B7" opacity="1.000000" stroke="none" 
	d="
M109.999580,36.160614 
	C110.664299,37.857841 111.329018,39.555069 111.990372,41.619514 
	C111.659058,41.988667 111.331108,41.991516 111.003159,41.992405 
	C97.968124,42.027699 97.968124,42.027676 98.010826,28.473938 
	C99.268311,27.280159 100.519943,26.551382 101.273903,26.112381 
	C102.926056,29.372799 104.580582,32.637894 106.966316,35.949944 
	C108.180283,35.982784 108.663033,35.968674 109.366318,35.976685 
	C109.586861,35.998810 109.999580,36.160614 109.999580,36.160614 
z"/>
<path fill="#EBF6FB" opacity="1.000000" stroke="none" 
	d="
M110.340378,36.109283 
	C109.999580,36.160614 109.586861,35.998810 109.276733,35.745392 
	C108.843452,35.154667 108.609520,34.935749 108.264809,34.835228 
	C105.831421,32.615559 103.631340,29.992525 105.638695,26.731636 
	C106.668137,25.059359 109.231339,23.271257 110.983498,23.383060 
	C112.990311,23.511108 116.193283,25.449497 116.479004,27.033756 
	C116.878120,29.246782 115.057190,31.860191 113.947327,34.578487 
	C112.699364,35.255783 111.690269,35.656868 110.340378,36.109283 
z"/>
<path fill="#3F7BAB" opacity="1.000000" stroke="none" 
	d="
M108.003265,34.975437 
	C108.609520,34.935749 108.843452,35.154667 109.056190,35.723267 
	C108.663033,35.968674 108.180283,35.982784 107.334824,35.996315 
	C107.228645,35.702374 107.485184,35.409008 108.003265,34.975437 
z"/>
<path fill="#4284B7" opacity="1.000000" stroke="none" 
	d="
M102.555023,22.464081 
	C102.591240,22.523876 102.518799,22.404285 102.555023,22.464081 
z"/>
<path fill="#FDDC5A" opacity="1.000000" stroke="none" 
	d="
M187.031281,63.292336 
	C187.555801,63.168293 188.111008,63.337139 188.834335,63.750340 
	C188.355637,63.858204 187.708786,63.721714 187.031281,63.292336 
z"/>
</svg>