<svg version="1.1" id="Layer_1" xmlns="http://www.w3.org/2000/svg" xmlns:xlink="http://www.w3.org/1999/xlink" x="0px" y="0px"
	 width="100%" viewBox="0 0 563 648" enable-background="new 0 0 563 648" xml:space="preserve">
<path fill="#F7F7F7" opacity="1.000000" stroke="none" 
	d="
M1.000000,264.000000 
	C1.000000,176.000015 1.000000,88.500031 1.000000,1.000035 
	C188.666626,1.000023 376.333252,1.000023 563.999878,1.000012 
	C563.999939,216.999924 563.999939,432.999847 564.000000,648.999817 
	C376.333466,648.999878 188.666916,648.999878 1.000182,648.999939 
	C1.000000,520.833313 1.000000,392.666656 1.000000,264.000000 
M307.945496,37.850895 
	C307.945496,37.850895 308.230804,37.673653 307.911560,37.170952 
	C307.355743,36.987362 306.799957,36.803772 306.161896,36.685562 
	C306.161896,36.685562 306.234955,36.637951 305.879974,36.090218 
	C304.312378,35.294903 302.744812,34.499584 301.031250,33.824139 
	C301.031250,33.824139 301.206909,33.754730 300.829559,33.189655 
	C296.877991,31.563286 292.926392,29.936918 288.325134,28.092535 
	C287.870300,28.097343 287.415497,28.102150 286.237579,27.814095 
	C281.863708,28.225044 277.489807,28.635996 273.055054,29.006641 
	C273.055054,29.006641 273.021851,29.071678 272.297150,29.091949 
	C269.815155,30.370928 267.333191,31.649906 264.165253,33.056129 
	C263.276245,33.509754 262.370514,33.933506 261.500671,34.421291 
	C216.500702,59.656170 171.510529,84.908508 126.504158,110.131950 
	C97.027771,126.651764 67.565186,143.196838 38.020847,159.594452 
	C26.550238,165.960846 21.073362,175.575272 21.115812,188.547577 
	C21.138157,195.375824 21.120413,202.204193 21.120691,209.032516 
	C21.123890,287.308350 21.052542,365.584381 21.292637,443.859497 
	C21.309200,449.259399 23.648609,454.652191 25.067865,460.723083 
	C29.528749,464.844025 33.394485,470.016876 38.539860,472.927917 
	C114.457146,515.879211 190.545715,558.527710 266.590057,601.254395 
	C277.374115,607.313660 288.122253,607.312622 298.903900,601.235474 
	C315.578369,591.837036 332.270416,582.469727 348.958740,573.095825 
	C408.467163,539.669739 467.979370,506.250397 527.482788,472.815399 
	C532.926086,469.756836 537.806091,466.089417 540.893250,459.635345 
	C541.979492,453.989136 543.997375,448.345245 544.011169,442.696442 
	C544.197021,366.642914 544.105286,290.588684 544.077576,214.534637 
	C544.074097,204.882599 544.220642,195.225845 543.963684,185.580170 
	C543.787354,178.961914 542.027344,172.766754 536.657593,167.416412 
	C533.325867,164.711182 530.299561,161.464676 526.614624,159.385300 
	C493.440582,140.665298 460.169922,122.116020 426.888062,103.587723 
	C407.132874,92.589836 387.306549,81.719765 367.078918,70.281433 
	C366.462128,70.067032 365.845306,69.852638 365.306335,69.665543 
	C365.306335,69.665543 365.289429,69.584831 364.966187,69.041924 
	C362.642456,67.773613 360.318756,66.505302 357.617767,64.988083 
	C357.617767,64.988083 357.170013,64.926491 356.748474,64.386475 
	C353.858734,62.881054 350.968994,61.375633 348.021027,59.959976 
	C348.021027,59.959976 348.117157,59.912998 347.866577,59.452713 
	C347.246796,59.170433 346.627045,58.888153 345.506195,58.119316 
	C344.667999,57.742104 343.829773,57.364895 342.644073,56.526260 
	C342.114105,56.324043 341.584106,56.121830 341.000763,55.991806 
	C341.000763,55.991806 341.074280,55.940384 340.715576,55.433102 
	C339.794373,55.001717 338.873138,54.570332 337.927765,54.029949 
	C337.927765,54.029949 337.823547,54.069984 337.420288,53.561375 
	C335.636169,52.672356 333.852081,51.783333 332.005798,50.979076 
	C332.005798,50.979076 332.095581,50.924435 331.746124,50.416336 
	C330.831665,49.986874 329.917175,49.557407 328.744446,48.890682 
	C328.744446,48.890682 328.395996,48.851410 327.959961,48.347828 
	C326.984985,47.883579 326.010010,47.419331 324.998779,46.998264 
	C324.998779,46.998264 325.041046,46.962265 324.698761,46.475861 
	C324.148773,46.277496 323.598755,46.079128 323.028473,45.974491 
	C323.028473,45.974491 323.100098,45.910721 322.706970,45.368187 
	C320.485382,44.225510 318.263794,43.082832 316.001221,41.998661 
	C316.001221,41.998661 316.056671,41.953712 315.654266,41.413708 
	C313.822052,40.516769 311.989807,39.619827 310.053314,38.849781 
	C310.053314,38.849781 310.199463,38.774834 309.877930,38.268013 
	C309.324921,38.063202 308.771912,37.858391 307.945496,37.850895 
z"/>
<path fill="#5E6CBF" opacity="1.000000" stroke="none" 
	d="
M24.907787,460.048279 
	C23.648609,454.652191 21.309200,449.259399 21.292637,443.859497 
	C21.052542,365.584381 21.123890,287.308350 21.120691,209.032516 
	C21.120413,202.204193 21.138157,195.375824 21.115812,188.547577 
	C21.073362,175.575272 26.550238,165.960846 38.020847,159.594452 
	C67.565186,143.196838 97.027771,126.651764 126.504158,110.131950 
	C171.510529,84.908508 216.500702,59.656170 261.500671,34.421291 
	C262.370514,33.933506 263.276245,33.509754 264.906982,33.016479 
	C268.106415,31.675110 270.564117,30.373390 273.021851,29.071674 
	C273.021851,29.071678 273.055054,29.006641 273.450562,29.063999 
	C278.217590,28.783222 282.589142,28.445089 286.960663,28.106956 
	C287.415497,28.102150 287.870300,28.097343 288.740875,28.522940 
	C293.173370,30.553804 297.190155,32.154266 301.206909,33.754730 
	C301.206909,33.754730 301.031250,33.824139 301.176300,34.127796 
	C302.959229,35.166954 304.597076,35.902454 306.234955,36.637955 
	C306.234955,36.637951 306.161896,36.685562 306.279724,36.984039 
	C307.008636,37.412895 307.619720,37.543270 308.230804,37.673653 
	C308.230804,37.673653 307.945496,37.850895 308.166412,38.076500 
	C308.991364,38.459679 309.595428,38.617256 310.199463,38.774834 
	C310.199463,38.774834 310.053314,38.849781 310.187439,39.142509 
	C312.233276,40.274731 314.144958,41.114223 316.056671,41.953716 
	C316.056671,41.953712 316.001221,41.998661 316.047913,42.335926 
	C318.429779,43.752365 320.764923,44.831543 323.100098,45.910721 
	C323.100098,45.910721 323.028473,45.974491 323.186218,46.196869 
	C323.909668,46.600250 324.475342,46.781258 325.041046,46.962265 
	C325.041046,46.962265 324.998779,46.998264 325.072388,47.347542 
	C326.229309,48.081684 327.312653,48.466549 328.395996,48.851410 
	C328.395996,48.851410 328.744446,48.890682 328.942017,49.344437 
	C330.124908,50.173603 331.110260,50.549019 332.095581,50.924438 
	C332.095581,50.924435 332.005798,50.979076 332.066711,51.299385 
	C334.026276,52.436455 335.924927,53.253220 337.823547,54.069984 
	C337.823547,54.069984 337.927765,54.029949 338.019806,54.417877 
	C339.099335,55.183998 340.086792,55.562195 341.074280,55.940384 
	C341.074280,55.940384 341.000763,55.991806 341.038086,56.252411 
	C341.714111,56.671238 342.352844,56.829460 342.991577,56.987686 
	C343.829773,57.364895 344.667999,57.742104 345.844177,58.622398 
	C346.827148,59.387981 347.472137,59.650490 348.117157,59.912994 
	C348.117157,59.912998 348.021027,59.959976 348.070740,60.273849 
	C351.136963,62.033978 354.153503,63.480236 357.170013,64.926491 
	C357.170013,64.926491 357.617767,64.988083 357.817749,65.467552 
	C359.525757,68.990395 361.692932,70.716148 365.289429,69.584831 
	C365.289429,69.584831 365.306335,69.665543 365.381226,70.002693 
	C366.141479,70.490631 366.826843,70.641426 367.512207,70.792221 
	C387.306549,81.719765 407.132874,92.589836 426.888062,103.587723 
	C460.169922,122.116020 493.440582,140.665298 526.614624,159.385300 
	C530.299561,161.464676 533.325867,164.711182 536.472961,167.864746 
	C511.208893,182.661407 486.164032,197.070862 461.015259,211.296631 
	C456.920898,213.612686 452.366852,215.116165 447.718628,216.849091 
	C447.133759,216.287949 446.854156,215.873856 446.577606,215.457718 
	C403.509735,150.644882 343.250610,119.300438 265.456360,125.103676 
	C209.880417,129.249512 164.766617,155.040970 130.667023,198.924667 
	C120.661392,211.801224 113.599678,226.965347 104.850327,241.201370 
	C103.066582,243.876389 100.941132,246.270737 100.294495,249.013702 
	C97.602501,260.432892 93.417381,271.366028 91.461555,283.104187 
	C88.156914,302.937439 88.776299,322.605804 90.170860,342.395538 
	C90.305916,344.312012 91.705811,346.139374 92.649963,348.328308 
	C92.794693,349.107391 92.808037,349.566254 92.617035,350.213684 
	C92.705055,351.270508 92.997429,352.138733 93.478912,353.315735 
	C93.697510,354.103516 93.726982,354.582489 93.528168,355.359711 
	C94.536751,360.106140 95.773628,364.554352 97.140846,369.216827 
	C97.247162,369.753265 97.223137,370.075470 97.144958,370.850586 
	C97.717918,374.172150 97.941330,377.207306 99.043953,379.879700 
	C103.212822,389.983765 107.667015,399.970093 111.811462,410.272614 
	C98.946594,417.774963 86.284988,425.005707 73.622795,432.235382 
	C57.384720,441.506805 41.146141,450.777344 24.907787,460.048279 
z"/>
<path fill="#3949A9" opacity="1.000000" stroke="none" 
	d="
M448.025269,216.995209 
	C452.366852,215.116165 456.920898,213.612686 461.015259,211.296631 
	C486.164032,197.070862 511.208893,182.661407 536.598145,168.172668 
	C542.027344,172.766754 543.787354,178.961914 543.963684,185.580170 
	C544.220642,195.225845 544.074097,204.882599 544.077576,214.534637 
	C544.105286,290.588684 544.197021,366.642914 544.011169,442.696442 
	C543.997375,448.345245 541.979492,453.989136 540.209229,459.835144 
	C538.545959,459.908173 537.421387,460.050537 536.610168,459.612457 
	C529.518494,455.782349 522.485657,451.843292 515.429871,447.946564 
	C499.012421,438.879456 482.632477,429.743164 466.149139,420.797363 
	C460.845642,417.919067 455.266449,415.548859 449.723877,412.623688 
	C448.451477,411.433105 447.346039,410.425629 446.073517,409.719086 
	C436.056183,404.156982 425.986786,398.688721 415.972198,393.121765 
	C399.880432,384.176605 383.818420,375.177917 367.944702,366.063660 
	C368.105316,365.526337 368.065002,365.127136 368.024658,364.727966 
	C367.684662,365.096497 367.344635,365.465057 366.681702,365.880493 
	C365.928680,365.989990 365.498566,366.052612 364.912720,365.799286 
	C363.468567,364.472565 362.291168,363.259521 360.874695,362.482147 
	C345.954224,354.294128 331.002838,346.162262 316.045288,338.041992 
	C303.001434,330.960571 289.938782,323.913788 277.077759,316.570190 
	C278.484131,315.429688 279.633881,314.459351 280.919617,313.728333 
	C304.038574,300.583649 327.191467,287.498596 350.291168,274.320251 
	C354.978699,271.646057 359.478851,268.643402 364.427612,265.830017 
	C365.568573,265.643646 366.429962,265.564362 367.113983,265.174164 
	C393.320618,250.224792 419.520813,235.264023 445.667816,220.210846 
	C446.721497,219.604233 447.251343,218.087769 448.025269,216.995209 
z"/>
<path fill="#2A3793" opacity="1.000000" stroke="none" 
	d="
M449.813385,412.946228 
	C455.266449,415.548859 460.845642,417.919067 466.149139,420.797363 
	C482.632477,429.743164 499.012421,438.879456 515.429871,447.946564 
	C522.485657,451.843292 529.518494,455.782349 536.610168,459.612457 
	C537.421387,460.050537 538.545959,459.908173 539.937622,460.058441 
	C537.806091,466.089417 532.926086,469.756836 527.482788,472.815399 
	C467.979370,506.250397 408.467163,539.669739 348.958740,573.095825 
	C332.270416,582.469727 315.578369,591.837036 298.903900,601.235474 
	C288.122253,607.312622 277.374115,607.313660 266.590057,601.254395 
	C190.545715,558.527710 114.457146,515.879211 38.539860,472.927917 
	C33.394485,470.016876 29.528749,464.844025 24.987827,460.385681 
	C41.146141,450.777344 57.384720,441.506805 73.622795,432.235382 
	C86.284988,425.005707 98.946594,417.774963 112.145523,410.270447 
	C113.128311,409.996765 113.574036,409.997406 114.220200,410.272644 
	C117.296677,415.342804 120.172707,420.138275 123.031937,425.331421 
	C123.056229,427.978088 123.121437,430.205872 126.208435,429.652527 
	C126.002075,429.710480 126.419693,429.619415 126.319092,429.971741 
	C127.118401,431.231689 128.018311,432.139313 128.957062,433.034912 
	C128.995895,433.022888 128.948563,433.089050 128.958954,433.471680 
	C129.978760,434.903839 130.988174,435.953400 131.998795,437.001465 
	C132.000000,437.000000 131.997040,437.002258 132.029236,437.317200 
	C132.495407,438.008514 132.929398,438.384918 133.303864,438.777222 
	C133.244339,438.793091 133.299622,438.682983 133.250397,439.035950 
	C133.850845,439.895111 134.500504,440.401245 135.378372,440.996460 
	C135.892685,441.294403 136.038086,441.575958 136.032150,442.312378 
	C137.126343,443.692566 138.231171,444.690582 139.260834,445.751038 
	C139.185654,445.813538 139.276840,445.640594 139.292206,445.920227 
	C139.750519,446.495239 140.193451,446.790619 140.761749,447.099670 
	C140.887100,447.113342 140.912918,447.364227 140.945068,447.708496 
	C144.287323,451.962219 147.556793,455.907959 150.969971,459.725250 
	C151.314209,460.110260 152.526917,459.718719 153.286102,459.726196 
	C153.235626,459.764832 153.251450,459.638672 153.304169,459.933014 
	C153.705887,460.364746 154.054886,460.502136 154.312592,460.704346 
	C154.221313,460.769165 154.349579,460.585602 154.370514,460.883240 
	C154.733444,461.321991 155.075439,461.463074 155.313751,461.664734 
	C155.210098,461.725281 155.369507,461.545715 155.384430,461.864746 
	C155.936737,462.454926 156.474152,462.726044 157.005539,462.999207 
	C156.999527,463.001221 157.002213,462.989410 157.037720,463.335266 
	C160.468063,467.598663 163.223663,472.374054 169.193604,472.798737 
	C169.134613,472.840820 169.188293,472.706207 169.272400,472.986572 
	C169.708817,473.373352 170.061096,473.479797 170.237244,473.650452 
	C170.061111,473.714661 170.393799,473.541687 170.383636,473.911255 
	C172.368057,475.388855 174.362610,476.496918 176.225769,477.742249 
	C176.094360,477.879517 176.321945,477.575134 176.332245,477.934143 
	C183.235474,486.004761 192.864410,488.928864 201.912598,492.857117 
	C202.276337,493.015015 202.854614,492.678741 203.282318,492.539673 
	C203.231705,492.506561 203.351669,492.521851 203.346222,492.869751 
	C204.553818,493.515045 205.766876,493.812378 207.268143,494.120544 
	C208.037064,494.432739 208.517761,494.734131 209.064819,495.387238 
	C211.590668,496.486725 214.050140,497.234467 216.754913,498.172729 
	C217.328079,498.603638 217.655930,498.843994 218.067596,499.439575 
	C218.649368,500.175171 219.095688,500.769775 219.652924,500.904114 
	C229.596756,503.301117 239.482941,506.035828 249.534317,507.852295 
	C255.874054,508.998016 262.465210,508.752625 269.349487,509.059235 
	C270.841858,509.110779 271.928345,509.234344 273.144775,509.718842 
	C278.509705,509.879272 283.744690,509.678772 289.398499,509.354126 
	C291.562531,509.216125 293.307770,509.202332 295.367065,509.437042 
	C301.825592,509.271179 307.995972,509.072815 314.102448,508.341278 
	C316.728424,508.026703 319.221954,506.606171 322.127258,505.496765 
	C323.006134,505.255554 323.533386,505.205627 324.327881,505.399902 
	C332.183838,503.852203 339.784210,502.106079 347.341614,500.190369 
	C348.021729,500.018005 348.424042,498.749756 349.225586,497.756897 
	C366.396759,491.112671 382.156616,482.618561 396.751160,471.926605 
	C418.554382,455.953644 435.836121,435.944061 449.813385,412.946228 
z"/>
<path fill="#6D75AC" opacity="1.000000" stroke="none" 
	d="
M301.018250,33.472191 
	C297.190155,32.154266 293.173370,30.553804 289.065735,28.631947 
	C292.926392,29.936918 296.877991,31.563286 301.018250,33.472191 
z"/>
<path fill="#6D75AC" opacity="1.000000" stroke="none" 
	d="
M286.599121,27.960526 
	C282.589142,28.445089 278.217590,28.783222 273.481018,29.084152 
	C277.489807,28.635996 281.863708,28.225044 286.599121,27.960526 
z"/>
<path fill="#6D75AC" opacity="1.000000" stroke="none" 
	d="
M356.959229,64.656479 
	C354.153503,63.480236 351.136963,62.033978 348.099854,60.228966 
	C350.968994,61.375633 353.858734,62.881054 356.959229,64.656479 
z"/>
<path fill="#6D75AC" opacity="1.000000" stroke="none" 
	d="
M365.127808,69.313377 
	C361.692932,70.716148 359.525757,68.990395 358.006409,65.592010 
	C360.318756,66.505302 362.642456,67.773613 365.127808,69.313377 
z"/>
<path fill="#6D75AC" opacity="1.000000" stroke="none" 
	d="
M272.659485,29.081810 
	C270.564117,30.373390 268.106415,31.675110 265.249939,32.952854 
	C267.333191,31.649906 269.815155,30.370928 272.659485,29.081810 
z"/>
<path fill="#6D75AC" opacity="1.000000" stroke="none" 
	d="
M322.903534,45.639450 
	C320.764923,44.831543 318.429779,43.752365 316.068420,42.306671 
	C318.263794,43.082832 320.485382,44.225510 322.903534,45.639450 
z"/>
<path fill="#6D75AC" opacity="1.000000" stroke="none" 
	d="
M337.621918,53.815678 
	C335.924927,53.253220 334.026276,52.436455 332.097809,51.257000 
	C333.852081,51.783333 335.636169,52.672356 337.621918,53.815678 
z"/>
<path fill="#6D75AC" opacity="1.000000" stroke="none" 
	d="
M315.855469,41.683716 
	C314.144958,41.114223 312.233276,40.274731 310.239563,39.079063 
	C311.989807,39.619827 313.822052,40.516769 315.855469,41.683716 
z"/>
<path fill="#6D75AC" opacity="1.000000" stroke="none" 
	d="
M306.057465,36.364086 
	C304.597076,35.902454 302.959229,35.166954 301.249268,34.067860 
	C302.744812,34.499584 304.312378,35.294903 306.057465,36.364086 
z"/>
<path fill="#6D75AC" opacity="1.000000" stroke="none" 
	d="
M340.894928,55.686745 
	C340.086792,55.562195 339.099335,55.183998 338.031891,54.472374 
	C338.873138,54.570332 339.794373,55.001717 340.894928,55.686745 
z"/>
<path fill="#6D75AC" opacity="1.000000" stroke="none" 
	d="
M331.920837,50.670387 
	C331.110260,50.549019 330.124908,50.173603 329.071167,49.463066 
	C329.917175,49.557407 330.831665,49.986874 331.920837,50.670387 
z"/>
<path fill="#6D75AC" opacity="1.000000" stroke="none" 
	d="
M328.177979,48.599621 
	C327.312653,48.466549 326.229309,48.081684 325.090515,47.325951 
	C326.010010,47.419331 326.984985,47.883579 328.177979,48.599621 
z"/>
<path fill="#6D75AC" opacity="1.000000" stroke="none" 
	d="
M342.817810,56.756973 
	C342.352844,56.829460 341.714111,56.671238 341.064758,56.216316 
	C341.584106,56.121830 342.114105,56.324043 342.817810,56.756973 
z"/>
<path fill="#6D75AC" opacity="1.000000" stroke="none" 
	d="
M347.991882,59.682854 
	C347.472137,59.650490 346.827148,59.387981 346.094696,58.865677 
	C346.627045,58.888153 347.246796,59.170433 347.991882,59.682854 
z"/>
<path fill="#6D75AC" opacity="1.000000" stroke="none" 
	d="
M308.071167,37.422302 
	C307.619720,37.543270 307.008636,37.412895 306.320862,36.951347 
	C306.799957,36.803772 307.355743,36.987362 308.071167,37.422302 
z"/>
<path fill="#6D75AC" opacity="1.000000" stroke="none" 
	d="
M310.038696,38.521423 
	C309.595428,38.617256 308.991364,38.459679 308.303101,37.977840 
	C308.771912,37.858391 309.324921,38.063202 310.038696,38.521423 
z"/>
<path fill="#6D75AC" opacity="1.000000" stroke="none" 
	d="
M324.869904,46.719063 
	C324.475342,46.781258 323.909668,46.600250 323.196350,46.150002 
	C323.598755,46.079128 324.148773,46.277496 324.869904,46.719063 
z"/>
<path fill="#6D75AC" opacity="1.000000" stroke="none" 
	d="
M367.295563,70.536827 
	C366.826843,70.641426 366.141479,70.490631 365.342316,69.989044 
	C365.845306,69.852638 366.462128,70.067032 367.295563,70.536827 
z"/>
<path fill="#FDFDFE" opacity="1.000000" stroke="none" 
	d="
M449.723877,412.623688 
	C435.836121,435.944061 418.554382,455.953644 396.751160,471.926605 
	C382.156616,482.618561 366.396759,491.112671 348.841858,497.755463 
	C340.145477,500.376984 332.103088,502.766357 324.060669,505.155701 
	C323.533386,505.205627 323.006134,505.255554 321.762604,505.456757 
	C312.381897,506.801514 303.717438,507.995026 295.052979,509.188507 
	C293.307770,509.202332 291.562531,509.216125 288.941589,509.270508 
	C283.048828,509.326660 278.031830,509.342255 273.014801,509.357910 
	C271.928345,509.234344 270.841858,509.110779 268.957977,508.944580 
	C257.979279,507.273102 247.758560,505.853210 237.630768,503.941071 
	C231.012039,502.691437 224.528091,500.728058 217.983765,499.084351 
	C217.655930,498.843994 217.328079,498.603638 216.523010,497.963715 
	C213.696686,496.721283 211.347565,495.878387 208.998459,495.035522 
	C208.517761,494.734131 208.037064,494.432739 207.009872,493.905670 
	C205.426147,493.293915 204.388916,492.907898 203.351669,492.521851 
	C203.351669,492.521851 203.231705,492.506561 203.050476,492.293823 
	C194.020157,487.245789 185.171051,482.410461 176.321945,477.575134 
	C176.321945,477.575134 176.094360,477.879517 176.036118,477.480103 
	C174.116516,475.901001 172.255157,474.721344 170.393799,473.541687 
	C170.393799,473.541687 170.061111,473.714661 170.115234,473.410339 
	C169.842331,472.972717 169.515305,472.839478 169.188293,472.706207 
	C169.188293,472.706207 169.134613,472.840820 169.026993,472.509583 
	C164.946976,469.115356 160.974594,466.052399 157.002197,462.989441 
	C157.002213,462.989410 156.999527,463.001221 156.887268,462.739441 
	C156.306503,462.167023 155.837997,461.856384 155.369507,461.545715 
	C155.369507,461.545715 155.210098,461.725281 155.211243,461.425171 
	C154.924789,460.945251 154.637177,460.765411 154.349579,460.585602 
	C154.349579,460.585602 154.221313,460.769165 154.192627,460.464264 
	C153.859772,459.985809 153.555603,459.812225 153.251450,459.638672 
	C153.251450,459.638672 153.235626,459.764832 153.147659,459.426239 
	C149.010773,455.179840 144.961853,451.272034 140.912918,447.364227 
	C140.912918,447.364227 140.887100,447.113342 140.662323,446.861084 
	C140.050644,446.286041 139.663742,445.963318 139.276855,445.640594 
	C139.276840,445.640594 139.185654,445.813538 139.150665,445.454102 
	C138.091385,444.039856 137.067078,442.985016 136.042786,441.930176 
	C136.038086,441.575958 135.892685,441.294403 135.297455,440.708069 
	C134.425415,439.781433 133.862518,439.232208 133.299622,438.682983 
	C133.299622,438.682983 133.244339,438.793091 133.221405,438.496704 
	C132.798004,437.800964 132.397522,437.401611 131.997040,437.002258 
	C131.997040,437.002258 132.000000,437.000000 131.908264,436.697113 
	C130.860550,435.292511 129.904556,434.190765 128.948563,433.089050 
	C128.948563,433.089050 128.995895,433.022888 128.880676,432.731934 
	C127.983528,431.500488 127.201599,430.559967 126.419685,429.619415 
	C126.419693,429.619415 126.002075,429.710480 126.106483,429.347656 
	C125.156837,427.634460 124.102783,426.284119 123.048737,424.933777 
	C120.172707,420.138275 117.296677,415.342804 114.161545,409.919312 
	C111.236084,403.822693 108.334343,398.453888 105.961487,392.860718 
	C102.823929,385.464996 100.100533,377.893555 97.199127,370.397644 
	C97.223137,370.075470 97.247162,369.753265 97.147278,368.809113 
	C95.934395,363.811920 94.845428,359.436707 93.756462,355.061493 
	C93.726982,354.582489 93.697510,354.103516 93.539124,353.014832 
	C93.213936,351.611786 93.017662,350.818420 92.821388,350.025085 
	C92.808037,349.566254 92.794693,349.107391 92.689690,347.922943 
	C88.921524,324.131165 89.072739,301.062042 94.188881,278.293396 
	C97.018387,265.701172 101.468910,253.473206 105.188721,241.081039 
	C113.599678,226.965347 120.661392,211.801224 130.667023,198.924667 
	C164.766617,155.040970 209.880417,129.249512 265.456360,125.103676 
	C343.250610,119.300438 403.509735,150.644882 446.577606,215.457718 
	C446.854156,215.873856 447.133759,216.287949 447.718628,216.849091 
	C447.251343,218.087769 446.721497,219.604233 445.667816,220.210846 
	C419.520813,235.264023 393.320618,250.224792 367.113983,265.174164 
	C366.429962,265.564362 365.568573,265.643646 364.361511,265.499146 
	C344.213654,235.330566 316.328430,219.895981 280.757477,220.499268 
	C246.987030,221.072021 219.989029,236.166290 201.888489,264.747375 
	C182.309708,295.662659 180.924240,328.129822 197.633728,361.405029 
	C216.191238,398.300964 259.683777,419.474060 300.043427,411.430267 
	C328.276398,405.803314 350.212006,391.004425 365.068451,366.115234 
	C365.498566,366.052612 365.928680,365.989990 366.836792,366.032471 
	C367.314758,366.137604 367.743805,366.201843 367.743805,366.201843 
	C383.818420,375.177917 399.880432,384.176605 415.972198,393.121765 
	C425.986786,398.688721 436.056183,404.156982 446.073517,409.719086 
	C447.346039,410.425629 448.451477,411.433105 449.723877,412.623688 
z"/>
<path fill="#6D77AD" opacity="1.000000" stroke="none" 
	d="
M104.850327,241.201370 
	C101.468910,253.473206 97.018387,265.701172 94.188881,278.293396 
	C89.072739,301.062042 88.921524,324.131165 92.558304,347.602722 
	C91.705811,346.139374 90.305916,344.312012 90.170860,342.395538 
	C88.776299,322.605804 88.156914,302.937439 91.461555,283.104187 
	C93.417381,271.366028 97.602501,260.432892 100.294495,249.013702 
	C100.941132,246.270737 103.066582,243.876389 104.850327,241.201370 
z"/>
<path fill="#6D77AD" opacity="1.000000" stroke="none" 
	d="
M97.144966,370.850586 
	C100.100533,377.893555 102.823929,385.464996 105.961487,392.860718 
	C108.334343,398.453888 111.236084,403.822693 113.961105,409.644684 
	C113.574036,409.997406 113.128311,409.996765 112.348518,409.998291 
	C107.667015,399.970093 103.212822,389.983765 99.043953,379.879700 
	C97.941330,377.207306 97.717918,374.172150 97.144966,370.850586 
z"/>
<path fill="#6D77AD" opacity="1.000000" stroke="none" 
	d="
M93.528168,355.359711 
	C94.845428,359.436707 95.934395,363.811920 97.016937,368.594849 
	C95.773628,364.554352 94.536751,360.106140 93.528168,355.359711 
z"/>
<path fill="#6D77AD" opacity="1.000000" stroke="none" 
	d="
M92.617035,350.213684 
	C93.017662,350.818420 93.213936,351.611786 93.350006,352.706024 
	C92.997429,352.138733 92.705055,351.270508 92.617035,350.213684 
z"/>
<path fill="#5E6CBF" opacity="1.000000" stroke="none" 
	d="
M197.547577,361.043823 
	C180.924240,328.129822 182.309708,295.662659 201.888489,264.747375 
	C219.989029,236.166290 246.987030,221.072021 280.757477,220.499268 
	C316.328430,219.895981 344.213654,235.330566 363.999268,265.461273 
	C359.478851,268.643402 354.978699,271.646057 350.291168,274.320251 
	C327.191467,287.498596 304.038574,300.583649 280.919617,313.728333 
	C279.633881,314.459351 278.484131,315.429688 276.732758,316.649841 
	C257.934204,327.357269 239.695984,337.742584 221.403519,348.031464 
	C213.509323,352.471649 205.502975,356.712463 197.547577,361.043823 
z"/>
<path fill="#2A3794" opacity="1.000000" stroke="none" 
	d="
M197.633728,361.405029 
	C205.502975,356.712463 213.509323,352.471649 221.403519,348.031464 
	C239.695984,337.742584 257.934204,327.357269 276.539429,316.931366 
	C289.938782,323.913788 303.001434,330.960571 316.045288,338.041992 
	C331.002838,346.162262 345.954224,354.294128 360.874695,362.482147 
	C362.291168,363.259521 363.468567,364.472565 364.912720,365.799286 
	C350.212006,391.004425 328.276398,405.803314 300.043427,411.430267 
	C259.683777,419.474060 216.191238,398.300964 197.633728,361.405029 
z"/>
<path fill="#2A3794" opacity="1.000000" stroke="none" 
	d="
M367.944702,366.063660 
	C367.743805,366.201843 367.314758,366.137604 367.159698,365.985596 
	C367.344635,365.465057 367.684662,365.096497 368.024658,364.727966 
	C368.065002,365.127136 368.105316,365.526337 367.944702,366.063660 
z"/>
<path fill="#373F7E" opacity="1.000000" stroke="none" 
	d="
M218.067596,499.439575 
	C224.528091,500.728058 231.012039,502.691437 237.630768,503.941071 
	C247.758560,505.853210 257.979279,507.273102 268.552063,509.016602 
	C262.465210,508.752625 255.874054,508.998016 249.534317,507.852295 
	C239.482941,506.035828 229.596756,503.301117 219.652924,500.904114 
	C219.095688,500.769775 218.649368,500.175171 218.067596,499.439575 
z"/>
<path fill="#373F7E" opacity="1.000000" stroke="none" 
	d="
M176.332245,477.934143 
	C185.171051,482.410461 194.020157,487.245789 203.101089,492.326935 
	C202.854614,492.678741 202.276337,493.015015 201.912598,492.857117 
	C192.864410,488.928864 183.235474,486.004761 176.332245,477.934143 
z"/>
<path fill="#373F7E" opacity="1.000000" stroke="none" 
	d="
M324.327881,505.399902 
	C332.103088,502.766357 340.145477,500.376984 348.571594,497.989014 
	C348.424042,498.749756 348.021729,500.018005 347.341614,500.190369 
	C339.784210,502.106079 332.183838,503.852203 324.327881,505.399902 
z"/>
<path fill="#373F7E" opacity="1.000000" stroke="none" 
	d="
M295.367065,509.437042 
	C303.717438,507.995026 312.381897,506.801514 321.411011,505.648041 
	C319.221954,506.606171 316.728424,508.026703 314.102448,508.341278 
	C307.995972,509.072815 301.825592,509.271179 295.367065,509.437042 
z"/>
<path fill="#373F7E" opacity="1.000000" stroke="none" 
	d="
M140.945068,447.708496 
	C144.961853,451.272034 149.010773,455.179840 153.198151,459.387573 
	C152.526917,459.718719 151.314209,460.110260 150.969971,459.725250 
	C147.556793,455.907959 144.287323,451.962219 140.945068,447.708496 
z"/>
<path fill="#373F7E" opacity="1.000000" stroke="none" 
	d="
M273.144775,509.718811 
	C278.031830,509.342255 283.048828,509.326660 288.522766,509.394653 
	C283.744690,509.678772 278.509705,509.879272 273.144775,509.718811 
z"/>
<path fill="#373F7E" opacity="1.000000" stroke="none" 
	d="
M157.037704,463.335297 
	C160.974594,466.052399 164.946976,469.115356 169.085968,472.467468 
	C163.223663,472.374054 160.468063,467.598663 157.037704,463.335297 
z"/>
<path fill="#373F7E" opacity="1.000000" stroke="none" 
	d="
M170.383636,473.911255 
	C172.255157,474.721344 174.116516,475.901001 176.167526,477.342834 
	C174.362610,476.496918 172.368057,475.388855 170.383636,473.911255 
z"/>
<path fill="#373F7E" opacity="1.000000" stroke="none" 
	d="
M209.064819,495.387238 
	C211.347565,495.878387 213.696686,496.721283 216.277695,497.773193 
	C214.050140,497.234467 211.590668,496.486725 209.064819,495.387238 
z"/>
<path fill="#373F7E" opacity="1.000000" stroke="none" 
	d="
M123.031937,425.331421 
	C124.102783,426.284119 125.156837,427.634460 126.312851,429.289673 
	C123.121437,430.205872 123.056229,427.978088 123.031937,425.331421 
z"/>
<path fill="#373F7E" opacity="1.000000" stroke="none" 
	d="
M136.032150,442.312378 
	C137.067078,442.985016 138.091385,444.039856 139.225861,445.391632 
	C138.231171,444.690582 137.126343,443.692566 136.032150,442.312378 
z"/>
<path fill="#373F7E" opacity="1.000000" stroke="none" 
	d="
M128.958954,433.471680 
	C129.904556,434.190765 130.860550,435.292511 131.907074,436.698578 
	C130.988174,435.953400 129.978760,434.903839 128.958954,433.471680 
z"/>
<path fill="#373F7E" opacity="1.000000" stroke="none" 
	d="
M203.346222,492.869751 
	C204.388916,492.907898 205.426147,493.293915 206.721664,493.894836 
	C205.766876,493.812378 204.553818,493.515045 203.346222,492.869751 
z"/>
<path fill="#373F7E" opacity="1.000000" stroke="none" 
	d="
M126.319084,429.971741 
	C127.201599,430.559967 127.983528,431.500488 128.841827,432.743988 
	C128.018311,432.139313 127.118401,431.231689 126.319084,429.971741 
z"/>
<path fill="#373F7E" opacity="1.000000" stroke="none" 
	d="
M133.250397,439.035950 
	C133.862518,439.232208 134.425415,439.781433 135.069244,440.619019 
	C134.500504,440.401245 133.850845,439.895111 133.250397,439.035950 
z"/>
<path fill="#373F7E" opacity="1.000000" stroke="none" 
	d="
M155.384415,461.864746 
	C155.837997,461.856384 156.306503,462.167023 156.893280,462.737427 
	C156.474152,462.726044 155.936737,462.454926 155.384415,461.864746 
z"/>
<path fill="#373F7E" opacity="1.000000" stroke="none" 
	d="
M139.292221,445.920227 
	C139.663742,445.963318 140.050644,446.286041 140.536972,446.847412 
	C140.193451,446.790619 139.750519,446.495239 139.292221,445.920227 
z"/>
<path fill="#373F7E" opacity="1.000000" stroke="none" 
	d="
M132.029236,437.317200 
	C132.397522,437.401611 132.798004,437.800964 133.280930,438.480835 
	C132.929398,438.384918 132.495407,438.008514 132.029236,437.317200 
z"/>
<path fill="#373F7E" opacity="1.000000" stroke="none" 
	d="
M154.370514,460.883240 
	C154.637177,460.765411 154.924789,460.945251 155.314911,461.364624 
	C155.075439,461.463074 154.733444,461.321991 154.370514,460.883240 
z"/>
<path fill="#373F7E" opacity="1.000000" stroke="none" 
	d="
M169.272400,472.986572 
	C169.515305,472.839478 169.842331,472.972717 170.291367,473.346100 
	C170.061096,473.479797 169.708817,473.373352 169.272400,472.986572 
z"/>
<path fill="#373F7E" opacity="1.000000" stroke="none" 
	d="
M153.304169,459.933014 
	C153.555603,459.812225 153.859772,459.985809 154.283905,460.399414 
	C154.054886,460.502136 153.705887,460.364746 153.304169,459.933014 
z"/>
</svg>