<svg version="1.1" id="Layer_1" xmlns="http://www.w3.org/2000/svg" xmlns:xlink="http://www.w3.org/1999/xlink" x="0px" y="0px"
	 width="100%" viewBox="0 0 512 512" enable-background="new 0 0 512 512" xml:space="preserve">
<path fill="#FEFFFF" opacity="1.000000" stroke="none" 
	d="
M252.000000,513.000000 
	C168.372849,513.000000 84.745697,513.000000 1.059275,513.000000 
	C1.059275,342.453461 1.059275,171.906921 1.059275,1.000000 
	C54.020889,1.000000 107.042595,1.000000 160.532349,1.468657 
	C161.000397,24.537018 161.000397,47.136719 161.000397,69.731461 
	C179.593033,69.731461 197.658051,69.731461 215.717560,69.731461 
	C215.717560,62.039192 215.717560,54.631767 215.717560,46.842476 
	C205.027771,46.842476 194.614197,46.842476 184.264023,46.842476 
	C184.264023,39.041924 184.264023,31.633177 184.264023,23.826172 
	C194.944916,23.826172 205.355850,23.826172 216.000000,23.826172 
	C216.000000,15.948591 216.000000,8.474296 216.000000,1.000000 
	C219.361343,1.000000 222.722702,1.000000 226.542343,1.468657 
	C227.000641,16.525688 227.000641,31.114061 227.000641,46.068497 
	C237.895279,46.068497 248.307785,46.068497 259.045837,46.068497 
	C258.876617,47.646023 258.750885,48.818249 258.603943,50.188061 
	C247.930542,50.188061 237.660446,50.188061 227.201859,50.188061 
	C227.201859,57.161293 227.201859,63.889015 227.201859,70.648758 
	C245.593979,70.648758 263.771210,70.648758 281.675049,70.648758 
	C281.675049,55.237656 281.675049,40.177940 281.675049,24.918819 
	C271.051575,24.918819 260.766907,24.918819 250.041885,24.918819 
	C250.111847,23.523962 250.170380,22.357244 250.247986,20.810104 
	C261.019043,20.810104 271.420898,20.810104 282.000000,20.810104 
	C282.000000,13.941571 282.000000,7.470786 282.000000,1.000000 
	C285.361359,1.000000 288.722687,1.000000 292.542053,1.468657 
	C293.000031,16.526016 293.000031,31.114717 293.000031,46.070686 
	C303.883545,46.070686 314.296448,46.070686 324.798706,46.070686 
	C324.798706,47.521557 324.798706,48.590473 324.798706,50.033176 
	C314.200806,50.033176 303.791138,50.033176 293.193970,50.033176 
	C293.193970,57.139793 293.193970,63.871387 293.193970,70.638535 
	C311.563385,70.638535 329.731415,70.638535 347.667297,70.638535 
	C347.667297,55.218754 347.667297,40.162724 347.667297,24.908396 
	C337.040863,24.908396 326.756592,24.908396 316.304047,24.908396 
	C316.304047,23.527233 316.304047,22.358473 316.304047,20.801239 
	C326.998077,20.801239 337.397858,20.801239 348.000000,20.801239 
	C348.000000,13.940054 348.000000,7.470027 348.000000,1.000000 
	C402.974121,1.000000 457.948242,1.000000 512.961182,1.000000 
	C512.961182,171.560471 512.961182,342.120972 512.961182,513.000000 
	C429.978851,513.000000 346.957275,513.000000 263.580200,512.653992 
	C265.777496,511.239319 268.249939,509.882690 270.895020,509.144867 
	C313.926086,497.141968 356.955048,485.129395 400.062958,473.407593 
	C404.518585,472.196014 405.729218,470.143127 406.016052,465.946533 
	C406.934937,452.502960 408.179932,439.080811 409.376740,425.657318 
	C412.242950,393.510315 415.150146,361.366913 418.047119,329.222656 
	C420.242218,304.866699 422.482941,280.514801 424.635284,256.155090 
	C426.084381,239.754440 427.414825,223.343338 428.904694,206.523315 
	C430.718719,185.758698 432.426361,165.407684 434.088837,145.040009 
	C434.043671,145.023361 434.089111,145.108246 434.315308,144.762680 
	C435.156342,136.643036 435.771149,128.868958 436.560181,120.763809 
	C436.722076,119.937927 436.709717,119.443108 436.815063,118.523270 
	C437.366974,112.818726 437.801147,107.539215 438.263824,101.912811 
	C317.291168,101.912811 196.808640,101.912811 76.200821,101.912811 
	C76.078354,102.768623 75.861870,103.415611 75.916161,104.039017 
	C76.348846,109.007477 76.832878,113.971458 77.245407,119.306221 
	C77.326172,120.145958 77.462692,120.616287 77.513702,121.476959 
	C79.405357,143.555740 81.382538,165.244202 83.303276,187.301086 
	C83.398598,188.133713 83.550362,188.597900 83.622070,189.451569 
	C84.090591,195.538620 84.639175,201.236221 85.130356,207.364212 
	C88.984489,251.236679 92.929840,294.675751 96.797951,338.121704 
	C100.607231,380.906982 104.371429,423.696350 108.041618,466.493683 
	C108.340675,469.980957 109.004845,472.081757 112.961205,473.159821 
	C152.723404,483.995056 192.437775,495.007629 232.119583,506.134369 
	C238.858276,508.023926 245.378708,510.691772 252.000000,513.000000 
z"/>
<path fill="#024DE7" opacity="1.000000" stroke="none" 
	d="
M83.702118,189.062103 
	C83.550362,188.597900 83.398598,188.133713 83.520439,186.958878 
	C83.845718,181.787979 84.232910,177.301575 83.887894,172.872208 
	C82.726730,157.965439 81.382492,143.071274 79.905067,128.192459 
	C79.664665,125.771393 78.393784,123.452652 77.599213,121.086617 
	C77.462692,120.616287 77.326172,120.145958 77.474304,118.972214 
	C77.839294,115.945587 77.980415,113.622612 77.989059,111.299133 
	C78.019890,103.012428 78.002846,103.010353 86.514893,103.010323 
	C200.111740,103.009865 313.708588,103.010010 427.305450,103.010117 
	C428.471405,103.010117 429.647217,103.110153 430.801514,102.994537 
	C434.635864,102.610481 436.252930,104.123360 436.092438,108.124237 
	C435.948273,111.718384 436.469604,115.339226 436.697357,118.948296 
	C436.709717,119.443108 436.722076,119.937927 436.239563,120.874039 
	C435.192871,129.246307 434.640991,137.177277 434.089111,145.108246 
	C434.089111,145.108246 434.043671,145.023361 433.757965,145.263519 
	C432.985382,150.086212 432.463776,154.665390 432.018829,159.252014 
	C431.062866,169.105484 429.995392,178.951691 429.269836,188.822647 
	C428.827545,194.839783 428.936798,200.897446 428.798279,206.936905 
	C427.414825,223.343338 426.084381,239.754440 424.635284,256.155090 
	C422.482941,280.514801 420.242218,304.866699 418.047119,329.222656 
	C415.150146,361.366913 412.242950,393.510315 409.376740,425.657318 
	C408.179932,439.080811 406.934937,452.502960 406.016052,465.946533 
	C405.729218,470.143127 404.518585,472.196014 400.062958,473.407593 
	C356.955048,485.129395 313.926086,497.141968 270.895020,509.144867 
	C268.249939,509.882690 265.777496,511.239319 263.112366,512.653992 
	C259.638702,513.000000 256.277435,513.000000 252.458069,513.000000 
	C245.378708,510.691772 238.858276,508.023926 232.119583,506.134369 
	C192.437775,495.007629 152.723404,483.995056 112.961205,473.159821 
	C109.004845,472.081757 108.340675,469.980957 108.041618,466.493683 
	C104.371429,423.696350 100.607231,380.906982 96.797951,338.121704 
	C92.929840,294.675751 88.984489,251.236679 85.379929,207.057114 
	C85.025314,200.567123 84.363716,194.814606 83.702118,189.062103 
M315.204407,268.903931 
	C313.153778,269.025330 311.103119,269.146729 308.362732,269.109528 
	C307.896454,269.160217 307.430176,269.210876 306.053894,269.051208 
	C290.718018,269.121643 275.382141,269.192078 259.362549,269.113983 
	C258.901398,269.163239 258.440247,269.212463 257.060364,269.088013 
	C221.983444,269.088013 186.906525,269.088013 151.571259,269.088013 
	C151.571259,270.606049 151.497635,271.569122 151.582413,272.518005 
	C152.692551,284.943359 154.013214,297.354248 154.841385,309.797974 
	C155.101639,313.708496 156.339355,314.819092 160.167053,314.790070 
	C181.141373,314.630707 202.117630,314.684937 223.093063,314.731659 
	C234.402771,314.756836 245.712189,314.913544 257.011017,315.946503 
	C257.008087,337.244537 257.103394,358.543518 256.901398,379.839661 
	C256.869324,383.222015 257.795319,385.056732 260.413971,386.160156 
	C260.236603,386.299194 260.059265,386.438202 259.514038,386.436768 
	C259.223022,386.496307 259.042267,386.670441 258.466980,386.915405 
	C258.310608,386.979187 258.154236,387.042969 257.208557,386.969330 
	C240.999374,382.683228 224.768967,378.472961 208.623566,373.958649 
	C207.407990,373.618774 206.181274,371.179718 206.006760,369.600769 
	C204.826233,358.919006 203.927734,348.206085 202.937820,337.500946 
	C187.608643,337.500946 172.870667,337.500946 157.969894,337.500946 
	C157.893875,338.591309 157.730423,339.401855 157.797806,340.192749 
	C159.632797,361.732971 161.552322,383.266266 163.282150,404.814819 
	C163.550385,408.156189 165.326889,409.160645 168.127686,409.928619 
	C197.757172,418.053223 227.363693,426.261658 256.996399,435.328064 
	C256.996399,450.413239 256.996399,465.498413 256.996399,481.526489 
	C297.583099,470.223938 337.164398,459.201385 377.015717,448.103607 
	C378.018890,435.997803 378.996155,423.962067 380.020416,411.930328 
	C380.694244,404.014923 381.426880,396.104462 382.148987,388.193268 
	C383.426788,374.193329 384.721832,360.194916 385.999542,346.194977 
	C386.736694,338.118439 387.412537,330.036041 388.189850,321.963409 
	C389.425751,309.127533 390.832581,296.307190 391.964783,283.462463 
	C393.142212,270.104828 394.001556,256.719330 395.143372,243.358307 
	C396.340454,229.350723 397.750275,215.361435 398.985657,201.356964 
	C399.785889,192.285599 400.333618,183.191345 401.185425,174.125275 
	C402.360687,161.615860 403.696869,149.121368 405.007050,136.624969 
	C405.353485,133.320618 404.347198,131.915909 400.665924,131.924484 
	C354.170898,132.032913 307.675446,132.023834 261.180359,131.936157 
	C257.852936,131.929886 256.898499,133.067017 256.941467,136.278366 
	C257.093079,147.608521 257.219757,158.948257 256.893341,170.271042 
	C256.760254,174.888214 258.127350,176.135773 262.731171,176.109695 
	C296.559998,175.918060 330.390411,175.992996 364.220215,176.042007 
	C366.147034,176.044800 368.073120,176.557571 369.404968,176.979874 
	C369.227234,177.080109 369.049500,177.180359 367.953735,177.211411 
	C333.991272,177.232300 300.028809,177.253204 265.185486,176.992508 
	C262.423706,177.091446 259.661957,177.190369 255.977829,177.234558 
	C218.704529,177.287415 181.431244,177.340271 143.470215,177.425522 
	C143.450928,178.289993 143.431625,179.154465 143.437973,180.832504 
	C144.698029,194.698395 145.958084,208.564270 147.253708,222.821411 
	C149.559982,222.821411 151.360565,222.819992 153.161148,222.821640 
	C193.463272,222.858551 233.765411,222.923752 274.067535,222.917984 
	C288.380829,222.915924 302.694122,222.741333 317.012726,222.875931 
	C317.012726,222.875931 316.964569,223.101334 316.353699,223.658203 
	C314.705322,223.770370 313.057129,223.977539 311.408569,223.979980 
	C294.924805,224.004364 278.439392,224.118317 261.958313,223.906403 
	C257.964569,223.855042 256.834534,225.070602 256.915619,228.994751 
	C257.152924,240.478561 257.104370,251.971970 256.935211,263.458191 
	C256.885132,266.859222 257.822815,268.145477 261.410645,268.069397 
	C279.187256,267.692169 296.968506,267.528503 314.748810,267.360016 
	C315.177185,267.355988 315.613342,268.173737 315.204407,268.903931 
z"/>
<path fill="#000000" opacity="1.000000" stroke="none" 
	d="
M347.531342,1.000000 
	C348.000000,7.470027 348.000000,13.940054 348.000000,20.801239 
	C337.397858,20.801239 326.998077,20.801239 316.304047,20.801239 
	C316.304047,22.358473 316.304047,23.527233 316.304047,24.908396 
	C326.756592,24.908396 337.040863,24.908396 347.667297,24.908396 
	C347.667297,40.162724 347.667297,55.218754 347.667297,70.638535 
	C329.731415,70.638535 311.563385,70.638535 293.193970,70.638535 
	C293.193970,63.871387 293.193970,57.139793 293.193970,50.033176 
	C303.791138,50.033176 314.200806,50.033176 324.798706,50.033176 
	C324.798706,48.590473 324.798706,47.521557 324.798706,46.070686 
	C314.296448,46.070686 303.883545,46.070686 293.000031,46.070686 
	C293.000031,31.114717 293.000031,16.526016 293.000000,1.468657 
	C311.020905,1.000000 329.041779,1.000000 347.531342,1.000000 
z"/>
<path fill="#000000" opacity="1.000000" stroke="none" 
	d="
M281.531342,1.000000 
	C282.000000,7.470786 282.000000,13.941571 282.000000,20.810104 
	C271.420898,20.810104 261.019043,20.810104 250.247986,20.810104 
	C250.170380,22.357244 250.111847,23.523962 250.041885,24.918819 
	C260.766907,24.918819 271.051575,24.918819 281.675049,24.918819 
	C281.675049,40.177940 281.675049,55.237656 281.675049,70.648758 
	C263.771210,70.648758 245.593979,70.648758 227.201859,70.648758 
	C227.201859,63.889015 227.201859,57.161293 227.201859,50.188061 
	C237.660446,50.188061 247.930542,50.188061 258.603943,50.188061 
	C258.750885,48.818249 258.876617,47.646023 259.045837,46.068497 
	C248.307785,46.068497 237.895279,46.068497 227.000641,46.068497 
	C227.000641,31.114061 227.000641,16.525688 227.000320,1.468657 
	C245.020889,1.000000 263.041779,1.000000 281.531342,1.000000 
z"/>
<path fill="#000000" opacity="1.000000" stroke="none" 
	d="
M215.531342,1.000000 
	C216.000000,8.474296 216.000000,15.948591 216.000000,23.826172 
	C205.355850,23.826172 194.944916,23.826172 184.264023,23.826172 
	C184.264023,31.633177 184.264023,39.041924 184.264023,46.842476 
	C194.614197,46.842476 205.027771,46.842476 215.717560,46.842476 
	C215.717560,54.631767 215.717560,62.039192 215.717560,69.731461 
	C197.658051,69.731461 179.593033,69.731461 161.000397,69.731461 
	C161.000397,47.136719 161.000397,24.537018 161.000198,1.468657 
	C179.020889,1.000000 197.041794,1.000000 215.531342,1.000000 
z"/>
<path fill="#114ABE" opacity="1.000000" stroke="none" 
	d="
M436.815063,118.523270 
	C436.469604,115.339226 435.948273,111.718384 436.092438,108.124237 
	C436.252930,104.123360 434.635864,102.610481 430.801514,102.994537 
	C429.647217,103.110153 428.471405,103.010117 427.305450,103.010117 
	C313.708588,103.010010 200.111740,103.009865 86.514893,103.010323 
	C78.002846,103.010353 78.019890,103.012428 77.989059,111.299133 
	C77.980415,113.622612 77.839294,115.945587 77.530045,118.602806 
	C76.832878,113.971458 76.348846,109.007477 75.916161,104.039017 
	C75.861870,103.415611 76.078354,102.768623 76.200821,101.912811 
	C196.808640,101.912811 317.291168,101.912811 438.263824,101.912811 
	C437.801147,107.539215 437.366974,112.818726 436.815063,118.523270 
z"/>
<path fill="#114ABE" opacity="1.000000" stroke="none" 
	d="
M77.513702,121.476959 
	C78.393784,123.452652 79.664665,125.771393 79.905067,128.192459 
	C81.382492,143.071274 82.726730,157.965439 83.887894,172.872208 
	C84.232910,177.301575 83.845718,181.787979 83.576874,186.590454 
	C81.382538,165.244202 79.405357,143.555740 77.513702,121.476959 
z"/>
<path fill="#114ABE" opacity="1.000000" stroke="none" 
	d="
M428.904663,206.523315 
	C428.936798,200.897446 428.827545,194.839783 429.269836,188.822647 
	C429.995392,178.951691 431.062866,169.105484 432.018829,159.252014 
	C432.463776,154.665390 432.985382,150.086212 433.803131,145.280151 
	C432.426361,165.407684 430.718719,185.758698 428.904663,206.523315 
z"/>
<path fill="#114ABE" opacity="1.000000" stroke="none" 
	d="
M434.315308,144.762680 
	C434.640991,137.177277 435.192871,129.246307 436.065369,121.205101 
	C435.771149,128.868958 435.156342,136.643036 434.315308,144.762680 
z"/>
<path fill="#114ABE" opacity="1.000000" stroke="none" 
	d="
M83.622070,189.451569 
	C84.363716,194.814606 85.025314,200.567123 85.437332,206.626724 
	C84.639175,201.236221 84.090591,195.538620 83.622070,189.451569 
z"/>
<path fill="#0265F4" opacity="1.000000" stroke="none" 
	d="
M369.999542,176.832993 
	C368.073120,176.557571 366.147034,176.044800 364.220215,176.042007 
	C330.390411,175.992996 296.559998,175.918060 262.731171,176.109695 
	C258.127350,176.135773 256.760254,174.888214 256.893341,170.271042 
	C257.219757,158.948257 257.093079,147.608521 256.941467,136.278366 
	C256.898499,133.067017 257.852936,131.929886 261.180359,131.936157 
	C307.675446,132.023834 354.170898,132.032913 400.665924,131.924484 
	C404.347198,131.915909 405.353485,133.320618 405.007050,136.624969 
	C403.696869,149.121368 402.360687,161.615860 401.185425,174.125275 
	C400.333618,183.191345 399.785889,192.285599 398.985657,201.356964 
	C397.750275,215.361435 396.340454,229.350723 395.143372,243.358307 
	C394.001556,256.719330 393.142212,270.104828 391.964783,283.462463 
	C390.832581,296.307190 389.425751,309.127533 388.189850,321.963409 
	C387.412537,330.036041 386.736694,338.118439 385.999542,346.194977 
	C384.721832,360.194916 383.426788,374.193329 382.148987,388.193268 
	C381.426880,396.104462 380.694244,404.014923 380.020416,411.930328 
	C378.996155,423.962067 378.018890,435.997803 377.015717,448.103607 
	C337.164398,459.201385 297.583099,470.223938 256.996399,481.526489 
	C256.996399,465.498413 256.996399,450.413239 257.330261,434.761414 
	C258.780670,433.803192 259.897186,433.411591 261.408752,433.016785 
	C289.986847,425.249390 318.162598,417.458374 346.365112,409.765594 
	C348.981415,409.051971 349.990021,407.916046 350.225311,405.067352 
	C351.827576,385.673035 353.717804,366.302795 355.438263,346.917938 
	C357.658600,321.901337 359.807220,296.878357 362.150543,271.504791 
	C363.569122,255.761795 364.823883,240.372131 366.191071,224.680893 
	C366.307526,223.740417 366.311523,223.101501 366.495850,222.260681 
	C366.654602,221.710175 366.633026,221.361588 366.710419,220.685043 
	C366.805695,219.902420 366.802032,219.447723 366.914734,218.589401 
	C367.398041,212.782501 367.765015,207.379227 368.130341,201.530121 
	C368.463684,194.793274 368.761017,188.499802 369.169647,182.213562 
	C369.240082,181.130814 369.783722,180.078812 370.321747,178.855896 
	C370.356354,178.077133 370.177948,177.455063 369.999542,176.832993 
z"/>
<path fill="#FDFEFE" opacity="1.000000" stroke="none" 
	d="
M366.798370,218.993042 
	C366.802032,219.447723 366.805695,219.902420 366.527039,220.884552 
	C366.268341,221.762207 366.291931,222.112396 366.315552,222.462601 
	C366.311523,223.101501 366.307526,223.740417 365.887573,224.939316 
	C364.310028,240.952255 363.148376,256.405182 361.986694,271.858124 
	C359.807220,296.878357 357.658600,321.901337 355.438263,346.917938 
	C353.717804,366.302795 351.827576,385.673035 350.225311,405.067352 
	C349.990021,407.916046 348.981415,409.051971 346.365112,409.765594 
	C318.162598,417.458374 289.986847,425.249390 260.987183,432.985657 
	C259.114380,431.891663 257.156677,430.840027 257.139313,429.757263 
	C256.928864,416.640564 256.980896,403.519165 257.048706,390.399414 
	C257.054413,389.300232 257.667114,388.204224 257.997803,387.106750 
	C258.154236,387.042969 258.310608,386.979187 258.895569,386.944336 
	C259.572723,386.929382 259.758636,386.797363 259.881958,386.577179 
	C260.059265,386.438202 260.236603,386.299194 261.087799,386.015472 
	C275.352325,382.219818 288.897552,378.383698 302.560760,375.027954 
	C306.792297,373.988678 307.816589,371.905487 308.134857,367.895233 
	C309.526123,350.364288 311.285339,332.862488 312.736481,314.974854 
	C309.423248,314.539093 306.284515,314.478638 302.680450,314.526123 
	C289.479034,314.585022 276.743011,314.536041 263.656616,314.309570 
	C261.370728,313.950317 259.435181,313.768494 257.140350,313.552887 
	C257.140350,299.199463 257.130035,285.129456 257.175873,271.059601 
	C257.177826,270.459442 257.699524,269.860962 257.979095,269.261719 
	C258.440247,269.212463 258.901398,269.163239 260.030426,269.434143 
	C275.185211,269.840668 289.672089,269.941254 304.159119,269.980469 
	C305.093353,269.983002 306.028931,269.512177 306.963898,269.261536 
	C307.430176,269.210876 307.896454,269.160217 309.007996,269.427429 
	C312.074493,269.397919 314.495728,269.050476 316.918274,268.269501 
	C318.101776,254.092957 319.329376,240.353409 320.384827,226.600662 
	C320.474518,225.431549 319.415344,224.174286 318.717407,222.937683 
	C318.544983,222.917404 318.197998,222.932205 317.883789,222.931885 
	C317.367920,222.988159 317.166260,223.044739 316.964569,223.101334 
	C316.964569,223.101334 317.012726,222.875931 316.665649,222.537399 
	C298.042358,222.122894 279.765869,221.969559 261.490265,222.039581 
	C258.045654,222.052765 256.879944,221.061264 256.926605,217.535309 
	C257.100494,204.406265 256.988159,191.273422 257.417603,178.081757 
	C260.590118,177.772369 263.328217,177.523239 266.066345,177.274109 
	C300.028809,177.253204 333.991272,177.232300 368.443451,177.534515 
	C369.325012,178.242615 369.716888,178.627609 370.108734,179.012604 
	C369.783722,180.078812 369.240082,181.130814 369.169647,182.213562 
	C368.761017,188.499802 368.463684,194.793274 367.827148,201.771393 
	C367.283203,207.970001 367.040771,213.481522 366.798370,218.993042 
z"/>
<path fill="#E8EAED" opacity="1.000000" stroke="none" 
	d="
M257.603180,387.038025 
	C257.667114,388.204224 257.054413,389.300232 257.048706,390.399414 
	C256.980896,403.519165 256.928864,416.640564 257.139313,429.757263 
	C257.156677,430.840027 259.114380,431.891663 260.592163,432.988892 
	C259.897186,433.411591 258.780670,433.803192 257.320343,434.320862 
	C227.363693,426.261658 197.757172,418.053223 168.127686,409.928619 
	C165.326889,409.160645 163.550385,408.156189 163.282150,404.814819 
	C161.552322,383.266266 159.632797,361.732971 157.797806,340.192749 
	C157.730423,339.401855 157.893875,338.591309 157.969894,337.500946 
	C172.870667,337.500946 187.608643,337.500946 202.937820,337.500946 
	C203.927734,348.206085 204.826233,358.919006 206.006760,369.600769 
	C206.181274,371.179718 207.407990,373.618774 208.623566,373.958649 
	C224.768967,378.472961 240.999374,382.683228 257.603180,387.038025 
z"/>
<path fill="#E8EAED" opacity="1.000000" stroke="none" 
	d="
M256.983246,178.142014 
	C256.988159,191.273422 257.100494,204.406265 256.926605,217.535309 
	C256.879944,221.061264 258.045654,222.052765 261.490265,222.039581 
	C279.765869,221.969559 298.042358,222.122894 316.662964,222.422180 
	C302.694122,222.741333 288.380829,222.915924 274.067535,222.917984 
	C233.765411,222.923752 193.463272,222.858551 153.161148,222.821640 
	C151.360565,222.819992 149.559982,222.821411 147.253708,222.821411 
	C145.958084,208.564270 144.698029,194.698395 143.608734,180.214081 
	C143.905624,178.861481 144.031784,178.127304 144.157944,177.393127 
	C181.431244,177.340271 218.704529,177.287415 256.444733,177.476547 
	C256.911621,177.718536 256.983246,178.142014 256.983246,178.142014 
z"/>
<path fill="#E6E8ED" opacity="1.000000" stroke="none" 
	d="
M257.519714,269.174866 
	C257.699524,269.860962 257.177826,270.459442 257.175873,271.059601 
	C257.130035,285.129456 257.140350,299.199463 257.140350,313.552887 
	C259.435181,313.768494 261.370728,313.950317 263.234253,314.430847 
	C261.115387,314.823334 259.068573,314.917114 257.021729,315.010895 
	C245.712189,314.913544 234.402771,314.756836 223.093063,314.731659 
	C202.117630,314.684937 181.141373,314.630707 160.167053,314.790070 
	C156.339355,314.819092 155.101639,313.708496 154.841385,309.797974 
	C154.013214,297.354248 152.692551,284.943359 151.582413,272.518005 
	C151.497635,271.569122 151.571259,270.606049 151.571259,269.088013 
	C186.906525,269.088013 221.983444,269.088013 257.519714,269.174866 
z"/>
<path fill="#0365F3" opacity="1.000000" stroke="none" 
	d="
M257.016357,315.478699 
	C259.068573,314.917114 261.115387,314.823334 263.584595,314.608276 
	C276.743011,314.536041 289.479034,314.585022 303.098755,314.671570 
	C306.958618,314.922791 309.934814,315.136444 312.911011,315.350128 
	C311.285339,332.862488 309.526123,350.364288 308.134857,367.895233 
	C307.816589,371.905487 306.792297,373.988678 302.560760,375.027954 
	C288.897552,378.383698 275.352325,382.219818 261.373138,385.834290 
	C257.795319,385.056732 256.869324,383.222015 256.901398,379.839661 
	C257.103394,358.543518 257.008087,337.244537 257.016357,315.478699 
z"/>
<path fill="#0265F4" opacity="1.000000" stroke="none" 
	d="
M316.659119,223.379761 
	C317.166260,223.044739 317.367920,222.988159 317.871704,223.165771 
	C318.412476,223.252640 318.651184,223.105301 318.889862,222.957977 
	C319.415344,224.174286 320.474518,225.431549 320.384827,226.600662 
	C319.329376,240.353409 318.101776,254.092957 316.696075,268.285339 
	C316.472626,268.734680 316.045868,268.608215 316.045868,268.608215 
	C315.613342,268.173737 315.177185,267.355988 314.748810,267.360016 
	C296.968506,267.528503 279.187256,267.692169 261.410645,268.069397 
	C257.822815,268.145477 256.885132,266.859222 256.935211,263.458191 
	C257.104370,251.971970 257.152924,240.478561 256.915619,228.994751 
	C256.834534,225.070602 257.964569,223.855042 261.958313,223.906403 
	C278.439392,224.118317 294.924805,224.004364 311.408569,223.979980 
	C313.057129,223.977539 314.705322,223.770370 316.659119,223.379761 
z"/>
<path fill="#E6E8ED" opacity="1.000000" stroke="none" 
	d="
M306.508911,269.156372 
	C306.028931,269.512177 305.093353,269.983002 304.159119,269.980469 
	C289.672089,269.941254 275.185211,269.840668 260.372284,269.508423 
	C275.382141,269.192078 290.718018,269.121643 306.508911,269.156372 
z"/>
<path fill="#A0C1F4" opacity="1.000000" stroke="none" 
	d="
M257.417603,178.081757 
	C256.983246,178.142014 256.911621,177.718536 256.905884,177.503922 
	C259.661957,177.190369 262.423706,177.091446 265.625916,177.133301 
	C263.328217,177.523239 260.590118,177.772369 257.417603,178.081757 
z"/>
<path fill="#E6E8ED" opacity="1.000000" stroke="none" 
	d="
M315.625122,268.756073 
	C316.045868,268.608215 316.472626,268.734680 316.694824,268.718872 
	C314.495728,269.050476 312.074493,269.397919 309.352844,269.506744 
	C311.103119,269.146729 313.153778,269.025330 315.625122,268.756073 
z"/>
<path fill="#A0C1F4" opacity="1.000000" stroke="none" 
	d="
M370.321747,178.855896 
	C369.716888,178.627609 369.325012,178.242615 368.902466,177.569122 
	C369.049500,177.180359 369.227234,177.080109 369.702271,176.906433 
	C370.177948,177.455063 370.356354,178.077133 370.321747,178.855896 
z"/>
<path fill="#A0C1F4" opacity="1.000000" stroke="none" 
	d="
M143.814087,177.409332 
	C144.031784,178.127304 143.905624,178.861481 143.595917,179.807281 
	C143.431625,179.154465 143.450928,178.289993 143.814087,177.409332 
z"/>
<path fill="#E8EAED" opacity="1.000000" stroke="none" 
	d="
M259.697998,386.506958 
	C259.758636,386.797363 259.572723,386.929382 259.147980,386.966217 
	C259.042267,386.670441 259.223022,386.496307 259.697998,386.506958 
z"/>
<path fill="#CDECFE" opacity="1.000000" stroke="none" 
	d="
M362.150574,271.504791 
	C363.148376,256.405182 364.310028,240.952255 365.775146,225.240891 
	C364.823883,240.372131 363.569122,255.761795 362.150574,271.504791 
z"/>
<path fill="#CDECFE" opacity="1.000000" stroke="none" 
	d="
M366.914734,218.589401 
	C367.040771,213.481522 367.283203,207.970001 367.828796,202.217224 
	C367.765015,207.379227 367.398041,212.782501 366.914734,218.589401 
z"/>
<path fill="#CDECFE" opacity="1.000000" stroke="none" 
	d="
M366.495850,222.260681 
	C366.291931,222.112396 366.268341,221.762207 366.428101,221.212494 
	C366.633026,221.361588 366.654602,221.710175 366.495850,222.260681 
z"/>
<path fill="#E6E8ED" opacity="1.000000" stroke="none" 
	d="
M312.736481,314.974854 
	C309.934814,315.136444 306.958618,314.922791 303.564117,314.563660 
	C306.284515,314.478638 309.423248,314.539093 312.736481,314.974854 
z"/>
<path fill="#E8EAED" opacity="1.000000" stroke="none" 
	d="
M318.717407,222.937683 
	C318.651184,223.105301 318.412476,223.252640 318.185913,223.166077 
	C318.197998,222.932205 318.544983,222.917404 318.717407,222.937683 
z"/>
</svg>