<svg version="1.1" id="Layer_1" xmlns="http://www.w3.org/2000/svg" xmlns:xlink="http://www.w3.org/1999/xlink" x="0px" y="0px"
	 width="100%" viewBox="0 0 474 474" enable-background="new 0 0 474 474" xml:space="preserve">
<path fill="#FEFEFE" opacity="1.000000" stroke="none" 
	d="
M302.000000,475.000000 
	C201.333328,475.000000 101.166664,475.000000 1.000000,475.000000 
	C1.000000,317.000000 1.000000,159.000000 1.000000,1.000000 
	C159.000000,1.000000 317.000000,1.000000 475.000000,1.000000 
	C475.000000,159.000000 475.000000,317.000000 475.000000,475.000000 
	C417.500000,475.000000 360.000000,475.000000 302.000000,475.000000 
M217.797165,347.770538 
	C221.515030,347.712860 225.232880,347.655182 229.877396,347.779236 
	C238.935165,347.706696 247.992920,347.634155 257.966461,347.730042 
	C264.643219,347.491241 271.320007,347.252472 278.886505,347.098450 
	C306.019348,344.680725 332.400452,338.807770 358.053894,329.695221 
	C359.935822,329.026733 361.467621,327.372498 363.990143,326.146484 
	C365.295288,326.068634 366.747162,326.339355 367.883606,325.860809 
	C385.529205,318.430786 402.546875,309.904541 417.622406,296.886658 
	C418.185547,296.297363 418.748688,295.708099 419.926483,294.941010 
	C421.263550,293.569427 422.600586,292.197845 424.570404,290.629272 
	C439.977142,275.420837 450.551544,258.168030 447.713104,235.346359 
	C446.819855,228.164200 446.907501,220.545959 444.402557,213.940170 
	C438.151398,197.455139 426.122925,185.150162 412.148834,174.830688 
	C406.753479,170.846390 400.714996,167.733032 394.435913,163.829590 
	C393.002869,162.857666 391.569824,161.885742 389.764954,160.319122 
	C385.522827,158.495667 381.280701,156.672211 376.758881,154.185364 
	C375.772400,153.754059 374.805878,153.267838 373.795990,152.900894 
	C369.194122,151.228699 364.580048,149.590012 359.654144,147.811020 
	C359.654144,147.811020 359.323914,147.897171 358.899353,147.285614 
	C357.288147,146.792236 355.676910,146.298859 353.789734,145.166290 
	C352.949921,144.841949 352.110138,144.517609 350.699280,143.827057 
	C336.687134,140.317719 322.675018,136.808395 308.080017,133.016434 
	C300.015442,131.847046 291.950836,130.677658 283.220123,129.265656 
	C281.811615,129.184372 280.403076,129.103104 278.265717,128.774002 
	C276.186676,128.591095 274.107605,128.408188 271.288391,128.034271 
	C270.526337,128.059982 269.764252,128.085693 268.271606,127.933289 
	C267.810211,128.076538 267.348785,128.219803 266.397675,127.691460 
	C261.588501,127.513733 256.779297,127.336014 251.063644,127.049324 
	C247.715088,127.101242 244.366516,127.153160 240.167603,127.042297 
	C237.402878,127.185661 234.638138,127.329033 231.069443,127.277626 
	C222.743851,127.570953 214.418274,127.864281 205.204422,128.040543 
	C201.153534,128.441284 197.102631,128.842026 192.214874,129.123932 
	C187.099518,130.034622 181.984177,130.945297 176.014099,131.863205 
	C173.026276,132.286957 170.038437,132.710724 166.267990,133.066025 
	C163.512207,133.712067 160.756424,134.358093 157.199875,135.011810 
	C152.726654,136.028488 148.170715,136.776779 143.799484,138.124313 
	C137.129745,140.180405 130.587723,142.650757 123.215973,144.996475 
	C119.820351,146.303040 116.424736,147.609604 112.259850,148.947998 
	C109.190819,150.245575 106.121788,151.543137 102.282860,152.924194 
	C98.493271,154.779861 94.703674,156.635544 90.185883,158.733185 
	C87.050201,160.435181 83.914528,162.137177 80.105354,163.992584 
	C77.363243,165.776917 74.621140,167.561234 71.223030,169.663742 
	C67.468140,172.433853 63.713245,175.203964 59.321793,178.164963 
	C57.480618,179.979523 55.639442,181.794067 53.167217,183.878250 
	C47.729458,190.498627 42.291698,197.119019 36.328213,204.193665 
	C31.236992,212.061417 28.342524,220.448273 29.016356,230.052551 
	C29.492535,236.839615 28.571518,243.744186 29.287468,250.488739 
	C29.849476,255.783096 31.962458,260.912842 33.644680,266.819336 
	C39.443794,274.520630 45.242912,282.221954 51.328819,290.527710 
	C68.767723,307.311401 89.487099,318.698212 112.347015,327.864532 
	C123.234169,331.174286 134.121323,334.484039 145.738892,338.081055 
	C151.819595,339.404602 157.900314,340.728149 164.632172,342.442596 
	C176.083801,343.977020 187.535446,345.511414 199.665802,347.261292 
	C200.138885,347.245911 200.611984,347.230530 201.621643,347.570282 
	C202.033005,347.493683 202.444366,347.417053 203.645691,347.601990 
	C208.101440,347.589050 212.557175,347.576080 217.797165,347.770538 
z"/>
<path fill="#6E81B5" opacity="1.000000" stroke="none" 
	d="
M269.002197,128.111420 
	C269.764252,128.085693 270.526337,128.059982 271.653931,128.320358 
	C272.019440,128.606445 271.975891,128.985397 271.686920,129.253601 
	C270.597290,135.929169 271.066406,136.372391 277.147522,137.030182 
	C283.547760,137.722488 289.914490,138.726288 296.294708,139.602097 
	C302.187866,140.411041 308.079559,141.230743 314.319611,142.183960 
	C319.784149,143.533295 324.900970,144.744385 330.359253,146.112747 
	C336.460052,147.864044 342.219360,149.458084 348.233215,151.308411 
	C352.992279,153.039963 357.496735,154.515228 362.302551,156.168488 
	C365.724945,157.579758 368.846039,158.813049 372.202881,160.291443 
	C377.576996,163.076111 382.715302,165.615677 388.060974,168.415100 
	C389.860260,169.422562 391.452179,170.170135 393.307434,171.128021 
	C394.785431,172.201767 395.971191,173.109634 397.219299,173.921768 
	C408.731567,181.412796 419.248962,190.000641 427.723969,200.942322 
	C443.615204,221.458786 445.914032,246.007996 432.762878,267.145660 
	C427.723969,275.244568 420.704742,282.111420 414.597717,289.561432 
	C414.607483,289.583160 414.592255,289.627563 414.277100,289.708252 
	C412.195465,291.401917 410.428925,293.014862 408.646515,294.751648 
	C408.630646,294.875549 408.619568,294.626007 408.288696,294.690247 
	C398.127533,300.785004 388.297180,306.815460 378.328613,312.823547 
	C378.190399,312.801208 377.998901,313.005493 377.692871,313.048889 
	C377.077362,313.354675 376.767883,313.617035 376.231781,313.843964 
	C375.609680,314.019409 375.214172,314.230255 374.470947,314.523499 
	C372.304535,315.476379 370.485779,316.346893 368.325684,317.275299 
	C366.962311,317.822845 365.940369,318.312469 364.537628,318.844635 
	C353.570770,322.531830 342.984711,326.176514 332.096619,329.728577 
	C331.188477,329.799896 330.582336,329.963776 329.663574,330.107666 
	C329.026367,330.327454 328.701813,330.567169 328.078491,330.710876 
	C327.181122,330.783539 326.582520,330.952209 325.739502,331.096008 
	C325.495056,331.071167 325.040680,331.258362 324.645844,331.242218 
	C316.502533,332.856110 308.754059,334.486145 300.741455,336.075928 
	C300.313751,336.106018 300.150116,336.176392 299.581543,336.264008 
	C296.452148,336.756958 293.727661,337.232605 290.811951,337.591949 
	C290.281464,337.479797 290.044891,337.637848 289.689575,337.947052 
	C289.468140,337.944336 289.041534,338.063171 288.609314,338.001373 
	C283.152924,338.497284 278.128693,339.054962 272.728760,339.471375 
	C270.929718,339.645630 269.506409,339.961151 267.750122,340.238525 
	C266.978271,340.267578 266.539429,340.334778 265.671082,340.283752 
	C254.505066,340.505005 243.768539,340.844452 232.588135,341.110626 
	C229.756912,341.042267 227.369553,341.047150 224.699707,340.768555 
	C221.924850,340.458160 219.432510,340.431305 216.586563,340.307556 
	C215.506317,340.250946 214.779678,340.291199 213.604736,340.239319 
	C201.112961,339.071442 189.069473,337.995697 176.806152,336.671936 
	C175.718842,336.321198 174.851379,336.218536 173.652954,336.080383 
	C172.878372,336.037079 172.434753,336.029236 171.751099,335.738403 
	C166.366135,334.367981 161.183762,333.430908 156.084549,332.160156 
	C147.033859,329.904602 138.033630,327.446564 128.645782,325.004578 
	C116.851746,320.278564 105.424217,315.621277 93.936615,310.613586 
	C92.649330,308.982422 91.422127,307.701599 90.194916,306.420776 
	C92.047195,305.923798 93.898926,305.424805 95.752731,304.933624 
	C95.905251,304.893188 96.071777,304.905670 96.682549,304.879883 
	C103.338768,304.545349 109.544250,304.224518 116.177261,303.933655 
	C119.413185,304.223083 120.702995,303.184692 121.085945,300.137421 
	C121.860512,293.973877 123.001694,287.842041 124.342239,281.774567 
	C124.658554,280.342896 126.271980,278.229401 127.446625,278.119659 
	C133.223267,277.579926 139.092026,277.138367 144.849686,277.613831 
	C148.339233,277.902039 150.296768,277.480408 151.394272,273.874359 
	C159.498795,271.854919 167.200851,269.911530 175.137527,267.881348 
	C175.669769,267.616852 175.882858,267.367004 176.084503,266.758179 
	C176.724060,265.956879 177.290558,265.442505 178.268188,264.950500 
	C181.709366,263.821167 184.739441,262.669434 187.555054,261.599182 
	C187.860062,263.169250 188.329224,265.584259 188.833252,268.337677 
	C187.921066,271.683990 189.033859,273.504486 192.161774,274.596802 
	C192.786194,275.298096 193.309525,275.898865 193.839554,275.904816 
	C200.713394,275.982086 207.589264,276.034821 214.461334,275.911133 
	C215.296829,275.896118 216.113174,274.817017 217.134796,274.100586 
	C217.331207,273.970154 217.791992,273.869873 218.108902,274.002136 
	C219.615204,272.840118 221.321442,271.731201 221.868256,270.206451 
	C222.617401,268.117493 222.457657,265.709320 222.738174,263.444214 
	C223.439392,257.782166 224.169220,252.123688 224.781784,246.405182 
	C224.676010,246.346603 224.726288,246.110046 225.012177,245.944458 
	C225.232864,244.864426 225.167633,243.949997 225.071640,242.757141 
	C225.188034,241.951004 225.335175,241.423264 225.847290,240.790741 
	C227.472992,237.228989 229.090073,233.853806 229.907028,230.294937 
	C231.004654,225.513367 231.226471,220.527298 232.383957,215.765015 
	C232.738678,214.305588 234.907822,212.285156 236.286179,212.253265 
	C241.704117,212.127838 247.135025,212.778732 252.567169,212.968964 
	C255.768188,213.081070 257.103485,214.213516 256.326233,217.598145 
	C254.909821,223.766068 253.567337,229.960495 252.526581,236.199341 
	C252.212433,238.082413 252.996979,240.148743 253.275848,242.470428 
	C253.036682,243.904297 252.799896,244.998901 252.190765,246.214890 
	C250.880310,248.540833 249.587158,250.666260 249.074738,252.965652 
	C247.842163,258.496643 247.213486,264.167603 245.864166,269.665009 
	C245.153915,272.558716 245.790588,273.300110 248.656494,272.901978 
	C248.985489,273.111420 249.106552,273.289307 249.124634,273.926453 
	C250.564865,275.441345 252.002350,277.396454 253.536362,277.475372 
	C258.109894,277.710693 262.733459,277.351074 267.314606,276.957733 
	C272.170685,276.540710 275.994659,278.164917 278.961426,282.282013 
	C278.665924,283.056335 278.356354,283.530243 277.757629,284.226868 
	C276.197083,289.876221 274.844025,295.286865 273.778290,300.753571 
	C273.669403,301.311981 275.283905,302.206421 276.061768,302.964020 
	C276.024780,302.983124 276.047607,302.903076 276.112335,303.311523 
	C277.650360,304.148346 279.115387,304.909576 280.598389,304.946259 
	C286.398346,305.089691 292.204407,304.956635 298.007385,305.013336 
	C311.270111,305.142883 308.811157,304.679474 309.285034,293.757385 
	C310.612518,290.045776 311.939453,286.637421 312.657043,283.105286 
	C313.955261,276.715393 315.924713,275.413086 322.439117,275.986908 
	C327.295593,276.414703 332.230164,276.059357 337.121918,275.858246 
	C337.765381,275.831787 338.361298,274.650238 339.385376,273.912720 
	C346.198608,272.181122 352.632538,270.634613 358.990936,268.822937 
	C360.314056,268.445923 362.856628,267.482239 360.062775,265.228485 
	C361.633484,264.280762 363.052612,263.595306 364.615265,263.230469 
	C365.508636,263.959930 366.258453,264.368774 367.214844,264.741974 
	C367.701477,264.519135 367.771454,264.272339 367.952667,263.842163 
	C369.861969,262.505371 371.449860,261.292328 373.334595,259.917847 
	C374.154572,258.499756 374.677704,257.243164 375.399292,255.619308 
	C375.346436,254.813095 375.095062,254.374130 374.862793,253.924316 
	C374.881866,253.913467 374.899994,253.873489 375.268646,254.142868 
	C376.017670,253.552505 376.398010,252.692780 376.810303,251.830475 
	C376.842224,251.827911 376.828125,251.765442 377.088867,252.077957 
	C377.617157,252.345474 377.884705,252.300491 378.439270,252.066040 
	C380.823364,248.255020 382.920502,244.633453 385.390503,240.966156 
	C386.854736,239.515717 388.821899,238.156662 388.897949,236.698975 
	C389.469299,225.745636 389.694427,214.773422 389.930511,203.805038 
	C389.948425,202.971756 389.415039,201.917831 388.796448,201.319397 
	C387.052551,199.632294 385.256439,197.939148 383.243927,196.606216 
	C381.166229,195.230087 378.809784,194.274796 376.275177,192.980865 
	C373.386963,189.679733 370.077728,188.042404 365.622620,187.934937 
	C362.497925,187.143387 359.732422,186.468369 356.863342,185.415436 
	C355.894745,184.695480 355.030792,184.057938 354.164581,184.054932 
	C336.271667,183.992722 318.378204,183.947784 300.485535,184.034073 
	C295.555969,184.057831 295.396179,187.153961 296.730347,191.244202 
	C295.850983,195.763016 294.932007,199.893707 293.648773,204.008453 
	C291.870026,202.990311 290.455566,201.988098 288.961365,200.834244 
	C288.881683,200.682602 288.900055,200.340469 288.914124,199.992462 
	C288.570984,199.112228 288.213776,198.580002 287.902863,198.050232 
	C287.949188,198.052689 287.887360,198.121857 287.928253,197.762619 
	C288.057281,196.368805 288.145416,195.334213 288.258392,194.008011 
	C287.160706,194.169495 286.413086,194.279465 285.673584,194.360168 
	C285.681702,194.330902 285.646515,194.281372 285.739075,193.905304 
	C284.142120,192.459732 282.452606,191.390244 280.763245,190.267151 
	C280.763397,190.213562 280.689606,190.291336 280.753052,189.916122 
	C280.277588,189.008987 279.821381,188.160965 279.186707,187.994827 
	C273.833099,186.593430 268.509735,184.796204 263.054199,184.137146 
	C256.561066,183.352722 249.908737,183.076157 243.398193,183.559753 
	C239.695831,183.834747 238.781860,182.698715 239.061752,179.695572 
	C239.335159,176.762039 240.220490,173.883942 240.471130,170.950241 
	C240.837753,166.659424 240.877701,162.340683 240.880432,157.806870 
	C240.439926,157.072250 240.175903,156.564590 240.119171,155.888763 
	C239.069214,154.996017 237.818695,153.663086 236.553482,153.649002 
	C230.022324,153.576218 223.487381,153.841263 216.657227,153.860870 
	C214.908691,154.445679 213.456696,155.158066 211.681519,155.987366 
	C210.925232,156.204803 210.492142,156.305374 210.048340,156.110336 
	C209.955399,155.521545 209.883072,155.224670 209.777542,154.940125 
	C209.765244,154.906998 209.569092,154.942062 209.458176,154.945496 
	C209.645905,155.458344 209.833649,155.971191 210.187027,156.515060 
	C210.352661,156.546082 210.363770,156.882935 210.025574,157.100693 
	C209.590530,157.452255 209.439941,157.573227 209.404526,157.721695 
	C206.987122,167.854599 204.551361,177.983490 202.258804,188.144669 
	C202.154007,188.609207 203.345581,189.366241 203.949966,190.307037 
	C203.802689,191.450989 203.638794,192.274963 203.107666,193.218216 
	C201.467560,195.950378 200.194672,198.563248 199.321747,200.355103 
	C193.920914,196.219040 189.163589,192.346497 184.127731,188.878418 
	C182.848969,187.997772 180.684265,188.403625 178.603592,188.173248 
	C177.861053,188.015381 177.441544,187.902618 177.003021,187.423492 
	C175.658646,186.372833 174.333298,185.688553 172.578476,185.001221 
	C167.046356,184.661392 161.945953,184.081512 156.840591,184.033920 
	C142.229141,183.897690 127.615669,183.977478 112.997299,183.631927 
	C112.363861,182.851578 111.736115,182.411621 111.108383,181.971664 
	C110.429939,183.706314 109.751488,185.440948 109.050903,187.389038 
	C109.028755,187.602478 108.899101,188.011612 108.544685,188.083282 
	C105.802742,196.771774 102.920380,205.288589 101.153557,214.030838 
	C98.969315,224.838455 97.677277,235.828400 96.110176,246.755402 
	C95.965233,247.766052 96.616577,248.890884 96.924454,250.344650 
	C96.325455,252.825684 95.700172,254.924774 94.706696,257.077667 
	C93.566597,262.110718 92.794693,267.089935 92.003181,272.308624 
	C91.983574,272.548065 91.940712,273.026672 91.656982,273.256134 
	C89.935440,279.207611 88.215721,284.876770 87.131104,290.664978 
	C85.773476,297.910126 84.484711,299.356598 76.547272,300.034637 
	C74.508934,299.291626 72.814095,298.597626 71.038986,297.570618 
	C69.372818,295.859344 67.765816,294.504547 66.205162,293.098297 
	C62.116974,289.414581 58.049015,285.708466 53.939632,281.692444 
	C53.289192,280.893188 52.672112,280.412781 51.921852,279.676453 
	C51.212639,278.925446 50.636608,278.430389 49.906223,277.627991 
	C48.401234,275.253937 47.141964,273.120209 45.684273,271.131989 
	C39.101528,262.153412 35.738358,252.047134 34.971977,240.551025 
	C35.068672,228.878723 35.593830,217.795914 44.281128,208.963821 
	C44.718086,208.290680 44.861061,207.643768 45.004025,206.663971 
	C45.004177,205.887161 45.004345,205.443283 45.304157,204.853638 
	C47.012894,203.360764 48.531155,202.108932 49.807743,200.646194 
	C52.271637,197.823044 54.599106,194.880859 57.132973,191.692886 
	C59.517574,188.936081 61.752327,186.474426 64.336357,183.975067 
	C67.456383,181.635666 70.227127,179.333954 73.342850,176.977631 
	C76.126869,175.288559 78.565933,173.654083 81.355637,171.970032 
	C85.476814,169.663071 89.247345,167.405701 93.389252,165.105255 
	C97.181892,163.407028 100.603165,161.751877 104.389236,160.058990 
	C107.118080,158.823761 109.482140,157.626266 112.259438,156.402893 
	C116.455513,154.997665 120.238342,153.618317 124.414146,152.180618 
	C138.560120,148.442490 152.313095,144.762695 166.449371,141.106491 
	C168.570450,140.776001 170.308212,140.421921 172.469025,140.087372 
	C176.633804,139.462814 180.375534,138.818726 184.546600,138.143219 
	C188.318298,137.740784 191.660675,137.369781 195.454041,137.011169 
	C200.258133,136.657486 204.611237,136.291397 209.411377,135.950134 
	C213.571930,135.643890 217.285416,135.312790 221.456329,134.987961 
	C225.607086,134.659149 229.300415,134.324081 233.455078,133.993256 
	C237.610336,133.995499 241.304260,133.993469 245.421631,133.995087 
	C249.558502,134.333054 253.271927,134.667404 257.406189,135.014557 
	C268.441101,137.526901 268.984009,137.190918 269.002197,128.111420 
z"/>
<path fill="#0C0C11" opacity="1.000000" stroke="none" 
	d="
M414.587921,289.539703 
	C420.704742,282.111420 427.723969,275.244568 432.762878,267.145660 
	C445.914032,246.007996 443.615204,221.458786 427.723969,200.942322 
	C419.248962,190.000641 408.731567,181.412796 397.219299,173.921768 
	C395.971191,173.109634 394.785431,172.201767 393.419739,170.855011 
	C393.835663,168.322113 394.402588,166.272491 394.969543,164.222870 
	C400.714996,167.733032 406.753479,170.846390 412.148834,174.830688 
	C426.122925,185.150162 438.151398,197.455139 444.402557,213.940170 
	C446.907501,220.545959 446.819855,228.164200 447.713104,235.346359 
	C450.551544,258.168030 439.977142,275.420837 424.111206,290.430573 
	C421.964569,288.131409 420.502197,284.759949 417.822235,289.505096 
	C417.556580,289.975464 415.703979,289.549591 414.587921,289.539703 
M396.603241,167.517090 
	C396.603241,167.517090 396.471954,167.599960 396.603241,167.517090 
z"/>
<path fill="#0A0B0E" opacity="1.000000" stroke="none" 
	d="
M301.005585,336.116211 
	C308.754059,334.486145 316.502533,332.856110 324.750244,331.370514 
	C325.606659,331.642090 325.851501,331.510712 325.983948,331.120880 
	C326.582520,330.952209 327.181122,330.783539 328.387238,330.707886 
	C329.321930,330.576508 329.649078,330.352081 329.976227,330.127655 
	C330.582336,329.963776 331.188477,329.799896 332.558899,329.774719 
	C338.356598,330.949890 342.838806,329.436768 347.439301,327.467041 
	C350.712311,326.065674 354.458282,325.769104 358.354187,325.023041 
	C360.116974,325.352814 361.518738,325.639038 362.981354,325.987671 
	C363.042206,326.050079 363.162201,326.176544 363.162201,326.176544 
	C361.467621,327.372498 359.935822,329.026733 358.053894,329.695221 
	C332.400452,338.807770 306.019348,344.680725 278.505066,346.691925 
	C280.495575,345.309875 282.795532,344.044891 285.257843,343.432556 
	C288.287903,342.679108 289.332703,340.947327 289.041534,338.063171 
	C289.041534,338.063171 289.468140,337.944336 289.884155,337.984558 
	C290.575134,338.009338 290.809479,337.903870 291.003204,337.708282 
	C293.727661,337.232605 296.452148,336.756958 299.692261,336.394897 
	C300.473816,336.377716 300.739685,336.246979 301.005585,336.116211 
z"/>
<path fill="#60687C" opacity="1.000000" stroke="none" 
	d="
M93.996689,310.963989 
	C105.424217,315.621277 116.851746,320.278564 128.624573,325.404480 
	C126.206367,326.899384 123.442871,327.925629 120.679382,328.951874 
	C120.756554,328.222198 120.833725,327.492523 120.910896,326.762848 
	C119.439850,325.868286 118.069855,324.584259 116.474129,324.170197 
	C114.067017,323.545624 111.705910,323.817474 111.879196,327.333191 
	C89.487099,318.698212 68.767723,307.311401 51.422985,289.960510 
	C53.028519,288.926331 54.539890,288.459320 55.455311,288.176453 
	C57.053200,290.686829 57.982574,293.109100 59.714668,294.596802 
	C61.437004,296.076111 63.905727,296.815125 66.162201,297.499329 
	C67.712860,297.969482 69.459961,297.791779 71.119255,297.903625 
	C72.814095,298.597626 74.508934,299.291626 76.629791,300.354919 
	C78.696762,301.824158 80.337708,302.924133 82.307022,304.040070 
	C83.069740,304.105560 83.504082,304.155121 84.093262,304.498169 
	C87.497627,306.849121 90.747154,308.906555 93.996689,310.963989 
z"/>
<path fill="#0A0B0E" opacity="1.000000" stroke="none" 
	d="
M414.597717,289.561432 
	C415.703979,289.549591 417.556580,289.975464 417.822235,289.505096 
	C420.502197,284.759949 421.964569,288.131409 423.794861,290.529053 
	C422.600586,292.197845 421.263550,293.569427 419.267334,295.031433 
	C418.078796,295.765961 417.549408,296.410065 417.020020,297.054199 
	C402.546875,309.904541 385.529205,318.430786 367.883606,325.860809 
	C366.747162,326.339355 365.295288,326.068634 363.576172,326.161499 
	C363.162201,326.176544 363.042206,326.050079 362.964264,325.629395 
	C362.590302,323.811432 362.294281,322.414215 362.364227,321.005249 
	C363.459595,320.263092 364.188995,319.532623 364.918427,318.802124 
	C365.940369,318.312469 366.962311,317.822845 368.496765,317.644379 
	C372.612274,319.538910 374.497162,318.282135 374.818665,314.441132 
	C375.214172,314.230255 375.609680,314.019409 376.543365,313.803436 
	C377.387329,313.534058 377.693115,313.269775 377.998901,313.005493 
	C377.998901,313.005493 378.190399,312.801208 378.789917,312.862915 
	C385.201019,312.871796 390.259735,311.214661 394.618652,307.044189 
	C397.165985,304.606964 400.699463,303.227325 403.412231,300.927246 
	C405.458130,299.192566 406.905701,296.752258 408.619568,294.626007 
	C408.619568,294.626007 408.630646,294.875549 409.075287,294.868896 
	C413.623566,295.455383 415.453857,293.845642 414.592255,289.627563 
	C414.592255,289.627563 414.607483,289.583160 414.597717,289.561432 
z"/>
<path fill="#657292" opacity="1.000000" stroke="none" 
	d="
M34.956768,241.012115 
	C35.738358,252.047134 39.101528,262.153412 45.684273,271.131989 
	C47.141964,273.120209 48.401234,275.253937 49.638092,277.808533 
	C47.542400,281.109558 46.362576,278.467743 45.547436,277.411469 
	C43.501404,274.760223 41.825371,271.823486 40.000481,269.000610 
	C40.000000,269.000000 39.999081,268.999329 39.995281,268.638885 
	C39.719780,266.323517 39.469326,264.498291 36.643627,265.809784 
	C35.711376,266.242462 34.480671,266.032043 33.386429,266.115692 
	C31.962458,260.912842 29.849476,255.783096 29.287468,250.488739 
	C28.571518,243.744186 29.492535,236.839615 29.016356,230.052551 
	C28.342524,220.448273 31.236992,212.061417 36.624092,204.067307 
	C36.919971,203.940948 37.028332,204.122818 37.009281,204.511810 
	C36.321316,208.381027 35.652405,211.861267 35.092323,214.775269 
	C33.941654,216.631866 32.063080,218.294739 31.980904,220.042099 
	C31.689161,226.245682 31.906651,232.483353 32.223976,238.693161 
	C32.265747,239.510574 34.004154,240.241257 34.956768,241.012115 
z"/>
<path fill="#5C6374" opacity="1.000000" stroke="none" 
	d="
M112.113106,327.598877 
	C111.705910,323.817474 114.067017,323.545624 116.474129,324.170197 
	C118.069855,324.584259 119.439850,325.868286 120.910896,326.762848 
	C120.833725,327.492523 120.756554,328.222198 120.679382,328.951874 
	C123.442871,327.925629 126.206367,326.899384 128.991074,325.473206 
	C138.033630,327.446564 147.033859,329.904602 156.084549,332.160156 
	C161.183762,333.430908 166.366135,334.367981 171.605957,336.030792 
	C170.804626,337.740692 169.908401,338.875183 168.595062,340.008362 
	C166.787704,340.008636 165.397415,340.010223 163.657715,339.855591 
	C157.165237,338.289001 151.989334,333.109589 144.999420,334.609650 
	C144.775146,327.926147 140.926682,333.346619 139.060867,332.366882 
	C141.040863,333.244171 143.020859,334.121460 145.000458,335.348206 
	C145.002869,336.396332 145.005661,337.095093 145.008469,337.793823 
	C134.121323,334.484039 123.234169,331.174286 112.113106,327.598877 
M166.245667,338.533112 
	C165.853180,338.404785 165.465393,338.255371 165.064224,338.166138 
	C164.984787,338.148468 164.853897,338.362213 164.746735,338.469238 
	C165.139069,338.597351 165.531387,338.725464 166.245667,338.533112 
z"/>
<path fill="#DCE0EE" opacity="1.000000" stroke="none" 
	d="
M166.066086,141.082901 
	C152.313095,144.762695 138.560120,148.442490 124.422974,151.849579 
	C124.023041,149.366318 124.007256,147.155777 123.991470,144.945221 
	C130.587723,142.650757 137.129745,140.180405 143.799484,138.124313 
	C148.170715,136.776779 152.726654,136.028488 157.592712,135.399292 
	C157.735962,137.332291 157.486374,138.877808 157.242493,140.388000 
	C160.477905,140.642807 163.271988,140.862854 166.066086,141.082901 
z"/>
<path fill="#626C83" opacity="1.000000" stroke="none" 
	d="
M33.515556,266.467529 
	C34.480671,266.032043 35.711376,266.242462 36.643627,265.809784 
	C39.469326,264.498291 39.719780,266.323517 39.788651,268.759308 
	C39.601658,269.591003 39.617496,269.941864 39.633335,270.292694 
	C39.755871,269.862213 39.878414,269.431702 40.000957,269.001221 
	C41.825371,271.823486 43.501404,274.760223 45.547436,277.411469 
	C46.362576,278.467743 47.542400,281.109558 49.792450,278.115845 
	C50.636608,278.430389 51.212639,278.925446 51.942337,280.003845 
	C52.721664,281.061859 53.347328,281.536591 53.972992,282.011292 
	C58.049015,285.708466 62.116974,289.414581 66.205162,293.098297 
	C67.765816,294.504547 69.372818,295.859344 71.038986,297.570618 
	C69.459961,297.791779 67.712860,297.969482 66.162201,297.499329 
	C63.905727,296.815125 61.437004,296.076111 59.714668,294.596802 
	C57.982574,293.109100 57.053200,290.686829 55.455311,288.176453 
	C54.539890,288.459320 53.028519,288.926331 51.279587,289.658295 
	C45.242912,282.221954 39.443794,274.520630 33.515556,266.467529 
z"/>
<path fill="#5F6D91" opacity="1.000000" stroke="none" 
	d="
M313.971893,142.045715 
	C308.079559,141.230743 302.187866,140.411041 296.294708,139.602097 
	C289.914490,138.726288 283.547760,137.722488 277.147522,137.030182 
	C271.066406,136.372391 270.597290,135.929169 271.946411,129.534637 
	C274.661407,129.372269 276.828003,129.197052 278.994568,129.021820 
	C280.403076,129.103104 281.811615,129.184372 283.598511,129.768417 
	C284.932220,131.289276 286.243134,133.346466 286.786377,133.160538 
	C291.007477,131.715897 293.938416,133.169006 297.733032,135.344910 
	C302.031921,137.809952 307.721252,137.800964 312.737854,139.125839 
	C313.362671,139.290833 313.570740,141.033875 313.971893,142.045715 
M281.517822,131.412445 
	C281.517822,131.412445 281.583557,131.522400 281.517822,131.412445 
z"/>
<path fill="#464A51" opacity="1.000000" stroke="none" 
	d="
M233.032013,341.183929 
	C243.768539,340.844452 254.505066,340.505005 265.629822,340.626709 
	C263.028931,343.245789 260.039825,345.403717 257.050690,347.561646 
	C247.992920,347.634155 238.935165,347.706696 229.292358,347.485962 
	C228.464035,346.792694 228.220718,346.392639 228.227112,345.829651 
	C228.650192,345.111145 228.823578,344.555573 229.380936,344.000122 
	C230.853943,343.061493 231.942978,342.122711 233.032013,341.183929 
z"/>
<path fill="#5C6374" opacity="1.000000" stroke="none" 
	d="
M347.978668,151.052109 
	C342.219360,149.458084 336.460052,147.864044 330.353394,145.725464 
	C330.006073,143.568054 330.006073,141.955200 330.006073,140.320984 
	C326.869202,139.899368 323.664703,139.771713 320.636627,138.974228 
	C317.759827,138.216599 315.035614,136.827988 312.308105,135.577698 
	C311.016296,134.985519 309.873291,134.068756 308.662872,133.299057 
	C322.675018,136.808395 336.687134,140.317719 350.911987,144.430069 
	C350.076019,147.039413 349.027344,149.045761 347.978668,151.052109 
z"/>
<path fill="#626C83" opacity="1.000000" stroke="none" 
	d="
M308.371460,133.157745 
	C309.873291,134.068756 311.016296,134.985519 312.308105,135.577698 
	C315.035614,136.827988 317.759827,138.216599 320.636627,138.974228 
	C323.664703,139.771713 326.869202,139.899368 330.006073,140.320984 
	C330.006073,141.955200 330.006073,143.568054 330.011932,145.568192 
	C324.900970,144.744385 319.784149,143.533295 314.319611,142.183960 
	C313.570740,141.033875 313.362671,139.290833 312.737854,139.125839 
	C307.721252,137.800964 302.031921,137.809952 297.733032,135.344910 
	C293.938416,133.169006 291.007477,131.715897 286.786377,133.160538 
	C286.243134,133.346466 284.932220,131.289276 283.931580,129.889709 
	C291.950836,130.677658 300.015442,131.847046 308.371460,133.157745 
z"/>
<path fill="#323236" opacity="1.000000" stroke="none" 
	d="
M257.508575,347.645844 
	C260.039825,345.403717 263.028931,343.245789 266.059326,340.744904 
	C266.539429,340.334778 266.978271,340.267578 267.994751,340.456238 
	C270.083069,340.345642 271.593781,339.979156 273.104492,339.612671 
	C278.128693,339.054962 283.152924,338.497284 288.609314,338.001373 
	C289.332703,340.947327 288.287903,342.679108 285.257843,343.432556 
	C282.795532,344.044891 280.495575,345.309875 278.060181,346.649536 
	C271.320007,347.252472 264.643219,347.491241 257.508575,347.645844 
z"/>
<path fill="#7080A3" opacity="1.000000" stroke="none" 
	d="
M56.983124,191.988037 
	C54.599106,194.880859 52.271637,197.823044 49.807743,200.646194 
	C48.531155,202.108932 47.012894,203.360764 44.924530,204.858704 
	C41.839615,204.713974 39.433975,204.418396 37.028332,204.122818 
	C37.028332,204.122818 36.919971,203.940948 36.886955,203.840179 
	C42.291698,197.119019 47.729458,190.498627 53.621593,184.025558 
	C54.269291,184.765930 54.800339,185.698410 54.600948,185.896820 
	C53.339291,187.152252 51.915871,188.245117 50.326889,189.574875 
	C53.027908,190.554092 55.005516,191.271057 56.983124,191.988037 
M51.414013,192.483154 
	C51.414013,192.483154 51.525482,192.416916 51.414013,192.483154 
z"/>
<path fill="#53565E" opacity="1.000000" stroke="none" 
	d="
M164.007141,340.011810 
	C165.397415,340.010223 166.787704,340.008636 168.921051,340.057129 
	C170.952499,340.396301 172.232056,340.862885 173.531555,340.927185 
	C174.977905,340.998810 176.664825,340.166687 177.860641,340.661560 
	C183.182190,342.863708 188.256760,345.076691 194.213928,342.277557 
	C196.078949,341.401306 198.778976,342.057556 201.051468,342.356628 
	C203.726013,342.708618 206.351303,343.434845 209.296326,343.978394 
	C210.064041,343.638184 210.533401,343.318420 211.339966,342.995972 
	C212.451248,342.663818 213.225311,342.334351 214.376068,342.003510 
	C215.506516,341.999817 216.260269,341.997467 217.259155,341.995361 
	C217.504272,341.995636 217.994507,341.998779 217.964142,342.343323 
	C217.622940,343.788177 217.312073,344.888428 216.536804,345.992554 
	C211.666840,346.444427 207.261292,346.892426 202.855728,347.340424 
	C202.444366,347.417053 202.033005,347.493683 201.211105,347.137299 
	C200.196075,346.818176 199.591568,346.932007 198.987076,347.045837 
	C187.535446,345.511414 176.083801,343.977020 164.312256,341.907104 
	C163.997269,340.918335 164.002197,340.465088 164.007141,340.011810 
z"/>
<path fill="#8B93B0" opacity="1.000000" stroke="none" 
	d="
M232.993713,133.989014 
	C229.300415,134.324081 225.607086,134.659149 221.399796,134.638565 
	C216.924698,132.525894 212.963562,130.768906 208.680359,129.007843 
	C207.603073,128.721725 206.847870,128.439667 206.092682,128.157608 
	C214.418274,127.864281 222.743851,127.570953 231.503265,127.814468 
	C232.289307,130.230545 232.641510,132.109772 232.993713,133.989014 
z"/>
<path fill="#9EA8C0" opacity="1.000000" stroke="none" 
	d="
M205.648560,128.099075 
	C206.847870,128.439667 207.603073,128.721725 208.679169,129.441437 
	C208.988144,131.894485 208.976242,133.909912 208.964325,135.925323 
	C204.611237,136.291397 200.258133,136.657486 195.251709,136.756577 
	C193.724472,136.193146 192.850555,135.896698 192.449295,135.760590 
	C192.660660,133.473862 192.856201,131.358322 193.051743,129.242767 
	C197.102631,128.842026 201.153534,128.441284 205.648560,128.099075 
z"/>
<path fill="#3E434B" opacity="1.000000" stroke="none" 
	d="
M387.853638,168.155243 
	C382.715302,165.615677 377.576996,163.076111 372.392212,160.038254 
	C373.910065,157.976227 375.474304,156.412476 377.038574,154.848755 
	C381.280701,156.672211 385.522827,158.495667 389.680481,160.755341 
	C389.184448,161.878647 388.552246,162.522278 388.406616,163.261719 
	C388.090454,164.866928 388.022858,166.521088 387.853638,168.155243 
z"/>
<path fill="#50525C" opacity="1.000000" stroke="none" 
	d="
M376.898712,154.517059 
	C375.474304,156.412476 373.910065,157.976227 372.156433,159.793152 
	C368.846039,158.813049 365.724945,157.579758 362.311523,155.811935 
	C362.790375,153.738693 363.561615,152.200012 364.217743,150.891006 
	C362.733673,149.859665 361.352020,148.899490 359.970367,147.939301 
	C364.580048,149.590012 369.194122,151.228699 373.795990,152.900894 
	C374.805878,153.267838 375.772400,153.754059 376.898712,154.517059 
z"/>
<path fill="#8B93B0" opacity="1.000000" stroke="none" 
	d="
M72.997879,177.032227 
	C70.227127,179.333954 67.456383,181.635666 64.137100,183.694702 
	C62.378498,181.626038 61.168430,179.800064 59.958359,177.974091 
	C63.713245,175.203964 67.468140,172.433853 71.640686,169.877380 
	C72.371521,172.404755 72.684700,174.718491 72.997879,177.032227 
z"/>
<path fill="#B7BAD2" opacity="1.000000" stroke="none" 
	d="
M104.024437,160.096725 
	C100.603165,161.751877 97.181892,163.407028 93.327301,164.721527 
	C92.234016,162.417648 91.574051,160.454422 90.914085,158.491211 
	C94.703674,156.635544 98.493271,154.779861 102.625443,153.245773 
	C103.320168,155.743805 103.672302,157.920273 104.024437,160.096725 
z"/>
<path fill="#BDC3D8" opacity="1.000000" stroke="none" 
	d="
M184.117264,138.174637 
	C180.375534,138.818726 176.633804,139.462814 172.276794,139.805740 
	C170.124542,137.381195 168.587585,135.257828 167.050613,133.134476 
	C170.038437,132.710724 173.026276,132.286957 176.666138,132.162292 
	C179.344162,134.651840 184.623657,132.970490 184.117264,138.174637 
z"/>
<path fill="#AFB6CA" opacity="1.000000" stroke="none" 
	d="
M184.546600,138.143219 
	C184.623657,132.970490 179.344162,134.651840 177.093491,132.158676 
	C181.984177,130.945297 187.099518,130.034622 192.633301,129.183350 
	C192.856201,131.358322 192.660660,133.473862 192.449295,135.760590 
	C192.850555,135.896698 193.724472,136.193146 194.800720,136.744202 
	C191.660675,137.369781 188.318298,137.740784 184.546600,138.143219 
z"/>
<path fill="#9EA8C0" opacity="1.000000" stroke="none" 
	d="
M73.342850,176.977631 
	C72.684700,174.718491 72.371521,172.404755 71.968681,169.718292 
	C74.621140,167.561234 77.363243,165.776917 80.760086,164.063782 
	C82.816795,164.354828 84.218765,164.574661 84.696465,164.649567 
	C83.412941,167.212097 82.208961,169.615845 81.004982,172.019592 
	C78.565933,173.654083 76.126869,175.288559 73.342850,176.977631 
z"/>
<path fill="#7080A3" opacity="1.000000" stroke="none" 
	d="
M256.985352,135.001740 
	C253.271927,134.667404 249.558502,134.333054 245.421616,133.589645 
	C246.454575,129.334930 241.901062,129.492401 241.017960,127.205078 
	C244.366516,127.153160 247.715088,127.101242 251.612473,127.456863 
	C253.778763,128.252319 255.396210,128.640228 257.007233,129.454559 
	C256.995636,131.587906 256.990479,133.294830 256.985352,135.001740 
z"/>
<path fill="#7C88A8" opacity="1.000000" stroke="none" 
	d="
M59.640076,178.069519 
	C61.168430,179.800064 62.378498,181.626038 63.787823,183.732391 
	C61.752327,186.474426 59.517574,188.936081 57.132973,191.692902 
	C55.005516,191.271057 53.027908,190.554092 50.326889,189.574875 
	C51.915871,188.245117 53.339291,187.152252 54.600948,185.896820 
	C54.800339,185.698410 54.269291,184.765930 53.937119,183.890747 
	C55.639442,181.794067 57.480618,179.979523 59.640076,178.069519 
z"/>
<path fill="#585A69" opacity="1.000000" stroke="none" 
	d="
M359.812256,147.875153 
	C361.352020,148.899490 362.733673,149.859665 364.217743,150.891006 
	C363.561615,152.200012 362.790375,153.738693 362.010193,155.633942 
	C357.496735,154.515228 352.992279,153.039963 348.233215,151.308411 
	C349.027344,149.045761 350.076019,147.039413 351.197510,144.613174 
	C352.110138,144.517609 352.949921,144.841949 353.883850,145.842346 
	C353.933075,147.576614 353.888153,148.634827 353.843262,149.693024 
	C354.605469,149.675919 355.440155,149.851547 356.113586,149.598328 
	C357.237946,149.175613 358.259247,148.478668 359.323914,147.897171 
	C359.323914,147.897171 359.654144,147.811020 359.812256,147.875153 
z"/>
<path fill="#CCD0E3" opacity="1.000000" stroke="none" 
	d="
M123.603722,144.970856 
	C124.007256,147.155777 124.023041,149.366318 124.029999,151.907928 
	C120.238342,153.618317 116.455513,154.997665 112.401276,156.050873 
	C112.964432,154.805176 113.798981,153.885651 114.314873,153.317215 
	C113.802803,151.564438 113.415962,150.240311 113.029114,148.916183 
	C116.424736,147.609604 119.820351,146.303040 123.603722,144.970856 
z"/>
<path fill="#C5C8DC" opacity="1.000000" stroke="none" 
	d="
M112.644485,148.932098 
	C113.415962,150.240311 113.802803,151.564438 114.314873,153.317215 
	C113.798981,153.885651 112.964432,154.805176 111.988037,156.076752 
	C109.482140,157.626266 107.118080,158.823761 104.389236,160.058990 
	C103.672302,157.920273 103.320168,155.743805 103.010391,153.204025 
	C106.121788,151.543137 109.190819,150.245575 112.644485,148.932098 
z"/>
<path fill="#A6AEC9" opacity="1.000000" stroke="none" 
	d="
M81.355629,171.970016 
	C82.208961,169.615845 83.412941,167.212097 84.696465,164.649567 
	C84.218765,164.574661 82.816795,164.354828 81.096840,163.987091 
	C83.914528,162.137177 87.050201,160.435181 90.549988,158.612198 
	C91.574051,160.454422 92.234016,162.417648 92.955933,164.764587 
	C89.247345,167.405701 85.476814,169.663071 81.355629,171.970016 
z"/>
<path fill="#65759B" opacity="1.000000" stroke="none" 
	d="
M257.406189,135.014557 
	C256.990479,133.294830 256.995636,131.587906 257.449982,129.451248 
	C260.895233,128.802017 263.891327,128.582535 266.887390,128.363052 
	C267.348785,128.219803 267.810211,128.076538 268.636902,128.022339 
	C268.984009,137.190918 268.441101,137.526901 257.406189,135.014557 
z"/>
<path fill="#CCD0E3" opacity="1.000000" stroke="none" 
	d="
M166.659302,133.100250 
	C168.587585,135.257828 170.124542,137.381195 171.853745,139.786194 
	C170.308212,140.421921 168.570450,140.776001 166.449371,141.106491 
	C163.271988,140.862854 160.477905,140.642807 157.242493,140.388000 
	C157.486374,138.877808 157.735962,137.332291 157.993103,135.395447 
	C160.756424,134.358093 163.512207,133.712067 166.659302,133.100250 
z"/>
<path fill="#7883A6" opacity="1.000000" stroke="none" 
	d="
M240.592773,127.123688 
	C241.901062,129.492401 246.454575,129.334930 244.998169,133.585999 
	C241.304260,133.993469 237.610336,133.995499 233.455078,133.993256 
	C232.641510,132.109772 232.289307,130.230545 231.905258,127.911850 
	C234.638138,127.329033 237.402878,127.185661 240.592773,127.123688 
z"/>
<path fill="#50525C" opacity="1.000000" stroke="none" 
	d="
M217.001221,345.988708 
	C217.312073,344.888428 217.622940,343.788177 218.381836,342.342285 
	C220.880646,341.681824 222.931427,341.366943 224.982208,341.052063 
	C227.369553,341.047150 229.756912,341.042267 232.588135,341.110657 
	C231.942978,342.122711 230.853943,343.061493 229.048325,344.005188 
	C227.701233,344.363556 227.070724,344.717010 226.440216,345.070496 
	C226.952606,345.377899 227.465012,345.685272 227.977417,345.992615 
	C228.220718,346.392639 228.464035,346.792694 228.829041,347.395111 
	C225.232880,347.655182 221.515030,347.712860 217.400665,347.272675 
	C217.003174,346.512787 217.002197,346.250763 217.001221,345.988708 
z"/>
<path fill="#585A69" opacity="1.000000" stroke="none" 
	d="
M163.657700,339.855591 
	C164.002197,340.465088 163.997269,340.918335 163.986664,341.711670 
	C157.900314,340.728149 151.819595,339.404602 145.373672,337.937439 
	C145.005661,337.095093 145.002869,336.396332 145.000031,335.348816 
	C145.000000,335.000000 144.998993,335.001221 144.998993,335.001221 
	C151.989334,333.109589 157.165237,338.289001 163.657700,339.855591 
z"/>
<path fill="#242428" opacity="1.000000" stroke="none" 
	d="
M388.060974,168.415100 
	C388.022858,166.521088 388.090454,164.866928 388.406616,163.261719 
	C388.552246,162.522278 389.184448,161.878647 389.866394,161.052704 
	C391.569824,161.885742 393.002869,162.857666 394.702728,164.026230 
	C394.402588,166.272491 393.835663,168.322113 393.156433,170.644714 
	C391.452179,170.170135 389.860260,169.422562 388.060974,168.415100 
z"/>
<path fill="#8B93B0" opacity="1.000000" stroke="none" 
	d="
M266.642517,128.027252 
	C263.891327,128.582535 260.895233,128.802017 257.456421,129.024811 
	C255.396210,128.640228 253.778763,128.252319 252.065704,127.511345 
	C256.779297,127.336014 261.588501,127.513733 266.642517,128.027252 
z"/>
<path fill="#464A51" opacity="1.000000" stroke="none" 
	d="
M216.536804,345.992554 
	C217.002197,346.250763 217.003174,346.512787 217.008545,347.168945 
	C212.557175,347.576080 208.101440,347.589050 203.250702,347.471191 
	C207.261292,346.892426 211.666840,346.444427 216.536804,345.992554 
z"/>
<path fill="#50525C" opacity="1.000000" stroke="none" 
	d="
M359.111633,147.591400 
	C358.259247,148.478668 357.237946,149.175613 356.113586,149.598328 
	C355.440155,149.851547 354.605469,149.675919 353.843262,149.693024 
	C353.888153,148.634827 353.933075,147.576614 354.021851,146.161957 
	C355.676910,146.298859 357.288147,146.792236 359.111633,147.591400 
z"/>
<path fill="#626C83" opacity="1.000000" stroke="none" 
	d="
M278.630127,128.897919 
	C276.828003,129.197052 274.661407,129.372269 272.235352,129.266449 
	C271.975891,128.985397 272.019440,128.606445 272.023987,128.415863 
	C274.107605,128.408188 276.186676,128.591095 278.630127,128.897919 
z"/>
<path fill="#0C0C11" opacity="1.000000" stroke="none" 
	d="
M417.321228,296.970428 
	C417.549408,296.410065 418.078796,295.765961 418.960022,295.120300 
	C418.748688,295.708099 418.185547,296.297363 417.321228,296.970428 
z"/>
<path fill="#464A51" opacity="1.000000" stroke="none" 
	d="
M199.326447,347.153564 
	C199.591568,346.932007 200.196075,346.818176 200.942810,346.959717 
	C200.611984,347.230530 200.138885,347.245911 199.326447,347.153564 
z"/>
<path fill="#040405" opacity="1.000000" stroke="none" 
	d="
M364.471741,262.909821 
	C363.052612,263.595306 361.633484,264.280762 359.700989,265.357880 
	C343.613190,272.755829 326.939697,270.006073 310.502502,270.953674 
	C308.549438,280.796143 306.636688,290.435455 304.692383,300.233673 
	C296.472595,300.233673 288.687592,300.233673 280.854370,299.805023 
	C287.908661,262.572388 295.011200,225.768387 302.124908,188.906479 
	C315.780823,188.906479 328.928589,188.695709 342.065247,188.987289 
	C349.672852,189.156143 357.262512,190.133667 365.148865,190.898285 
	C380.265228,196.537415 387.004761,206.432632 386.439270,221.623688 
	C386.040436,232.338409 382.802917,242.082916 376.729065,251.165283 
	C376.568207,251.350082 376.828125,251.765442 376.828125,251.765442 
	C376.828125,251.765442 376.842224,251.827911 376.490814,251.743118 
	C375.726257,252.396713 375.313141,253.135101 374.899994,253.873489 
	C374.899994,253.873489 374.881866,253.913467 374.534302,253.987366 
	C370.948395,257.010773 367.710052,259.960297 364.471741,262.909821 
M360.196594,229.551590 
	C363.666504,214.085785 358.948334,207.427032 343.373383,206.452682 
	C336.749969,206.038330 330.078979,206.383484 323.023346,206.383484 
	C320.003174,221.882767 317.005493,237.266754 313.933075,253.034302 
	C320.237610,253.034302 326.048676,253.173233 331.851044,253.007950 
	C348.458405,252.534821 355.998657,246.434464 360.196594,229.551590 
z"/>
<path fill="#E9EDF2" opacity="1.000000" stroke="none" 
	d="
M115.749725,303.903687 
	C109.544250,304.224518 103.338768,304.545349 96.418854,304.567871 
	C86.578194,303.017273 86.724190,303.046051 88.526917,293.900787 
	C89.889755,286.987061 90.818680,279.987854 91.940720,273.026672 
	C91.940712,273.026672 91.983574,272.548065 92.307739,272.070923 
	C93.446236,266.737152 94.260574,261.880493 95.074898,257.023865 
	C95.700172,254.924774 96.325455,252.825684 97.020844,249.960144 
	C101.027008,228.799652 104.963051,208.405640 108.899094,188.011612 
	C108.899101,188.011612 109.028755,187.602478 109.326248,187.214432 
	C110.747444,186.232620 111.871162,185.638855 113.460266,185.110504 
	C121.380310,185.186951 128.839172,185.042618 136.288681,185.244186 
	C148.517548,185.575073 160.740326,186.130417 173.224304,186.736710 
	C174.662628,187.184830 175.842331,187.487350 177.022049,187.789856 
	C177.441544,187.902618 177.861053,188.015381 178.846802,188.404999 
	C189.713287,192.919373 196.652634,200.219940 200.102600,211.078476 
	C201.226700,205.085297 202.350800,199.092117 203.474899,193.098938 
	C203.638794,192.274963 203.802689,191.450989 204.065643,189.928558 
	C206.231064,178.447708 208.297409,167.665314 210.363770,156.882935 
	C210.363770,156.882935 210.352661,156.546082 210.169739,156.481750 
	C209.986816,156.417419 210.059036,156.405930 210.059036,156.405930 
	C210.492142,156.305374 210.925232,156.204803 212.107697,156.027527 
	C214.560089,155.833603 216.263107,155.716415 218.431213,155.668152 
	C225.901474,155.843704 232.906662,155.950333 239.911865,156.056946 
	C240.175903,156.564590 240.439926,157.072250 240.870667,158.226898 
	C239.498611,167.475220 237.959854,176.076553 236.325180,185.214050 
	C251.488770,185.302567 266.537415,184.256271 280.689606,190.291336 
	C280.689606,190.291336 280.763397,190.213562 280.817017,190.582901 
	C282.462585,192.061951 284.054535,193.171661 285.646515,194.281372 
	C285.646515,194.281372 285.681702,194.330902 285.646973,194.670593 
	C286.370636,196.047470 287.128998,197.084656 287.887360,198.121857 
	C287.887360,198.121857 287.949188,198.052689 287.939545,198.372299 
	C288.253296,199.241425 288.576660,199.790939 288.900055,200.340469 
	C288.900055,200.340469 288.881683,200.682602 288.971619,201.204681 
	C289.417114,203.160660 289.772705,204.594559 290.095673,206.488876 
	C290.007507,210.092178 290.402649,213.320969 289.822754,216.363937 
	C286.231628,235.207977 282.421295,254.010269 278.336975,273.037567 
	C268.382141,273.335510 258.774048,273.422333 249.165985,273.509125 
	C249.106552,273.289307 248.985489,273.111420 248.536713,272.502930 
	C249.701462,263.384735 251.132294,254.739105 252.563141,246.093491 
	C252.799896,244.998901 253.036682,243.904297 253.472244,242.142639 
	C255.060257,234.324707 256.491638,227.181717 257.826324,220.020706 
	C259.052551,213.441605 257.725250,210.757690 252.171280,210.395981 
	C245.273941,209.946762 238.325089,210.288300 231.186020,210.288300 
	C229.239426,220.734161 227.360870,230.814835 225.482330,240.895523 
	C225.335175,241.423264 225.188034,241.951004 224.968414,243.130600 
	C224.839386,244.558319 224.782837,245.334183 224.726288,246.110046 
	C224.726288,246.110046 224.676010,246.346603 224.499054,246.709259 
	C223.853683,249.166641 223.424118,251.270950 222.909760,253.354340 
	C221.220383,260.196960 219.500275,267.031952 217.791992,273.869873 
	C217.791992,273.869873 217.331207,273.970154 216.674332,274.053711 
	C208.032913,274.164795 200.048355,274.192291 192.063812,274.219818 
	C189.033859,273.504486 187.921066,271.683990 188.940460,267.945343 
	C190.087936,261.778229 191.163055,256.341919 191.712830,253.561951 
	C187.997925,256.609375 182.927490,260.768738 177.857056,264.928101 
	C177.290558,265.442505 176.724060,265.956879 175.837494,266.822144 
	C175.312561,267.438080 175.107727,267.703094 174.902893,267.968140 
	C167.200851,269.911530 159.498795,271.854919 150.927582,273.836853 
	C142.904037,273.927185 135.747253,274.108826 128.596405,273.974335 
	C125.173691,273.909973 123.155777,274.362091 122.670433,278.542328 
	C121.906731,285.120026 120.444786,291.636078 118.926529,298.095520 
	C118.439850,300.166077 116.840179,301.975037 115.749725,303.903687 
M109.944756,202.415573 
	C103.596107,234.848053 97.247459,267.280518 90.840340,300.011719 
	C99.031570,300.011719 106.800507,300.011719 115.024529,300.011719 
	C116.959602,290.345673 118.901810,280.644043 121.004166,270.142426 
	C131.242599,270.142426 141.248230,270.653229 151.184341,270.039215 
	C173.945908,268.632660 190.673447,253.857925 195.546707,231.587677 
	C201.177505,205.855530 188.326752,189.463638 161.954071,188.949814 
	C151.460007,188.745331 140.958801,188.906464 130.460846,188.902939 
	C124.509842,188.900955 118.558846,188.902588 112.488190,188.902588 
	C111.607033,193.464188 110.824074,197.517426 109.944756,202.415573 
M253.320831,260.921478 
	C252.797485,263.992432 252.274155,267.063416 251.692032,270.479309 
	C259.899231,270.479309 267.665131,270.479309 276.192413,270.479309 
	C279.749756,250.806198 283.920898,231.143280 286.652679,211.282394 
	C288.156586,200.348373 282.575348,193.386078 271.600006,191.137634 
	C263.220520,189.420975 254.464493,189.459122 245.862289,188.946548 
	C241.329773,188.676483 236.767944,188.898804 231.947128,188.898804 
	C233.919052,178.599960 235.723007,169.178375 237.597458,159.388580 
	C229.389282,159.388580 221.661835,159.388580 213.603714,159.388580 
	C206.405838,196.428665 199.229385,233.358536 191.999481,270.563507 
	C200.221603,270.563507 207.852890,270.563507 216.004059,270.563507 
	C220.143875,249.392258 224.274780,228.266693 228.449448,206.917236 
	C236.324234,206.917236 243.968674,206.674133 251.590820,206.982239 
	C260.048767,207.324127 262.802155,210.929596 261.270233,219.402740 
	C258.814178,232.987534 256.135590,246.532089 253.320831,260.921478 
z"/>
<path fill="#E8EBEF" opacity="1.000000" stroke="none" 
	d="
M364.860229,190.747269 
	C357.262512,190.133667 349.672852,189.156143 342.065247,188.987289 
	C328.928589,188.695709 315.780823,188.906479 302.124908,188.906479 
	C295.011200,225.768387 287.908661,262.572388 280.645996,300.023499 
	C279.066376,299.784424 277.646881,298.898224 276.207764,297.609741 
	C276.807678,292.806366 277.427216,288.405273 278.046783,284.004150 
	C278.356354,283.530243 278.665924,283.056335 279.061218,281.909790 
	C279.508972,278.963684 279.871033,276.690308 280.471008,274.091888 
	C281.673218,269.072235 282.699341,264.389252 283.590759,259.680817 
	C286.786743,242.800598 289.937164,225.911728 293.264221,208.695831 
	C293.620117,206.918488 293.816589,205.471436 294.013031,204.024399 
	C294.932007,199.893707 295.850983,195.763016 296.837769,190.882507 
	C297.441833,186.610809 299.309418,185.070694 303.043640,185.137497 
	C321.016235,185.459091 338.992157,185.592880 356.966919,185.793335 
	C359.732422,186.468369 362.497925,187.143387 365.473938,188.270264 
	C365.409698,189.397156 365.134949,190.072220 364.860229,190.747269 
z"/>
<path fill="#EBF0F7" opacity="1.000000" stroke="none" 
	d="
M276.227386,298.012024 
	C277.646881,298.898224 279.066376,299.784424 280.694214,300.452148 
	C288.687592,300.233673 296.472595,300.233673 304.692383,300.233673 
	C306.636688,290.435455 308.549438,280.796143 310.502502,270.953674 
	C326.939697,270.006073 343.613190,272.755829 359.549438,265.620148 
	C362.856628,267.482239 360.314056,268.445923 358.990936,268.822937 
	C352.632538,270.634613 346.198608,272.181122 338.920654,273.869110 
	C330.571716,273.958862 323.091003,274.129089 315.616974,273.975830 
	C312.926270,273.920685 311.670258,274.883240 311.229248,277.395996 
	C310.256531,282.938538 309.229248,288.471497 308.081909,294.371094 
	C307.689331,295.866302 307.301605,296.988159 307.213257,298.133179 
	C306.881866,302.427795 304.795166,304.189270 300.358948,303.920532 
	C294.233429,303.549408 288.076660,303.695068 281.853271,303.517639 
	C281.525360,303.263062 281.300110,303.299469 280.734741,303.598022 
	C278.930511,303.414917 277.489075,303.158997 276.047607,302.903076 
	C276.047607,302.903076 276.024780,302.983124 275.997253,302.627380 
	C276.055634,300.851776 276.141510,299.431885 276.227386,298.012024 
z"/>
<path fill="#DEE3EA" opacity="1.000000" stroke="none" 
	d="
M365.148865,190.898285 
	C365.134949,190.072220 365.409698,189.397156 365.833130,188.386780 
	C370.077728,188.042404 373.386963,189.679733 376.487488,193.268661 
	C383.646271,199.522446 388.258209,206.791824 388.141266,215.595520 
	C388.028534,224.079987 386.131042,232.540726 385.017639,241.011887 
	C382.920502,244.633453 380.823364,248.255020 378.293945,251.791748 
	C377.537720,251.464767 377.213837,251.222626 376.889923,250.980499 
	C382.802917,242.082916 386.040436,232.338409 386.439270,221.623688 
	C387.004761,206.432632 380.265228,196.537415 365.148865,190.898285 
z"/>
<path fill="#7883A6" opacity="1.000000" stroke="none" 
	d="
M225.847290,240.790741 
	C227.360870,230.814835 229.239426,220.734161 231.186020,210.288300 
	C238.325089,210.288300 245.273941,209.946762 252.171280,210.395981 
	C257.725250,210.757690 259.052551,213.441605 257.826324,220.020706 
	C256.491638,227.181717 255.060257,234.324707 253.474640,241.803345 
	C252.996979,240.148743 252.212433,238.082413 252.526581,236.199341 
	C253.567337,229.960495 254.909821,223.766068 256.326233,217.598145 
	C257.103485,214.213516 255.768188,213.081070 252.567169,212.968964 
	C247.135025,212.778732 241.704117,212.127838 236.286179,212.253265 
	C234.907822,212.285156 232.738678,214.305588 232.383957,215.765015 
	C231.226471,220.527298 231.004654,225.513367 229.907028,230.294937 
	C229.090073,233.853806 227.472992,237.228989 225.847290,240.790741 
z"/>
<path fill="#585A69" opacity="1.000000" stroke="none" 
	d="
M208.997955,343.998779 
	C206.351303,343.434845 203.726013,342.708618 201.051468,342.356628 
	C198.778976,342.057556 196.078949,341.401306 194.213928,342.277557 
	C188.256760,345.076691 183.182190,342.863708 177.860641,340.661560 
	C176.664825,340.166687 174.977905,340.998810 173.531555,340.927185 
	C172.232056,340.862885 170.952499,340.396301 169.338150,340.058472 
	C169.908401,338.875183 170.804626,337.740692 171.846008,336.313782 
	C172.434753,336.029236 172.878372,336.037079 173.709778,336.394348 
	C175.073700,336.802551 176.049850,336.861267 177.026001,336.919983 
	C189.069473,337.995697 201.112961,339.071442 213.590561,340.514709 
	C214.016251,341.256439 214.007828,341.630646 213.999390,342.004883 
	C213.225311,342.334351 212.451248,342.663818 211.041229,343.015991 
	C209.936172,343.358734 209.467056,343.678772 208.997955,343.998779 
z"/>
<path fill="#65759B" opacity="1.000000" stroke="none" 
	d="
M37.009281,204.511810 
	C39.433975,204.418396 41.839615,204.713974 44.624882,205.004471 
	C45.004345,205.443283 45.004177,205.887161 44.758324,206.830505 
	C44.337475,207.883331 44.162312,208.436691 43.987148,208.990067 
	C35.593830,217.795914 35.068672,228.878723 34.971977,240.551025 
	C34.004154,240.241257 32.265747,239.510574 32.223976,238.693161 
	C31.906651,232.483353 31.689161,226.245682 31.980904,220.042099 
	C32.063080,218.294739 33.941654,216.631866 35.092323,214.775269 
	C35.652405,211.861267 36.321316,208.381027 37.009281,204.511810 
z"/>
<path fill="#7483A8" opacity="1.000000" stroke="none" 
	d="
M116.177254,303.933655 
	C116.840179,301.975037 118.439850,300.166077 118.926529,298.095520 
	C120.444786,291.636078 121.906731,285.120026 122.670433,278.542328 
	C123.155777,274.362091 125.173691,273.909973 128.596405,273.974335 
	C135.747253,274.108826 142.904037,273.927185 150.525085,273.912903 
	C150.296768,277.480408 148.339233,277.902039 144.849686,277.613831 
	C139.092026,277.138367 133.223267,277.579926 127.446625,278.119659 
	C126.271980,278.229401 124.658554,280.342896 124.342239,281.774567 
	C123.001694,287.842041 121.860512,293.973877 121.085945,300.137421 
	C120.702995,303.184692 119.413185,304.223083 116.177254,303.933655 
z"/>
<path fill="#7483A8" opacity="1.000000" stroke="none" 
	d="
M108.544678,188.083282 
	C104.963051,208.405640 101.027008,228.799652 96.994568,249.578186 
	C96.616577,248.890884 95.965233,247.766052 96.110176,246.755402 
	C97.677277,235.828400 98.969315,224.838455 101.153557,214.030838 
	C102.920380,205.288589 105.802742,196.771774 108.544678,188.083282 
z"/>
<path fill="#7483A8" opacity="1.000000" stroke="none" 
	d="
M385.390503,240.966156 
	C386.131042,232.540726 388.028534,224.079987 388.141266,215.595520 
	C388.258209,206.791824 383.646271,199.522446 376.787598,193.423187 
	C378.809784,194.274796 381.166229,195.230087 383.243927,196.606216 
	C385.256439,197.939148 387.052551,199.632294 388.796448,201.319397 
	C389.415039,201.917831 389.948425,202.971756 389.930511,203.805038 
	C389.694427,214.773422 389.469299,225.745636 388.897949,236.698975 
	C388.821899,238.156662 386.854736,239.515717 385.390503,240.966156 
z"/>
<path fill="#7381A2" opacity="1.000000" stroke="none" 
	d="
M91.656990,273.256134 
	C90.818680,279.987854 89.889755,286.987061 88.526917,293.900787 
	C86.724190,303.046051 86.578194,303.017273 95.968109,304.581573 
	C96.071777,304.905670 95.905251,304.893188 95.752731,304.933624 
	C93.898926,305.424805 92.047195,305.923798 90.194916,306.420776 
	C91.422127,307.701599 92.649330,308.982422 93.936607,310.613586 
	C90.747154,308.906555 87.497627,306.849121 84.085571,304.174927 
	C83.533562,303.184540 83.144089,302.810944 82.754623,302.437317 
	C82.495964,302.966248 82.237312,303.495178 81.978653,304.024109 
	C80.337708,302.924133 78.696762,301.824158 76.973289,300.403931 
	C84.484711,299.356598 85.773476,297.910126 87.131104,290.664978 
	C88.215721,284.876770 89.935440,279.207611 91.656990,273.256134 
z"/>
<path fill="#7381A2" opacity="1.000000" stroke="none" 
	d="
M280.753052,189.916122 
	C266.537415,184.256271 251.488770,185.302567 236.325180,185.214050 
	C237.959854,176.076553 239.498611,167.475220 241.047119,158.453857 
	C240.877701,162.340683 240.837753,166.659424 240.471130,170.950241 
	C240.220490,173.883942 239.335159,176.762039 239.061752,179.695572 
	C238.781860,182.698715 239.695831,183.834747 243.398193,183.559753 
	C249.908737,183.076157 256.561066,183.352722 263.054199,184.137146 
	C268.509735,184.796204 273.833099,186.593430 279.186707,187.994827 
	C279.821381,188.160965 280.277588,189.008987 280.753052,189.916122 
z"/>
<path fill="#7483A8" opacity="1.000000" stroke="none" 
	d="
M280.233124,274.416901 
	C279.871033,276.690308 279.508972,278.963684 279.047150,281.609314 
	C275.994659,278.164917 272.170685,276.540710 267.314606,276.957733 
	C262.733459,277.351074 258.109894,277.710693 253.536362,277.475372 
	C252.002350,277.396454 250.564865,275.441345 249.124634,273.926453 
	C258.774048,273.422333 268.382141,273.335510 278.664856,273.227081 
	C279.637360,273.609253 279.935242,274.013092 280.233124,274.416901 
z"/>
<path fill="#7C88A8" opacity="1.000000" stroke="none" 
	d="
M203.107666,193.218216 
	C202.350800,199.092117 201.226700,205.085297 200.102600,211.078476 
	C196.652634,200.219940 189.713287,192.919373 179.169830,188.450104 
	C180.684265,188.403625 182.848969,187.997772 184.127731,188.878418 
	C189.163589,192.346497 193.920914,196.219040 199.321747,200.355103 
	C200.194672,198.563248 201.467560,195.950378 203.107666,193.218216 
z"/>
<path fill="#0C0C11" opacity="1.000000" stroke="none" 
	d="
M408.288696,294.690247 
	C406.905701,296.752258 405.458130,299.192566 403.412231,300.927246 
	C400.699463,303.227325 397.165985,304.606964 394.618652,307.044189 
	C390.259735,311.214661 385.201019,312.871796 378.928101,312.885254 
	C388.297180,306.815460 398.127533,300.785004 408.288696,294.690247 
z"/>
<path fill="#7483A8" opacity="1.000000" stroke="none" 
	d="
M308.224213,294.008362 
	C309.229248,288.471497 310.256531,282.938538 311.229248,277.395996 
	C311.670258,274.883240 312.926270,273.920685 315.616974,273.975830 
	C323.091003,274.129089 330.571716,273.958862 338.514526,273.960022 
	C338.361298,274.650238 337.765381,275.831787 337.121918,275.858246 
	C332.230164,276.059357 327.295593,276.414703 322.439117,275.986908 
	C315.924713,275.413086 313.955261,276.715393 312.657043,283.105286 
	C311.939453,286.637421 310.612518,290.045776 309.088562,293.757751 
	C308.616882,294.005615 308.224213,294.008362 308.224213,294.008362 
z"/>
<path fill="#090A1D" opacity="1.000000" stroke="none" 
	d="
M364.537628,318.844666 
	C364.188995,319.532623 363.459595,320.263092 362.054810,321.134216 
	C360.250671,322.509766 359.121918,323.744598 357.993164,324.979492 
	C354.458282,325.769104 350.712311,326.065674 347.439301,327.467041 
	C342.838806,329.436768 338.356598,330.949890 332.860931,329.867310 
	C342.984711,326.176514 353.570770,322.531830 364.537628,318.844666 
z"/>
<path fill="#7381A2" opacity="1.000000" stroke="none" 
	d="
M178.268188,264.950500 
	C182.927490,260.768738 187.997925,256.609375 191.712830,253.561951 
	C191.163055,256.341919 190.087936,261.778229 188.905609,267.606903 
	C188.329224,265.584259 187.860062,263.169250 187.555054,261.599182 
	C184.739441,262.669434 181.709366,263.821167 178.268188,264.950500 
z"/>
<path fill="#6B7B9A" opacity="1.000000" stroke="none" 
	d="
M356.863342,185.415436 
	C338.992157,185.592880 321.016235,185.459091 303.043640,185.137497 
	C299.309418,185.070694 297.441833,186.610809 296.798157,190.494385 
	C295.396179,187.153961 295.555969,184.057831 300.485535,184.034073 
	C318.378204,183.947784 336.271667,183.992722 354.164581,184.054932 
	C355.030792,184.057938 355.894745,184.695480 356.863342,185.415436 
z"/>
<path fill="#6B7B9A" opacity="1.000000" stroke="none" 
	d="
M172.965683,186.591125 
	C160.740326,186.130417 148.517548,185.575073 136.288681,185.244186 
	C128.839172,185.042618 121.380310,185.186951 113.461075,184.842239 
	C112.998657,184.329819 113.000824,184.151077 113.002991,183.972321 
	C127.615669,183.977478 142.229141,183.897690 156.840591,184.033920 
	C161.945953,184.081512 167.046356,184.661392 172.561279,185.397736 
	C172.970932,186.061890 172.968307,186.326508 172.965683,186.591125 
z"/>
<path fill="#8F9ABE" opacity="1.000000" stroke="none" 
	d="
M209.411377,135.950150 
	C208.976242,133.909912 208.988144,131.894485 209.001251,129.445496 
	C212.963562,130.768906 216.924698,132.525894 220.942352,134.632294 
	C217.285416,135.312790 213.571930,135.643890 209.411377,135.950150 
z"/>
<path fill="#7080A3" opacity="1.000000" stroke="none" 
	d="
M308.081909,294.371094 
	C308.224213,294.008362 308.616882,294.005615 308.813324,294.005249 
	C308.811157,304.679474 311.270111,305.142883 298.007385,305.013336 
	C292.204407,304.956635 286.398346,305.089691 280.598389,304.946259 
	C279.115387,304.909576 277.650360,304.148346 276.112335,303.311523 
	C277.489075,303.158997 278.930511,303.414917 280.935242,303.696014 
	C281.498474,303.721191 281.933258,303.619385 281.933258,303.619385 
	C288.076660,303.695068 294.233429,303.549408 300.358948,303.920532 
	C304.795166,304.189270 306.881866,302.427795 307.213257,298.133179 
	C307.301605,296.988159 307.689331,295.866302 308.081909,294.371094 
z"/>
<path fill="#7C88A8" opacity="1.000000" stroke="none" 
	d="
M210.025574,157.100693 
	C208.297409,167.665314 206.231064,178.447708 204.049042,189.608566 
	C203.345581,189.366241 202.154007,188.609207 202.258804,188.144669 
	C204.551361,177.983490 206.987122,167.854599 209.404526,157.721695 
	C209.439941,157.573227 209.590530,157.452255 210.025574,157.100693 
z"/>
<path fill="#7883A6" opacity="1.000000" stroke="none" 
	d="
M252.190765,246.214890 
	C251.132294,254.739105 249.701462,263.384735 248.390411,272.429382 
	C245.790588,273.300110 245.153915,272.558716 245.864166,269.665009 
	C247.213486,264.167603 247.842163,258.496643 249.074738,252.965652 
	C249.587158,250.666260 250.880310,248.540833 252.190765,246.214890 
z"/>
<path fill="#7883A6" opacity="1.000000" stroke="none" 
	d="
M218.108887,274.002136 
	C219.500275,267.031952 221.220383,260.196960 222.909760,253.354340 
	C223.424118,251.270950 223.853683,249.166641 224.604828,246.767853 
	C224.169220,252.123688 223.439392,257.782166 222.738174,263.444214 
	C222.457657,265.709320 222.617401,268.117493 221.868256,270.206451 
	C221.321442,271.731201 219.615204,272.840118 218.108887,274.002136 
z"/>
<path fill="#6B7B9A" opacity="1.000000" stroke="none" 
	d="
M192.161774,274.596802 
	C200.048355,274.192291 208.032913,274.164795 216.477936,274.184174 
	C216.113174,274.817017 215.296829,275.896118 214.461334,275.911133 
	C207.589264,276.034821 200.713394,275.982086 193.839554,275.904816 
	C193.309525,275.898865 192.786194,275.298096 192.161774,274.596802 
z"/>
<path fill="#6B7B9A" opacity="1.000000" stroke="none" 
	d="
M240.119171,155.888779 
	C232.906662,155.950333 225.901474,155.843704 218.301788,155.468597 
	C217.456131,154.796234 217.204941,154.392349 216.953766,153.988449 
	C223.487381,153.841263 230.022324,153.576218 236.553482,153.649002 
	C237.818695,153.663086 239.069214,154.996017 240.119171,155.888779 
z"/>
<path fill="#7080A3" opacity="1.000000" stroke="none" 
	d="
M276.207764,297.609741 
	C276.141510,299.431885 276.055634,300.851776 276.034241,302.608276 
	C275.283905,302.206421 273.669403,301.311981 273.778290,300.753571 
	C274.844025,295.286865 276.197083,289.876221 277.757629,284.226868 
	C277.427216,288.405273 276.807678,292.806366 276.207764,297.609741 
z"/>
<path fill="#EBF0F7" opacity="1.000000" stroke="none" 
	d="
M364.615265,263.230469 
	C367.710052,259.960297 370.948395,257.010773 374.515198,253.998215 
	C375.095062,254.374130 375.346436,254.813095 375.060303,255.761780 
	C374.027802,257.540771 373.532776,258.810059 373.037750,260.079315 
	C371.449860,261.292328 369.861969,262.505371 367.822998,263.954102 
	C367.207489,264.358978 367.086273,264.554932 367.008301,264.777649 
	C366.258453,264.368774 365.508636,263.959930 364.615265,263.230469 
z"/>
<path fill="#7381A2" opacity="1.000000" stroke="none" 
	d="
M94.706703,257.077667 
	C94.260574,261.880493 93.446236,266.737152 92.327347,271.831482 
	C92.794693,267.089935 93.566597,262.110718 94.706703,257.077667 
z"/>
<path fill="#0C0C11" opacity="1.000000" stroke="none" 
	d="
M414.277100,289.708252 
	C415.453857,293.845642 413.623566,295.455383 409.091156,294.745026 
	C410.428925,293.014862 412.195465,291.401917 414.277100,289.708252 
z"/>
<path fill="#7381A2" opacity="1.000000" stroke="none" 
	d="
M293.648773,204.008453 
	C293.816589,205.471436 293.620117,206.918488 292.932831,208.654480 
	C291.670776,207.971771 290.899506,207.000107 290.128265,206.028458 
	C289.772705,204.594559 289.417114,203.160660 289.051331,201.356323 
	C290.455566,201.988098 291.870026,202.990311 293.648773,204.008453 
z"/>
<path fill="#0C0C11" opacity="1.000000" stroke="none" 
	d="
M374.470947,314.523499 
	C374.497162,318.282135 372.612274,319.538910 368.838165,317.586487 
	C370.485779,316.346893 372.304535,315.476379 374.470947,314.523499 
z"/>
<path fill="#585A69" opacity="1.000000" stroke="none" 
	d="
M224.699707,340.768524 
	C222.931427,341.366943 220.880646,341.681824 218.412186,341.997742 
	C217.994507,341.998779 217.504272,341.995636 217.251373,341.728088 
	C216.979050,341.108490 216.959610,340.756439 216.940170,340.404419 
	C219.432510,340.431305 221.924850,340.458160 224.699707,340.768524 
z"/>
<path fill="#7483A8" opacity="1.000000" stroke="none" 
	d="
M112.997299,183.631927 
	C113.000824,184.151077 112.998657,184.329819 112.995682,184.776825 
	C111.871162,185.638855 110.747444,186.232620 109.348389,187.000977 
	C109.751488,185.440948 110.429939,183.706314 111.108383,181.971664 
	C111.736115,182.411621 112.363861,182.851578 112.997299,183.631927 
z"/>
<path fill="#7C88A8" opacity="1.000000" stroke="none" 
	d="
M216.657227,153.860870 
	C217.204941,154.392349 217.456131,154.796234 217.836731,155.399673 
	C216.263107,155.716415 214.560089,155.833603 212.430878,155.910629 
	C213.456696,155.158066 214.908691,154.445679 216.657227,153.860870 
z"/>
<path fill="#7381A2" opacity="1.000000" stroke="none" 
	d="
M285.739075,193.905304 
	C284.054535,193.171661 282.462585,192.061951 280.816864,190.636505 
	C282.452606,191.390244 284.142120,192.459732 285.739075,193.905304 
z"/>
<path fill="#464A51" opacity="1.000000" stroke="none" 
	d="
M272.728760,339.471375 
	C271.593781,339.979156 270.083069,340.345642 268.327728,340.494385 
	C269.506409,339.961151 270.929718,339.645630 272.728760,339.471375 
z"/>
<path fill="#7C88A8" opacity="1.000000" stroke="none" 
	d="
M173.224304,186.736725 
	C172.968307,186.326508 172.970932,186.061890 172.990738,185.400772 
	C174.333298,185.688553 175.658646,186.372833 177.003021,187.423492 
	C175.842331,187.487350 174.662628,187.184830 173.224304,186.736725 
z"/>
<path fill="#7381A2" opacity="1.000000" stroke="none" 
	d="
M287.928253,197.762619 
	C287.128998,197.084656 286.370636,196.047470 285.638885,194.699860 
	C286.413086,194.279465 287.160706,194.169495 288.258392,194.008011 
	C288.145416,195.334213 288.057281,196.368805 287.928253,197.762619 
z"/>
<path fill="#DEE3EA" opacity="1.000000" stroke="none" 
	d="
M373.334595,259.917847 
	C373.532776,258.810059 374.027802,257.540771 374.861847,256.129028 
	C374.677704,257.243164 374.154572,258.499756 373.334595,259.917847 
z"/>
<path fill="#5C6374" opacity="1.000000" stroke="none" 
	d="
M176.806152,336.671936 
	C176.049850,336.861267 175.073700,336.802551 174.040741,336.429840 
	C174.851379,336.218536 175.718842,336.321198 176.806152,336.671936 
z"/>
<path fill="#50525C" opacity="1.000000" stroke="none" 
	d="
M216.586563,340.307556 
	C216.959610,340.756439 216.979050,341.108490 217.006256,341.727814 
	C216.260269,341.997467 215.506516,341.999817 214.376068,342.003510 
	C214.007828,341.630646 214.016251,341.256439 214.038864,340.606842 
	C214.779678,340.291199 215.506317,340.250946 216.586563,340.307556 
z"/>
<path fill="#EBF0F7" opacity="1.000000" stroke="none" 
	d="
M375.268646,254.142868 
	C375.313141,253.135101 375.726257,252.396713 376.458893,251.745682 
	C376.398010,252.692780 376.017670,253.552505 375.268646,254.142868 
z"/>
<path fill="#7080A3" opacity="1.000000" stroke="none" 
	d="
M44.281128,208.963821 
	C44.162312,208.436691 44.337475,207.883331 44.758335,207.163422 
	C44.861061,207.643768 44.718086,208.290680 44.281128,208.963821 
z"/>
<path fill="#657292" opacity="1.000000" stroke="none" 
	d="
M53.939629,281.692444 
	C53.347328,281.536591 52.721664,281.061859 52.075516,280.259766 
	C52.672112,280.412781 53.289192,280.893188 53.939629,281.692444 
z"/>
<path fill="#7883A6" opacity="1.000000" stroke="none" 
	d="
M225.012177,245.944458 
	C224.782837,245.334183 224.839386,244.558319 224.999176,243.408997 
	C225.167633,243.949997 225.232864,244.864426 225.012177,245.944458 
z"/>
<path fill="#7C88A8" opacity="1.000000" stroke="none" 
	d="
M210.004105,156.450729 
	C209.833649,155.971191 209.645905,155.458344 209.458176,154.945496 
	C209.569092,154.942062 209.765244,154.906998 209.777542,154.940125 
	C209.883072,155.224670 209.955399,155.521545 210.048340,156.110336 
	C210.059036,156.405930 209.986816,156.417419 210.004105,156.450729 
z"/>
<path fill="#7381A2" opacity="1.000000" stroke="none" 
	d="
M288.914124,199.992462 
	C288.576660,199.790939 288.253296,199.241425 287.893219,198.369843 
	C288.213776,198.580002 288.570984,199.112228 288.914124,199.992462 
z"/>
<path fill="#323236" opacity="1.000000" stroke="none" 
	d="
M290.811951,337.591949 
	C290.809479,337.903870 290.575134,338.009338 290.105591,337.987244 
	C290.044891,337.637848 290.281464,337.479797 290.811951,337.591949 
z"/>
<path fill="#323236" opacity="1.000000" stroke="none" 
	d="
M300.741455,336.075928 
	C300.739685,336.246979 300.473816,336.377716 300.097229,336.377625 
	C300.150116,336.176392 300.313751,336.106018 300.741455,336.075928 
z"/>
<path fill="#090A1D" opacity="1.000000" stroke="none" 
	d="
M325.739502,331.096008 
	C325.851501,331.510712 325.606659,331.642090 325.145081,331.386658 
	C325.040680,331.258362 325.495056,331.071167 325.739502,331.096008 
z"/>
<path fill="#090A1D" opacity="1.000000" stroke="none" 
	d="
M329.663574,330.107666 
	C329.649078,330.352081 329.321930,330.576508 328.686035,330.803894 
	C328.701813,330.567169 329.026367,330.327454 329.663574,330.107666 
z"/>
<path fill="#7381A2" opacity="1.000000" stroke="none" 
	d="
M175.137527,267.881348 
	C175.107727,267.703094 175.312561,267.438080 175.764420,267.109070 
	C175.882858,267.367004 175.669769,267.616852 175.137527,267.881348 
z"/>
<path fill="#0C0C11" opacity="1.000000" stroke="none" 
	d="
M377.692871,313.048889 
	C377.693115,313.269775 377.387329,313.534058 376.769958,313.838867 
	C376.767883,313.617035 377.077362,313.354675 377.692871,313.048889 
z"/>
<path fill="#EBF0F7" opacity="1.000000" stroke="none" 
	d="
M376.729065,251.165283 
	C377.213837,251.222626 377.537720,251.464767 378.006958,251.981201 
	C377.884705,252.300491 377.617157,252.345474 377.088867,252.077957 
	C376.828125,251.765442 376.568207,251.350082 376.729065,251.165283 
z"/>
<path fill="#DEE3EA" opacity="1.000000" stroke="none" 
	d="
M367.214844,264.741974 
	C367.086273,264.554932 367.207489,264.358978 367.501587,264.077881 
	C367.771454,264.272339 367.701477,264.519135 367.214844,264.741974 
z"/>
<path fill="#242428" opacity="1.000000" stroke="none" 
	d="
M396.537598,167.558533 
	C396.471954,167.599960 396.603241,167.517090 396.537598,167.558533 
z"/>
<path fill="#0C0C11" opacity="1.000000" stroke="none" 
	d="
M358.354187,325.023010 
	C359.121918,323.744598 360.250671,322.509766 361.688843,321.145935 
	C362.294281,322.414215 362.590302,323.811432 362.903412,325.566956 
	C361.518738,325.639038 360.116974,325.352814 358.354187,325.023010 
z"/>
<path fill="#6E81B5" opacity="1.000000" stroke="none" 
	d="
M82.307022,304.040070 
	C82.237312,303.495178 82.495964,302.966248 82.754623,302.437317 
	C83.144089,302.810944 83.533562,303.184540 83.930733,303.881409 
	C83.504082,304.155121 83.069740,304.105560 82.307022,304.040070 
z"/>
<path fill="#585A69" opacity="1.000000" stroke="none" 
	d="
M145.000427,334.999390 
	C143.020859,334.121460 141.040863,333.244171 139.060867,332.366882 
	C140.926682,333.346619 144.775146,327.926147 144.999420,334.609650 
	C144.998993,335.001221 145.000000,335.000000 145.000427,334.999390 
z"/>
<path fill="#585A69" opacity="1.000000" stroke="none" 
	d="
M166.084686,338.693329 
	C165.531387,338.725464 165.139069,338.597351 164.746735,338.469238 
	C164.853897,338.362213 164.984787,338.148468 165.064224,338.166138 
	C165.465393,338.255371 165.853180,338.404785 166.084686,338.693329 
z"/>
<path fill="#657292" opacity="1.000000" stroke="none" 
	d="
M40.000477,269.000610 
	C39.878414,269.431702 39.755871,269.862213 39.633335,270.292694 
	C39.617496,269.941864 39.601658,269.591003 39.792450,269.119751 
	C39.999081,268.999329 40.000000,269.000000 40.000477,269.000610 
z"/>
<path fill="#626C83" opacity="1.000000" stroke="none" 
	d="
M281.550690,131.467422 
	C281.583557,131.522400 281.517822,131.412445 281.550690,131.467422 
z"/>
<path fill="#53565E" opacity="1.000000" stroke="none" 
	d="
M228.227112,345.829681 
	C227.465012,345.685272 226.952606,345.377899 226.440216,345.070496 
	C227.070724,344.717010 227.701233,344.363556 228.664352,344.005035 
	C228.823578,344.555573 228.650192,345.111145 228.227112,345.829681 
z"/>
<path fill="#7C88A8" opacity="1.000000" stroke="none" 
	d="
M51.469749,192.450043 
	C51.525482,192.416916 51.414013,192.483154 51.469749,192.450043 
z"/>
<path fill="#50525C" opacity="1.000000" stroke="none" 
	d="
M209.296326,343.978394 
	C209.467056,343.678772 209.936172,343.358734 210.704010,343.018677 
	C210.533401,343.318420 210.064041,343.638184 209.296326,343.978394 
z"/>
<path fill="#E8EBEF" opacity="1.000000" stroke="none" 
	d="
M360.131836,229.972198 
	C355.998657,246.434464 348.458405,252.534821 331.851044,253.007950 
	C326.048676,253.173233 320.237610,253.034302 313.933075,253.034302 
	C317.005493,237.266754 320.003174,221.882767 323.023346,206.383484 
	C330.078979,206.383484 336.749969,206.038330 343.373383,206.452682 
	C358.948334,207.427032 363.666504,214.085785 360.131836,229.972198 
M320.784119,238.933273 
	C320.784119,238.933273 320.845825,238.907532 320.257843,239.376709 
	C319.567535,242.708771 318.877228,246.040848 318.004456,250.253677 
	C325.577637,249.743088 332.427612,249.797211 339.061737,248.627335 
	C342.651337,247.994354 345.872589,245.272491 349.303314,243.366394 
	C349.303314,243.366394 349.216797,243.264374 349.828217,243.281509 
	C350.234467,242.862122 350.640717,242.442749 351.608795,241.624313 
	C356.288055,235.344376 357.414215,227.953232 357.655731,220.486511 
	C357.841248,214.750854 355.469666,211.790970 349.552399,211.009949 
	C341.902069,210.000183 334.123779,209.960052 325.971191,209.476959 
	C324.217651,218.832336 322.608154,227.419235 320.798492,236.707733 
	C320.784180,237.429428 320.769867,238.151138 320.784119,238.933273 
z"/>
<path fill="#050505" opacity="1.000000" stroke="none" 
	d="
M109.992935,201.993103 
	C110.824074,197.517426 111.607033,193.464188 112.488190,188.902588 
	C118.558846,188.902588 124.509842,188.900955 130.460846,188.902939 
	C140.958801,188.906464 151.460007,188.745331 161.954071,188.949814 
	C188.326752,189.463638 201.177505,205.855530 195.546707,231.587677 
	C190.673447,253.857925 173.945908,268.632660 151.184341,270.039215 
	C141.248230,270.653229 131.242599,270.142426 121.004166,270.142426 
	C118.901810,280.644043 116.959602,290.345673 115.024529,300.011719 
	C106.800507,300.011719 99.031570,300.011719 90.840340,300.011719 
	C97.247459,267.280518 103.596107,234.848053 109.992935,201.993103 
M151.152847,251.907089 
	C158.583694,250.261810 164.668839,246.428009 167.309128,239.201447 
	C169.442978,233.361099 170.916916,227.076309 171.401657,220.888260 
	C172.005646,213.177750 167.717651,208.207504 159.793762,207.292252 
	C151.085922,206.286438 142.254440,206.351151 133.412430,205.946503 
	C130.282974,221.991135 127.298828,237.290680 124.132446,253.524582 
	C133.144241,253.018753 141.733047,252.536682 151.152847,251.907089 
z"/>
<path fill="#060506" opacity="1.000000" stroke="none" 
	d="
M253.435944,260.507568 
	C256.135590,246.532089 258.814178,232.987534 261.270233,219.402740 
	C262.802155,210.929596 260.048767,207.324127 251.590820,206.982239 
	C243.968674,206.674133 236.324234,206.917236 228.449448,206.917236 
	C224.274780,228.266693 220.143875,249.392258 216.004059,270.563507 
	C207.852890,270.563507 200.221603,270.563507 191.999481,270.563507 
	C199.229385,233.358536 206.405838,196.428665 213.603714,159.388580 
	C221.661835,159.388580 229.389282,159.388580 237.597458,159.388580 
	C235.723007,169.178375 233.919052,178.599960 231.947128,188.898804 
	C236.767944,188.898804 241.329773,188.676483 245.862289,188.946548 
	C254.464493,189.459122 263.220520,189.420975 271.600006,191.137634 
	C282.575348,193.386078 288.156586,200.348373 286.652679,211.282394 
	C283.920898,231.143280 279.749756,250.806198 276.192413,270.479309 
	C267.665131,270.479309 259.899231,270.479309 251.692032,270.479309 
	C252.274155,267.063416 252.797485,263.992432 253.435944,260.507568 
z"/>
<path fill="#838A9D" opacity="1.000000" stroke="none" 
	d="
M290.095673,206.488876 
	C290.899506,207.000107 291.670776,207.971771 292.773407,208.984772 
	C289.937164,225.911728 286.786743,242.800598 283.590759,259.680817 
	C282.699341,264.389252 281.673218,269.072235 280.471008,274.091888 
	C279.935242,274.013092 279.637360,273.609253 279.011597,273.015930 
	C282.421295,254.010269 286.231628,235.207977 289.822754,216.363937 
	C290.402649,213.320969 290.007507,210.092178 290.095673,206.488876 
z"/>
<path fill="#E8EBEF" opacity="1.000000" stroke="none" 
	d="
M281.853271,303.517639 
	C281.933258,303.619385 281.498474,303.721191 281.297974,303.623169 
	C281.300110,303.299469 281.525360,303.263062 281.853271,303.517639 
z"/>
<path fill="#6F81B4" opacity="1.000000" stroke="none" 
	d="
M320.998657,236.006134 
	C322.608154,227.419235 324.217651,218.832336 325.971191,209.476959 
	C334.123779,209.960052 341.902069,210.000183 349.552399,211.009949 
	C355.469666,211.790970 357.841248,214.750854 357.655731,220.486511 
	C357.414215,227.953232 356.288055,235.344376 351.014648,241.841965 
	C350.019257,242.461197 349.618011,242.862778 349.216797,243.264374 
	C349.216797,243.264374 349.303314,243.366394 349.015656,243.210938 
	C348.274506,242.953262 347.605347,242.604218 347.398834,242.784668 
	C340.936310,248.431656 333.064484,248.230621 325.297516,247.820129 
	C323.678284,247.734543 322.166565,245.613953 320.688049,244.466385 
	C320.770813,244.501602 320.604614,244.570343 320.707336,244.107178 
	C320.821991,242.065170 320.833923,240.486359 320.845825,238.907532 
	C320.845825,238.907532 320.784119,238.933273 321.070374,238.789246 
	C321.237335,237.765518 321.118011,236.885834 320.998657,236.006134 
z"/>
<path fill="#7C88A8" opacity="1.000000" stroke="none" 
	d="
M320.551819,239.142120 
	C320.833923,240.486359 320.821991,242.065170 320.673218,244.087677 
	C320.536316,244.531372 320.605316,244.431168 320.605316,244.431168 
	C322.166565,245.613953 323.678284,247.734543 325.297516,247.820129 
	C333.064484,248.230621 340.936310,248.431656 347.398834,242.784668 
	C347.605347,242.604218 348.274506,242.953262 348.993988,243.274231 
	C345.872589,245.272491 342.651337,247.994354 339.061737,248.627335 
	C332.427612,249.797211 325.577637,249.743088 318.004456,250.253677 
	C318.877228,246.040848 319.567535,242.708771 320.551819,239.142120 
z"/>
<path fill="#7C88A8" opacity="1.000000" stroke="none" 
	d="
M320.898590,236.356934 
	C321.118011,236.885834 321.237335,237.765518 321.056091,238.759033 
	C320.769867,238.151138 320.784180,237.429428 320.898590,236.356934 
z"/>
<path fill="#7C88A8" opacity="1.000000" stroke="none" 
	d="
M349.522522,243.272934 
	C349.618011,242.862778 350.019257,242.461197 350.733734,242.041489 
	C350.640717,242.442749 350.234467,242.862122 349.522522,243.272934 
z"/>
<path fill="#E8EBEF" opacity="1.000000" stroke="none" 
	d="
M150.737350,251.980835 
	C141.733047,252.536682 133.144241,253.018753 124.132446,253.524582 
	C127.298828,237.290680 130.282974,221.991135 133.412430,205.946503 
	C142.254440,206.351151 151.085922,206.286438 159.793762,207.292252 
	C167.717651,208.207504 172.005646,213.177750 171.401657,220.888260 
	C170.916916,227.076309 169.442978,233.361099 167.309128,239.201447 
	C164.668839,246.428009 158.583694,250.261810 150.737350,251.980835 
M154.804001,247.105209 
	C156.635880,245.543259 158.467773,243.981323 160.312897,242.320663 
	C160.312897,242.320663 160.234207,242.259567 160.945099,242.317810 
	C165.832214,236.620041 168.282471,230.186874 166.937607,221.991608 
	C166.725815,221.219223 166.514023,220.446823 167.023453,219.555618 
	C168.996994,216.196762 166.571671,214.548386 163.848526,212.255814 
	C156.871002,211.467789 149.910751,210.384949 142.911087,209.974823 
	C135.943451,209.566544 135.926102,209.862686 134.820236,217.580933 
	C134.770721,217.997559 134.721207,218.414185 134.272476,219.483459 
	C133.990768,221.274460 133.709061,223.065445 133.164444,225.429474 
	C133.041504,226.260803 132.918564,227.092133 132.350235,228.555756 
	C131.562958,233.359573 130.775665,238.163391 129.686417,243.639008 
	C129.424149,245.085205 129.161865,246.531403 128.940857,248.822510 
	C137.494308,250.927414 145.857162,249.975113 154.804001,247.105209 
z"/>
<path fill="#E8EBEF" opacity="1.000000" stroke="none" 
	d="
M320.688049,244.466385 
	C320.605316,244.431168 320.536316,244.531372 320.570465,244.550858 
	C320.604614,244.570343 320.770813,244.501602 320.688049,244.466385 
z"/>
<path fill="#6F81B5" opacity="1.000000" stroke="none" 
	d="
M132.795639,227.923462 
	C132.918564,227.092133 133.041504,226.260803 133.681885,225.156464 
	C137.973999,223.148178 137.161438,221.054947 134.671692,218.830811 
	C134.721207,218.414185 134.770721,217.997559 135.235962,217.133102 
	C137.105255,215.407944 138.368271,213.742447 140.044846,212.919296 
	C148.052795,208.987625 155.551529,211.910416 163.057312,215.370880 
	C164.186234,217.047348 165.244232,218.360901 166.302216,219.674438 
	C166.514023,220.446823 166.725815,221.219223 166.480408,222.409317 
	C165.516586,223.195984 164.516113,223.701416 164.574905,223.914093 
	C166.490463,230.844589 161.561417,236.128677 160.234207,242.259567 
	C160.234207,242.259567 160.312897,242.320663 159.978455,242.220306 
	C156.568451,241.936905 153.666885,242.050690 152.747238,246.289413 
	C144.618393,247.041748 136.758987,247.509674 128.899597,247.977600 
	C129.161865,246.531403 129.424149,245.085205 130.209991,243.246765 
	C132.029129,238.395416 133.370193,233.948044 134.528870,229.453644 
	C134.616150,229.115036 133.403824,228.441376 132.795639,227.923462 
z"/>
<path fill="#7381A2" opacity="1.000000" stroke="none" 
	d="
M162.986359,215.007950 
	C155.551529,211.910416 148.052795,208.987625 140.044846,212.919296 
	C138.368271,213.742447 137.105255,215.407944 135.343811,216.836639 
	C135.926102,209.862686 135.943451,209.566544 142.911087,209.974823 
	C149.910751,210.384949 156.871002,211.467789 163.815567,212.699875 
	C163.517197,213.765274 163.251770,214.386612 162.986359,215.007950 
z"/>
<path fill="#7483A8" opacity="1.000000" stroke="none" 
	d="
M160.589661,242.288696 
	C161.561417,236.128677 166.490463,230.844589 164.574905,223.914093 
	C164.516113,223.701416 165.516586,223.195984 166.459885,222.711548 
	C168.282471,230.186874 165.832214,236.620041 160.589661,242.288696 
z"/>
<path fill="#7C88A8" opacity="1.000000" stroke="none" 
	d="
M128.920227,248.400055 
	C136.758987,247.509674 144.618393,247.041748 152.992798,246.434143 
	C153.708450,246.614166 153.909088,246.933853 154.109741,247.253540 
	C145.857162,249.975113 137.494308,250.927414 128.920227,248.400055 
z"/>
<path fill="#7C88A8" opacity="1.000000" stroke="none" 
	d="
M132.572937,228.239609 
	C133.403824,228.441376 134.616150,229.115036 134.528870,229.453644 
	C133.370193,233.948044 132.029129,238.395416 130.360977,242.910873 
	C130.775665,238.163391 131.562958,233.359573 132.572937,228.239609 
z"/>
<path fill="#7483A8" opacity="1.000000" stroke="none" 
	d="
M154.456863,247.179382 
	C153.909088,246.933853 153.708450,246.614166 153.262238,246.149734 
	C153.666885,242.050690 156.568451,241.936905 159.971832,242.269669 
	C158.467773,243.981323 156.635880,245.543259 154.456863,247.179382 
z"/>
<path fill="#7483A8" opacity="1.000000" stroke="none" 
	d="
M163.057312,215.370880 
	C163.251770,214.386612 163.517197,213.765274 164.090057,212.973145 
	C166.571671,214.548386 168.996994,216.196762 166.662842,219.615021 
	C165.244232,218.360901 164.186234,217.047348 163.057312,215.370880 
z"/>
<path fill="#7381A2" opacity="1.000000" stroke="none" 
	d="
M134.472076,219.157135 
	C137.161438,221.054947 137.973999,223.148178 133.813354,224.869934 
	C133.709061,223.065445 133.990768,221.274460 134.472076,219.157135 
z"/>
</svg>