<svg version="1.1" id="Layer_1" xmlns="http://www.w3.org/2000/svg" xmlns:xlink="http://www.w3.org/1999/xlink" x="0px" y="0px"
	 width="100%" viewBox="0 0 1440 1601" enable-background="new 0 0 1440 1601" xml:space="preserve">
<path fill="#000000" opacity="1.000000" stroke="none" 
	d="
M728.000000,0.999991 
	C965.614014,1.000000 1203.228027,1.000000 1441.000000,1.000000 
	C1441.000000,389.028015 1441.000000,777.056091 1440.553223,1165.536011 
	C1431.087036,1166.224487 1432.748291,1164.438843 1429.681885,1173.573242 
	C1426.205322,1183.928955 1422.454346,1194.192749 1418.375732,1205.764771 
	C1414.116577,1191.661133 1410.247559,1178.849365 1406.466919,1166.330322 
	C1402.818115,1166.330322 1399.559692,1166.330322 1396.286255,1166.330322 
	C1396.286255,1182.603760 1396.286255,1198.529419 1396.286255,1214.589355 
	C1398.605713,1214.589355 1400.631226,1214.589355 1403.066040,1214.589355 
	C1403.066040,1203.178589 1403.066040,1192.164429 1403.066040,1180.024536 
	C1403.987305,1181.955322 1404.500366,1182.783081 1404.793335,1183.682617 
	C1407.845947,1193.056030 1410.750732,1202.480469 1414.013062,1211.779785 
	C1414.492920,1213.147583 1416.480835,1214.480957 1418.017090,1214.877808 
	C1420.976562,1215.642700 1422.623169,1214.325806 1423.607788,1211.041870 
	C1426.537231,1201.272095 1429.988647,1191.658813 1433.236084,1181.984375 
	C1433.568115,1182.055542 1433.900024,1182.126831 1434.232056,1182.197998 
	C1434.232056,1192.978760 1434.232056,1203.759521 1434.232056,1215.000000 
	C1436.734253,1215.000000 1438.867188,1215.000000 1441.000000,1215.000000 
	C1441.000000,1343.964233 1441.000000,1472.928467 1441.000000,1602.000000 
	C1069.638672,1602.000000 698.277283,1602.000000 326.410645,1601.583008 
	C330.522491,1600.423706 335.178558,1599.867065 339.750305,1598.908325 
	C365.557861,1593.496338 390.581207,1586.298706 410.730621,1567.863770 
	C418.215332,1561.015991 424.359436,1553.333740 428.135834,1543.809082 
	C437.198120,1520.952759 438.510986,1496.741455 438.743866,1472.781616 
	C439.450012,1400.137207 438.999725,1327.481567 438.999939,1254.830322 
	C438.999939,1253.055054 438.999969,1251.279907 438.999969,1249.436768 
	C425.327301,1249.436768 412.299316,1249.436768 398.998810,1249.436768 
	C398.998810,1251.861694 398.998810,1253.850708 398.998810,1255.839844 
	C398.998779,1314.160767 398.953339,1372.481934 399.085083,1430.802490 
	C399.095612,1435.467651 398.168243,1438.337646 393.717773,1441.007324 
	C373.221313,1453.302856 351.758240,1461.094727 327.469788,1456.928223 
	C312.783783,1454.409058 300.393951,1447.676025 291.602081,1435.205322 
	C285.365051,1426.358643 283.145813,1416.175049 283.101410,1405.727417 
	C282.879700,1353.572754 283.000031,1301.416748 283.000000,1249.261108 
	C283.000000,1247.297974 283.000000,1245.334839 283.000000,1242.997192 
	C281.496094,1243.310303 280.535828,1243.407837 279.645691,1243.711304 
	C269.684814,1247.107178 259.819916,1250.820679 249.742584,1253.822266 
	C245.316910,1255.140503 243.867538,1256.998047 243.883591,1261.687866 
	C244.066666,1315.175903 244.026169,1368.664795 243.972000,1422.153442 
	C243.963623,1430.417236 246.253799,1438.049927 249.754578,1445.366333 
	C253.736359,1453.687744 259.857452,1460.321167 266.781311,1466.310059 
	C279.909760,1477.665161 294.903534,1484.600220 312.410461,1484.908569 
	C322.337830,1485.083374 332.302368,1484.633301 342.212952,1483.935913 
	C357.227234,1482.879150 371.682709,1479.041382 385.827362,1474.021484 
	C390.779968,1472.263794 395.665863,1470.318115 402.326660,1467.798462 
	C400.799622,1486.796753 399.801880,1504.301880 397.851868,1521.700439 
	C396.527710,1533.514648 390.869873,1543.743896 381.808746,1551.466675 
	C368.704742,1562.635010 352.947052,1568.125366 336.180206,1571.015259 
	C325.854889,1572.795044 315.531677,1574.586670 305.147644,1576.383423 
	C307.152222,1585.157715 309.076111,1593.578857 311.000000,1602.000000 
	C220.971970,1602.000000 130.943939,1602.000000 40.457962,1601.531372 
	C40.000011,1556.318970 40.000011,1511.575195 40.000011,1466.641602 
	C48.339287,1470.587280 56.061069,1474.599609 64.058640,1477.954468 
	C84.315262,1486.451660 105.458275,1488.884521 126.970993,1484.728149 
	C150.127747,1480.254272 167.853653,1467.304443 181.084152,1447.806396 
	C196.864731,1424.550415 202.569550,1398.310669 202.684052,1370.967773 
	C202.749832,1355.258057 200.542603,1339.374512 197.752945,1323.857910 
	C194.089066,1303.478638 185.075882,1285.071777 171.658752,1269.257080 
	C157.073364,1252.065308 137.559174,1244.334961 115.464485,1243.089844 
	C98.062500,1242.109253 80.799026,1243.670166 63.834438,1247.994751 
	C44.984669,1252.799927 27.182594,1259.754517 12.023451,1272.394897 
	C8.445230,1275.378662 4.679505,1278.137695 1.000004,1281.000000 
	C1.000000,854.426758 1.000000,427.853485 1.000000,1.000000 
	C207.361282,1.000000 413.722687,1.000000 620.692932,1.419634 
	C620.632202,2.215623 619.984009,2.871122 619.289795,2.924148 
	C613.765686,3.346097 608.220093,3.518519 602.706787,4.039904 
	C598.433533,4.444026 594.197266,5.240475 589.503357,5.921306 
	C576.142395,7.981757 563.174255,9.716000 550.313721,12.044752 
	C528.381836,16.016127 507.111420,22.076107 487.776184,33.645596 
	C471.200470,43.563889 459.224609,57.080433 452.552887,75.587120 
	C446.806732,91.526314 445.672302,108.045395 445.224335,124.511787 
	C444.476959,151.984573 445.112854,179.494980 445.093750,207.447327 
	C445.021149,211.171021 445.021149,214.436935 445.021149,217.498688 
	C445.963745,217.773300 446.272369,217.942108 446.580841,217.941895 
	C486.717010,217.913757 526.853149,217.873230 567.453979,217.904861 
	C603.480957,217.976410 639.043335,217.976410 675.166199,217.976410 
	C675.166199,226.072830 675.166199,233.529236 675.095215,241.416077 
	C674.941406,243.112473 674.858582,244.378433 674.741516,246.166214 
	C671.577148,246.166214 668.781250,246.166214 665.521118,246.106506 
	C634.144409,246.030106 603.231995,245.990204 572.319641,246.005478 
	C553.875793,246.014587 535.431946,246.110291 516.523804,246.105743 
	C504.598694,246.031860 493.137909,245.996002 481.677185,246.011307 
	C452.115295,246.050766 422.553375,246.112839 392.527222,246.101807 
	C373.309753,246.692062 354.520447,246.855728 335.820129,248.229996 
	C327.771484,248.821503 319.907257,251.922363 311.568451,253.934326 
	C291.504974,259.668945 274.541199,270.164825 259.674011,283.954254 
	C244.378235,298.141205 232.519257,314.974060 225.026886,334.491882 
	C220.971710,345.055725 218.213562,356.117462 214.540802,367.168396 
	C211.392303,381.759033 208.106369,396.064026 205.879272,410.532013 
	C203.416733,426.529633 201.895279,442.673218 200.029785,458.760864 
	C199.597427,462.489410 199.432022,466.248932 199.080597,470.459412 
	C200.007050,488.342621 200.325409,505.832428 202.178726,523.158020 
	C203.963348,539.841492 207.125580,556.392700 210.093552,572.928284 
	C211.667145,581.695251 214.114044,590.305603 216.096542,599.381226 
	C220.295975,617.142334 226.279465,633.855042 234.877472,649.588989 
	C245.265793,668.599060 258.268158,685.260376 277.301453,697.000732 
	C283.957703,700.454407 290.084625,704.286011 296.689026,706.921021 
	C313.805023,713.750061 331.800201,714.808167 350.462402,713.899109 
	C373.157440,713.965210 395.387787,713.965210 417.665527,713.965210 
	C417.821136,712.661926 417.965820,712.018860 417.964905,711.376038 
	C417.929321,685.916626 417.880524,660.457153 417.896942,634.533081 
	C418.657410,617.718201 416.786743,601.323364 419.897614,584.997559 
	C425.030243,558.061462 436.895325,534.601501 455.208923,514.410400 
	C466.009583,502.502502 478.473114,492.612854 492.526337,484.564575 
	C512.914551,472.888275 534.859436,466.897980 558.096497,466.137482 
	C579.706299,465.430206 601.354187,465.887726 623.450378,465.902802 
	C681.221191,465.980225 738.527893,466.141602 795.831848,465.822083 
	C804.094604,465.776001 812.531250,464.122925 820.565369,461.996674 
	C845.222046,455.471130 865.224731,441.857971 881.001404,421.648621 
	C897.201904,400.896240 905.641174,377.328613 905.826416,351.370026 
	C906.325684,281.406860 906.009583,211.437881 906.006653,141.471222 
	C906.006592,139.309311 905.893005,137.147415 905.890320,134.524124 
	C906.271606,121.958191 904.769165,110.074577 901.193970,98.514923 
	C894.817810,77.899147 883.411255,60.380817 867.379028,46.055855 
	C861.822144,41.090805 855.228271,37.286308 848.947754,32.642845 
	C842.831787,29.042444 837.003845,25.489704 830.898254,22.504980 
	C805.423523,10.051555 777.810547,7.253636 749.852539,4.607963 
	C743.346802,3.845399 737.088196,3.505802 730.851929,2.926310 
	C729.850281,2.833236 728.948181,1.669029 728.000000,0.999991 
M1140.713623,384.217255 
	C1139.181641,378.131775 1137.649658,372.046295 1136.011108,365.138245 
	C1131.692139,351.386261 1127.373169,337.634277 1122.990234,323.137909 
	C1122.319458,321.510803 1121.710815,319.854828 1120.968384,318.261108 
	C1113.544922,302.326050 1105.463013,286.825806 1091.793457,274.269135 
	C1087.995850,270.873291 1084.493408,267.055756 1080.349243,264.154907 
	C1062.830566,251.892349 1043.040894,246.329697 1021.862549,246.078568 
	C994.408630,245.752991 966.947998,245.998718 939.490234,245.998535 
	C937.730896,245.998520 935.971558,245.998520 933.998962,245.998520 
	C933.998962,257.911469 934.101074,269.208984 933.977966,280.504089 
	C933.713928,304.722137 933.105103,328.938782 933.092773,353.156250 
	C933.086121,366.148346 930.338562,378.572845 926.833008,391.689758 
	C919.397827,414.218079 907.183777,433.867279 890.648865,450.775909 
	C877.790833,463.924591 862.946228,474.450439 846.116882,481.921814 
	C833.092285,487.704071 819.577698,492.055389 805.213379,492.973724 
	C796.816833,493.510498 788.403076,493.777588 779.070251,494.019806 
	C704.802429,494.013031 630.534668,493.990051 556.266907,494.043030 
	C552.184265,494.045959 548.004150,494.234253 544.037598,495.103607 
	C531.267700,497.902527 518.788757,501.490417 507.187408,507.904694 
	C487.097656,519.012146 471.488586,534.542847 460.258759,554.424377 
	C449.207672,573.989319 444.878784,595.258606 444.971161,617.610474 
	C445.130096,656.072266 445.110748,694.534851 445.013062,733.923706 
	C445.064575,757.948181 445.116089,781.972595 445.015381,806.923889 
	C445.010010,814.733215 444.590607,822.570435 445.114685,830.344116 
	C445.648499,838.261475 447.110748,846.116272 448.020111,854.768433 
	C450.402374,860.845032 452.784637,866.921692 455.217926,873.710876 
	C462.026611,887.140442 470.865082,898.933411 483.209686,908.739014 
	C488.659424,912.797119 493.760590,917.474121 499.633087,920.781738 
	C511.109619,927.245850 522.828064,933.360413 534.814026,938.811279 
	C542.494202,942.304016 550.832153,944.350525 559.251038,947.752075 
	C559.739319,947.834717 560.231567,947.898560 560.715210,948.002747 
	C581.411682,952.462708 602.034912,957.311035 622.832703,961.233154 
	C633.882385,963.317017 645.229919,964.732483 656.451416,964.789551 
	C675.449829,964.886230 694.474548,963.996887 713.449524,962.870911 
	C724.003296,962.244629 734.606079,960.927856 744.964355,958.825989 
	C769.182556,953.911865 793.238342,948.253906 816.286316,939.024475 
	C841.446777,928.949036 864.620605,916.109070 882.619934,895.038208 
	C897.638550,877.456787 905.253052,857.108154 905.820312,834.449646 
	C906.553711,805.155212 906.003418,775.828674 905.989502,746.515930 
	C905.988831,745.081970 905.830933,743.648071 905.743530,742.166870 
	C885.585205,742.166870 865.791016,742.166870 845.069763,742.022095 
	C828.288818,742.015198 811.507812,741.985107 794.726868,742.006714 
	C767.150391,742.042236 739.573853,742.111267 711.070251,742.020996 
	C699.419067,742.020996 687.767883,742.020996 675.833008,742.020996 
	C675.833008,733.853149 675.833008,726.425964 675.981140,718.145935 
	C676.069092,716.779724 676.157043,715.413452 676.240601,714.115051 
	C678.127197,714.003296 679.563110,713.918213 681.925781,713.983154 
	C693.617004,713.933228 705.308289,713.883362 717.926270,713.983459 
	C740.283508,713.933411 762.640808,713.883362 785.924866,713.984680 
	C821.282166,713.934265 856.639526,713.883789 892.923767,713.984619 
	C938.200989,713.989197 983.480042,714.206543 1028.753662,713.805847 
	C1037.077271,713.732178 1045.648682,712.025696 1053.638062,709.558655 
	C1074.922729,702.986206 1090.631470,688.899536 1103.045288,670.746338 
	C1115.588379,652.403870 1123.928467,632.029114 1130.825439,611.167908 
	C1137.344482,591.450439 1142.570801,571.286621 1147.800293,551.172119 
	C1149.664429,544.002136 1149.870483,536.401001 1150.978760,528.135986 
	C1151.651611,522.148254 1152.905151,516.159058 1152.890137,510.173035 
	C1152.841919,490.928314 1152.332397,471.684601 1151.951172,452.441528 
	C1151.940796,451.917908 1151.364014,451.405457 1151.002930,449.994202 
	C1149.936646,440.505402 1149.019653,430.996429 1147.739868,421.536530 
	C1147.122925,416.976562 1145.823486,412.508911 1144.980957,407.147064 
	C1143.598389,399.764313 1142.215820,392.381592 1140.713623,384.217255 
M634.246765,1480.078247 
	C635.812378,1480.385376 637.375549,1480.942627 638.944092,1480.958374 
	C647.608459,1481.045166 656.274170,1480.999878 664.939392,1481.000000 
	C667.858887,1481.000000 670.778381,1481.000000 674.000000,1481.000000 
	C674.000000,1478.354248 674.000000,1476.537720 674.000000,1474.721191 
	C674.000000,1453.391357 673.999939,1432.061401 674.000000,1410.731567 
	C674.000000,1376.070557 674.032898,1341.409546 673.943726,1306.748779 
	C673.935791,1303.648926 674.543579,1301.548218 677.490234,1299.891724 
	C685.232300,1295.538940 692.557190,1290.408447 700.441589,1286.352417 
	C714.991089,1278.867432 729.914612,1272.243042 747.005676,1275.020386 
	C755.916199,1276.468506 763.860107,1280.201416 769.518921,1287.278442 
	C779.779358,1300.110352 784.082703,1315.031250 784.042053,1331.434814 
	C783.923523,1379.260010 784.000000,1427.085693 784.000000,1474.911255 
	C784.000000,1476.830078 784.000000,1478.749023 784.000000,1480.652832 
	C797.723694,1480.652832 810.634338,1480.652832 823.998962,1480.652832 
	C823.998962,1478.344482 823.998962,1476.379150 823.998962,1474.413696 
	C823.999023,1423.588623 824.003845,1372.763672 823.995605,1321.938599 
	C823.993652,1310.308472 822.587952,1298.883179 817.905823,1288.134521 
	C810.190857,1270.423340 797.893555,1257.429321 779.254272,1250.915649 
	C765.764160,1246.201416 752.070862,1246.401001 738.129456,1247.928467 
	C720.537231,1249.856079 704.151672,1255.271362 688.767456,1263.851318 
	C683.936584,1266.545532 679.297852,1269.584106 674.007935,1272.808350 
	C674.007935,1218.639038 674.007935,1165.201660 674.007935,1111.099731 
	C661.636108,1115.025513 649.793884,1118.927979 637.847473,1122.479858 
	C634.570557,1123.453979 633.933960,1125.173950 633.949646,1128.215454 
	C634.052856,1148.211670 633.999451,1168.208740 634.003052,1188.205444 
	C634.020813,1285.189209 634.040344,1382.172974 634.246765,1480.078247 
M1057.503906,1426.992432 
	C1070.772217,1399.578247 1073.532959,1370.644775 1070.113403,1340.773682 
	C1067.725098,1319.911377 1060.627441,1300.936279 1048.028076,1284.071533 
	C1035.563599,1267.387085 1019.932800,1254.973267 1000.094055,1248.072021 
	C985.756531,1243.084351 970.899719,1241.960938 956.035339,1243.219116 
	C946.321411,1244.041382 936.508728,1246.116455 927.230835,1249.137207 
	C910.889648,1254.457397 897.508545,1264.643433 886.691589,1277.938599 
	C882.051575,1283.641724 877.628662,1289.670654 874.088440,1296.092529 
	C861.076660,1319.695679 856.831787,1345.048096 858.814575,1371.884766 
	C860.013367,1388.109497 862.511963,1403.860718 868.506409,1418.979248 
	C876.455383,1439.027222 888.408325,1456.227417 906.048828,1468.870361 
	C919.531433,1478.533447 934.759155,1483.527588 951.432617,1485.235840 
	C971.977966,1487.341064 991.621399,1485.069824 1010.253662,1476.254639 
	C1031.918823,1466.004517 1046.613525,1448.780518 1057.503906,1426.992432 
M1195.480957,1243.998291 
	C1182.824707,1246.769531 1169.885376,1248.643555 1157.579834,1252.526367 
	C1140.015991,1258.068359 1124.529053,1268.066162 1109.321899,1278.326538 
	C1106.288818,1280.373047 1104.867920,1282.771362 1104.879028,1286.814697 
	C1105.051514,1349.468384 1104.999634,1412.122803 1104.999634,1474.776978 
	C1104.999634,1476.708740 1104.999512,1478.640381 1104.999512,1480.701904 
	C1118.627686,1480.701904 1131.537842,1480.701904 1145.000488,1480.701904 
	C1145.000488,1478.458008 1145.000610,1476.505127 1145.000610,1474.552124 
	C1145.000732,1413.730835 1145.036377,1352.909546 1144.914917,1292.088501 
	C1144.907349,1288.294678 1146.052368,1286.095215 1149.276489,1284.083374 
	C1168.256226,1272.240356 1188.630127,1266.186279 1210.969116,1270.140747 
	C1229.814941,1273.476929 1244.121094,1283.567261 1249.941406,1302.459595 
	C1252.563232,1310.969727 1253.760254,1320.230347 1253.827271,1329.163940 
	C1254.191040,1377.651489 1254.000000,1426.143311 1254.000000,1474.633667 
	C1254.000000,1476.579224 1254.000000,1478.524658 1254.000000,1480.573364 
	C1267.313965,1480.573364 1280.008179,1480.573364 1292.792480,1480.573364 
	C1292.875610,1478.998413 1292.989990,1477.843750 1292.990112,1476.689209 
	C1292.999268,1417.534302 1293.184326,1358.378418 1292.872437,1299.225098 
	C1292.791504,1283.872314 1285.428955,1270.998535 1273.818359,1261.532349 
	C1251.118408,1243.024902 1224.280029,1240.694092 1195.480957,1243.998291 
M552.604431,1249.000000 
	C550.517151,1249.000000 548.429810,1249.000000 545.691772,1249.000000 
	C545.691772,1222.206909 545.691772,1196.207642 545.691772,1170.007324 
	C533.771912,1174.285767 522.551453,1178.458130 511.215851,1182.290039 
	C507.993591,1183.379272 506.881927,1184.854614 506.916138,1188.301147 
	C507.098114,1206.630371 507.001495,1224.962402 507.001343,1243.293457 
	C507.001312,1245.056763 507.001343,1246.820068 507.001343,1249.093750 
	C497.696411,1249.093750 489.111908,1249.093750 480.425781,1249.093750 
	C480.425781,1257.649170 480.425781,1265.679565 480.425781,1274.218628 
	C489.432159,1274.218628 498.017151,1274.218628 507.001373,1274.218628 
	C507.001373,1276.700928 507.001404,1278.674316 507.001404,1280.647705 
	C507.000946,1329.641602 506.976318,1378.635620 507.044006,1427.629517 
	C507.049652,1431.729614 507.289398,1435.906128 508.086823,1439.914551 
	C510.586731,1452.480347 516.618103,1463.245728 526.884705,1470.942017 
	C544.407471,1484.078369 564.961426,1485.583252 585.869263,1484.857788 
	C587.258728,1484.809570 589.706421,1483.152466 589.765991,1482.133057 
	C590.130859,1475.889282 589.948547,1469.613770 589.948547,1463.514771 
	C584.979492,1462.952637 580.675232,1462.746094 576.487549,1461.936768 
	C566.138184,1459.936646 555.684326,1457.072144 551.249390,1446.387573 
	C548.299927,1439.281860 546.294739,1431.226440 546.224060,1423.574341 
	C545.780884,1375.584473 545.997437,1327.588257 546.010193,1279.594238 
	C546.010681,1277.834229 546.161255,1276.074341 546.264221,1273.827759 
	C561.051697,1273.827759 575.302063,1273.827759 589.711304,1273.827759 
	C589.711304,1265.395996 589.711304,1257.484863 589.711304,1249.000000 
	C577.481934,1249.000000 565.532349,1249.000000 552.604431,1249.000000 
M1367.043823,1204.471802 
	C1367.043823,1207.894897 1367.043823,1211.318115 1367.043823,1214.655762 
	C1370.044800,1214.655762 1372.294189,1214.655762 1375.193604,1214.655762 
	C1375.193604,1200.310913 1375.193604,1186.293823 1375.193604,1171.812012 
	C1380.768433,1171.812012 1385.688843,1171.812012 1390.721680,1171.812012 
	C1390.721680,1169.735718 1390.721680,1168.148315 1390.721680,1166.273193 
	C1377.429199,1166.273193 1364.395142,1166.273193 1351.011353,1166.273193 
	C1351.113037,1168.288696 1351.199219,1169.996460 1351.309082,1172.173828 
	C1356.742310,1172.173828 1361.654297,1172.173828 1367.043823,1172.173828 
	C1367.043823,1182.938232 1367.043823,1193.208374 1367.043823,1204.471802 
z"/>
<path fill="#646464" opacity="1.000000" stroke="none" 
	d="
M1.000004,1281.468628 
	C4.679505,1278.137695 8.445230,1275.378662 12.023451,1272.394897 
	C27.182594,1259.754517 44.984669,1252.799927 63.834438,1247.994751 
	C80.799026,1243.670166 98.062500,1242.109253 115.464485,1243.089844 
	C137.559174,1244.334961 157.073364,1252.065308 171.658752,1269.257080 
	C185.075882,1285.071777 194.089066,1303.478638 197.752945,1323.857910 
	C200.542603,1339.374512 202.749832,1355.258057 202.684052,1370.967773 
	C202.569550,1398.310669 196.864731,1424.550415 181.084152,1447.806396 
	C167.853653,1467.304443 150.127747,1480.254272 126.970993,1484.728149 
	C105.458275,1488.884521 84.315262,1486.451660 64.058640,1477.954468 
	C56.061069,1474.599609 48.339287,1470.587280 40.000011,1466.641602 
	C40.000011,1511.575195 40.000011,1556.318970 40.000008,1601.531372 
	C38.285641,1602.000000 36.571285,1602.000000 34.528812,1601.624023 
	C23.133797,1597.165527 12.066891,1593.082764 0.999993,1589.000000 
	C1.000000,1486.645752 1.000000,1384.291504 1.000004,1281.468628 
M76.605995,1455.013306 
	C78.834373,1455.528320 81.057617,1456.066772 83.291893,1456.554810 
	C108.416817,1462.041870 133.713104,1453.195557 146.011703,1428.035889 
	C153.624466,1412.462158 156.069565,1395.703125 156.836441,1378.742310 
	C157.359238,1367.179688 156.472595,1355.541260 155.970505,1343.947388 
	C155.252060,1327.357910 151.958572,1311.346680 144.223557,1296.488403 
	C137.343292,1283.272217 127.321526,1274.088013 112.235504,1270.849854 
	C101.872833,1268.625366 91.643837,1269.355469 81.463394,1271.094116 
	C67.923531,1273.406494 55.073833,1277.968140 43.462883,1285.426514 
	C41.731949,1286.538452 40.152584,1289.399902 40.144573,1291.458374 
	C39.959335,1339.081055 39.972061,1386.704834 40.121422,1434.327759 
	C40.126724,1436.017944 41.485039,1438.541382 42.920189,1439.256226 
	C53.779007,1444.665283 64.814758,1449.718994 76.605995,1455.013306 
z"/>
<path fill="#646464" opacity="1.000000" stroke="none" 
	d="
M311.466125,1602.000000 
	C309.076111,1593.578857 307.152222,1585.157715 305.147644,1576.383423 
	C315.531677,1574.586670 325.854889,1572.795044 336.180206,1571.015259 
	C352.947052,1568.125366 368.704742,1562.635010 381.808746,1551.466675 
	C390.869873,1543.743896 396.527710,1533.514648 397.851868,1521.700439 
	C399.801880,1504.301880 400.799622,1486.796753 402.326660,1467.798462 
	C395.665863,1470.318115 390.779968,1472.263794 385.827362,1474.021484 
	C371.682709,1479.041382 357.227234,1482.879150 342.212952,1483.935913 
	C332.302368,1484.633301 322.337830,1485.083374 312.410461,1484.908569 
	C294.903534,1484.600220 279.909760,1477.665161 266.781311,1466.310059 
	C259.857452,1460.321167 253.736359,1453.687744 249.754578,1445.366333 
	C246.253799,1438.049927 243.963623,1430.417236 243.972000,1422.153442 
	C244.026169,1368.664795 244.066666,1315.175903 243.883591,1261.687866 
	C243.867538,1256.998047 245.316910,1255.140503 249.742584,1253.822266 
	C259.819916,1250.820679 269.684814,1247.107178 279.645691,1243.711304 
	C280.535828,1243.407837 281.496094,1243.310303 283.000000,1242.997192 
	C283.000000,1245.334839 283.000000,1247.297974 283.000000,1249.261108 
	C283.000031,1301.416748 282.879700,1353.572754 283.101410,1405.727417 
	C283.145813,1416.175049 285.365051,1426.358643 291.602081,1435.205322 
	C300.393951,1447.676025 312.783783,1454.409058 327.469788,1456.928223 
	C351.758240,1461.094727 373.221313,1453.302856 393.717773,1441.007324 
	C398.168243,1438.337646 399.095612,1435.467651 399.085083,1430.802490 
	C398.953339,1372.481934 398.998779,1314.160767 398.998810,1255.839844 
	C398.998810,1253.850708 398.998810,1251.861694 398.998810,1249.436768 
	C412.299316,1249.436768 425.327301,1249.436768 438.999969,1249.436768 
	C438.999969,1251.279907 438.999939,1253.055054 438.999939,1254.830322 
	C438.999725,1327.481567 439.450012,1400.137207 438.743866,1472.781616 
	C438.510986,1496.741455 437.198120,1520.952759 428.135834,1543.809082 
	C424.359436,1553.333740 418.215332,1561.015991 410.730621,1567.863770 
	C390.581207,1586.298706 365.557861,1593.496338 339.750305,1598.908325 
	C335.178558,1599.867065 330.522491,1600.423706 325.952698,1601.583008 
	C321.310760,1602.000000 316.621490,1602.000000 311.466125,1602.000000 
z"/>
<path fill="#4482B4" opacity="1.000000" stroke="none" 
	d="
M566.989319,217.833313 
	C526.853149,217.873230 486.717010,217.913757 446.580841,217.941895 
	C446.272369,217.942108 445.963745,217.773300 445.021149,217.498688 
	C445.021149,214.436935 445.021149,211.171021 445.420654,207.382980 
	C448.320618,204.251968 450.951294,201.754761 453.299927,199.015717 
	C466.555145,183.556931 479.848175,168.128220 492.900879,152.499313 
	C498.071259,146.308472 502.656403,139.628860 507.718964,133.474640 
	C515.518555,149.789810 531.969971,160.455399 551.380127,158.043823 
	C572.826965,155.379242 587.419678,138.177551 588.932068,117.231491 
	C589.749023,105.917564 584.892151,96.221161 579.185059,86.879890 
	C581.331055,85.306450 583.470703,84.151482 584.966736,82.435440 
	C593.252197,72.931419 601.394165,63.301983 609.560242,53.694244 
	C620.302490,41.055515 631.250488,28.580734 641.625000,15.646409 
	C645.206482,11.181240 651.350037,8.069017 651.000000,1.000000 
	C652.066711,1.000000 653.133362,1.000000 654.612000,1.354706 
	C655.718445,2.656488 656.412903,3.603565 657.107361,4.550653 
	C658.071594,3.367116 659.035828,2.183566 660.000000,1.000008 
	C682.354248,1.000000 704.708435,1.000000 727.531372,0.999991 
	C728.948181,1.669029 729.850281,2.833236 730.851929,2.926310 
	C737.088196,3.505802 743.346802,3.845399 749.512878,4.758986 
	C747.193726,6.281693 744.449097,6.801982 742.823608,8.435742 
	C738.379883,12.902366 734.353882,17.792295 730.259216,22.597076 
	C719.708435,34.977699 709.221924,47.413036 698.686646,59.806942 
	C690.192444,69.799698 681.657532,79.757896 673.153625,89.742401 
	C662.498352,102.252777 651.877563,114.792496 641.202637,127.285995 
	C630.633362,139.655823 619.987244,151.960007 609.426331,164.336975 
	C598.652527,176.963409 587.766052,189.500702 577.294128,202.374069 
	C573.410217,207.148682 567.589355,210.811462 566.989319,217.833313 
z"/>
<path fill="#4686B8" opacity="1.000000" stroke="none" 
	d="
M650.531372,1.000000 
	C651.350037,8.069017 645.206482,11.181240 641.625000,15.646409 
	C631.250488,28.580734 620.302490,41.055515 609.560242,53.694244 
	C601.394165,63.301983 593.252197,72.931419 584.966736,82.435440 
	C583.470703,84.151482 581.331055,85.306450 578.884888,86.740273 
	C576.225403,84.847870 574.315186,82.743561 572.089050,81.056183 
	C561.632568,73.130493 549.893127,70.448685 537.060791,72.501144 
	C541.520508,66.797325 545.853149,61.375282 550.317078,56.063473 
	C562.675415,41.357597 575.138000,26.738798 587.409424,11.961061 
	C588.753479,10.342548 589.123047,7.914893 589.944580,5.862531 
	C594.197266,5.240475 598.433533,4.444026 602.706787,4.039904 
	C608.220093,3.518519 613.765686,3.346097 619.289795,2.924148 
	C619.984009,2.871122 620.632202,2.215623 621.150879,1.419634 
	C630.687561,1.000000 640.375122,1.000000 650.531372,1.000000 
z"/>
<path fill="#646464" opacity="1.000000" stroke="none" 
	d="
M1441.000000,1214.531372 
	C1438.867188,1215.000000 1436.734253,1215.000000 1434.232056,1215.000000 
	C1434.232056,1203.759521 1434.232056,1192.978760 1434.232056,1182.197998 
	C1433.900024,1182.126831 1433.568115,1182.055542 1433.236084,1181.984375 
	C1429.988647,1191.658813 1426.537231,1201.272095 1423.607788,1211.041870 
	C1422.623169,1214.325806 1420.976562,1215.642700 1418.017090,1214.877808 
	C1416.480835,1214.480957 1414.492920,1213.147583 1414.013062,1211.779785 
	C1410.750732,1202.480469 1407.845947,1193.056030 1404.793335,1183.682617 
	C1404.500366,1182.783081 1403.987305,1181.955322 1403.066040,1180.024536 
	C1403.066040,1192.164429 1403.066040,1203.178589 1403.066040,1214.589355 
	C1400.631226,1214.589355 1398.605713,1214.589355 1396.286255,1214.589355 
	C1396.286255,1198.529419 1396.286255,1182.603760 1396.286255,1166.330322 
	C1399.559692,1166.330322 1402.818115,1166.330322 1406.466919,1166.330322 
	C1410.247559,1178.849365 1414.116577,1191.661133 1418.375732,1205.764771 
	C1422.454346,1194.192749 1426.205322,1183.928955 1429.681885,1173.573242 
	C1432.748291,1164.438843 1431.087036,1166.224487 1440.553223,1165.993896 
	C1441.000000,1182.020874 1441.000000,1198.041870 1441.000000,1214.531372 
z"/>
<path fill="#000000" opacity="1.000000" stroke="none" 
	d="
M0.999993,1589.476685 
	C12.066891,1593.082764 23.133797,1597.165527 34.100349,1601.624023 
	C23.109604,1602.000000 12.219209,1602.000000 1.000000,1602.000000 
	C1.000000,1597.990479 1.000000,1593.971924 0.999993,1589.476685 
z"/>
<path fill="#4686B8" opacity="1.000000" stroke="none" 
	d="
M659.583374,1.000008 
	C659.035828,2.183566 658.071594,3.367116 657.107361,4.550653 
	C656.412903,3.603565 655.718445,2.656488 655.011963,1.354706 
	C656.388916,1.000000 657.777771,1.000000 659.583374,1.000008 
z"/>
<path fill="#3873A3" opacity="1.000000" stroke="none" 
	d="
M349.997681,713.833008 
	C331.800201,714.808167 313.805023,713.750061 296.689026,706.921021 
	C290.084625,704.286011 283.957703,700.454407 277.368347,696.671265 
	C280.277039,692.338257 283.391876,688.469238 286.591125,684.671387 
	C298.779175,670.202881 310.945801,655.716003 323.214203,641.315857 
	C333.871368,628.806885 344.716309,616.457947 355.368073,603.944519 
	C369.674194,587.138062 383.832001,570.205383 398.132843,553.394409 
	C410.501160,538.855164 423.015472,524.440186 435.400391,509.914978 
	C448.105316,495.014496 460.707001,480.026001 473.399963,465.115234 
	C483.728973,452.981445 494.157379,440.932281 504.484955,428.797272 
	C517.068604,414.011475 529.557373,399.144836 542.152771,384.369110 
	C554.535950,369.842346 567.036804,355.415894 579.419617,340.888824 
	C590.076660,328.386414 600.632019,315.797333 611.247437,303.259430 
	C621.970398,290.594513 632.325867,277.587463 643.594788,265.427643 
	C650.044189,258.468323 653.869812,247.897964 665.561340,247.028381 
	C665.723206,247.016342 665.844971,246.465546 665.985413,246.166214 
	C668.781250,246.166214 671.577148,246.166214 674.741516,246.166214 
	C674.858582,244.378433 674.941406,243.112473 675.423096,241.302887 
	C677.994507,236.555923 679.606750,231.918777 682.455505,228.238785 
	C688.541565,220.376953 695.284241,213.024719 701.728027,205.438370 
	C712.250549,193.050125 722.734375,180.628922 733.262695,168.245560 
	C741.751587,158.261032 750.290710,148.319244 758.792053,138.345291 
	C769.551147,125.722313 780.299011,113.089783 791.043274,100.454216 
	C801.358704,88.323059 811.609558,76.136589 821.988953,64.060539 
	C830.955627,53.628174 840.062988,43.316673 849.108093,32.951736 
	C855.228271,37.286308 861.822144,41.090805 867.379028,46.055855 
	C883.411255,60.380817 894.817810,77.899147 901.193970,98.514923 
	C904.769165,110.074577 906.271606,121.958191 905.536072,134.542770 
	C903.807251,135.917801 902.259705,136.602463 901.216797,137.746933 
	C897.978699,141.300461 894.935791,145.031723 891.810547,148.688370 
	C883.294189,158.652725 874.750488,168.593872 866.261597,178.581528 
	C853.906921,193.117630 841.622803,207.713791 829.248291,222.233002 
	C818.700684,234.608765 808.021362,246.872314 797.486206,259.258636 
	C787.169067,271.388733 777.014893,283.657532 766.689270,295.780304 
	C756.037598,308.285858 745.221313,320.651062 734.557495,333.146301 
	C721.850647,348.035492 709.252319,363.017242 696.563660,377.922119 
	C686.238281,390.051086 675.835205,402.113892 665.491821,414.227600 
	C654.396851,427.221527 643.267151,440.186829 632.292053,453.281525 
	C628.952454,457.266174 626.074646,461.637939 622.985352,465.832397 
	C601.354187,465.887726 579.706299,465.430206 558.096497,466.137482 
	C534.859436,466.897980 512.914551,472.888275 492.526337,484.564575 
	C478.473114,492.612854 466.009583,502.502502 455.208923,514.410400 
	C436.895325,534.601501 425.030243,558.061462 419.897614,584.997559 
	C416.786743,601.323364 418.657410,617.718201 417.568329,634.597900 
	C411.944916,640.829529 406.556061,646.396057 401.513092,652.260010 
	C388.676025,667.186951 375.951874,682.211670 363.271332,697.272034 
	C358.716003,702.682251 354.414825,708.306458 349.997681,713.833008 
z"/>
<path fill="#3E7CAD" opacity="1.000000" stroke="none" 
	d="
M665.521118,246.106506 
	C665.844971,246.465546 665.723206,247.016342 665.561340,247.028381 
	C653.869812,247.897964 650.044189,258.468323 643.594788,265.427643 
	C632.325867,277.587463 621.970398,290.594513 611.247437,303.259430 
	C600.632019,315.797333 590.076660,328.386414 579.419617,340.888824 
	C567.036804,355.415894 554.535950,369.842346 542.152771,384.369110 
	C529.557373,399.144836 517.068604,414.011475 504.484955,428.797272 
	C494.157379,440.932281 483.728973,452.981445 473.399963,465.115234 
	C460.707001,480.026001 448.105316,495.014496 435.400391,509.914978 
	C423.015472,524.440186 410.501160,538.855164 398.132843,553.394409 
	C383.832001,570.205383 369.674194,587.138062 355.368073,603.944519 
	C344.716309,616.457947 333.871368,628.806885 323.214203,641.315857 
	C310.945801,655.716003 298.779175,670.202881 286.591125,684.671387 
	C283.391876,688.469238 280.277039,692.338257 277.056519,696.504028 
	C258.268158,685.260376 245.265793,668.599060 234.877472,649.588989 
	C226.279465,633.855042 220.295975,617.142334 216.424500,599.321045 
	C218.230774,597.728577 219.838058,596.765320 221.013657,595.423767 
	C227.138153,588.434570 233.144485,581.341919 239.207458,574.298645 
	C249.927551,561.845459 260.720917,549.454651 271.369171,536.940369 
	C283.627258,522.534180 295.696014,507.966797 307.967102,493.571838 
	C320.672302,478.667633 333.585724,463.940887 346.289459,449.035400 
	C358.559174,434.639160 370.610016,420.056396 382.881195,405.661438 
	C395.586426,390.757294 408.511292,376.040344 421.211365,361.131897 
	C435.414703,344.458832 449.411530,327.609863 463.612427,310.934723 
	C478.031677,294.003143 492.677979,277.264343 507.027557,260.274506 
	C510.728027,255.893188 513.687927,250.886475 516.988098,246.167053 
	C535.431946,246.110291 553.875793,246.014587 572.319641,246.005478 
	C603.231995,245.990204 634.144409,246.030106 665.521118,246.106506 
z"/>
<path fill="#316A9A" opacity="1.000000" stroke="none" 
	d="
M623.450378,465.902802 
	C626.074646,461.637939 628.952454,457.266174 632.292053,453.281525 
	C643.267151,440.186829 654.396851,427.221527 665.491821,414.227600 
	C675.835205,402.113892 686.238281,390.051086 696.563660,377.922119 
	C709.252319,363.017242 721.850647,348.035492 734.557495,333.146301 
	C745.221313,320.651062 756.037598,308.285858 766.689270,295.780304 
	C777.014893,283.657532 787.169067,271.388733 797.486206,259.258636 
	C808.021362,246.872314 818.700684,234.608765 829.248291,222.233002 
	C841.622803,207.713791 853.906921,193.117630 866.261597,178.581528 
	C874.750488,168.593872 883.294189,158.652725 891.810547,148.688370 
	C894.935791,145.031723 897.978699,141.300461 901.216797,137.746933 
	C902.259705,136.602463 903.807251,135.917801 905.478149,135.004150 
	C905.893005,137.147415 906.006592,139.309311 906.006653,141.471222 
	C906.009583,211.437881 906.325684,281.406860 905.826416,351.370026 
	C905.641174,377.328613 897.201904,400.896240 881.001404,421.648621 
	C865.224731,441.857971 845.222046,455.471130 820.565369,461.996674 
	C812.531250,464.122925 804.094604,465.776001 795.831848,465.822083 
	C738.527893,466.141602 681.221191,465.980225 623.450378,465.902802 
z"/>
<path fill="#FFE467" opacity="1.000000" stroke="none" 
	d="
M445.167603,805.997070 
	C445.116089,781.972595 445.064575,757.948181 445.466858,733.458252 
	C447.626678,732.431396 449.595367,732.242004 450.998657,731.251648 
	C467.295746,719.748657 483.517944,708.139282 499.739990,696.530151 
	C552.055176,659.091370 604.329346,621.595093 656.682800,584.209839 
	C696.186523,556.000427 735.802917,527.948792 775.298645,499.728302 
	C777.212463,498.360840 778.446472,496.041870 779.997070,494.166016 
	C788.403076,493.777588 796.816833,493.510498 805.213379,492.973724 
	C819.577698,492.055389 833.092285,487.704071 846.116882,481.921814 
	C862.946228,474.450439 877.790833,463.924591 890.648865,450.775909 
	C907.183777,433.867279 919.397827,414.218079 927.359497,391.329102 
	C929.515930,390.212036 931.312195,389.689270 932.751099,388.664551 
	C959.398010,369.687042 985.999634,350.645966 1012.616272,331.625977 
	C1039.089233,312.708649 1065.568237,293.799744 1092.044556,274.887146 
	C1105.463013,286.825806 1113.544922,302.326050 1120.968384,318.261108 
	C1121.710815,319.854828 1122.319458,321.510803 1122.849609,323.810303 
	C1120.942993,325.699280 1119.158203,326.889191 1117.414307,328.136627 
	C1099.570801,340.900635 1081.756348,353.705597 1063.889526,366.436951 
	C1038.847656,384.281128 1013.741638,402.035309 988.711365,419.895630 
	C957.189270,442.388184 925.728333,464.966431 894.217590,487.474854 
	C867.438110,506.603577 840.616638,525.673523 813.829407,544.791382 
	C778.519714,569.991577 743.231995,595.222473 707.922180,620.422363 
	C683.841248,637.608459 659.723389,654.742737 635.649536,671.938599 
	C604.003174,694.543640 572.381653,717.183472 540.753418,739.813904 
	C513.585266,759.253052 486.468811,778.765076 459.210693,798.077148 
	C454.848816,801.167603 449.864288,803.379150 445.167603,805.997070 
z"/>
<path fill="#FFE872" opacity="1.000000" stroke="none" 
	d="
M779.533691,494.092896 
	C778.446472,496.041870 777.212463,498.360840 775.298645,499.728302 
	C735.802917,527.948792 696.186523,556.000427 656.682800,584.209839 
	C604.329346,621.595093 552.055176,659.091370 499.739990,696.530151 
	C483.517944,708.139282 467.295746,719.748657 450.998657,731.251648 
	C449.595367,732.242004 447.626678,732.431396 445.543427,732.994934 
	C445.110748,694.534851 445.130096,656.072266 444.971161,617.610474 
	C444.878784,595.258606 449.207672,573.989319 460.258759,554.424377 
	C471.488586,534.542847 487.097656,519.012146 507.187408,507.904694 
	C518.788757,501.490417 531.267700,497.902527 544.037598,495.103607 
	C548.004150,494.234253 552.184265,494.045959 556.266907,494.043030 
	C630.534668,493.990051 704.802429,494.013031 779.533691,494.092896 
z"/>
<path fill="#4584B6" opacity="1.000000" stroke="none" 
	d="
M516.523804,246.105728 
	C513.687927,250.886475 510.728027,255.893188 507.027557,260.274506 
	C492.677979,277.264343 478.031677,294.003143 463.612427,310.934723 
	C449.411530,327.609863 435.414703,344.458832 421.211365,361.131897 
	C408.511292,376.040344 395.586426,390.757294 382.881195,405.661438 
	C370.610016,420.056396 358.559174,434.639160 346.289459,449.035400 
	C333.585724,463.940887 320.672302,478.667633 307.967102,493.571838 
	C295.696014,507.966797 283.627258,522.534180 271.369171,536.940369 
	C260.720917,549.454651 249.927551,561.845459 239.207458,574.298645 
	C233.144485,581.341919 227.138153,588.434570 221.013657,595.423767 
	C219.838058,596.765320 218.230774,597.728577 216.494690,598.926514 
	C214.114044,590.305603 211.667145,581.695251 210.093552,572.928284 
	C207.125580,556.392700 203.963348,539.841492 202.178726,523.158020 
	C200.325409,505.832428 200.007050,488.342621 199.452240,470.458954 
	C205.741913,469.393494 207.461212,463.907898 210.570404,460.392059 
	C223.416763,445.865356 235.784698,430.916077 248.359970,416.148956 
	C258.787598,403.903870 269.292847,391.724792 279.702118,379.464172 
	C289.894470,367.459015 299.954559,355.341400 310.172668,343.358398 
	C320.824097,330.867188 331.638092,318.514679 342.302460,306.034454 
	C355.225769,290.910736 368.074432,275.723175 380.938812,260.549194 
	C384.983826,255.778030 388.975433,250.961578 392.991486,246.165878 
	C422.553375,246.112839 452.115295,246.050766 481.677185,246.011307 
	C493.137909,245.996002 504.598694,246.031860 516.523804,246.105728 
z"/>
<path fill="#FFD53D" opacity="1.000000" stroke="none" 
	d="
M845.996765,742.166870 
	C865.791016,742.166870 885.585205,742.166870 905.743530,742.166870 
	C905.830933,743.648071 905.988831,745.081970 905.989502,746.515930 
	C906.003418,775.828674 906.553711,805.155212 905.820312,834.449646 
	C905.253052,857.108154 897.638550,877.456787 882.619934,895.038208 
	C864.620605,916.109070 841.446777,928.949036 816.286316,939.024475 
	C793.238342,948.253906 769.182556,953.911865 744.964355,958.825989 
	C734.606079,960.927856 724.003296,962.244629 713.449524,962.870911 
	C694.474548,963.996887 675.449829,964.886230 656.451416,964.789551 
	C645.229919,964.732483 633.882385,963.317017 622.832703,961.233154 
	C602.034912,957.311035 581.411682,952.462708 560.715210,948.002747 
	C560.231567,947.898560 559.739319,947.834717 559.366211,947.235107 
	C563.017578,944.237793 566.573669,941.785278 570.086914,939.273010 
	C602.241516,916.280029 634.369385,893.249573 666.544128,870.284973 
	C691.419800,852.530212 716.376343,834.888855 741.251953,817.133911 
	C770.857910,796.002747 800.415955,774.804565 829.993835,753.634094 
	C835.330261,749.814575 840.662598,745.989441 845.996765,742.166870 
M785.433899,883.080261 
	C793.958679,888.435059 803.446167,889.301331 812.886658,887.487854 
	C833.514221,883.525391 848.132751,863.889282 847.252380,842.898987 
	C846.252502,819.059204 824.550415,798.136414 798.336487,802.185730 
	C776.798096,805.512756 759.072205,826.776306 762.912598,850.714783 
	C765.206726,865.015442 772.278809,875.685059 785.433899,883.080261 
z"/>
<path fill="#FFE05E" opacity="1.000000" stroke="none" 
	d="
M445.091492,806.460449 
	C449.864288,803.379150 454.848816,801.167603 459.210693,798.077148 
	C486.468811,778.765076 513.585266,759.253052 540.753418,739.813904 
	C572.381653,717.183472 604.003174,694.543640 635.649536,671.938599 
	C659.723389,654.742737 683.841248,637.608459 707.922180,620.422363 
	C743.231995,595.222473 778.519714,569.991577 813.829407,544.791382 
	C840.616638,525.673523 867.438110,506.603577 894.217590,487.474854 
	C925.728333,464.966431 957.189270,442.388184 988.711365,419.895630 
	C1013.741638,402.035309 1038.847656,384.281128 1063.889526,366.436951 
	C1081.756348,353.705597 1099.570801,340.900635 1117.414307,328.136627 
	C1119.158203,326.889191 1120.942993,325.699280 1122.881470,324.182495 
	C1127.373169,337.634277 1131.692139,351.386261 1135.669189,365.560730 
	C1133.344482,366.711517 1131.091064,367.055328 1129.421753,368.229431 
	C1116.778320,377.122070 1104.266235,386.201080 1091.681274,395.177277 
	C1062.448242,416.027466 1033.184814,436.835022 1003.956726,457.692169 
	C969.182678,482.506958 934.442505,507.369232 899.669373,532.185425 
	C872.742310,551.402161 845.775879,570.563782 818.847351,589.778442 
	C783.530151,614.978882 748.239502,640.216614 712.924683,665.420471 
	C688.840393,682.609192 664.718567,699.745300 640.641968,716.944885 
	C608.856506,739.651550 577.097778,762.395752 545.329712,785.126831 
	C523.024780,801.086548 500.754974,817.095459 478.406311,832.993713 
	C468.406158,840.107483 458.251129,847.003540 448.166443,853.998474 
	C447.110748,846.116272 445.648499,838.261475 445.114685,830.344116 
	C444.590607,822.570435 445.010010,814.733215 445.091492,806.460449 
z"/>
<path fill="#646464" opacity="1.000000" stroke="none" 
	d="
M634.153015,1479.617432 
	C634.040344,1382.172974 634.020813,1285.189209 634.003052,1188.205444 
	C633.999451,1168.208740 634.052856,1148.211670 633.949646,1128.215454 
	C633.933960,1125.173950 634.570557,1123.453979 637.847473,1122.479858 
	C649.793884,1118.927979 661.636108,1115.025513 674.007935,1111.099731 
	C674.007935,1165.201660 674.007935,1218.639038 674.007935,1272.808350 
	C679.297852,1269.584106 683.936584,1266.545532 688.767456,1263.851318 
	C704.151672,1255.271362 720.537231,1249.856079 738.129456,1247.928467 
	C752.070862,1246.401001 765.764160,1246.201416 779.254272,1250.915649 
	C797.893555,1257.429321 810.190857,1270.423340 817.905823,1288.134521 
	C822.587952,1298.883179 823.993652,1310.308472 823.995605,1321.938599 
	C824.003845,1372.763672 823.999023,1423.588623 823.998962,1474.413696 
	C823.998962,1476.379150 823.998962,1478.344482 823.998962,1480.652832 
	C810.634338,1480.652832 797.723694,1480.652832 784.000000,1480.652832 
	C784.000000,1478.749023 784.000000,1476.830078 784.000000,1474.911255 
	C784.000000,1427.085693 783.923523,1379.260010 784.042053,1331.434814 
	C784.082703,1315.031250 779.779358,1300.110352 769.518921,1287.278442 
	C763.860107,1280.201416 755.916199,1276.468506 747.005676,1275.020386 
	C729.914612,1272.243042 714.991089,1278.867432 700.441589,1286.352417 
	C692.557190,1290.408447 685.232300,1295.538940 677.490234,1299.891724 
	C674.543579,1301.548218 673.935791,1303.648926 673.943726,1306.748779 
	C674.032898,1341.409546 674.000000,1376.070557 674.000000,1410.731567 
	C673.999939,1432.061401 674.000000,1453.391357 674.000000,1474.721191 
	C674.000000,1476.537720 674.000000,1478.354248 674.000000,1481.000000 
	C670.778381,1481.000000 667.858887,1481.000000 664.939392,1481.000000 
	C656.274170,1480.999878 647.608459,1481.045166 638.944092,1480.958374 
	C637.375549,1480.942627 635.812378,1480.385376 634.153015,1479.617432 
z"/>
<path fill="#3E7BAC" opacity="1.000000" stroke="none" 
	d="
M848.947754,32.642857 
	C840.062988,43.316673 830.955627,53.628174 821.988953,64.060539 
	C811.609558,76.136589 801.358704,88.323059 791.043274,100.454216 
	C780.299011,113.089783 769.551147,125.722313 758.792053,138.345291 
	C750.290710,148.319244 741.751587,158.261032 733.262695,168.245560 
	C722.734375,180.628922 712.250549,193.050125 701.728027,205.438370 
	C695.284241,213.024719 688.541565,220.376953 682.455505,228.238785 
	C679.606750,231.918777 677.994507,236.555923 675.494019,240.872467 
	C675.166199,233.529236 675.166199,226.072830 675.166199,217.976410 
	C639.043335,217.976410 603.480957,217.976410 567.453979,217.904861 
	C567.589355,210.811462 573.410217,207.148682 577.294128,202.374069 
	C587.766052,189.500702 598.652527,176.963409 609.426331,164.336975 
	C619.987244,151.960007 630.633362,139.655823 641.202637,127.285995 
	C651.877563,114.792496 662.498352,102.252777 673.153625,89.742401 
	C681.657532,79.757896 690.192444,69.799698 698.686646,59.806942 
	C709.221924,47.413036 719.708435,34.977699 730.259216,22.597076 
	C734.353882,17.792295 738.379883,12.902366 742.823608,8.435742 
	C744.449097,6.801982 747.193726,6.281693 749.767456,5.102422 
	C777.810547,7.253636 805.423523,10.051555 830.898254,22.504980 
	C837.003845,25.489704 842.831787,29.042444 848.947754,32.642857 
z"/>
<path fill="#FFDA4B" opacity="1.000000" stroke="none" 
	d="
M845.533264,742.094482 
	C840.662598,745.989441 835.330261,749.814575 829.993835,753.634094 
	C800.415955,774.804565 770.857910,796.002747 741.251953,817.133911 
	C716.376343,834.888855 691.419800,852.530212 666.544128,870.284973 
	C634.369385,893.249573 602.241516,916.280029 570.086914,939.273010 
	C566.573669,941.785278 563.017578,944.237793 559.178345,946.881714 
	C550.832153,944.350525 542.494202,942.304016 534.814026,938.811279 
	C522.828064,933.360413 511.109619,927.245850 499.633087,920.781738 
	C493.760590,917.474121 488.659424,912.797119 483.301056,908.157227 
	C497.987793,897.452576 512.685364,887.473511 527.158020,877.178284 
	C561.125671,853.015442 594.974487,828.685608 628.892883,804.453491 
	C655.380493,785.530212 681.926758,766.688660 708.344666,747.668518 
	C710.016296,746.465088 710.800415,744.028931 711.997375,742.166199 
	C739.573853,742.111267 767.150391,742.042236 794.726868,742.006714 
	C811.507812,741.985107 828.288818,742.015198 845.533264,742.094482 
z"/>
<path fill="#FFD949" opacity="1.000000" stroke="none" 
	d="
M1151.051392,450.887817 
	C1151.364014,451.405457 1151.940796,451.917908 1151.951172,452.441528 
	C1152.332397,471.684601 1152.841919,490.928314 1152.890137,510.173035 
	C1152.905151,516.159058 1151.651611,522.148254 1150.550781,528.582275 
	C1148.376099,529.934082 1146.489868,530.644043 1144.903809,531.775024 
	C1127.457642,544.214417 1110.088867,556.762390 1092.639282,569.197021 
	C1062.470337,590.695557 1032.232788,612.098022 1002.072327,633.608826 
	C969.750305,656.661316 937.455811,679.752747 905.225403,702.933167 
	C900.596863,706.262024 896.395752,710.185242 891.996826,713.833374 
	C856.639526,713.883789 821.282166,713.934265 785.529663,713.579529 
	C785.770813,712.442871 786.292725,711.551147 787.060059,711.003052 
	C815.995911,690.333801 844.958130,669.701660 873.908691,649.053040 
	C912.057983,621.843445 950.193481,594.614502 988.347595,567.411621 
	C1038.678223,531.527100 1089.026978,495.668152 1139.347046,459.768829 
	C1143.332153,456.925720 1147.153809,453.853546 1151.051392,450.887817 
z"/>
<path fill="#646464" opacity="1.000000" stroke="none" 
	d="
M1057.305908,1427.313232 
	C1046.613525,1448.780518 1031.918823,1466.004517 1010.253662,1476.254639 
	C991.621399,1485.069824 971.977966,1487.341064 951.432617,1485.235840 
	C934.759155,1483.527588 919.531433,1478.533447 906.048828,1468.870361 
	C888.408325,1456.227417 876.455383,1439.027222 868.506409,1418.979248 
	C862.511963,1403.860718 860.013367,1388.109497 858.814575,1371.884766 
	C856.831787,1345.048096 861.076660,1319.695679 874.088440,1296.092529 
	C877.628662,1289.670654 882.051575,1283.641724 886.691589,1277.938599 
	C897.508545,1264.643433 910.889648,1254.457397 927.230835,1249.137207 
	C936.508728,1246.116455 946.321411,1244.041382 956.035339,1243.219116 
	C970.899719,1241.960938 985.756531,1243.084351 1000.094055,1248.072021 
	C1019.932800,1254.973267 1035.563599,1267.387085 1048.028076,1284.071533 
	C1060.627441,1300.936279 1067.725098,1319.911377 1070.113403,1340.773682 
	C1073.532959,1370.644775 1070.772217,1399.578247 1057.305908,1427.313232 
M989.173584,1455.886597 
	C1005.110474,1448.385132 1014.606079,1435.312500 1019.986389,1419.127808 
	C1028.190308,1394.449463 1029.380859,1369.037842 1027.107300,1343.291382 
	C1025.786621,1328.335449 1021.618652,1314.448975 1014.741211,1301.055786 
	C1005.363892,1282.794312 983.296814,1267.744507 957.812683,1270.910889 
	C936.811279,1273.520142 921.692444,1284.227173 912.079712,1302.842896 
	C903.791504,1318.893555 901.401794,1336.498169 901.299561,1354.083130 
	C901.209900,1369.498901 902.714966,1385.095337 905.301208,1400.308350 
	C908.053711,1416.498779 914.502197,1431.731689 925.748718,1444.090576 
	C942.042664,1461.996094 965.698120,1464.947388 989.173584,1455.886597 
z"/>
<path fill="#646464" opacity="1.000000" stroke="none" 
	d="
M1195.935791,1243.994629 
	C1224.280029,1240.694092 1251.118408,1243.024902 1273.818359,1261.532349 
	C1285.428955,1270.998535 1292.791504,1283.872314 1292.872437,1299.225098 
	C1293.184326,1358.378418 1292.999268,1417.534302 1292.990112,1476.689209 
	C1292.989990,1477.843750 1292.875610,1478.998413 1292.792480,1480.573364 
	C1280.008179,1480.573364 1267.313965,1480.573364 1254.000000,1480.573364 
	C1254.000000,1478.524658 1254.000000,1476.579224 1254.000000,1474.633667 
	C1254.000000,1426.143311 1254.191040,1377.651489 1253.827271,1329.163940 
	C1253.760254,1320.230347 1252.563232,1310.969727 1249.941406,1302.459595 
	C1244.121094,1283.567261 1229.814941,1273.476929 1210.969116,1270.140747 
	C1188.630127,1266.186279 1168.256226,1272.240356 1149.276489,1284.083374 
	C1146.052368,1286.095215 1144.907349,1288.294678 1144.914917,1292.088501 
	C1145.036377,1352.909546 1145.000732,1413.730835 1145.000610,1474.552124 
	C1145.000610,1476.505127 1145.000488,1478.458008 1145.000488,1480.701904 
	C1131.537842,1480.701904 1118.627686,1480.701904 1104.999512,1480.701904 
	C1104.999512,1478.640381 1104.999634,1476.708740 1104.999634,1474.776978 
	C1104.999634,1412.122803 1105.051514,1349.468384 1104.879028,1286.814697 
	C1104.867920,1282.771362 1106.288818,1280.373047 1109.321899,1278.326538 
	C1124.529053,1268.066162 1140.015991,1258.068359 1157.579834,1252.526367 
	C1169.885376,1248.643555 1182.824707,1246.769531 1195.935791,1243.994629 
z"/>
<path fill="#FFDC53" opacity="1.000000" stroke="none" 
	d="
M1151.027100,450.441010 
	C1147.153809,453.853546 1143.332153,456.925720 1139.347046,459.768829 
	C1089.026978,495.668152 1038.678223,531.527100 988.347595,567.411621 
	C950.193481,594.614502 912.057983,621.843445 873.908691,649.053040 
	C844.958130,669.701660 815.995911,690.333801 787.060059,711.003052 
	C786.292725,711.551147 785.770813,712.442871 785.066284,713.503845 
	C762.640808,713.883362 740.283508,713.933411 717.528748,713.576172 
	C719.133179,711.525146 721.049072,709.761353 723.149780,708.255371 
	C768.254517,675.921753 813.354248,643.581177 858.508240,611.316589 
	C908.531128,575.572998 958.615906,539.916077 1008.657654,504.198792 
	C1050.583618,474.274017 1092.475098,444.300751 1134.421753,414.404877 
	C1137.732300,412.045441 1141.355225,410.124268 1144.833130,407.999451 
	C1145.823486,412.508911 1147.122925,416.976562 1147.739868,421.536530 
	C1149.019653,430.996429 1149.936646,440.505402 1151.027100,450.441010 
z"/>
<path fill="#FFD53D" opacity="1.000000" stroke="none" 
	d="
M892.460327,713.908997 
	C896.395752,710.185242 900.596863,706.262024 905.225403,702.933167 
	C937.455811,679.752747 969.750305,656.661316 1002.072327,633.608826 
	C1032.232788,612.098022 1062.470337,590.695557 1092.639282,569.197021 
	C1110.088867,556.762390 1127.457642,544.214417 1144.903809,531.775024 
	C1146.489868,530.644043 1148.376099,529.934082 1150.478027,529.012634 
	C1149.870483,536.401001 1149.664429,544.002136 1147.800293,551.172119 
	C1142.570801,571.286621 1137.344482,591.450439 1130.825439,611.167908 
	C1123.928467,632.029114 1115.588379,652.403870 1103.045288,670.746338 
	C1090.631470,688.899536 1074.922729,702.986206 1053.638062,709.558655 
	C1045.648682,712.025696 1037.077271,713.732178 1028.753662,713.805847 
	C983.480042,714.206543 938.200989,713.989197 892.460327,713.908997 
z"/>
<path fill="#FFDF5A" opacity="1.000000" stroke="none" 
	d="
M448.093262,854.383423 
	C458.251129,847.003540 468.406158,840.107483 478.406311,832.993713 
	C500.754974,817.095459 523.024780,801.086548 545.329712,785.126831 
	C577.097778,762.395752 608.856506,739.651550 640.641968,716.944885 
	C664.718567,699.745300 688.840393,682.609192 712.924683,665.420471 
	C748.239502,640.216614 783.530151,614.978882 818.847351,589.778442 
	C845.775879,570.563782 872.742310,551.402161 899.669373,532.185425 
	C934.442505,507.369232 969.182678,482.506958 1003.956726,457.692169 
	C1033.184814,436.835022 1062.448242,416.027466 1091.681274,395.177277 
	C1104.266235,386.201080 1116.778320,377.122070 1129.421753,368.229431 
	C1131.091064,367.055328 1133.344482,366.711517 1135.722656,365.971985 
	C1137.649658,372.046295 1139.181641,378.131775 1140.441895,384.673096 
	C1136.095215,387.984161 1131.995483,390.805115 1127.948853,393.699982 
	C1091.856812,419.519196 1055.799683,445.387177 1019.680603,471.168427 
	C991.810486,491.061615 963.826721,510.795593 935.964050,530.699097 
	C890.657532,563.063354 845.440552,595.552856 800.125366,627.904907 
	C765.223572,652.822571 730.206116,677.578186 695.301392,702.491821 
	C690.355347,706.022034 685.757812,710.040588 680.998962,713.833130 
	C679.563110,713.918213 678.127197,714.003296 676.240601,714.115051 
	C676.157043,715.413452 676.069092,716.779724 675.529419,718.575623 
	C672.964294,719.851624 670.603333,720.340393 668.778564,721.603760 
	C658.679321,728.595642 648.693787,735.752563 638.700500,742.896545 
	C606.966370,765.582336 575.253174,788.297363 543.518005,810.981689 
	C520.154785,827.681763 496.802185,844.396851 473.372162,861.002686 
	C467.446411,865.202576 461.242798,869.010315 455.166870,872.998291 
	C452.784637,866.921692 450.402374,860.845032 448.093262,854.383423 
z"/>
<path fill="#646464" opacity="1.000000" stroke="none" 
	d="
M553.093567,1249.000000 
	C565.532349,1249.000000 577.481934,1249.000000 589.711304,1249.000000 
	C589.711304,1257.484863 589.711304,1265.395996 589.711304,1273.827759 
	C575.302063,1273.827759 561.051697,1273.827759 546.264221,1273.827759 
	C546.161255,1276.074341 546.010681,1277.834229 546.010193,1279.594238 
	C545.997437,1327.588257 545.780884,1375.584473 546.224060,1423.574341 
	C546.294739,1431.226440 548.299927,1439.281860 551.249390,1446.387573 
	C555.684326,1457.072144 566.138184,1459.936646 576.487549,1461.936768 
	C580.675232,1462.746094 584.979492,1462.952637 589.948547,1463.514771 
	C589.948547,1469.613770 590.130859,1475.889282 589.765991,1482.133057 
	C589.706421,1483.152466 587.258728,1484.809570 585.869263,1484.857788 
	C564.961426,1485.583252 544.407471,1484.078369 526.884705,1470.942017 
	C516.618103,1463.245728 510.586731,1452.480347 508.086823,1439.914551 
	C507.289398,1435.906128 507.049652,1431.729614 507.044006,1427.629517 
	C506.976318,1378.635620 507.000946,1329.641602 507.001404,1280.647705 
	C507.001404,1278.674316 507.001373,1276.700928 507.001373,1274.218628 
	C498.017151,1274.218628 489.432159,1274.218628 480.425781,1274.218628 
	C480.425781,1265.679565 480.425781,1257.649170 480.425781,1249.093750 
	C489.111908,1249.093750 497.696411,1249.093750 507.001343,1249.093750 
	C507.001343,1246.820068 507.001312,1245.056763 507.001343,1243.293457 
	C507.001495,1224.962402 507.098114,1206.630371 506.916138,1188.301147 
	C506.881927,1184.854614 507.993591,1183.379272 511.215851,1182.290039 
	C522.551453,1178.458130 533.771912,1174.285767 545.691772,1170.007324 
	C545.691772,1196.207642 545.691772,1222.206909 545.691772,1249.000000 
	C548.429810,1249.000000 550.517151,1249.000000 553.093567,1249.000000 
z"/>
<path fill="#4A8ABD" opacity="1.000000" stroke="none" 
	d="
M392.527222,246.101807 
	C388.975433,250.961578 384.983826,255.778030 380.938812,260.549194 
	C368.074432,275.723175 355.225769,290.910736 342.302460,306.034454 
	C331.638092,318.514679 320.824097,330.867188 310.172668,343.358398 
	C299.954559,355.341400 289.894470,367.459015 279.702118,379.464172 
	C269.292847,391.724792 258.787598,403.903870 248.359970,416.148956 
	C235.784698,430.916077 223.416763,445.865356 210.570404,460.392059 
	C207.461212,463.907898 205.741913,469.393494 199.515427,469.993713 
	C199.432022,466.248932 199.597427,462.489410 200.029785,458.760864 
	C201.895279,442.673218 203.416733,426.529633 205.879272,410.532013 
	C208.106369,396.064026 211.392303,381.759033 214.890869,367.129364 
	C219.827316,362.304626 224.214798,357.846405 228.315796,353.138641 
	C239.113327,340.743591 249.822769,328.271240 260.499512,315.771759 
	C273.329956,300.750916 286.147461,285.718201 298.850616,270.589905 
	C303.399963,265.171997 307.599854,259.460632 311.959229,253.883194 
	C319.907257,251.922363 327.771484,248.821503 335.820129,248.229996 
	C354.520447,246.855728 373.309753,246.692062 392.527222,246.101807 
z"/>
<path fill="#FFE772" opacity="1.000000" stroke="none" 
	d="
M1091.918945,274.578125 
	C1065.568237,293.799744 1039.089233,312.708649 1012.616272,331.625977 
	C985.999634,350.645966 959.398010,369.687042 932.751099,388.664551 
	C931.312195,389.689270 929.515930,390.212036 927.526001,390.982849 
	C930.338562,378.572845 933.086121,366.148346 933.092773,353.156250 
	C933.105103,328.938782 933.713928,304.722137 933.977966,280.504089 
	C934.101074,269.208984 933.998962,257.911469 933.998962,245.998520 
	C935.971558,245.998520 937.730896,245.998520 939.490234,245.998535 
	C966.947998,245.998718 994.408630,245.752991 1021.862549,246.078568 
	C1043.040894,246.329697 1062.830566,251.892349 1080.349243,264.154907 
	C1084.493408,267.055756 1087.995850,270.873291 1091.918945,274.578125 
z"/>
<path fill="#FFDE56" opacity="1.000000" stroke="none" 
	d="
M455.192383,873.354614 
	C461.242798,869.010315 467.446411,865.202576 473.372162,861.002686 
	C496.802185,844.396851 520.154785,827.681763 543.518005,810.981689 
	C575.253174,788.297363 606.966370,765.582336 638.700500,742.896545 
	C648.693787,735.752563 658.679321,728.595642 668.778564,721.603760 
	C670.603333,720.340393 672.964294,719.851624 675.455383,719.002075 
	C675.833008,726.425964 675.833008,733.853149 675.833008,742.020996 
	C687.767883,742.020996 699.419067,742.020996 711.533813,742.093628 
	C710.800415,744.028931 710.016296,746.465088 708.344666,747.668518 
	C681.926758,766.688660 655.380493,785.530212 628.892883,804.453491 
	C594.974487,828.685608 561.125671,853.015442 527.158020,877.178284 
	C512.685364,887.473511 497.987793,897.452576 483.171875,907.841553 
	C470.865082,898.933411 462.026611,887.140442 455.192383,873.354614 
z"/>
<path fill="#FFDE56" opacity="1.000000" stroke="none" 
	d="
M681.462402,713.908142 
	C685.757812,710.040588 690.355347,706.022034 695.301392,702.491821 
	C730.206116,677.578186 765.223572,652.822571 800.125366,627.904907 
	C845.440552,595.552856 890.657532,563.063354 935.964050,530.699097 
	C963.826721,510.795593 991.810486,491.061615 1019.680603,471.168427 
	C1055.799683,445.387177 1091.856812,419.519196 1127.948853,393.699982 
	C1131.995483,390.805115 1136.095215,387.984161 1140.501709,385.063904 
	C1142.215820,392.381592 1143.598389,399.764313 1144.906982,407.573242 
	C1141.355225,410.124268 1137.732300,412.045441 1134.421753,414.404877 
	C1092.475098,444.300751 1050.583618,474.274017 1008.657654,504.198792 
	C958.615906,539.916077 908.531128,575.572998 858.508240,611.316589 
	C813.354248,643.581177 768.254517,675.921753 723.149780,708.255371 
	C721.049072,709.761353 719.133179,711.525146 717.065369,713.501221 
	C705.308289,713.883362 693.617004,713.933228 681.462402,713.908142 
z"/>
<path fill="#498ABC" opacity="1.000000" stroke="none" 
	d="
M589.503357,5.921311 
	C589.123047,7.914893 588.753479,10.342548 587.409424,11.961061 
	C575.138000,26.738798 562.675415,41.357597 550.317078,56.063473 
	C545.853149,61.375282 541.520508,66.797325 536.717285,72.662567 
	C534.913574,73.572090 533.471985,73.870415 532.134644,74.421608 
	C508.710663,84.075844 497.253967,109.525475 507.507965,133.171768 
	C502.656403,139.628860 498.071259,146.308472 492.900879,152.499313 
	C479.848175,168.128220 466.555145,183.556931 453.299927,199.015717 
	C450.951294,201.754761 448.320618,204.251968 445.493286,206.925201 
	C445.112854,179.494980 444.476959,151.984573 445.224335,124.511787 
	C445.672302,108.045395 446.806732,91.526314 452.552887,75.587120 
	C459.224609,57.080433 471.200470,43.563889 487.776184,33.645596 
	C507.111420,22.076107 528.381836,16.016127 550.313721,12.044752 
	C563.174255,9.716000 576.142395,7.981757 589.503357,5.921311 
z"/>
<path fill="#3671A1" opacity="1.000000" stroke="none" 
	d="
M350.462402,713.899109 
	C354.414825,708.306458 358.716003,702.682251 363.271332,697.272034 
	C375.951874,682.211670 388.676025,667.186951 401.513092,652.260010 
	C406.556061,646.396057 411.944916,640.829529 417.504822,635.062622 
	C417.880524,660.457153 417.929321,685.916626 417.964905,711.376038 
	C417.965820,712.018860 417.821136,712.661926 417.665527,713.965210 
	C395.387787,713.965210 373.157440,713.965210 350.462402,713.899109 
z"/>
<path fill="#4C8DC0" opacity="1.000000" stroke="none" 
	d="
M311.568451,253.934326 
	C307.599854,259.460632 303.399963,265.171997 298.850616,270.589905 
	C286.147461,285.718201 273.329956,300.750916 260.499512,315.771759 
	C249.822769,328.271240 239.113327,340.743591 228.315796,353.138641 
	C224.214798,357.846405 219.827316,362.304626 215.220352,366.915588 
	C218.213562,356.117462 220.971710,345.055725 225.026886,334.491882 
	C232.519257,314.974060 244.378235,298.141205 259.674011,283.954254 
	C274.541199,270.164825 291.504974,259.668945 311.568451,253.934326 
z"/>
<path fill="#646464" opacity="1.000000" stroke="none" 
	d="
M1367.043823,1203.975098 
	C1367.043823,1193.208374 1367.043823,1182.938232 1367.043823,1172.173828 
	C1361.654297,1172.173828 1356.742310,1172.173828 1351.309082,1172.173828 
	C1351.199219,1169.996460 1351.113037,1168.288696 1351.011353,1166.273193 
	C1364.395142,1166.273193 1377.429199,1166.273193 1390.721680,1166.273193 
	C1390.721680,1168.148315 1390.721680,1169.735718 1390.721680,1171.812012 
	C1385.688843,1171.812012 1380.768433,1171.812012 1375.193604,1171.812012 
	C1375.193604,1186.293823 1375.193604,1200.310913 1375.193604,1214.655762 
	C1372.294189,1214.655762 1370.044800,1214.655762 1367.043823,1214.655762 
	C1367.043823,1211.318115 1367.043823,1207.894897 1367.043823,1203.975098 
z"/>
<path fill="#000000" opacity="1.000000" stroke="none" 
	d="
M76.200661,1454.948486 
	C64.814758,1449.718994 53.779007,1444.665283 42.920189,1439.256226 
	C41.485039,1438.541382 40.126724,1436.017944 40.121422,1434.327759 
	C39.972061,1386.704834 39.959335,1339.081055 40.144573,1291.458374 
	C40.152584,1289.399902 41.731949,1286.538452 43.462883,1285.426514 
	C55.073833,1277.968140 67.923531,1273.406494 81.463394,1271.094116 
	C91.643837,1269.355469 101.872833,1268.625366 112.235504,1270.849854 
	C127.321526,1274.088013 137.343292,1283.272217 144.223557,1296.488403 
	C151.958572,1311.346680 155.252060,1327.357910 155.970505,1343.947388 
	C156.472595,1355.541260 157.359238,1367.179688 156.836441,1378.742310 
	C156.069565,1395.703125 153.624466,1412.462158 146.011703,1428.035889 
	C133.713104,1453.195557 108.416817,1462.041870 83.291893,1456.554810 
	C81.057617,1456.066772 78.834373,1455.528320 76.200661,1454.948486 
z"/>
<path fill="#000000" opacity="1.000000" stroke="none" 
	d="
M507.718964,133.474640 
	C497.253967,109.525475 508.710663,84.075844 532.134644,74.421608 
	C533.471985,73.870415 534.913574,73.572090 536.650146,72.994652 
	C549.893127,70.448685 561.632568,73.130493 572.089050,81.056183 
	C574.315186,82.743561 576.225403,84.847870 578.581360,86.899712 
	C584.892151,96.221161 589.749023,105.917564 588.932068,117.231491 
	C587.419678,138.177551 572.826965,155.379242 551.380127,158.043823 
	C531.969971,160.455399 515.518555,149.789810 507.718964,133.474640 
z"/>
<path fill="#000000" opacity="1.000000" stroke="none" 
	d="
M785.056763,883.020813 
	C772.278809,875.685059 765.206726,865.015442 762.912598,850.714783 
	C759.072205,826.776306 776.798096,805.512756 798.336487,802.185730 
	C824.550415,798.136414 846.252502,819.059204 847.252380,842.898987 
	C848.132751,863.889282 833.514221,883.525391 812.886658,887.487854 
	C803.446167,889.301331 793.958679,888.435059 785.056763,883.020813 
z"/>
<path fill="#000000" opacity="1.000000" stroke="none" 
	d="
M988.786316,1455.934570 
	C965.698120,1464.947388 942.042664,1461.996094 925.748718,1444.090576 
	C914.502197,1431.731689 908.053711,1416.498779 905.301208,1400.308350 
	C902.714966,1385.095337 901.209900,1369.498901 901.299561,1354.083130 
	C901.401794,1336.498169 903.791504,1318.893555 912.079712,1302.842896 
	C921.692444,1284.227173 936.811279,1273.520142 957.812683,1270.910889 
	C983.296814,1267.744507 1005.363892,1282.794312 1014.741211,1301.055786 
	C1021.618652,1314.448975 1025.786621,1328.335449 1027.107300,1343.291382 
	C1029.380859,1369.037842 1028.190308,1394.449463 1019.986389,1419.127808 
	C1014.606079,1435.312500 1005.110474,1448.385132 988.786316,1455.934570 
z"/>
</svg>